<?xml version="1.0" encoding="utf-8"?>
<!-- Generator: Adobe Illustrator 27.9.0, SVG Export Plug-In . SVG Version: 6.00 Build 0)  -->
<svg version="1.1" id="Layer_1" xmlns="http://www.w3.org/2000/svg" xmlns:xlink="http://www.w3.org/1999/xlink" x="0px" y="0px"
	 viewBox="0 0 1000 355.6" style="enable-background:new 0 0 1000 355.6;" xml:space="preserve">
<style type="text/css">
	.st0{fill:#00BBDB;stroke:#000000;}
	.st1{fill:#333333;stroke:#000000;stroke-width:0.93;}
	.st2{fill:#333333;stroke:#000000;stroke-width:0.96;}
	.st3{fill:#333333;stroke:#000000;stroke-width:0.85;}
	.st4{fill:#1A1A1A;stroke:#000000;}
	.st5{fill:#333333;stroke:#000000;}
	.st6{fill:#1A1A1A;stroke:#1A1A1A;}
	.st7{fill:#1A1A1A;stroke:#4D4D4D;}
	.st8{stroke:#4D4D4D;}
	.st9{stroke:#000000;}
</style>
<g id="g344">
	<path id="path66-7" d="M906.6,6.5v7.9c0,3.6-2.9,6.4-6.5,6.5H71.2c-3.6,0-6.4-2.9-6.5-6.5V6.5c0-3.6,2.9-6.4,6.5-6.5L207,0
		c4.9,0,9.6,1.2,14,3.4l13,6.7h79.2l13-6.7c4.3-2.2,9.1-3.4,13.9-3.4l269.7,0c4.9,0,9.6,1.2,14,3.4l13,6.7H716l13-6.7
		c4.3-2.2,9.1-3.4,13.9-3.4l157.2,0C903.7,0,906.6,2.9,906.6,6.5L906.6,6.5L906.6,6.5z M65.7,14.4c0,3,2.4,5.5,5.5,5.5h828.9
		c3,0,5.5-2.4,5.5-5.5V6.5c0-3-2.4-5.5-5.5-5.5H742.9c-4.7,0-9.3,1.1-13.5,3.3l-13.1,6.8c-0.1,0-0.2,0.1-0.2,0.1h-79.5
		c-0.1,0-0.2,0-0.2-0.1l-13.1-6.8c-4.2-2.2-8.8-3.3-13.5-3.3H340.1c-4.7,0-9.3,1.1-13.5,3.3l-13.1,6.8c-0.1,0-0.2,0.1-0.2,0.1h-79.5
		c-0.1,0-0.2,0-0.2-0.1l-13.1-6.8C216.3,2.1,211.7,1,207,1L71.2,1c-3,0-5.5,2.4-5.5,5.5L65.7,14.4L65.7,14.4z"/>
	<path id="path68-5" d="M858.9,20.3v11.2c0,0.3-0.2,0.5-0.5,0.5H72c-0.3,0-0.5-0.2-0.5-0.5V20.3c0-0.3,0.2-0.5,0.5-0.5h786.4
		C858.7,19.8,858.9,20,858.9,20.3z M857.9,31V20.8H72.5V31H857.9z"/>
	<path id="path70-3" d="M1000,37.5v106.2c0,117-94.8,211.9-211.9,211.9l0,0H220.9c-116.8,0-211.8-95.1-211.8-211.9V37.5
		c0-3.6,2.9-6.5,6.5-6.5h978C997.1,31,1000,33.9,1000,37.5L1000,37.5L1000,37.5z M10.1,143.7c0,116.3,94.6,210.9,210.8,210.9h567.2
		C904.4,354.6,999,260,999,143.7V37.5c0-3-2.4-5.5-5.5-5.5h-978c-3,0-5.5,2.4-5.5,5.5v106.2L10.1,143.7L10.1,143.7z"/>
	<path id="path98" d="M717.1,6.5v4.2c0,0.6-0.4,1-1,1l0,0h-79.5c-0.6,0-1-0.4-1-1V6.5c0-3.8,3.1-6.9,7-7h67.6
		C714-0.5,717.1,2.6,717.1,6.5z M715.1,9.7V6.5c0-2.7-2.2-5-5-5h-67.6c-2.7,0-5,2.2-5,5v3.2H715.1z"/>
	<path id="path100" d="M314.3,6.5v4.2c0,0.6-0.4,1-1,1h-79.5c-0.6,0-1-0.4-1-1V6.5c0-3.8,3.1-6.9,7-7h67.6
		C311.2-0.5,314.3,2.6,314.3,6.5z M312.3,9.7V6.5c0-2.7-2.2-5-5-5h-67.6c-2.7,0-5,2.2-5,5v3.2H312.3z"/>
	<path id="path1144" class="st0" d="M997.9,162.4c-3,26.2-8.5,49.9-21,75.1c-10.9,21.9-25.7,41.1-42.5,57.5
		c-33.2,32.3-77.8,53.7-126.7,59c-3.4,0.4-30.5,0.1-72.2,0.3c-158.5,1.1-520.6,0.9-534.4-0.5c-17.7-1.8-36.5-6.1-52.4-12
		c-7.5-2.8-15.8-7.1-23.1-10.7C61.8,299.6,21.2,238.8,12,168.6C9.6,150.4,8.7,35.5,11,33.1c0.1-0.1,2.3-0.9,7-1
		c11.1-0.4,36-0.4,79.4-1.3c32.7-0.7,76.3,0,132.5-0.1c70.3-0.2,160.2,1.6,274.8,1.6c484.5,0,491.2-1.4,492.4,0.9
		c0.2,0.3,1.7,2.5,1.8,5.3c1.1,21.9-0.5,119.2-0.7,120.6L997.9,162.4L997.9,162.4z"/>
	<polygon id="polygon80" class="st1" points="470.2,195 470.2,168.3 448.1,181.7 	"/>
	<polygon id="polygon82" class="st2" points="627.3,181.3 605.6,194.1 605.6,168.5 	"/>
	<polygon id="polygon84" class="st1" points="538.1,271.6 551.5,249.7 524.7,249.7 	"/>
	<polygon id="polygon86" class="st3" points="551.6,114.8 524.1,114.8 537.9,89.2 	"/>
	<path id="path102" d="M139.3,338.3c0,0.3-0.1,0.5-0.3,0.7l-3.4,3.4c-2,2-5.1,2.6-7.8,1.5C50.1,309.1,0.1,231.9,0,146.7l0-51.2
		c0-3.8,3.1-6.9,7-7h2.6c0.6,0,1,0.4,1,1v54.2C10.5,228.2,61,304.5,138.7,337.4c0.3,0.1,0.5,0.4,0.6,0.7L139.3,338.3L139.3,338.3z
		 M2,146.7c0.1,84.4,49.7,160.9,126.7,195.4c1.9,0.8,4.1,0.4,5.5-1.1l2.4-2.4C58.8,305,8.5,228.3,8.6,143.6V90.4H7c-2.7,0-5,2.2-5,5
		L2,146.7L2,146.7z"/>
	<path id="path104" d="M116.1,60v46.9c0,2.2-1.8,4-4,4h-11.7c-2.2,0-4-1.8-4-4V60c0-2.2,1.8-4,4-4h11.7
		C114.3,56,116.1,57.8,116.1,60z M98.5,106.9c0,1.1,0.9,2,2,2h11.7c1.1,0,2-0.9,2-2V60c0-1.1-0.9-2-2-2h-11.7c-1.1,0-2,0.9-2,2
		V106.9z"/>
	<path id="path106" d="M502.9,181.7c0,21.2-17.2,38.5-38.5,38.5s-38.5-17.2-38.5-38.5s17.2-38.5,38.5-38.5S502.9,160.4,502.9,181.7
		L502.9,181.7z M428,181.7c0,20.1,16.3,36.5,36.5,36.5s36.5-16.3,36.5-36.5s-16.3-36.5-36.5-36.5S428,161.5,428,181.7L428,181.7z"/>
	<path id="path108" d="M649.8,181.7c0,21.2-17.2,38.5-38.5,38.5s-38.5-17.2-38.5-38.5s17.2-38.5,38.5-38.5S649.8,160.4,649.8,181.7
		L649.8,181.7z M574.9,181.7c0,20.1,16.3,36.5,36.5,36.5s36.5-16.3,36.5-36.5s-16.3-36.5-36.5-36.5l0,0
		C591.2,145.2,574.9,161.5,574.9,181.7L574.9,181.7z"/>
	<path id="path110" d="M576.3,108.2c0,21.2-17.2,38.5-38.5,38.5s-38.5-17.2-38.5-38.5s17.2-38.5,38.5-38.5l0,0
		C559.1,69.8,576.3,87,576.3,108.2z M501.4,108.2c0,20.1,16.3,36.5,36.5,36.5s36.5-16.3,36.5-36.5s-16.3-36.5-36.5-36.5l0,0
		C517.7,71.8,501.4,88.1,501.4,108.2L501.4,108.2L501.4,108.2z"/>
	<path id="path112" d="M576.3,255.1c0,21.2-17.2,38.5-38.5,38.5s-38.5-17.2-38.5-38.5s17.2-38.5,38.5-38.5l0,0
		C559.1,216.7,576.3,233.9,576.3,255.1z M501.4,255.1c0,20.1,16.3,36.5,36.5,36.5s36.5-16.3,36.5-36.5s-16.3-36.5-36.5-36.5l0,0
		C517.7,218.7,501.4,235,501.4,255.1L501.4,255.1L501.4,255.1z"/>
	<path id="path114" d="M753.7,105.5v45c0,5.5-4.4,9.9-9.9,9.9h-45c-5.5,0-9.9-4.4-9.9-9.9v-45c0-5.5,4.4-9.9,9.9-9.9h45
		C749.3,95.6,753.7,100.1,753.7,105.5z M690.9,150.5c0,4.4,3.6,7.9,7.9,7.9h45c4.4,0,7.9-3.6,7.9-7.9v-45c0-4.4-3.6-7.9-7.9-7.9h-45
		c-4.4,0-7.9,3.6-7.9,7.9V150.5z"/>
	<path id="path116" d="M741.7,128c0,11.3-9.2,20.4-20.4,20.4s-20.4-9.2-20.4-20.4s9.2-20.4,20.4-20.4l0,0
		C732.6,107.6,741.7,116.7,741.7,128z M702.8,128c0,10.2,8.3,18.4,18.4,18.4s18.4-8.3,18.4-18.4s-8.3-18.4-18.4-18.4
		S702.9,117.8,702.8,128z"/>
	<path id="path118" d="M260.2,244.8v12.3c0,0.6-0.4,1-1,1l0,0c-39.6-1.7-71.3-33.4-73-73c0-0.3,0.1-0.5,0.3-0.7s0.4-0.3,0.7-0.3
		h12.3c3.5,0,6.4,2.6,6.9,6c3.7,24.7,23.1,44.2,47.9,47.9C257.6,238.4,260.2,241.3,260.2,244.8L260.2,244.8z M258.2,256v-11.2
		c0-2.5-1.8-4.6-4.3-4.9c-25.6-3.9-45.7-24-49.6-49.6c-0.3-2.5-2.4-4.3-4.9-4.3h-11.2C190.3,223.4,220.8,253.9,258.2,256L258.2,256z
		"/>
	<path id="path120" d="M338.9,185L338.9,185c-1.7,39.6-33.4,71.3-73,73c-0.6,0-1-0.4-1-1v-12.3c0-3.5,2.6-6.4,6-6.9
		c24.7-3.7,44.2-23.1,47.9-47.9c0.5-3.4,3.4-6,6.9-6H338C338.5,184,338.9,184.5,338.9,185L338.9,185z M266.9,256
		c37.4-2.2,67.8-32.6,70-70h-11.2c-2.5,0-4.6,1.8-4.9,4.3c-3.9,25.6-24,45.7-49.6,49.6c-2.5,0.3-4.3,2.4-4.3,4.9V256L266.9,256z"/>
	<path id="path122" d="M338.9,178.3c0,0.6-0.4,1-1,1h-12.3c-3.5,0-6.4-2.6-6.9-6c-3.7-24.7-23.1-44.2-47.9-47.9
		c-3.4-0.5-6-3.4-6-6.9v-12.3c0-0.6,0.4-1,1-1l0,0C305.5,107,337.2,138.7,338.9,178.3L338.9,178.3L338.9,178.3z M266.9,118.6
		c0,2.5,1.8,4.6,4.3,4.9c25.6,3.9,45.7,24,49.6,49.6c0.3,2.5,2.4,4.3,4.9,4.3h11.2c-2.2-37.4-32.6-67.8-70-70V118.6z"/>
	<path id="path124" d="M260.2,106.3v12.3c0,3.5-2.6,6.4-6,6.9c-24.7,3.7-44.2,23.1-47.9,47.9c-0.5,3.4-3.4,6-6.9,6h-12.3
		c-0.3,0-0.5-0.1-0.7-0.3s-0.3-0.5-0.3-0.7c1.7-39.6,33.4-71.3,73-73C259.7,105.3,260.2,105.7,260.2,106.3L260.2,106.3L260.2,106.3z
		 M188.2,177.3h11.2c2.5,0,4.6-1.8,4.9-4.3c3.9-25.6,24-45.7,49.6-49.6c2.5-0.3,4.3-2.4,4.3-4.9v-11.2
		C220.8,109.5,190.3,140,188.2,177.3L188.2,177.3L188.2,177.3z"/>
	<path id="path126" d="M339,181.7c0,1.2,0,2.3-0.1,3.4c0,0.5-0.5,0.9-1,0.9h-12.3c-2.5,0-4.6,1.8-4.9,4.3
		c-3.9,25.6-24,45.7-49.6,49.6c-2.5,0.3-4.3,2.4-4.3,4.9v12.3c0,0.5-0.4,1-0.9,1c-1.1,0.1-2.2,0.1-3.4,0.1s-2.3,0-3.4-0.1
		c-0.5,0-0.9-0.5-0.9-1v-12.3c0-2.5-1.8-4.6-4.3-4.9c-25.6-3.9-45.7-24-49.6-49.6c-0.3-2.5-2.4-4.3-4.9-4.3h-12.3
		c-0.5,0-1-0.4-1-0.9c-0.1-2.3-0.1-4.5,0-6.8c0-0.5,0.5-0.9,1-0.9h12.3c2.5,0,4.6-1.8,4.9-4.3c3.9-25.6,24-45.7,49.6-49.6
		c2.5-0.3,4.3-2.4,4.3-4.9v-12.3c0-0.5,0.4-1,0.9-1c1.1-0.1,2.2-0.1,3.4-0.1s2.3,0,3.4,0.1c0.5,0,0.9,0.5,0.9,1v12.3
		c0,2.5,1.8,4.6,4.3,4.9c25.6,3.9,45.7,24,49.6,49.6c0.3,2.5,2.4,4.3,4.9,4.3h12.3c0.5,0,1,0.4,1,0.9C339,179.4,339,180.5,339,181.7
		L339,181.7z M337,184c0.1-1.5,0.1-3.1,0-4.7h-11.3c-3.5,0-6.4-2.6-6.9-6c-3.7-24.7-23.1-44.2-47.9-47.9c-3.4-0.5-6-3.4-6-6.9v-11.3
		h-4.6v11.4c0,3.5-2.6,6.4-6,6.9c-24.7,3.7-44.2,23.1-47.9,47.9c-0.5,3.4-3.4,6-6.9,6h-11.3c-0.1,1.5-0.1,3.1,0,4.7h11.3
		c3.5,0,6.4,2.6,6.9,6c3.7,24.7,23.1,44.2,47.9,47.9c3.4,0.5,6,3.4,6,6.9v11.3h4.6v-11.3c0-3.5,2.6-6.4,6-6.9
		c24.7-3.7,44.2-23.1,47.9-47.9c0.5-3.4,3.4-6,6.9-6L337,184L337,184z"/>
	<path id="path179" class="st4" d="M574.3,261.6c-3.2,14.7-12.7,24.9-27.1,29c-3.4,1-6.3,1.2-11.7,0.9c-6.5-0.3-7.8-0.7-13.5-3.5
		c-22.9-11.4-27.9-40.7-10-58.6c19.4-19.4,51.9-12,60.8,13.9C574.5,248.5,575.3,257.1,574.3,261.6L574.3,261.6L574.3,261.6z
		 M538,249c-7.3,0-13.4,0.2-13.4,0.4c0,0.9,13.2,23.3,13.5,23c0.7-0.7,13.1-22.2,13.2-22.8C551.3,249.2,545.4,249,538,249L538,249
		L538,249z"/>
	<path id="path181" class="st4" d="M500.6,187.1c-0.9,6.9-5,15-10.4,20.5c-14.5,14.6-36.9,14.6-51.4-0.1c-22.9-23-7-62.3,25.4-62.3
		c10.4,0,18.8,3.5,26,10.7C498.4,164.3,502.1,175.2,500.6,187.1L500.6,187.1L500.6,187.1z M469.9,168.5
		c-2.4,0.9-22.4,12.8-22.4,13.3c0,0.4,9,5.9,19.9,12l3.6,2v-13.9C471,169.7,470.9,168.1,469.9,168.5L469.9,168.5L469.9,168.5z"/>
	<path id="path185" class="st4" d="M647,190.4c-3.5,12.9-13.7,23.1-26.6,26.5c-22.7,5.9-45.2-11.6-45.3-35.2
		c0-7.4,0.9-11.3,4.5-18.1c8.8-16.9,30.4-23.9,47.9-15.4C643,155.8,651.4,173.9,647,190.4L647,190.4L647,190.4z M616.9,174.2
		c-6.3-3.6-11.6-6.5-11.8-6.3s-0.3,6.4-0.1,13.8l0.2,13.5l11.6-6.7c6.4-3.7,11.6-6.9,11.6-7.2C628.4,181.1,623.2,177.8,616.9,174.2
		L616.9,174.2z"/>
	<path id="path187" class="st4" d="M574.2,111.7c0,0.3-0.3,1.6-0.5,2.9c-2.2,11.2-9.7,20.9-20.1,26.2c-5.6,2.8-12.2,4.2-17.9,3.8
		c-14.8-1.1-27.7-11.3-32.5-25.6c-2.9-8.8-2.2-18,2.2-26.7s12.1-15.5,21.3-18.6c15.3-5.3,32.2,0.7,41.6,14.7c4,6,6.3,13.4,6.2,20.2
		C574.3,109.9,574.3,111.4,574.2,111.7L574.2,111.7L574.2,111.7z M551.1,112.4c-0.4-0.7-1.6-3-2.8-5.1c-4.8-8.7-9.2-15.6-10-16.2
		c-0.4-0.3-0.5-0.3-0.9,0c-1.3,0.9-13.5,21.5-13.5,22.9c0,0.3,0.1,0.6,0.2,0.7c0.5,0.4,4.8,0.6,13.9,0.6c9.1,0,13-0.2,13.5-0.6
		C551.9,114.3,551.8,113.8,551.1,112.4L551.1,112.4L551.1,112.4z"/>
	<path id="path189" class="st5" d="M739.1,131.6c-0.2,1-1,3-1.6,4.4c-1,2.1-1.6,2.9-3.5,4.8c-1.9,1.9-2.7,2.5-4.8,3.5
		c-5.5,2.7-10.6,2.7-16.1,0c-2.1-1-2.8-1.6-4.8-3.5c-3.6-3.6-5.3-7.7-5.3-12.7c0-8.4,5.7-15.7,13.9-17.8c2-0.5,6.2-0.5,8.3,0
		c6.3,1.5,11.5,6.3,13.4,12.7C739.4,125.4,739.6,129.2,739.1,131.6L739.1,131.6L739.1,131.6z"/>
	<path id="path191" class="st4" d="M751.3,152.4c-0.4,1.6-1.3,3-2.6,4.1c-2.1,1.8-0.9,1.7-27.4,1.7s-25.3,0.1-27.5-1.9
		c-0.7-0.6-1.5-1.7-1.9-2.5l-0.7-1.5v-48.3l0.9-1.8c0.6-1.3,1.2-2,2.1-2.7c2.3-1.8,1.3-1.7,27.8-1.6c23.8,0.1,23.9,0.1,25.1,0.6
		c1.6,0.7,3.1,2.3,3.9,3.9l0.7,1.3l0,23.8C751.6,145.6,751.5,151.4,751.3,152.4L751.3,152.4L751.3,152.4z M741.6,125.1
		c-1.5-10.6-10.7-18.1-21.4-17.5c-3.4,0.2-5.3,0.7-8.1,2c-9.3,4.6-13.7,15.5-10.2,25.3c1,2.8,2.2,4.7,4.3,7c2.8,3,6.3,5.1,10.3,6
		c2.2,0.5,7.2,0.5,9.4,0c3.9-0.9,7.4-3,10.2-6c2.1-2.2,3.3-4.2,4.3-6.7C741.7,131.9,742.1,128.5,741.6,125.1L741.6,125.1
		L741.6,125.1z"/>
	<path id="path1082" class="st6" d="M330.4,183.8c-6,0-6.5,0.1-7.9,0.7c-2.1,1.1-3.4,2.9-3.9,5.6c-2.7,15.1-10.1,27.5-21.9,36.5
		c-6.5,5-15.1,8.8-23.2,10.4c-4.3,0.8-5.7,1.4-7,3c-1.5,1.8-1.8,3.3-1.8,10v5.9h-4.2v-6.3c0-6.1,0-6.3-0.9-8
		c-1.2-2.4-2.7-3.3-7.3-4.2c-23.2-4.6-41-22.4-45.4-45.6c-0.8-4.2-1.6-5.6-3.8-6.9c-1.5-0.9-1.6-0.9-8.1-1l-6.6-0.1v-4.2h6.3
		c6.2,0,6.3,0,8-0.9c2.6-1.3,3.4-2.6,4.4-7.6c3.8-19.4,17-35.1,35.4-42.3c2.7-1,5.9-1.9,12-3.3c2.6-0.6,4.2-1.7,5.2-3.6
		c0.6-1.1,0.7-2,0.8-7.9l0.1-6.6h4.2v6.3c0,6.1,0,6.3,0.9,8c1.1,2.2,2.9,3.4,5.9,3.9c23.8,4.1,42.3,22.2,46.8,46
		c0.8,4.2,1.7,5.7,4.1,7c1.5,0.8,1.9,0.8,8,0.9l6.4,0.1v4.2L330.4,183.8L330.4,183.8z"/>
	<path id="path1084" class="st7" d="M257.3,255.8c-0.5-0.1-1.9-0.3-3.2-0.4c-3.9-0.4-10.1-1.7-14.8-3.3c-24.1-8-42.7-28.1-48.9-52.7
		c-0.8-3.1-1.6-7.6-1.9-11.3l-0.2-2h5.9c8.5,0,9.1,0.4,10.4,6.5c3.7,18.4,15.2,33.7,31.9,41.9c5.1,2.6,10.1,4.1,17,5.5
		c2.4,0.5,4,1.8,4.4,3.7c0.2,0.7,0.3,3.8,0.3,6.8v5.5L257.3,255.8L257.3,255.8z"/>
	<path id="path1086" class="st7" d="M336.4,189.8c-3,27-21.4,50.8-46.9,60.9c-6,2.4-13.4,4.2-18.7,4.7c-1.3,0.1-2.7,0.3-3.1,0.4
		l-0.8,0.2l0.1-6.3c0.1-5.8,0.2-6.4,0.8-7.2c1.2-1.6,2.2-2,6.2-2.9c5.8-1.2,9.4-2.4,14.8-5.2c5.7-2.9,9.8-5.7,14.2-9.9
		c9.1-8.6,15.2-19.7,17.5-31.7c0.7-3.6,1.2-4.6,2.7-5.8c0.8-0.6,1.4-0.7,7.2-0.8c5.9-0.1,6.3-0.1,6.3,0.5
		C336.7,187,336.6,188.4,336.4,189.8L336.4,189.8L336.4,189.8z"/>
	<path id="path1088" class="st7" d="M257.7,119.9c-0.9,2.4-1.6,2.8-6.5,3.8c-18.2,3.7-33.5,15.4-41.6,32c-2.4,4.8-3.7,8.6-4.7,13.5
		c-1,4.7-1.6,6.2-2.9,7.1c-1.1,0.7-1.4,0.7-7.4,0.7c-3.5,0-6.3-0.1-6.3-0.3s0.2-1.9,0.5-4c1.5-12,5.6-22.9,12.4-32.8
		c3-4.4,5.6-7.4,9.9-11.6c9.6-9.3,20.7-15.5,33.5-18.8c3.6-0.9,10.9-2.1,12.9-2.1c0.6,0,0.6,0.3,0.6,5.6
		C258.1,116.9,258,119.1,257.7,119.9L257.7,119.9L257.7,119.9z"/>
	<path id="path1090" class="st7" d="M330.5,177.3c-5.8-0.1-6.4-0.2-7.2-0.8c-1.6-1.2-2-2.2-2.9-6.3c-4.7-23.5-23.3-41.9-47-46.4
		c-3.5-0.7-4.5-1.1-5.6-2.7c-0.6-0.8-0.7-1.4-0.8-7.2l-0.1-6.3l1.7,0.2c10.5,1.2,18,3.3,26.4,7.5c22.6,11.2,38.1,32.9,41.3,58
		c0.3,2.1,0.5,3.9,0.5,4S333.9,177.3,330.5,177.3L330.5,177.3L330.5,177.3z"/>
	<path id="path1092" class="st4" d="M113.5,108c-0.6,0.5-1.8,0.7-7.2,0.7c-4.5,0-6.7-0.2-7-0.5c-0.4-0.4-0.5-6.4-0.5-24.6
		c0-21.3,0.1-24.2,0.7-24.8c0.6-0.5,1.8-0.7,7-0.7c6.1,0,6.4,0,7,1c0.6,0.8,0.7,3.9,0.7,24.6S114,107.4,113.5,108z"/>
	<path id="path1094" class="st8" d="M134.2,340.6c-2.8,2.4-3.7,2.2-12.6-2.3c-21.7-10.8-39.6-23.6-56.5-40.5
		c-31.4-31.4-52.2-71.6-59.8-115.3c-2.6-15.1-2.7-16.5-2.9-54L2.3,93.7l1.2-1.4c0.9-1,1.7-1.4,3-1.6l1.8-0.2l0.2,33.8
		c0.2,36.2,0.3,38.8,2.7,53.3c6.2,38.4,22,72.9,47.3,103.3c5.7,6.8,18.3,19.5,25.2,25.2c10,8.4,21.7,16.5,32.4,22.5
		c5.4,3.1,18.7,9.6,19.5,9.6C136.4,338.3,136,339.1,134.2,340.6L134.2,340.6L134.2,340.6z"/>
	<path id="path1150" class="st9" d="M616,21.1c-216,0-634,0-526-0.1c108-0.1,614.3-0.3,722.4-0.1c29.2,0,43.2,0.1,45,0.1
		C862.4,21.1,773.6,21.1,616,21.1L616,21.1L616,21.1z"/>
	<path id="path1152" class="st4" d="M903.2,19c-2.1,1.5-44.2,0.8-417.6,0.8S70.3,20.6,68.2,19.1c-2-1.4-2.2-3.4-2.2-8.5
		c0-1.8-0.1-3.8,0.2-5.4c0.3-1.4,2-3.2,2.4-3.5c0.5-0.5,4.3-0.3,16.4-0.4c11.3-0.1,29,0.2,55.3,0.2c44.7,0,61.8-0.6,69.8-0.1
		c4.4,0.3,6.1,1.2,8.1,1.9c3.1,1.2,8.2,3.9,10.9,5.6l5,3.2l40.4-0.4c37.6-0.4,39,0.2,41.7-1.6c1.5-1.1,6.1-3,9.3-4.6l5.8-3l7.9-1.3
		l19.8,0.1l15.8,0.1l97.9,0.2c93.1,0.2,126.7-1.2,141.1,0.3c4.2,0.4,6.5,1.6,8.5,2.3c2.7,0.9,4.9,2.1,7.8,3.9l6.1,3.7l15.6-0.4
		l25.1-0.1c26.5-0.1,40.4-0.6,40.9-1.3c0.4-0.6,4-2.7,8.5-4.3l9-3.3l9-1.1l15.9,0.2l57.9,0.2c61.9,0.2,84.5-0.4,85.5,0.5
		c0.9,0.8,2.4,4.5,2.4,8.4C905.8,15.4,905.1,17.6,903.2,19L903.2,19L903.2,19z"/>
	<path id="path1154" class="st4" d="M464.9,30.8l-5.2,0l-387-0.4v-8.5h392.2l393-1.1l0.2,5.3l-0.2,4.9L464.9,30.8L464.9,30.8z"/>
	<path id="path1156" class="st0" d="M273.3,9.7h-38.6v-3c0-1.7,0.9-3.6,2.1-4.3c2.8-1.7,70.3-1.7,73.1,0c1.2,0.7,2.1,2.6,2.1,4.3v3
		H273.3L273.3,9.7z"/>
	<path id="path1158" class="st0" d="M676.2,9.7h-38.7v-3c0-1.8,0.9-3.6,2.1-4.3c2.8-1.7,70.3-1.7,73.2,0c1.2,0.7,2.1,2.6,2.1,4.3v3
		H676.2L676.2,9.7z"/>
</g>
</svg>
