<?xml version="1.0" encoding="utf-8"?>
<!-- Generator: Adobe Illustrator 27.9.0, SVG Export Plug-In . SVG Version: 6.00 Build 0)  -->
<svg version="1.1" id="Layer_1" xmlns="http://www.w3.org/2000/svg" xmlns:xlink="http://www.w3.org/1999/xlink" x="0px" y="0px"
	 viewBox="0 0 1000 1000.2" style="enable-background:new 0 0 1000 1000.2;" xml:space="preserve">
<style type="text/css">
	.st0{fill:#00BBDB;stroke:#000000;}
	.st1{fill:#333333;stroke:#000000;stroke-width:0.93;}
	.st2{fill:#333333;stroke:#000000;stroke-width:0.96;}
	.st3{fill:#333333;stroke:#000000;stroke-width:0.85;}
	.st4{fill:#1A1A1A;stroke:#000000;}
	.st5{fill:#333333;stroke:#000000;}
	.st6{fill:#1A1A1A;stroke:#1A1A1A;}
	.st7{fill:#1A1A1A;stroke:#4D4D4D;}
	.st8{stroke:#4D4D4D;}
	.st9{stroke:#000000;}
	.st10{opacity:0.1;}
	.st11{fill:#FF5F55;}
	.st12{fill:#FF5F53;}
	.st13{fill:#FFFFFF;}
	.st14{fill:#999595;stroke:#000000;stroke-width:2.39;stroke-linecap:round;stroke-linejoin:round;}
	.st15{fill:#3A3D40;stroke:#000000;stroke-width:2.73;stroke-linecap:round;stroke-linejoin:round;}
</style>
<g id="layer1">
	<g id="g344">
		<path id="path66-7" d="M349.1,906.6h-7.9c-3.6,0-6.4-2.9-6.5-6.5V71.2c0-3.6,2.9-6.4,6.5-6.5h7.9c3.6,0,6.4,2.9,6.5,6.5V207
			c0,4.9-1.2,9.6-3.4,14l-6.7,13v79.2l6.7,13c2.2,4.3,3.4,9.1,3.4,13.9v269.7c0,4.9-1.2,9.6-3.4,14l-6.7,13V716l6.7,13
			c2.2,4.3,3.4,9.1,3.4,13.9v157.2C355.6,903.7,352.7,906.6,349.1,906.6L349.1,906.6L349.1,906.6z M341.2,65.7c-3,0-5.5,2.4-5.5,5.5
			v828.9c0,3,2.4,5.5,5.5,5.5h7.9c3,0,5.5-2.4,5.5-5.5V742.9c0-4.7-1.1-9.3-3.3-13.5l-6.8-13.1c0-0.1-0.1-0.2-0.1-0.2v-79.5
			c0-0.1,0-0.2,0.1-0.2l6.8-13.1c2.2-4.2,3.3-8.8,3.3-13.5V340.1c0-4.7-1.1-9.3-3.3-13.5l-6.8-13.1c0-0.1-0.1-0.2-0.1-0.2v-79.5
			c0-0.1,0-0.2,0.1-0.2l6.8-13.1c2.2-4.2,3.3-8.8,3.3-13.5V71.2c0-3-2.4-5.5-5.5-5.5L341.2,65.7L341.2,65.7z"/>
		<path id="path68-5" d="M335.3,858.9h-11.2c-0.3,0-0.5-0.2-0.5-0.5V72c0-0.3,0.2-0.5,0.5-0.5h11.2c0.3,0,0.5,0.2,0.5,0.5v786.4
			C335.8,858.7,335.6,858.9,335.3,858.9z M324.6,857.9h10.2V72.5h-10.2V857.9z"/>
		<path id="path70-3" d="M318.1,1000H211.9C94.9,1000,0,905.2,0,788.1l0,0V220.9C0,104.1,95.1,9.1,211.9,9.1h106.2
			c3.6,0,6.5,2.9,6.5,6.5v978C324.6,997.1,321.7,1000,318.1,1000L318.1,1000L318.1,1000z M211.9,10.1C95.6,10.1,1,104.7,1,220.9
			v567.2C1,904.4,95.6,999,211.9,999h106.2c3,0,5.5-2.4,5.5-5.5v-978c0-3-2.4-5.5-5.5-5.5H211.9L211.9,10.1L211.9,10.1z"/>
		<path id="path98" d="M349.1,717.1h-4.2c-0.6,0-1-0.4-1-1l0,0v-79.5c0-0.6,0.4-1,1-1h4.2c3.8,0,6.9,3.1,7,7v67.6
			C356.1,714,353,717.1,349.1,717.1z M345.9,715.1h3.2c2.7,0,5-2.2,5-5v-67.6c0-2.7-2.2-5-5-5h-3.2V715.1z"/>
		<path id="path100" d="M349.1,314.3h-4.2c-0.6,0-1-0.4-1-1v-79.5c0-0.6,0.4-1,1-1h4.2c3.8,0,6.9,3.1,7,7v67.6
			C356.1,311.2,353,314.3,349.1,314.3z M345.9,312.3h3.2c2.7,0,5-2.2,5-5v-67.6c0-2.7-2.2-5-5-5h-3.2V312.3z"/>
		<path id="path1144" class="st0" d="M193.2,997.9c-26.2-3-49.9-8.5-75.1-21C96.2,966,77,951.2,60.7,934.4
			C28.4,901.1,7,856.6,1.7,807.7c-0.4-3.4-0.1-30.5-0.3-72.2C0.3,576.9,0.4,214.9,1.8,201c1.8-17.7,6.1-36.5,12-52.4
			c2.8-7.5,7.1-15.8,10.7-23.1C55.9,61.8,116.8,21.2,187,12c18.2-2.4,133.1-3.3,135.5-0.9c0.1,0.1,0.9,2.3,1,7
			c0.4,11.1,0.4,36,1.3,79.4c0.7,32.7,0,76.3,0.1,132.5c0.2,70.3-1.6,160.2-1.6,274.8c0,484.5,1.4,491.2-0.9,492.4
			c-0.3,0.2-2.5,1.7-5.3,1.8c-21.9,1.1-119.2-0.5-120.6-0.7L193.2,997.9L193.2,997.9z"/>
		<polygon id="polygon80" class="st1" points="173.9,448.1 160.6,470.2 187.3,470.2 		"/>
		<polygon id="polygon82" class="st2" points="187.1,605.6 174.3,627.3 161.5,605.6 		"/>
		<polygon id="polygon84" class="st1" points="105.9,524.7 84,538.1 105.9,551.5 		"/>
		<polygon id="polygon86" class="st3" points="266.4,537.9 240.8,551.6 240.8,524.1 		"/>
		<path id="path102" d="M17.3,139.3c-0.3,0-0.5-0.1-0.7-0.3l-3.4-3.4c-2-2-2.6-5.1-1.5-7.8C46.5,50.1,123.7,0.1,208.9,0h51.2
			c3.8,0,6.9,3.1,7,7v2.6c0,0.6-0.4,1-1,1h-54.2C127.4,10.5,51.1,61,18.2,138.7c-0.1,0.3-0.4,0.5-0.7,0.6L17.3,139.3L17.3,139.3z
			 M208.9,2C124.5,2.1,48,51.7,13.5,128.7c-0.8,1.9-0.4,4.1,1.1,5.5l2.4,2.4C50.6,58.8,127.3,8.5,212,8.6h53.2V7c0-2.7-2.2-5-5-5
			L208.9,2L208.9,2z"/>
		<path id="path104" d="M295.6,116.1h-46.9c-2.2,0-4-1.8-4-4v-11.7c0-2.2,1.8-4,4-4h46.9c2.2,0,4,1.8,4,4v11.7
			C299.6,114.3,297.8,116.1,295.6,116.1z M248.7,98.5c-1.1,0-2,0.9-2,2v11.7c0,1.1,0.9,2,2,2h46.9c1.1,0,2-0.9,2-2v-11.7
			c0-1.1-0.9-2-2-2H248.7z"/>
		<path id="path106" d="M173.9,502.9c-21.2,0-38.5-17.2-38.5-38.5s17.2-38.5,38.5-38.5s38.5,17.2,38.5,38.5S195.2,502.9,173.9,502.9
			L173.9,502.9z M173.9,428c-20.1,0-36.5,16.3-36.5,36.5s16.3,36.5,36.5,36.5s36.5-16.3,36.5-36.5S194.1,428,173.9,428L173.9,428z"
			/>
		<path id="path108" d="M173.9,649.8c-21.2,0-38.5-17.2-38.5-38.5s17.2-38.5,38.5-38.5s38.5,17.2,38.5,38.5S195.2,649.8,173.9,649.8
			L173.9,649.8z M173.9,574.9c-20.1,0-36.5,16.3-36.5,36.5s16.3,36.5,36.5,36.5s36.5-16.3,36.5-36.5l0,0
			C210.4,591.2,194.1,574.9,173.9,574.9L173.9,574.9z"/>
		<path id="path110" d="M247.4,576.3c-21.2,0-38.5-17.2-38.5-38.5s17.2-38.5,38.5-38.5s38.5,17.2,38.5,38.5l0,0
			C285.8,559.1,268.6,576.3,247.4,576.3z M247.4,501.4c-20.1,0-36.5,16.3-36.5,36.5s16.3,36.5,36.5,36.5s36.5-16.3,36.5-36.5l0,0
			C283.8,517.7,267.5,501.4,247.4,501.4L247.4,501.4L247.4,501.4z"/>
		<path id="path112" d="M100.5,576.3c-21.2,0-38.5-17.2-38.5-38.5s17.2-38.5,38.5-38.5s38.5,17.2,38.5,38.5l0,0
			C138.9,559.1,121.7,576.3,100.5,576.3z M100.5,501.4c-20.1,0-36.5,16.3-36.5,36.5s16.3,36.5,36.5,36.5s36.5-16.3,36.5-36.5l0,0
			C136.9,517.7,120.6,501.4,100.5,501.4L100.5,501.4L100.5,501.4z"/>
		<path id="path114" d="M250.1,753.7h-45c-5.5,0-9.9-4.4-9.9-9.9v-45c0-5.5,4.4-9.9,9.9-9.9h45c5.5,0,9.9,4.4,9.9,9.9v45
			C260,749.3,255.5,753.7,250.1,753.7z M205.1,690.9c-4.4,0-7.9,3.6-7.9,7.9v45c0,4.4,3.6,7.9,7.9,7.9h45c4.4,0,7.9-3.6,7.9-7.9v-45
			c0-4.4-3.6-7.9-7.9-7.9H205.1z"/>
		<path id="path116" d="M227.6,741.7c-11.3,0-20.4-9.2-20.4-20.4s9.2-20.4,20.4-20.4s20.4,9.2,20.4,20.4l0,0
			C248,732.6,238.9,741.7,227.6,741.7z M227.6,702.8c-10.2,0-18.4,8.3-18.4,18.4s8.3,18.4,18.4,18.4s18.4-8.3,18.4-18.4
			S237.8,702.9,227.6,702.8z"/>
		<path id="path118" d="M110.8,260.2H98.5c-0.6,0-1-0.4-1-1l0,0c1.7-39.6,33.4-71.3,73-73c0.3,0,0.5,0.1,0.7,0.3s0.3,0.4,0.3,0.7
			v12.3c0,3.5-2.6,6.4-6,6.9c-24.7,3.7-44.2,23.1-47.9,47.9C117.2,257.6,114.3,260.2,110.8,260.2L110.8,260.2z M99.6,258.2h11.2
			c2.5,0,4.6-1.8,4.9-4.3c3.9-25.6,24-45.7,49.6-49.6c2.5-0.3,4.3-2.4,4.3-4.9v-11.2C132.2,190.3,101.7,220.8,99.6,258.2L99.6,258.2
			z"/>
		<path id="path120" d="M170.6,338.9L170.6,338.9c-39.6-1.7-71.3-33.4-73-73c0-0.6,0.4-1,1-1h12.3c3.5,0,6.4,2.6,6.9,6
			c3.7,24.7,23.1,44.2,47.9,47.9c3.4,0.5,6,3.4,6,6.9V338C171.6,338.5,171.1,338.9,170.6,338.9L170.6,338.9z M99.6,266.9
			c2.2,37.4,32.6,67.8,70,70v-11.2c0-2.5-1.8-4.6-4.3-4.9c-25.6-3.9-45.7-24-49.6-49.6c-0.3-2.5-2.4-4.3-4.9-4.3H99.6L99.6,266.9z"
			/>
		<path id="path122" d="M177.3,338.9c-0.6,0-1-0.4-1-1v-12.3c0-3.5,2.6-6.4,6-6.9c24.7-3.7,44.2-23.1,47.9-47.9c0.5-3.4,3.4-6,6.9-6
			h12.3c0.6,0,1,0.4,1,1l0,0C248.6,305.5,216.9,337.2,177.3,338.9L177.3,338.9L177.3,338.9z M237,266.9c-2.5,0-4.6,1.8-4.9,4.3
			c-3.9,25.6-24,45.7-49.6,49.6c-2.5,0.3-4.3,2.4-4.3,4.9v11.2c37.4-2.2,67.8-32.6,70-70H237z"/>
		<path id="path124" d="M249.3,260.2H237c-3.5,0-6.4-2.6-6.9-6c-3.7-24.7-23.1-44.2-47.9-47.9c-3.4-0.5-6-3.4-6-6.9v-12.3
			c0-0.3,0.1-0.5,0.3-0.7s0.5-0.3,0.7-0.3c39.6,1.7,71.3,33.4,73,73C250.3,259.7,249.9,260.2,249.3,260.2L249.3,260.2L249.3,260.2z
			 M178.3,188.2v11.2c0,2.5,1.8,4.6,4.3,4.9c25.6,3.9,45.7,24,49.6,49.6c0.3,2.5,2.4,4.3,4.9,4.3h11.2
			C246.1,220.8,215.6,190.3,178.3,188.2L178.3,188.2L178.3,188.2z"/>
		<path id="path126" d="M173.9,339c-1.2,0-2.3,0-3.4-0.1c-0.5,0-0.9-0.5-0.9-1v-12.3c0-2.5-1.8-4.6-4.3-4.9
			c-25.6-3.9-45.7-24-49.6-49.6c-0.3-2.5-2.4-4.3-4.9-4.3H98.5c-0.5,0-1-0.4-1-0.9c-0.1-1.1-0.1-2.2-0.1-3.4s0-2.3,0.1-3.4
			c0-0.5,0.5-0.9,1-0.9h12.3c2.5,0,4.6-1.8,4.9-4.3c3.9-25.6,24-45.7,49.6-49.6c2.5-0.3,4.3-2.4,4.3-4.9v-12.3c0-0.5,0.4-1,0.9-1
			c2.3-0.1,4.5-0.1,6.8,0c0.5,0,0.9,0.5,0.9,1v12.3c0,2.5,1.8,4.6,4.3,4.9c25.6,3.9,45.7,24,49.6,49.6c0.3,2.5,2.4,4.3,4.9,4.3h12.3
			c0.5,0,1,0.4,1,0.9c0.1,1.1,0.1,2.2,0.1,3.4s0,2.3-0.1,3.4c0,0.5-0.5,0.9-1,0.9H237c-2.5,0-4.6,1.8-4.9,4.3
			c-3.9,25.6-24,45.7-49.6,49.6c-2.5,0.3-4.3,2.4-4.3,4.9v12.3c0,0.5-0.4,1-0.9,1C176.2,339,175.1,339,173.9,339L173.9,339z
			 M171.6,337c1.5,0.1,3.1,0.1,4.7,0v-11.3c0-3.5,2.6-6.4,6-6.9c24.7-3.7,44.2-23.1,47.9-47.9c0.5-3.4,3.4-6,6.9-6h11.3v-4.6H237
			c-3.5,0-6.4-2.6-6.9-6c-3.7-24.7-23.1-44.2-47.9-47.9c-3.4-0.5-6-3.4-6-6.9v-11.3c-1.5-0.1-3.1-0.1-4.7,0v11.3
			c0,3.5-2.6,6.4-6,6.9c-24.7,3.7-44.2,23.1-47.9,47.9c-0.5,3.4-3.4,6-6.9,6H99.4v4.6h11.3c3.5,0,6.4,2.6,6.9,6
			c3.7,24.7,23.1,44.2,47.9,47.9c3.4,0.5,6,3.4,6,6.9L171.6,337L171.6,337z"/>
		<path id="path179" class="st4" d="M94,574.3c-14.7-3.2-24.9-12.7-29-27.1c-1-3.4-1.2-6.3-0.9-11.7c0.3-6.5,0.7-7.8,3.5-13.5
			c11.4-22.9,40.7-27.9,58.6-10c19.4,19.4,12,51.9-13.9,60.8C107.1,574.5,98.5,575.3,94,574.3L94,574.3L94,574.3z M106.6,538
			c0-7.3-0.2-13.4-0.4-13.4c-0.9,0-23.3,13.2-23,13.5c0.7,0.7,22.2,13.1,22.8,13.2C106.4,551.3,106.6,545.4,106.6,538L106.6,538
			L106.6,538z"/>
		<path id="path181" class="st4" d="M168.5,500.6c-6.9-0.9-15-5-20.5-10.4c-14.6-14.5-14.6-36.9,0.1-51.4c23-22.9,62.3-7,62.3,25.4
			c0,10.4-3.5,18.8-10.7,26C191.3,498.4,180.4,502.1,168.5,500.6L168.5,500.6L168.5,500.6z M187.1,469.9
			c-0.9-2.4-12.8-22.4-13.3-22.4c-0.4,0-5.9,9-12,19.9l-2,3.6h13.9C185.9,471,187.5,470.9,187.1,469.9L187.1,469.9L187.1,469.9z"/>
		<path id="path185" class="st4" d="M165.2,647c-12.9-3.5-23.1-13.7-26.5-26.6c-5.9-22.7,11.6-45.2,35.2-45.3
			c7.4,0,11.3,0.9,18.1,4.5c16.9,8.8,23.9,30.4,15.4,47.9C199.8,643,181.7,651.4,165.2,647L165.2,647L165.2,647z M181.4,616.9
			c3.6-6.3,6.5-11.6,6.3-11.8s-6.4-0.3-13.8-0.1l-13.5,0.2l6.7,11.6c3.7,6.4,6.9,11.6,7.2,11.6C174.5,628.4,177.8,623.2,181.4,616.9
			L181.4,616.9z"/>
		<path id="path187" class="st4" d="M243.9,574.2c-0.3,0-1.6-0.3-2.9-0.5c-11.2-2.2-20.9-9.7-26.2-20.1c-2.8-5.6-4.2-12.2-3.8-17.9
			c1.1-14.8,11.3-27.7,25.6-32.5c8.8-2.9,18-2.2,26.7,2.2s15.5,12.1,18.6,21.3c5.3,15.3-0.7,32.2-14.7,41.6c-6,4-13.4,6.3-20.2,6.2
			C245.7,574.3,244.2,574.3,243.9,574.2L243.9,574.2L243.9,574.2z M243.2,551.1c0.7-0.4,3-1.6,5.1-2.8c8.7-4.8,15.6-9.2,16.2-10
			c0.3-0.4,0.3-0.5,0-0.9c-0.9-1.3-21.5-13.5-22.9-13.5c-0.3,0-0.6,0.1-0.7,0.2c-0.4,0.5-0.6,4.8-0.6,13.9c0,9.1,0.2,13,0.6,13.5
			C241.3,551.9,241.8,551.8,243.2,551.1L243.2,551.1L243.2,551.1z"/>
		<path id="path189" class="st5" d="M224,739.1c-1-0.2-3-1-4.4-1.6c-2.1-1-2.9-1.6-4.8-3.5c-1.9-1.9-2.5-2.7-3.5-4.8
			c-2.7-5.5-2.7-10.6,0-16.1c1-2.1,1.6-2.8,3.5-4.8c3.6-3.6,7.7-5.3,12.7-5.3c8.4,0,15.7,5.7,17.8,13.9c0.5,2,0.5,6.2,0,8.3
			c-1.5,6.3-6.3,11.5-12.7,13.4C230.2,739.4,226.4,739.6,224,739.1L224,739.1L224,739.1z"/>
		<path id="path191" class="st4" d="M203.2,751.3c-1.6-0.4-3-1.3-4.1-2.6c-1.8-2.1-1.7-0.9-1.7-27.4s-0.1-25.3,1.9-27.5
			c0.6-0.7,1.7-1.5,2.5-1.9l1.5-0.7h48.3l1.8,0.9c1.3,0.6,2,1.2,2.7,2.1c1.8,2.3,1.7,1.3,1.6,27.8c-0.1,23.8-0.1,23.9-0.6,25.1
			c-0.7,1.6-2.3,3.1-3.9,3.9l-1.3,0.7l-23.8,0C210,751.6,204.2,751.5,203.2,751.3L203.2,751.3L203.2,751.3z M230.5,741.6
			c10.6-1.5,18.1-10.7,17.5-21.4c-0.2-3.4-0.7-5.3-2-8.1c-4.6-9.3-15.5-13.7-25.3-10.2c-2.8,1-4.7,2.2-7,4.3c-3,2.8-5.1,6.3-6,10.3
			c-0.5,2.2-0.5,7.2,0,9.4c0.9,3.9,3,7.4,6,10.2c2.2,2.1,4.2,3.3,6.7,4.3C223.7,741.7,227.1,742.1,230.5,741.6L230.5,741.6
			L230.5,741.6z"/>
		<path id="path1082" class="st6" d="M171.8,330.4c0-6-0.1-6.5-0.7-7.9c-1.1-2.1-2.9-3.4-5.6-3.9c-15.1-2.7-27.5-10.1-36.5-21.9
			c-5-6.5-8.8-15.1-10.4-23.2c-0.8-4.3-1.4-5.7-3-7c-1.8-1.5-3.3-1.8-10-1.8h-5.9v-4.2h6.3c6.1,0,6.3,0,8-0.9
			c2.4-1.2,3.3-2.7,4.2-7.3c4.6-23.2,22.4-41,45.6-45.4c4.2-0.8,5.6-1.6,6.9-3.8c0.9-1.5,0.9-1.6,1-8.1l0.1-6.6h4.2v6.3
			c0,6.2,0,6.3,0.9,8c1.3,2.6,2.6,3.4,7.6,4.4c19.4,3.8,35.1,17,42.3,35.4c1,2.7,1.9,5.9,3.3,12c0.6,2.6,1.7,4.2,3.6,5.2
			c1.1,0.6,2,0.7,7.9,0.8l6.6,0.1v4.2h-6.3c-6.1,0-6.3,0-8,0.9c-2.2,1.1-3.4,2.9-3.9,5.9c-4.1,23.8-22.2,42.3-46,46.8
			c-4.2,0.8-5.7,1.7-7,4.1c-0.8,1.5-0.8,1.9-0.9,8l-0.1,6.4h-4.2L171.8,330.4L171.8,330.4z"/>
		<path id="path1084" class="st7" d="M99.8,257.3c0.1-0.5,0.3-1.9,0.4-3.2c0.4-3.9,1.7-10.1,3.3-14.8c8-24.1,28.1-42.7,52.7-48.9
			c3.1-0.8,7.6-1.6,11.3-1.9l2-0.2v5.9c0,8.5-0.4,9.1-6.5,10.4c-18.4,3.7-33.7,15.2-41.9,31.9c-2.6,5.1-4.1,10.1-5.5,17
			c-0.5,2.4-1.8,4-3.7,4.4c-0.7,0.2-3.8,0.3-6.8,0.3h-5.5L99.8,257.3L99.8,257.3z"/>
		<path id="path1086" class="st7" d="M165.8,336.4c-27-3-50.8-21.4-60.9-46.9c-2.4-6-4.2-13.4-4.7-18.7c-0.1-1.3-0.3-2.7-0.4-3.1
			l-0.2-0.8l6.3,0.1c5.8,0.1,6.4,0.2,7.2,0.8c1.6,1.2,2,2.2,2.9,6.2c1.2,5.8,2.4,9.4,5.2,14.8c2.9,5.7,5.7,9.8,9.9,14.2
			c8.6,9.1,19.7,15.2,31.7,17.5c3.6,0.7,4.6,1.2,5.8,2.7c0.6,0.8,0.7,1.4,0.8,7.2c0.1,5.9,0.1,6.3-0.5,6.3
			C168.6,336.7,167.2,336.6,165.8,336.4L165.8,336.4L165.8,336.4z"/>
		<path id="path1088" class="st7" d="M235.7,257.7c-2.4-0.9-2.8-1.6-3.8-6.5c-3.7-18.2-15.4-33.5-32-41.6c-4.8-2.4-8.6-3.7-13.5-4.7
			c-4.7-1-6.2-1.6-7.1-2.9c-0.7-1.1-0.7-1.4-0.7-7.4c0-3.5,0.1-6.3,0.3-6.3s1.9,0.2,4,0.5c12,1.5,22.9,5.6,32.8,12.4
			c4.4,3,7.4,5.6,11.6,9.9c9.3,9.6,15.5,20.7,18.8,33.5c0.9,3.6,2.1,10.9,2.1,12.9c0,0.6-0.3,0.6-5.6,0.6
			C238.7,258.1,236.5,258,235.7,257.7L235.7,257.7L235.7,257.7z"/>
		<path id="path1090" class="st7" d="M178.3,330.5c0.1-5.8,0.2-6.4,0.8-7.2c1.2-1.6,2.2-2,6.3-2.9c23.5-4.7,41.9-23.3,46.4-47
			c0.7-3.5,1.1-4.5,2.7-5.6c0.8-0.6,1.4-0.7,7.2-0.8l6.3-0.1l-0.2,1.7c-1.2,10.5-3.3,18-7.5,26.4c-11.2,22.6-32.9,38.1-58,41.3
			c-2.1,0.3-3.9,0.5-4,0.5S178.3,333.9,178.3,330.5L178.3,330.5L178.3,330.5z"/>
		<path id="path1092" class="st4" d="M247.6,113.5c-0.5-0.6-0.7-1.8-0.7-7.2c0-4.5,0.2-6.7,0.5-7c0.4-0.4,6.4-0.5,24.6-0.5
			c21.3,0,24.2,0.1,24.8,0.7c0.5,0.6,0.7,1.8,0.7,7c0,6.1,0,6.4-1,7c-0.8,0.6-3.9,0.7-24.6,0.7S248.2,114,247.6,113.5z"/>
		<path id="path1094" class="st8" d="M15,134.2c-2.3-2.8-2.2-3.7,2.3-12.6C28,99.9,40.9,82,57.8,65.1C89.1,33.7,129.4,12.8,173,5.3
			c15.1-2.6,16.5-2.7,54-2.9l34.8-0.2l1.4,1.2c1,0.9,1.4,1.7,1.6,3l0.2,1.8l-33.8,0.2C195,8.6,192.5,8.8,178,11.1
			c-38.4,6.2-72.9,22-103.3,47.3c-6.8,5.7-19.5,18.3-25.2,25.2c-8.4,10-16.5,21.7-22.5,32.4c-3.1,5.4-9.6,18.7-9.6,19.5
			C17.3,136.4,16.5,136,15,134.2L15,134.2L15,134.2z"/>
		<path id="path1150" class="st9" d="M334.4,616c0-216,0-634,0.1-526c0.1,108,0.3,614.3,0.1,722.4c0,29.2-0.1,43.2-0.1,45
			C334.5,862.4,334.5,773.6,334.4,616L334.4,616L334.4,616z"/>
		<path id="path1152" class="st4" d="M336.6,903.2c-1.5-2.1-0.8-44.2-0.8-417.6S335,70.3,336.5,68.2c1.4-2,3.4-2.2,8.5-2.2
			c1.8,0,3.8-0.1,5.4,0.2c1.4,0.3,3.2,2,3.5,2.4c0.5,0.5,0.3,4.3,0.4,16.4c0.1,11.3-0.2,29-0.2,55.3c0,44.7,0.6,61.8,0.1,69.8
			c-0.3,4.4-1.2,6.1-1.9,8.1c-1.2,3.1-3.9,8.2-5.6,10.9l-3.2,5l0.4,40.4c0.4,37.6-0.2,39,1.6,41.7c1.1,1.5,3,6.1,4.6,9.3l3,5.8
			l1.3,7.9l-0.1,19.8l-0.1,15.8l-0.2,97.9c-0.2,93.1,1.2,126.7-0.3,141.1c-0.4,4.2-1.6,6.5-2.3,8.5c-0.9,2.7-2.1,4.9-3.9,7.8
			l-3.7,6.1l0.4,15.6l0.1,25.1c0.1,26.5,0.6,40.4,1.3,40.9c0.6,0.4,2.7,4,4.3,8.5l3.3,9l1.1,9l-0.2,15.9l-0.2,57.9
			c-0.2,61.9,0.4,84.5-0.5,85.5c-0.8,0.9-4.5,2.4-8.4,2.4C340.2,905.8,338,905.1,336.6,903.2L336.6,903.2L336.6,903.2z"/>
		<path id="path1154" class="st4" d="M325.2,464.9V72.7h8.5v392.2l1.1,393l-5.3,0.2l-4.9-0.2L325.2,464.9L325.2,464.9z"/>
		<path id="path1156" class="st0" d="M345.9,273.3v-38.6h3c1.7,0,3.6,0.9,4.3,2.1c1.7,2.8,1.7,70.3,0,73.1c-0.7,1.2-2.6,2.1-4.3,2.1
			h-3V273.3L345.9,273.3z"/>
		<path id="path1158" class="st0" d="M345.9,676.2v-38.7h3c1.8,0,3.6,0.9,4.3,2.1c1.7,2.8,1.7,70.3,0,73.2c-0.7,1.2-2.6,2.1-4.3,2.1
			h-3V676.2L345.9,676.2z"/>
	</g>
	<g id="g315">
		<g id="g64" class="st10">
			<path id="path36" class="st11" d="M654.6,233.9v79.5h-4.2c-3.3,0-6-2.7-6-6v-67.6c0-3.3,2.7-6,6-6h4.2V233.9z"/>
			<path id="path38" class="st11" d="M654.6,636.6v79.5h-4.2c-3.3,0-6-2.7-6-6v-67.6c0-3.3,2.7-6,6-6L654.6,636.6L654.6,636.6z"/>
			<path id="path40" class="st11" d="M985.7,134.9l-3.4,3.4C949.1,60.3,872.5,9.6,787.6,9.6h-54.2V7c0-3.3,2.7-6,6-6h51.2
				C875.4,1,952.3,50.8,987,128.2C988,130.5,987.5,133.1,985.7,134.9L985.7,134.9L985.7,134.9z"/>
			<path id="path42" class="st11" d="M736.2,94.5V82.8c0-1.6-1.3-3-3-3h-11.7c-1.6,0-3,1.3-3,3l0,0v11.7c0,1.6-1.3,3-3,3h-11.7
				c-1.6,0-3,1.3-3,3l0,0v11.7c0,1.6,1.3,3,3,3h11.7c1.6,0,3,1.3,3,3l0,0v11.7c0,1.6,1.3,3,3,3h11.7c1.6,0,3-1.3,3-3l0,0v-11.7
				c0-1.6,1.3-3,3-3h11.7c1.6,0,3-1.3,3-3l0,0v-11.7c0-1.6-1.3-3-3-3h-11.7C737.5,97.5,736.2,96.1,736.2,94.5L736.2,94.5z"/>
			<circle id="circle44" class="st11" cx="825.6" cy="333.9" r="37.5"/>
			<circle id="circle46" class="st11" cx="825.6" cy="187.1" r="37.5"/>
			<circle id="circle48" class="st11" cx="899" cy="260.5" r="37.5"/>
			<circle id="circle50" class="st11" cx="752.2" cy="260.5" r="37.5"/>
			<circle id="circle52" class="st11" cx="771.7" cy="721.3" r="27.9"/>
			<path id="path54" class="st11" d="M822.3,460.3v12.3c0,3-2.2,5.5-5.2,5.9c-25.2,3.7-45,23.5-48.7,48.7c-0.4,2.9-2.9,5.1-5.9,5.2
				h-12.3C751.9,493.3,783.2,462,822.3,460.3L822.3,460.3L822.3,460.3z"/>
			<path id="path56" class="st11" d="M822.3,598.8v12.3c-39.1-1.7-70.3-33-72.1-72h12.3c3,0,5.5,2.2,5.9,5.2
				c3.7,25.2,23.5,45,48.7,48.7C820.1,593.3,822.3,595.8,822.3,598.8L822.3,598.8L822.3,598.8z"/>
			<path id="path58" class="st11" d="M901,539c-1.7,39.1-33,70.3-72.1,72v-12.3c0-3,2.2-5.5,5.2-5.9c25.2-3.7,45-23.5,48.7-48.7
				c0.4-2.9,2.9-5.1,5.9-5.2L901,539L901,539z"/>
			<path id="path60" class="st11" d="M901,532.4h-12.3c-3,0-5.5-2.2-5.9-5.2c-3.7-25.2-23.5-45-48.7-48.7c-2.9-0.4-5.1-2.9-5.2-5.9
				v-12.3C868,462,899.3,493.3,901,532.4L901,532.4L901,532.4z"/>
			<path id="path62" class="st11" d="M901.1,535.7c0,1.1,0,2.2-0.1,3.3h-12.3c-3,0-5.5,2.2-5.9,5.2c-3.7,25.2-23.5,45-48.7,48.7
				c-2.9,0.4-5.1,2.9-5.2,5.9v12.3c-1.1,0.1-2.2,0.1-3.3,0.1s-2.2,0-3.3-0.1v-12.3c0-3-2.2-5.5-5.2-5.9c-25.2-3.7-45-23.5-48.7-48.7
				c-0.4-2.9-2.9-5.1-5.9-5.2h-12.3c-0.1-1.1-0.1-2.2-0.1-3.3s0-2.2,0.1-3.3h12.3c3,0,5.5-2.2,5.9-5.2c3.7-25.2,23.5-45,48.7-48.7
				c2.9-0.4,5.1-2.9,5.2-5.9v-12.3c1.1-0.1,2.2-0.1,3.3-0.1s2.2,0,3.3,0.1v12.3c0,3,2.2,5.5,5.2,5.9c25.2,3.7,45,23.5,48.7,48.7
				c0.4,2.9,2.9,5.1,5.9,5.2H901C901,533.5,901.1,534.6,901.1,535.7L901.1,535.7z"/>
		</g>
		<path id="path72" d="M658.3,906.6h-7.9c-3.6,0-6.4-2.9-6.5-6.5V742.9c0-4.9,1.2-9.6,3.4-13.9l6.7-13v-79.2l-6.7-13
			c-2.2-4.3-3.4-9.1-3.4-14V340.1c0-4.9,1.2-9.6,3.4-13.9l6.7-13V234l-6.7-13c-2.2-4.3-3.4-9.1-3.4-14V71.2c0-3.6,2.9-6.4,6.5-6.5
			h7.9c3.6,0,6.4,2.9,6.5,6.5c1.1,276.3,1.2,552.6,0,828.9C664.7,903.7,661.8,906.6,658.3,906.6L658.3,906.6L658.3,906.6z
			 M650.4,65.7c-3,0-5.5,2.4-5.5,5.5V207c0,4.7,1.1,9.3,3.3,13.5l6.8,13.1c0,0.1,0.1,0.1,0.1,0.2v79.5c0,0.1,0,0.2-0.1,0.2
			l-6.8,13.1c-2.2,4.2-3.3,8.8-3.3,13.5v269.7c0,4.7,1.1,9.3,3.3,13.5l6.8,13.1c0,0.1,0.1,0.1,0.1,0.2v79.5c0,0.1,0,0.2-0.1,0.2
			l-6.8,13.1c-2.2,4.2-3.3,8.8-3.3,13.5v157.2c0,3,2.4,5.5,5.5,5.5h7.9c3,0,5.5-2.4,5.5-5.5V71.2c0-3-2.4-5.5-5.5-5.5L650.4,65.7
			L650.4,65.7z"/>
		<path id="path74" d="M675.5,858.9h-11.3c-0.3,0-0.5-0.2-0.5-0.5l0,0L664.5,72c0-0.3,0.2-0.5,0.5-0.5h11.3c0.3,0-0.3,0.2-0.3,0.5
			v786.4C676,858.7,675.8,858.9,675.5,858.9z M665.6,857.9h9.4l0.8-785.4h-10.3l1,8.8c-0.6,256.1,4.5,511.8-1.1,768.3
			C665.3,852.3,665.6,855.1,665.6,857.9L665.6,857.9z"/>
		<path id="path76" d="M787.4,1000.2H681.2c-3.6,0-6.5-2.9-6.5-6.5v-978c0-3.6,2.9-6.5,6.5-6.5h106.2
			c116.8,0,211.9,95.1,211.9,211.9v567.2C999.3,905.3,904.5,1000.2,787.4,1000.2L787.4,1000.2z M681.2,10.4c-3,0-5.5,2.4-5.5,5.5
			v978c0,3,2.4,5.5,5.5,5.5h106.2c116.3,0,210.9-94.6,210.9-210.9V221.1c0-116.3-94.6-210.9-210.9-210.9L681.2,10.4z"/>
		<path id="path128" d="M654.6,314.3h-4.2c-3.8,0-6.9-3.1-7-7v-67.6c0-3.8,3.1-6.9,7-7h4.2c0.6,0,1,0.4,1,1l0,0v79.5
			C655.6,313.9,655.1,314.3,654.6,314.3L654.6,314.3z M650.4,234.8c-2.7,0-5,2.2-5,5v67.6c0,2.7,2.2,5,5,5h3.2v-77.5h-3.2V234.8z"/>
		<path id="path130" d="M654.6,717.1h-4.2c-3.8,0-6.9-3.1-7-7v-67.6c0-3.8,3.1-6.9,7-7h4.2c0.6,0,1,0.4,1,1l0,0V716
			C655.6,716.6,655.1,717.1,654.6,717.1L654.6,717.1z M650.4,637.6c-2.7,0-5,2.2-5,5v67.6c0,2.7,2.2,5,5,5h3.2v-77.5L650.4,637.6
			L650.4,637.6z"/>
		<path id="path1240" class="st12" d="M805.5,998.7c26.6-2.4,50.5-9.2,75.9-21.8c5.1-2.5,10-5.2,14.9-8
			c19.1-11.3,36.3-27.1,49.6-41.7c25.5-28,45.5-70.1,51.4-116.5c0.1-0.7,0.4-4.3,0.4-6.8c-0.1-6.9,0.7-20,0.8-38.3
			c0.7-77.5,1.1-244,1.1-376.4c0-101.2-0.3-182.5-1-188.9c-2.7-26.1-9.3-49.1-20.8-72.1c-31.8-63.9-93-107.4-164-116.7
			c-11.4-1.5-60.7-1.6-96.6-1.3c-7.7,0.1-14.1-0.1-20.1,0.1c-7.5,0.2-12.9-0.1-16.2,0.2c-1.7,0.2-3,0.8-3.2,1
			c-0.1,0.1-1.4,1.4-1.5,3.3c-0.3,5.2-0.3,17.1-0.4,38c0,4.2-0.1,8.8-0.1,13.8c0,4.9,0.1,10.1,0.1,15.8c-0.1,8.8,0.1,18.6,0.1,29.2
			c0,9.8-0.2,20.5,0,32c0.2,9,0.2,18.4,0.2,28.4c-0.1,15.1,0.6,31.1,0.3,49c-0.2,15,0.1,30,0,46.9c-0.1,11.1,0.1,22.6,0,34.6
			c-0.1,7.2,0,14.5-0.1,22.1c-0.5,52.1,0,112.2,0,180.3c0,254.3-0.3,376.1,0,435.2c0,7.7-0.2,14.5-0.1,20.2c0,2.2,0,4.3,0,6.2
			c0,3.3,0,6.6,0,9.3c0,2.9-0.1,5.8,0,8c0.1,5,0.1,8.1,0.3,10c0.3,2.8,1.3,3.6,1.6,3.8c0.2,0.2,1.3,0.9,3.1,1.1
			c4.5,0.4,14.6,0.3,27.1,0.2c9.9-0.1,21.3-0.2,32.8-0.2C772.7,998.8,805.8,999,805.5,998.7L805.5,998.7L805.5,998.7z"/>
		<path id="path78" d="M771.7,763.2c-23.1,0-41.9-18.7-41.9-41.9s18.7-41.9,41.9-41.9c23.2,0,41.9,18.7,41.9,41.9l0,0
			C813.5,744.4,794.8,763.1,771.7,763.2z M771.7,680.4c-22.6,0-40.9,18.3-40.9,40.9s18.3,40.9,40.9,40.9c22.6,0,40.9-18.3,40.9-40.9
			l0,0C812.5,698.7,794.3,680.4,771.7,680.4z"/>
		<path id="path88" class="st13" d="M838.9,203.2h-5.5l-7.6-10.9l-8,10.9h-5.4l10.6-16.3l-9.8-15.6h5.2l7.4,10.6l7.3-10.6h5
			l-9.8,15.4L838.9,203.2L838.9,203.2z"/>
		<path id="path90" class="st13" d="M765.9,244.5l-11.6,20.6v11.4h-4.4V265l-11.6-20.5h5.3l6.4,11.7l2.1,3l2.4-2.6l6.4-12.1H765.9
			L765.9,244.5z"/>
		<path id="path92" class="st13" d="M912.6,276.5h-4.7l-2.2-7l-12.4,0.3l-3.2,6.7h-4.5l9.9-35.2l6.7,3.2L912.6,276.5z M903.9,265.2
			l-4.9-14.6l-4.6,14.8L903.9,265.2L903.9,265.2z"/>
		<path id="path132" d="M982.3,139.3h-0.2c-0.3-0.1-0.6-0.3-0.7-0.6C948.4,61,872.1,10.5,787.6,10.6h-54.2c-0.6,0-1-0.4-1-1l0,0V7
			c0-3.8,3.1-6.9,7-7h51.2C875.8,0.1,953,50.1,987.9,127.8c1.2,2.6,0.6,5.7-1.5,7.8L983,139C982.8,139.2,982.5,139.3,982.3,139.3
			L982.3,139.3z M734.4,8.6h53.2c84.7-0.1,161.3,50.2,195,128l2.4-2.4l0,0c1.5-1.4,1.9-3.6,1.1-5.5C951.5,51.7,875,2.1,790.6,2
			h-51.2c-2.7,0-5,2.2-5,5V8.6z"/>
		<path id="path134" d="M733.2,133.7h-11.7c-2.2,0-4-1.8-4-4V118c0-1.1-0.9-2-2-2h-11.7c-2.2,0-4-1.8-4-4v-11.7c0-2.2,1.8-4,4-4
			h11.7c1.1,0,2-0.9,2-2V82.8c0-2.2,1.8-4,4-4h11.7c2.2,0,4,1.8,4,4v11.7c0,1.1,0.9,2,2,2h11.7c2.2,0,4,1.8,4,4v11.7
			c0,2.2-1.8,4-4,4h-11.7c-1.1,0-2,0.9-2,2v11.7C737.2,131.9,735.4,133.7,733.2,133.7z M703.9,98.5c-1.1,0-2,0.9-2,2v11.7
			c0,1.1,0.9,2,2,2h11.7c2.2,0,4,1.8,4,4v11.7c0,1.1,0.9,2,2,2h11.7c1.1,0,2-0.9,2-2v-11.7c0-2.2,1.8-4,4-4H751c1.1,0,2-0.9,2-2
			v-11.7c0-1.1-0.9-2-2-2h-11.7c-2.2,0-4-1.8-4-4V82.8c0-1.1-0.9-2-2-2h-11.7c-1.1,0-2,0.9-2,2v11.7c0,2.2-1.8,4-4,4H703.9z"/>
		<path id="path136" d="M825.6,372.4c-21.2,0-38.5-17.2-38.5-38.5s17.2-38.5,38.5-38.5c21.3,0,38.5,17.2,38.5,38.5
			C864,355.2,846.8,372.4,825.6,372.4z M825.6,297.5c-20.1,0-36.5,16.3-36.5,36.5s16.3,36.5,36.5,36.5c20.2,0,36.5-16.3,36.5-36.5
			C862,313.8,845.7,297.5,825.6,297.5z"/>
		<path id="path138" d="M825.6,225.5c-21.2,0-38.5-17.2-38.5-38.5s17.2-38.5,38.5-38.5c21.3,0,38.5,17.2,38.5,38.5
			C864,208.3,846.8,225.5,825.6,225.5z M825.6,150.6c-20.1,0-36.5,16.3-36.5,36.5s16.3,36.5,36.5,36.5c20.2,0,36.5-16.3,36.5-36.5
			C862,166.9,845.7,150.6,825.6,150.6z"/>
		<path id="path140" d="M899,299c-21.2,0-38.5-17.2-38.5-38.5S877.7,222,899,222c21.3,0,38.5,17.2,38.5,38.5S920.3,298.9,899,299z
			 M899,224c-20.1,0-36.5,16.3-36.5,36.5S878.8,297,899,297c20.2,0,36.5-16.3,36.5-36.5S919.2,224,899,224z"/>
		<path id="path142" d="M752.2,299c-21.2,0-38.5-17.2-38.5-38.5s17.2-38.5,38.5-38.5c21.3,0,38.5,17.2,38.5,38.5
			C790.6,281.7,773.4,298.9,752.2,299z M752.2,224c-20.1,0-36.5,16.3-36.5,36.5s16.2,36.2,36.4,36.2s36.6-16,36.6-36.2
			C788.6,240.4,772.3,224,752.2,224z"/>
		<path id="path144" d="M771.7,750.2c-16,0-28.9-13-28.9-28.9s13-28.9,28.9-28.9s28.9,13,28.9,28.9l0,0
			C800.6,737.3,787.7,750.2,771.7,750.2z M771.7,694.3c-14.9,0-26.9,12.1-26.9,26.9s12.1,26.9,26.9,26.9s26.9-12.1,26.9-26.9
			S786.6,694.4,771.7,694.3z"/>
		<path id="path146" d="M762.5,533.4h-12.3c-0.6,0-1-0.4-1-1l0,0c1.7-39.6,33.4-71.3,73-73c0.3,0,0.5,0.1,0.7,0.3
			c0.2,0.2,0.3,0.4,0.3,0.7v12.3c0,3.5-2.6,6.4-6,6.9c-24.7,3.7-44.2,23.1-47.9,47.9C768.9,530.8,766,533.4,762.5,533.4z
			 M751.3,531.4h11.2c2.5,0,4.6-1.8,4.9-4.3c3.9-25.6,24-45.7,49.6-49.6c2.5-0.3,4.3-2.4,4.3-4.9v-11.2
			C783.9,463.5,753.4,494,751.3,531.4z"/>
		<path id="path148" d="M822.3,612.1C822.3,612.1,822.2,612.1,822.3,612.1c-39.6-1.7-71.3-33.4-73-73c0-0.6,0.4-1,1-1h12.3
			c3.5,0,6.4,2.6,6.9,6c3.7,24.7,23.1,44.2,47.9,47.9c3.4,0.5,6,3.4,6,6.9v12.3C823.3,611.6,822.8,612.1,822.3,612.1L822.3,612.1
			L822.3,612.1z M751.3,540c2.2,37.4,32.6,67.8,70,70v-11.2c0-2.5-1.8-4.6-4.3-4.9c-25.6-3.9-45.7-24-49.6-49.6
			c-0.3-2.5-2.4-4.3-4.9-4.3H751.3z"/>
		<path id="path150" d="M828.9,612.1c-0.6,0-1-0.4-1-1l0,0v-12.3c0-3.5,2.6-6.4,6-6.9c24.7-3.7,44.2-23.1,47.9-47.9
			c0.5-3.4,3.4-6,6.9-6H901c0.6,0,1,0.4,1,1l0,0C900.2,578.7,868.6,610.3,828.9,612.1C829,612.1,829,612.1,828.9,612.1L828.9,612.1
			L828.9,612.1z M888.7,540c-2.5,0-4.6,1.8-4.9,4.3c-3.9,25.6-24,45.7-49.6,49.6c-2.5,0.3-4.3,2.4-4.3,4.9V610
			c37.4-2.2,67.8-32.6,70-70H888.7z"/>
		<path id="path152" d="M901,533.4h-12.3c-3.5,0-6.4-2.6-6.9-6c-3.7-24.7-23.1-44.2-47.9-47.9c-3.4-0.5-6-3.4-6-6.9v-12.3
			c0-0.3,0.1-0.5,0.3-0.7c0.2-0.2,0.5-0.3,0.7-0.3c39.6,1.7,71.3,33.4,73,73C902,532.9,901.6,533.3,901,533.4L901,533.4L901,533.4z
			 M829.9,461.4v11.2c0,2.5,1.8,4.6,4.3,4.9c25.6,3.9,45.7,24,49.6,49.6c0.3,2.5,2.4,4.3,4.9,4.3h11.2
			C897.8,494,867.3,463.5,829.9,461.4z"/>
		<path id="path154" d="M825.6,612.2c-1.2,0-2.3,0-3.4-0.1c-0.5,0-0.9-0.5-0.9-1v-12.3c0-2.5-1.8-4.6-4.3-4.9
			c-25.6-3.9-45.7-24-49.6-49.6c-0.3-2.5-2.4-4.3-4.9-4.3h-12.3c-0.5,0-1-0.4-1-0.9c-0.1-1.1-0.1-2.2-0.1-3.4s0-2.3,0.1-3.4
			c0-0.5,0.5-0.9,1-0.9h12.3c2.5,0,4.6-1.8,4.9-4.3c3.9-25.6,24-45.7,49.6-49.6c2.5-0.3,4.3-2.4,4.3-4.9v-12.3c0-0.5,0.4-1,0.9-1
			c2.3-0.1,4.5-0.1,6.8,0c0.5,0,0.9,0.5,0.9,1v12.3c0,2.5,1.8,4.6,4.3,4.9c25.6,3.9,45.7,24,49.6,49.6c0.3,2.5,2.4,4.3,4.9,4.3H901
			c0.5,0,1,0.4,1,0.9c0.1,1.1,0.1,2.2,0.1,3.4s0,2.3-0.1,3.4c0,0.5-0.5,0.9-1,0.9h-12.3c-2.5,0-4.6,1.8-4.9,4.3
			c-3.9,25.6-24,45.7-49.6,49.6c-2.5,0.3-4.3,2.4-4.3,4.9v12.3c0,0.5-0.4,1-0.9,1C827.9,612.1,826.8,612.2,825.6,612.2L825.6,612.2
			L825.6,612.2z M823.3,610.1c1.5,0.1,3.1,0.1,4.7,0v-11.3c0-3.5,2.6-6.4,6-6.9c24.7-3.7,44.2-23.1,47.9-47.9c0.5-3.4,3.4-6,6.9-6
			h11.3v-4.6h-11.4c-3.5,0-6.4-2.6-6.9-6c-3.7-24.7-23.1-44.2-47.9-47.9c-3.4-0.5-6-3.4-6-6.9v-11.3c-1.5-0.1-3.1-0.1-4.7,0v11.3
			c0,3.5-2.6,6.4-6,6.9c-24.7,3.7-44.2,23.1-47.9,47.9c-0.5,3.4-3.4,6-6.9,6h-11.3v4.6h11.3c3.5,0,6.4,2.6,6.9,6
			c3.7,24.7,23.1,44.2,47.9,47.9c3.4,0.5,6,3.4,6,6.9L823.3,610.1L823.3,610.1L823.3,610.1z"/>
		<path id="path1462" class="st4" d="M743,295.5c-6.3-1.7-11.3-3.9-16.5-9.1c-7.7-7.7-11.3-17-10.8-27.7c0.6-13.5,8-25,20-31
			c10.5-5.2,22.6-5.3,32.7-0.3c7.9,3.9,12.8,10,16.6,18c5.2,10.8,4.2,24.4-2.4,34.6c-5,7.6-13.5,13.7-22,15.7
			C755.7,296.8,747.8,296.7,743,295.5L743,295.5L743,295.5z"/>
		<path id="path1464" class="st4" d="M819.4,222.9c0-0.3-3.7-0.9-5.7-1.6c-3-1.1-5.9-2.6-8-4c-6.9-4.6-11.7-10.9-14.5-18.9
			c-1.3-3.8-2.1-5.2-2.1-11.4s0.7-7.2,2.1-11c3.9-11.1,11.8-19.1,22.8-23c4.2-1.5,5.2-2.3,11.6-2.3c6.4,0,7.3,0.8,11.6,2.3
			c14.5,5.2,24,17.6,24.7,32.9c0.5,10.6-2.7,19.5-10.2,26.9c-7.6,7.5-14.4,10.7-24.6,11C823.6,223.7,820.2,223,819.4,222.9
			L819.4,222.9L819.4,222.9z"/>
		<path id="path1466" class="st4" d="M891.7,296.5c-6.7-1-15.6-5.8-20.8-12.9c-3-4.1-6.2-10.7-7.3-15.7
			c-2.8-13.2,2.6-27.9,13.3-35.9c20-15.1,48.1-6.7,56.4,17c1.9,5.3,3,13.3,1.7,19.2c-1.5,6.8-4.9,12.9-10.2,18.2
			c-5.3,5.2-9.9,8-16.4,9.6C903.5,297.2,896.3,297.2,891.7,296.5L891.7,296.5L891.7,296.5z"/>
		<path id="path1468" class="st4" d="M820.4,369.9c-8.1-1.3-14.2-4-20.6-10.3c-3.8-3.7-5.4-6.2-7.2-10c-7.6-15.8-3-33.1,10.8-44.1
			c6.4-5.1,13.6-7.6,22.1-7.6c29.9,0,46.7,33.8,28.7,58c-2.8,3.8-6.3,7.5-10.5,9.8C836.7,369.8,828.1,371.1,820.4,369.9L820.4,369.9
			L820.4,369.9z"/>
		<path id="path1500" class="st6" d="M823.6,602.7c-0.3-8.9-0.8-9.7-10.1-11.9c-21.1-4.8-37.2-20.1-42.6-41.3
			c-0.6-2.2-1.1-5.2-1.1-5.9s-1-2.2-2.2-3.5l-2.3-2l-6.9-0.3h-7v-4h5.9c6.6,0,9.9-1,11.2-3.4c0.4-0.8,1.5-3.9,2-7
			c2.7-16.3,14.9-30.7,29.5-38c4.7-2.4,11.4-4.6,15.5-5.4c6.6-1.1,8.2-3.6,8.2-12.8v-5.9h4v6.9c0,6.6,0.1,7,1.8,8.8
			c1.5,1.6,3.9,1.7,9.5,3.1c20.4,5,35.3,20.5,40.7,40.1c0.8,2.9,1.8,6.4,2.2,7.8c1.2,4.3,3.8,5.6,11.7,5.6h6.5v4h-6.6
			c-7,0-9.9,0.8-10.8,3.1c-0.3,0.7-1.3,4.6-2.1,8c-5.4,21.4-21.3,36.7-42.1,41.5c-9.9,2.3-10.7,3.2-10.7,12.8v6.3h-3.8L823.6,602.7
			L823.6,602.7z"/>
		<path id="path1504" class="st7" d="M752.2,526.5c1.8-15.3,8.9-31.2,20.4-43c11.9-12.2,27.5-19.2,45.7-21.6l2.8-0.4v6.2
			c0,7.9-0.1,8.9-6.8,10.2c-22.3,4.6-41.8,22.1-46.1,44.2c-1.8,9.1-2.4,9.1-11.1,9.1h-5.4L752.2,526.5L752.2,526.5z"/>
		<path id="path1506" class="st7" d="M811.2,608.2c-32.2-6.9-55.7-32.9-59.4-65.6l-0.2-2.1h6.4c6.9,0,6.8,0,7.8,1
			c1.3,1.4,1.5,3.8,2.4,7.9c4.8,21.2,24.2,39.1,46.6,44c6.9,1.5,6.4,2.7,6.4,10.3v5.9l-2.1,0C817.8,609.5,814.3,608.9,811.2,608.2
			L811.2,608.2L811.2,608.2z"/>
		<path id="path1508" class="st7" d="M830,603c-0.3-7.3,1-8.2,5.3-9c4.8-0.8,11.1-2.9,16.3-5.5c15.8-7.7,27.1-22,31.6-39.9
			c1-4,1.6-7.2,2.2-7.7c0.7-0.5,3.9-0.5,7.8-0.5h6.2l-0.4,3.8c-3.8,33.2-31.8,61.3-64.8,65l-4,0.5L830,603L830,603z"/>
		<path id="path1510" class="st7" d="M885.4,529.8c-1.2-1.1-1.3-3-2.1-6.7c-4.4-20.5-19-36.6-39.3-43.5c-2.4-0.8-5.8-1.7-7.5-2
			c-1.9-0.3-3.9-0.6-4.8-1.5c-1.4-1.4-1.3-2.6-1.3-8.2v-6.2l2.5,0.3c19,2.5,32.7,9.2,45.4,22.1c10.4,10.5,17.4,23.8,20.2,38.1
			c0.6,2.9,1,6.1,1,7.1v1.9h-5.9C888.3,531.3,886.8,531.1,885.4,529.8L885.4,529.8L885.4,529.8z"/>
		<path id="path1512" class="st4" d="M720.3,131c-0.5-0.6-0.6-1.7-0.6-7.6v-6.9l-1.1-1.2l-1.1-1.2l-7.1-0.1
			c-4.1-0.1-6.5,0.5-7.6-0.2c-1.3-0.8-0.9-3.1-0.9-7.6s0.1-6.3,0.5-6.8c0.5-0.7,1.1-0.7,7.3-0.8c3.7-0.1,7.1-0.2,7.6-0.3
			c0.5-0.1,1.2-0.7,1.6-1.4c0.7-1.1,0.7-1.9,0.7-7.8c0-3.8,0.2-6.8,0.4-7.3c0.4-0.7,0.9-0.7,7.3-0.7s7,0.1,7.3,0.7
			c0.2,0.4,0.4,3.5,0.4,7.3c0,5.8,0.1,6.7,0.7,7.8c0.4,0.7,1.1,1.3,1.6,1.4s3.9,0.2,7.6,0.3c6.2,0.1,6.8,0.2,7.3,0.8
			c0.4,0.6,0.5,2.2,0.5,6.8s0.7,7.2-0.9,7.9c-1.2,0.5-3.8-0.1-7.6-0.1l-7.1,0.1l-1.1,1.2l-1.1,1.2v6.9c0,6.2-0.1,7-0.7,7.6
			c-0.6,0.5-1.7,0.6-7.1,0.6C721.7,131.7,720.9,131.6,720.3,131L720.3,131L720.3,131z"/>
		<path id="path1514" class="st7" d="M766.6,726.4v-5.3h10.5v10.5h-10.5V726.4L766.6,726.4z"/>
		<path id="path1518" class="st7" d="M766,761.6c-14.8-2.3-27.2-12.3-32.4-26.2c-7.5-20,2.3-43,22-51.4c6.1-2.6,8-3.5,15.7-3.5
			c6.5,0,7.9,0.6,11.3,1.6c14.4,4.4,24.6,14.9,28.6,29.4c0.8,2.9,1.1,5.2,1.1,10.7c0,5.5-0.3,6.2-1.1,9c-4.8,17.7-20,30-38.1,30.5
			C770.5,761.9,767.4,761.8,766,761.6L766,761.6L766,761.6z M778.1,749.7c11.9-2.6,21.3-13,22.5-25.1c2.2-21.5-18.1-37.7-38.5-30.7
			c-4.2,1.4-7,3.3-10.8,7.1c-2.8,2.8-3.8,4.1-5.3,7.2c-2.6,5.1-3.3,8.7-3,14.6c0.3,6.8,2.2,11.7,6.3,16.9
			C755.9,748,767.4,752,778.1,749.7L778.1,749.7L778.1,749.7z"/>
		<path id="path1520" class="st9" d="M648.2,714.3c-1.3-0.8-2.3-0.9-2.5-5.3c-0.2-4.3,0.1-13.5,0.1-32.6c0-32.8-0.5-35.2,0.6-36.3
			c0.1-0.1,0.1-0.2,0.2-0.2c1.1-1.5,2.7-2.1,4.9-2.1h1.9V715h-2C650.1,715,648.9,714.8,648.2,714.3L648.2,714.3L648.2,714.3z"/>
		<path id="path1522" class="st9" d="M649.6,312.1c-0.5-0.1-1.3-0.4-1.8-0.8c-0.8-0.5-1.5-0.8-1.8-2.7c-0.5-3.2-0.2-11.4-0.2-35.1
			c0-19.3-0.5-28.4-0.4-32.5c0.1-2.7,0.8-3.2,1-3.6c0.9-1.6,2.4-2.3,4.8-2.3h2.1v77.3l-1.4,0C651.2,312.3,650.1,312.2,649.6,312.1
			L649.6,312.1L649.6,312.1z"/>
		<path id="path1524" class="st8" d="M978,126.4c-10.1-20.6-21.9-37.2-38.2-53.9c-34.8-35.7-78.7-57-129.6-63.1
			c-5.1-0.6-13.1-0.8-40.9-1l-34.6-0.2V6.9c0-1,0-3,1.4-3.7l2.1-1.1l30.4,0.2c16.9,0.1,33.6,0.2,37,0.5
			c50.8,3.9,97.1,24.6,133.3,59.5c17.6,16.9,31.5,35.7,42.8,57.9c4.3,8.4,4.9,10.1,4.2,11.8c-0.4,1.1-2.7,4.2-3.2,4.1
			C982.6,136.1,980.5,131.5,978,126.4L978,126.4L978,126.4z"/>
		<path id="path1530" class="st4" d="M646.8,903.8c-0.6-0.5-1.7-1.2-1.6-5c0.3-6.7-0.2-27.2-0.1-79.1l0.3-82.6l2.6-6.5l7.9-15
			l0.1-39.4l-0.4-39.6l-7.1-13.2l-2.9-7.7l-0.4-7.3l0.1-48l-0.1-22.1l0.1-34.1l0.1-10.5V483l-0.1-8.6l0-25.6v-19.4l-0.2-27.5
			l0.1-21.6l0-11l0.1-19.6l0-10.2l0.5-5.7l1.9-5.8l3-5.5l5.3-9.8v-39.5l-0.4-39.6l-5.3-9.8l-2.7-5.3l-1.8-5.1l-0.7-7.6l0.2-13.3
			l-0.1-12.2v-11.1l-0.1-10.9l0-9.9V142l0-2.9l0.1-17.4l0-21.5V89.4l-0.1-8.4l0-5.1l-0.2-5.9l2.2-3.1l3.2-1.1l3.2,0.1
			c1.4,0,2.7,0.1,3.9,0.2c0.9,0.1,1.8,0.1,2.6,0.4c1,0.4,1.7,1,2,1.3c0.2,0.2,1.2,1.7,1.3,4.8c0.1,2.1,0,4.7,0,8.3
			c0,4.1,0.1,9.7,0,16.4c-0.1,10,0,23.1-0.1,40.4c0,13.2,0.2,28.7,0.1,47c-0.2,62.8-0.2,158-0.2,301l0,416.2l-1.3,1.8
			C660.4,906.2,649.5,906.5,646.8,903.8L646.8,903.8L646.8,903.8z"/>
		<path id="path1532" class="st4" d="M665.8,465.1V72.7h8.6v784.7h-8.6V465.1L665.8,465.1z"/>
		<ellipse id="path3879" class="st14" cx="771.6" cy="721.1" rx="40.3" ry="40.3"/>
		<ellipse id="path3881" class="st15" cx="771.7" cy="721.4" rx="34.1" ry="34.5"/>
		<path id="path96" d="M771.7,694.3l-26.8,26.4h7.7v22.5h38.5v-22.5h7.2L771.7,694.3L771.7,694.3z M779.5,735.2h-15.2v-14.5h15.2
			V735.2z"/>
	</g>
</g>
</svg>
