<?xml version="1.0" encoding="utf-8"?>
<!-- Generator: Adobe Illustrator 27.9.0, SVG Export Plug-In . SVG Version: 6.00 Build 0)  -->
<svg version="1.1" id="Layer_1" xmlns="http://www.w3.org/2000/svg" xmlns:xlink="http://www.w3.org/1999/xlink" x="0px" y="0px"
	 viewBox="0 0 1000.4 356.1" style="enable-background:new 0 0 1000.4 356.1;" xml:space="preserve">
<style type="text/css">
	.st0{opacity:0.1;}
	.st1{fill:#FF5F55;}
	.st2{fill:#FF5F53;}
	.st3{fill:#FFFFFF;}
	.st4{fill:#1A1A1A;stroke:#000000;}
	.st5{fill:#1A1A1A;stroke:#1A1A1A;}
	.st6{fill:#1A1A1A;stroke:#4D4D4D;}
	.st7{stroke:#000000;}
	.st8{stroke:#4D4D4D;}
	.st9{fill:#999595;stroke:#000000;stroke-width:2.39;stroke-linecap:round;stroke-linejoin:round;}
	.st10{fill:#3A3D40;stroke:#000000;stroke-width:2.73;stroke-linecap:round;stroke-linejoin:round;}
</style>
<g id="g315">
	<g id="g64" class="st0">
		<path id="path36" class="st1" d="M766.5,11.2H687V7c0-3.3,2.7-6,6-6h67.6c3.3,0,6,2.7,6,6L766.5,11.2L766.5,11.2z"/>
		<path id="path38" class="st1" d="M363.8,11.2h-79.5V7c0-3.3,2.7-6,6-6h67.6c3.3,0,6,2.7,6,6L363.8,11.2L363.8,11.2z"/>
		<path id="path40" class="st1" d="M865.5,342.3l-3.4-3.4c78-33.2,128.7-109.8,128.7-194.7V90h2.6c3.3,0,6,2.7,6,6v51.2
			c0,84.8-49.8,161.7-127.2,196.4C869.9,344.6,867.3,344.1,865.5,342.3L865.5,342.3L865.5,342.3z"/>
		<path id="path42" class="st1" d="M905.9,92.8h11.7c1.6,0,3-1.3,3-3V78.1c0-1.6-1.3-3-3-3l0,0h-11.7c-1.6,0-3-1.3-3-3V60.4
			c0-1.6-1.3-3-3-3l0,0h-11.7c-1.6,0-3,1.3-3,3v11.7c0,1.6-1.3,3-3,3l0,0h-11.7c-1.6,0-3,1.3-3,3v11.7c0,1.6,1.3,3,3,3l0,0h11.7
			c1.6,0,3,1.3,3,3v11.7c0,1.6,1.3,3,3,3l0,0h11.7c1.6,0,3-1.3,3-3V95.8C902.9,94.1,904.3,92.8,905.9,92.8L905.9,92.8z"/>
		<circle id="circle44" class="st1" cx="666.5" cy="182.2" r="37.5"/>
		<circle id="circle46" class="st1" cx="813.3" cy="182.2" r="37.5"/>
		<circle id="circle48" class="st1" cx="739.9" cy="255.6" r="37.5"/>
		<circle id="circle50" class="st1" cx="739.9" cy="108.8" r="37.5"/>
		<circle id="circle52" class="st1" cx="279.1" cy="128.3" r="27.9"/>
		<path id="path54" class="st1" d="M540.1,178.9h-12.3c-3,0-5.5-2.2-5.9-5.2c-3.7-25.2-23.5-45-48.7-48.7c-2.9-0.4-5.1-2.9-5.2-5.9
			v-12.3C507.1,108.5,538.4,139.8,540.1,178.9L540.1,178.9L540.1,178.9z"/>
		<path id="path56" class="st1" d="M401.6,178.9h-12.3c1.7-39.1,33-70.3,72-72.1v12.3c0,3-2.2,5.5-5.2,5.9
			c-25.2,3.7-45,23.5-48.7,48.7C407.1,176.7,404.6,178.9,401.6,178.9L401.6,178.9L401.6,178.9z"/>
		<path id="path58" class="st1" d="M461.4,257.6c-39.1-1.7-70.3-33-72-72.1h12.3c3,0,5.5,2.2,5.9,5.2c3.7,25.2,23.5,45,48.7,48.7
			c2.9,0.4,5.1,2.9,5.2,5.9L461.4,257.6L461.4,257.6z"/>
		<path id="path60" class="st1" d="M468,257.6v-12.3c0-3,2.2-5.5,5.2-5.9c25.2-3.7,45-23.5,48.7-48.7c0.4-2.9,2.9-5.1,5.9-5.2h12.3
			C538.4,224.6,507.1,255.9,468,257.6L468,257.6L468,257.6z"/>
		<path id="path62" class="st1" d="M464.7,257.7c-1.1,0-2.2,0-3.3-0.1v-12.3c0-3-2.2-5.5-5.2-5.9c-25.2-3.7-45-23.5-48.7-48.7
			c-0.4-2.9-2.9-5.1-5.9-5.2h-12.3c-0.1-1.1-0.1-2.2-0.1-3.3s0-2.2,0.1-3.3h12.3c3,0,5.5-2.2,5.9-5.2c3.7-25.2,23.5-45,48.7-48.7
			c2.9-0.4,5.1-2.9,5.2-5.9v-12.3c1.1-0.1,2.2-0.1,3.3-0.1s2.2,0,3.3,0.1v12.3c0,3,2.2,5.5,5.2,5.9c25.2,3.7,45,23.5,48.7,48.7
			c0.4,2.9,2.9,5.1,5.9,5.2h12.3c0.1,1.1,0.1,2.2,0.1,3.3s0,2.2-0.1,3.3h-12.3c-3,0-5.5,2.2-5.9,5.2c-3.7,25.2-23.5,45-48.7,48.7
			c-2.9,0.4-5.1,2.9-5.2,5.9v12.3C466.9,257.6,465.8,257.7,464.7,257.7L464.7,257.7z"/>
	</g>
	<path id="path72" d="M93.8,14.9V7c0-3.6,2.9-6.4,6.5-6.5h157.2c4.9,0,9.6,1.2,13.9,3.4l13,6.7h79.2l13-6.7c4.3-2.2,9.1-3.4,14-3.4
		h269.7c4.9,0,9.6,1.2,13.9,3.4l13,6.7h79.2l13-6.7c4.3-2.2,9.1-3.4,14-3.4h135.8c3.6,0,6.4,2.9,6.5,6.5v7.9c0,3.6-2.9,6.4-6.5,6.5
		c-276.3,1.1-552.6,1.2-828.9,0C96.7,21.3,93.8,18.4,93.8,14.9L93.8,14.9L93.8,14.9z M934.7,7c0-3-2.4-5.5-5.5-5.5H793.4
		c-4.7,0-9.3,1.1-13.5,3.3l-13.1,6.8c-0.1,0-0.1,0.1-0.2,0.1h-79.5c-0.1,0-0.2,0-0.2-0.1l-13.1-6.8c-4.2-2.2-8.8-3.3-13.5-3.3H390.6
		c-4.7,0-9.3,1.1-13.5,3.3L364,11.6c-0.1,0-0.1,0.1-0.2,0.1h-79.5c-0.1,0-0.2,0-0.2-0.1L271,4.8c-4.2-2.2-8.8-3.3-13.5-3.3H100.3
		c-3,0-5.5,2.4-5.5,5.5v7.9c0,3,2.4,5.5,5.5,5.5h828.9c3,0,5.5-2.4,5.5-5.5L934.7,7L934.7,7z"/>
	<path id="path74" d="M141.5,32.1V20.8c0-0.3,0.2-0.5,0.5-0.5l0,0l786.4,0.8c0.3,0,0.5,0.2,0.5,0.5v11.3c0,0.3-0.2-0.3-0.5-0.3H142
		C141.7,32.6,141.5,32.4,141.5,32.1z M142.5,22.2v9.4L928,32.4V22.1l-8.8,1c-256.1-0.6-511.8,4.5-768.3-1.1
		C148.1,21.9,145.3,22.2,142.5,22.2L142.5,22.2z"/>
	<path id="path76" d="M0.2,144V37.8c0-3.6,2.9-6.5,6.5-6.5h978c3.6,0,6.5,2.9,6.5,6.5V144c0,116.8-95.1,211.9-211.9,211.9H212.1
		C95.1,355.9,0.2,261.1,0.2,144L0.2,144L0.2,144z M990.1,37.8c0-3-2.4-5.5-5.5-5.5H6.6c-3,0-5.5,2.4-5.5,5.5V144
		c0,116.3,94.6,210.9,210.9,210.9h567.3c116.3,0,210.9-94.6,210.9-210.9L990.1,37.8L990.1,37.8z"/>
	<path id="path128" d="M686.1,11.2V7c0-3.8,3.1-6.9,7-7h67.6c3.8,0,6.9,3.1,7,7v4.2c0,0.6-0.4,1-1,1l0,0h-79.5
		C686.5,12.2,686.1,11.7,686.1,11.2L686.1,11.2z M765.6,7c0-2.7-2.2-5-5-5H693c-2.7,0-5,2.2-5,5v3.2h77.5L765.6,7L765.6,7z"/>
	<path id="path130" d="M283.3,11.2V7c0-3.8,3.1-6.9,7-7h67.6c3.8,0,6.9,3.1,7,7v4.2c0,0.6-0.4,1-1,1l0,0h-79.5
		C283.8,12.2,283.3,11.7,283.3,11.2L283.3,11.2z M362.8,7c0-2.7-2.2-5-5-5h-67.6c-2.7,0-5,2.2-5,5v3.2h77.5L362.8,7L362.8,7z"/>
	<path id="path1240" class="st2" d="M1.8,162.1c2.4,26.6,9.2,50.5,21.8,76c2.5,5.1,5.2,10,8,14.9c11.3,19.1,27.1,36.3,41.7,49.6
		c28,25.5,70.1,45.5,116.5,51.4c0.7,0.1,4.3,0.4,6.8,0.4c6.9-0.1,20,0.7,38.3,0.8c77.5,0.7,244,1.1,376.4,1.1
		c101.2,0,182.5-0.3,188.9-1c26.1-2.7,49.1-9.3,72.1-20.8c63.9-31.8,107.4-93,116.7-164c1.5-11.4,1.6-60.7,1.3-96.6
		c-0.1-7.7,0.1-14.1-0.1-20.1c-0.2-7.5,0.1-12.9-0.2-16.2c-0.2-1.7-0.8-3-1-3.2c-0.1-0.1-1.4-1.4-3.3-1.5c-5.2-0.3-17.1-0.3-38-0.4
		c-4.2,0-8.8-0.1-13.8-0.1c-4.9,0-10.1,0.1-15.8,0.1c-8.8,0-18.6,0.1-29.2,0.1c-9.8,0-20.5-0.2-32,0c-9,0.2-18.4,0.2-28.4,0.2
		c-15.1-0.1-31.1,0.6-49,0.3c-15-0.2-30,0.1-46.9,0c-11.1-0.1-22.6,0.1-34.6,0c-7.2-0.1-14.5,0-22.1-0.1c-52.1-0.5-112.2,0-180.3,0
		c-254.3,0-376.1-0.3-435.2,0c-7.7,0-14.5-0.2-20.2-0.1c-2.2,0-4.3,0-6.2,0c-3.3,0-6.6,0-9.3,0c-2.9,0-5.8-0.1-8,0
		c-5,0.1-8.1,0.1-10,0.3c-2.8,0.3-3.6,1.3-3.8,1.6c-0.2,0.2-0.9,1.3-1.1,3.1c-0.4,4.5-0.3,14.6-0.2,27.1c0.1,9.9,0.2,21.3,0.2,32.8
		C1.7,129.3,1.5,162.4,1.8,162.1L1.8,162.1L1.8,162.1z"/>
	<path id="path78" d="M237.2,128.3c0-23.1,18.7-41.9,41.9-41.9s41.9,18.7,41.9,41.9s-18.7,41.9-41.9,41.9l0,0
		C256,170.1,237.3,151.4,237.2,128.3z M320,128.3c0-22.6-18.3-40.9-40.9-40.9s-40.9,18.3-40.9,40.9s18.3,40.9,40.9,40.9l0,0
		C301.7,169.1,320,150.9,320,128.3z"/>
	<path id="path92" class="st3" d="M723.9,269.2v-4.7l7-2.2l-0.3-12.4l-6.7-3.2v-4.5l35.2,9.9l-3.2,6.7L723.9,269.2z M735.2,260.5
		l14.6-4.9L735,251L735.2,260.5L735.2,260.5z"/>
	<path id="path132" d="M861.1,338.9v-0.2c0.1-0.3,0.3-0.6,0.6-0.7c77.7-33,128.2-109.3,128.1-193.8V90c0-0.6,0.4-1,1-1l0,0h2.6
		c3.8,0,6.9,3.1,7,7v51.2c-0.1,85.2-50.1,162.4-127.8,197.3c-2.6,1.2-5.7,0.6-7.8-1.5l-3.4-3.4C861.2,339.4,861.1,339.1,861.1,338.9
		L861.1,338.9z M991.8,91v53.2c0.1,84.7-50.2,161.3-128,195l2.4,2.4l0,0c1.4,1.5,3.6,1.9,5.5,1.1c77-34.6,126.6-111.1,126.7-195.5
		V96c0-2.7-2.2-5-5-5H991.8z"/>
	<path id="path134" d="M866.7,89.8V78.1c0-2.2,1.8-4,4-4h11.7c1.1,0,2-0.9,2-2V60.4c0-2.2,1.8-4,4-4h11.7c2.2,0,4,1.8,4,4v11.7
		c0,1.1,0.9,2,2,2h11.5c2.2,0,4,1.8,4,4v11.7c0,2.2-1.8,4-4,4h-11.7c-1.1,0-2,0.9-2,2v11.7c0,2.2-1.8,4-4,4h-11.7c-2.2,0-4-1.8-4-4
		V95.8c0-1.1-0.9-2-2-2h-11.7C868.5,93.8,866.7,92,866.7,89.8z M901.9,60.5c0-1.1-0.9-2-2-2h-11.7c-1.1,0-2,0.9-2,2v11.7
		c0,2.2-1.8,4-4,4h-11.7c-1.1,0-2,0.9-2,2v11.7c0,1.1,0.9,2,2,2h11.7c2.2,0,4,1.8,4,4v11.7c0,1.1,0.9,2,2,2h11.7c1.1,0,2-0.9,2-2
		V95.9c0-2.2,1.8-4,4-4h11.7c1.1,0,2-0.9,2-2V78.2c0-1.1-0.9-2-2-2h-11.7c-2.2,0-4-1.8-4-4V60.5z"/>
	<path id="path136" d="M628,182.2c0-21.2,17.2-38.5,38.5-38.5s38.5,17.2,38.5,38.5s-17.2,38.5-38.5,38.5
		C645.2,220.6,628,203.4,628,182.2z M702.9,182.2c0-20.1-16.3-36.5-36.5-36.5s-36.5,16.3-36.5,36.5s16.3,36.5,36.5,36.5
		C686.6,218.6,702.9,202.3,702.9,182.2z"/>
	<path id="path138" d="M774.9,182.2c0-21.2,17.2-38.5,38.5-38.5s38.5,17.2,38.5,38.5s-17.2,38.5-38.5,38.5
		C792.1,220.6,774.9,203.4,774.9,182.2z M849.8,182.2c0-20.1-16.3-36.5-36.5-36.5c-20.2,0-36.5,16.3-36.5,36.5s16.3,36.5,36.5,36.5
		C833.5,218.6,849.8,202.3,849.8,182.2z"/>
	<path id="path140" d="M701.4,255.6c0-21.2,17.2-38.5,38.5-38.5s38.5,17.2,38.5,38.5s-17.2,38.5-38.5,38.5S701.5,276.9,701.4,255.6z
		 M776.4,255.6c0-20.1-16.3-36.5-36.5-36.5s-36.5,16.3-36.5,36.5s16.3,36.5,36.5,36.5S776.4,275.8,776.4,255.6z"/>
	<path id="path142" d="M701.4,108.8c0-21.2,17.2-38.5,38.5-38.5s38.5,17.2,38.5,38.5s-17.2,38.5-38.5,38.5
		C718.7,147.2,701.5,130,701.4,108.8z M776.4,108.8c0-20.1-16.3-36.5-36.5-36.5s-36.2,16.2-36.2,36.4s16,36.6,36.2,36.6
		C760,145.2,776.4,128.9,776.4,108.8z"/>
	<path id="path144" d="M250.2,128.3c0-16,13-28.9,28.9-28.9s28.9,13,28.9,28.9s-13,28.9-28.9,28.9l0,0
		C263.1,157.2,250.2,144.3,250.2,128.3z M306.1,128.3c0-14.9-12.1-26.9-26.9-26.9s-26.9,12.1-26.9,26.9s12.1,26.9,26.9,26.9
		S306,143.2,306.1,128.3z"/>
	<path id="path146" d="M467,119.1v-12.3c0-0.6,0.4-1,1-1l0,0c39.6,1.7,71.3,33.4,73,73c0,0.3-0.1,0.5-0.3,0.7s-0.4,0.3-0.7,0.3
		h-12.3c-3.5,0-6.4-2.6-6.9-6c-3.7-24.7-23.1-44.2-47.9-47.9C469.6,125.5,467,122.6,467,119.1z M469,107.9v11.2
		c0,2.5,1.8,4.6,4.3,4.9c25.6,3.9,45.7,24,49.6,49.6c0.3,2.5,2.4,4.3,4.9,4.3H539C536.9,140.5,506.4,110,469,107.9z"/>
	<path id="path148" d="M388.3,178.9C388.3,178.9,388.3,178.8,388.3,178.9c1.7-39.6,33.4-71.3,73-73c0.6,0,1,0.4,1,1v12.3
		c0,3.5-2.6,6.4-6,6.9c-24.7,3.7-44.2,23.1-47.9,47.9c-0.5,3.4-3.4,6-6.9,6h-12.3C388.8,179.9,388.3,179.4,388.3,178.9L388.3,178.9
		L388.3,178.9z M460.4,107.9c-37.4,2.2-67.8,32.6-70,70h11.2c2.5,0,4.6-1.8,4.9-4.3c3.9-25.6,24-45.7,49.6-49.6
		c2.5-0.3,4.3-2.4,4.3-4.9V107.9z"/>
	<path id="path150" d="M388.3,185.5c0-0.6,0.4-1,1-1l0,0h12.3c3.5,0,6.4,2.6,6.9,6c3.7,24.7,23.1,44.2,47.9,47.9
		c3.4,0.5,6,3.4,6,6.9v12.3c0,0.6-0.4,1-1,1l0,0C421.7,256.8,390.1,225.2,388.3,185.5C388.3,185.6,388.3,185.6,388.3,185.5
		L388.3,185.5L388.3,185.5z M460.4,245.3c0-2.5-1.8-4.6-4.3-4.9c-25.6-3.9-45.7-24-49.6-49.6c-0.3-2.5-2.4-4.3-4.9-4.3h-11.2
		c2.2,37.4,32.6,67.8,70,70V245.3z"/>
	<path id="path152" d="M467,257.6v-12.3c0-3.5,2.6-6.4,6-6.9c24.7-3.7,44.2-23.1,47.9-47.9c0.5-3.4,3.4-6,6.9-6h12.3
		c0.3,0,0.5,0.1,0.7,0.3s0.3,0.5,0.3,0.7c-1.7,39.6-33.4,71.3-73,73C467.5,258.6,467.1,258.2,467,257.6L467,257.6L467,257.6z
		 M539,186.5h-11.2c-2.5,0-4.6,1.8-4.9,4.3c-3.9,25.6-24,45.7-49.6,49.6c-2.5,0.3-4.3,2.4-4.3,4.9v11.2
		C506.4,254.4,536.9,223.9,539,186.5z"/>
	<path id="path154" d="M388.2,182.2c0-1.2,0-2.3,0.1-3.4c0-0.5,0.5-0.9,1-0.9h12.3c2.5,0,4.6-1.8,4.9-4.3
		c3.9-25.6,24-45.7,49.6-49.6c2.5-0.3,4.3-2.4,4.3-4.9v-12.3c0-0.5,0.4-1,0.9-1c1.1-0.1,2.2-0.1,3.4-0.1s2.3,0,3.4,0.1
		c0.5,0,0.9,0.5,0.9,1v12.3c0,2.5,1.8,4.6,4.3,4.9c25.6,3.9,45.7,24,49.6,49.6c0.3,2.5,2.4,4.3,4.9,4.3h12.3c0.5,0,1,0.4,1,0.9
		c0.1,2.3,0.1,4.5,0,6.8c0,0.5-0.5,0.9-1,0.9h-12.3c-2.5,0-4.6,1.8-4.9,4.3c-3.9,25.6-24,45.7-49.6,49.6c-2.5,0.3-4.3,2.4-4.3,4.9
		v12.3c0,0.5-0.4,1-0.9,1c-1.1,0.1-2.2,0.1-3.4,0.1s-2.3,0-3.4-0.1c-0.5,0-0.9-0.5-0.9-1v-12.3c0-2.5-1.8-4.6-4.3-4.9
		c-25.6-3.9-45.7-24-49.6-49.6c-0.3-2.5-2.4-4.3-4.9-4.3h-12.3c-0.5,0-1-0.4-1-0.9C388.3,184.5,388.2,183.4,388.2,182.2L388.2,182.2
		L388.2,182.2z M390.3,179.9c-0.1,1.5-0.1,3.1,0,4.7h11.3c3.5,0,6.4,2.6,6.9,6c3.7,24.7,23.1,44.2,47.9,47.9c3.4,0.5,6,3.4,6,6.9
		v11.3h4.6v-11.4c0-3.5,2.6-6.4,6-6.9c24.7-3.7,44.2-23.1,47.9-47.9c0.5-3.4,3.4-6,6.9-6h11.3c0.1-1.5,0.1-3.1,0-4.7h-11.3
		c-3.5,0-6.4-2.6-6.9-6c-3.7-24.7-23.1-44.2-47.9-47.9c-3.4-0.5-6-3.4-6-6.9v-11.3h-4.6V119c0,3.5-2.6,6.4-6,6.9
		c-24.7,3.7-44.2,23.1-47.9,47.9c-0.5,3.4-3.4,6-6.9,6h-11.3V179.9L390.3,179.9z"/>
	<path id="path1462" class="st4" d="M705,99.6c1.7-6.3,3.9-11.3,9.1-16.5c7.7-7.7,17-11.3,27.7-10.8c13.5,0.6,25,8,31,20
		c5.2,10.5,5.3,22.5,0.3,32.7c-4,7.9-10,12.8-18,16.6c-10.8,5.2-24.4,4.2-34.6-2.4c-7.7-5-13.7-13.5-15.7-22
		C703.6,112.3,703.7,104.4,705,99.6L705,99.6L705,99.6z"/>
	<path id="path1464" class="st4" d="M777.6,176c0.3,0,0.9-3.7,1.6-5.7c1.1-3,2.6-5.9,4-8c4.6-6.9,10.9-11.7,18.9-14.5
		c3.8-1.3,5.2-2.1,11.5-2.1s7.2,0.7,11,2.1c11.1,3.9,19.1,11.8,23,22.8c1.5,4.2,2.3,5.2,2.3,11.6s-0.8,7.3-2.3,11.6
		c-5.2,14.5-17.6,24-32.9,24.7c-10.6,0.5-19.5-2.7-26.9-10.2c-7.5-7.6-10.7-14.4-11-24.6C776.7,180.2,777.4,176.7,777.6,176
		L777.6,176L777.6,176z"/>
	<path id="path1466" class="st4" d="M704,248.2c1-6.7,5.8-15.6,12.9-20.8c4.1-3,10.7-6.2,15.7-7.3c13.2-2.8,27.9,2.6,35.9,13.3
		c15.2,20,6.7,48.1-17,56.4c-5.3,1.9-13.3,3-19.2,1.7c-6.8-1.5-12.9-4.9-18.2-10.2c-5.2-5.3-8-9.9-9.6-16.4
		C703.3,260.1,703.3,252.9,704,248.2L704,248.2L704,248.2z"/>
	<path id="path1468" class="st4" d="M630.6,177c1.3-8.1,4-14.2,10.3-20.6c3.7-3.8,6.2-5.4,10-7.2c15.8-7.6,33.1-3,44.1,10.8
		c5.1,6.4,7.6,13.6,7.6,22.1c0,29.9-33.8,46.7-58,28.7c-3.8-2.8-7.5-6.3-9.8-10.5C630.7,193.3,629.4,184.7,630.6,177L630.6,177
		L630.6,177z"/>
	<path id="path1500" class="st5" d="M397.8,180.2c8.9-0.3,9.7-0.8,11.9-10.1c4.8-21.1,20.1-37.2,41.3-42.6c2.2-0.5,5.2-1.1,5.9-1.1
		s2.2-1,3.5-2.2l2-2.3l0.3-6.9v-7h4v5.9c0,6.6,1,9.9,3.4,11.2c0.8,0.4,3.9,1.5,7,2c16.3,2.7,30.7,14.9,38,29.5
		c2.4,4.7,4.6,11.4,5.4,15.5c1.1,6.6,3.6,8.2,12.8,8.2h5.9v4H532c-6.6,0-7,0.1-8.8,1.8c-1.6,1.5-1.7,3.9-3.1,9.5
		c-5,20.4-20.5,35.3-40.2,40.7c-2.9,0.8-6.4,1.8-7.8,2.2c-4.3,1.2-5.6,3.8-5.6,11.7v6.5h-4V250c0-7-0.8-9.9-3.1-10.8
		c-0.7-0.3-4.6-1.3-8-2.1c-21.4-5.4-36.7-21.3-41.5-42.1c-2.3-10-3.2-10.7-12.8-10.7h-6.3v-3.8L397.8,180.2L397.8,180.2z"/>
	<path id="path1504" class="st6" d="M473.9,108.8c15.3,1.8,31.2,8.9,43,20.4c12.2,12,19.2,27.5,21.6,45.7l0.4,2.8h-6.2
		c-7.9,0-8.9-0.1-10.2-6.8c-4.6-22.3-22.1-41.8-44.2-46.1c-9.1-1.8-9.1-2.4-9.1-11.1v-5.4L473.9,108.8L473.9,108.8z"/>
	<path id="path1506" class="st6" d="M392.2,167.8c6.9-32.2,32.9-55.7,65.6-59.4l2.1-0.2v6.4c0,6.9,0,6.8-1,7.8
		c-1.4,1.3-3.8,1.5-7.9,2.4c-21.2,4.8-39.1,24.2-44,46.6c-1.5,6.9-2.7,6.4-10.3,6.4h-5.9l0-2.1C391,174.4,391.5,170.9,392.2,167.8
		L392.2,167.8L392.2,167.8z"/>
	<path id="path1508" class="st6" d="M397.4,186.6c7.3-0.3,8.2,1,9,5.3c0.8,4.8,2.9,11.1,5.5,16.3c7.7,15.8,22,27.1,39.9,31.6
		c4,1,7.2,1.6,7.7,2.2c0.5,0.7,0.5,3.9,0.5,7.8v6.2l-3.8-0.4c-33.2-3.8-61.3-31.8-65-64.8l-0.5-4L397.4,186.6L397.4,186.6z"/>
	<path id="path1510" class="st6" d="M470.6,242c1.1-1.2,3-1.3,6.7-2.1c20.5-4.4,36.6-19,43.5-39.3c0.8-2.4,1.7-5.8,2-7.5
		c0.3-1.9,0.6-3.9,1.5-4.8c1.4-1.4,2.6-1.3,8.2-1.3h6.2l-0.3,2.5c-2.5,19-9.2,32.7-22.1,45.4c-10.6,10.4-23.8,17.4-38.2,20.2
		c-2.9,0.5-6.1,1-7.1,1h-1.9v-5.9C469.2,244.9,469.3,243.4,470.6,242L470.6,242L470.6,242z"/>
	<path id="path1512" class="st4" d="M869.4,76.9c0.6-0.5,1.7-0.6,7.5-0.6h6.9l1.2-1.1l1.2-1.1l0.1-7.1c0.1-4.1-0.5-6.5,0.2-7.6
		c0.8-1.3,3.1-0.9,7.6-0.9s6.3,0.1,6.8,0.5c0.7,0.5,0.7,1.1,0.8,7.3c0,3.7,0.2,7.1,0.3,7.6c0.1,0.5,0.7,1.2,1.4,1.6
		c1.1,0.7,1.9,0.7,7.8,0.7c3.8,0,6.9,0.2,7.3,0.4c0.7,0.4,0.7,0.9,0.7,7.3s0,7-0.7,7.3c-0.4,0.2-3.5,0.4-7.3,0.4
		c-5.8,0-6.7,0.1-7.8,0.7c-0.7,0.4-1.3,1.1-1.4,1.6s-0.2,3.9-0.3,7.6c-0.1,6.2-0.2,6.8-0.8,7.3c-0.6,0.4-2.2,0.5-6.8,0.5
		c-4.7,0-7.2,0.7-7.9-0.9c-0.5-1.2,0.1-3.8,0.1-7.5l-0.1-7.1l-1.2-1.1l-1.2-1.1h-6.9c-6.2,0-7-0.1-7.5-0.7c-0.5-0.6-0.6-1.7-0.6-7.1
		C868.7,78.2,868.8,77.5,869.4,76.9L869.4,76.9L869.4,76.9z"/>
	<path id="path1514" class="st6" d="M274,123.2h5.3v10.5h-10.5v-10.5H274L274,123.2z"/>
	<path id="path1518" class="st6" d="M238.8,122.6c2.3-14.8,12.3-27.2,26.2-32.4c20-7.5,43,2.3,51.4,22c2.6,6.1,3.5,8,3.5,15.7
		c0,6.5-0.6,7.9-1.6,11.3c-4.4,14.4-14.9,24.6-29.4,28.6c-2.9,0.8-5.2,1.1-10.7,1.1c-5.5,0-6.2-0.3-9-1.1
		c-17.7-4.8-29.9-20-30.5-38.1C238.5,127.1,238.6,124,238.8,122.6L238.8,122.6L238.8,122.6z M250.8,134.7
		c2.6,11.9,13,21.3,25.1,22.5c21.5,2.2,37.7-18.1,30.7-38.5c-1.4-4.2-3.3-7-7.1-10.8c-2.8-2.8-4.1-3.8-7.2-5.3
		c-5.1-2.6-8.7-3.3-14.6-3c-6.8,0.3-11.7,2.2-16.9,6.3C252.4,112.5,248.4,124,250.8,134.7L250.8,134.7L250.8,134.7z"/>
	<path id="path1520" class="st7" d="M286.1,4.8c0.8-1.3,0.9-2.3,5.3-2.5c4.3-0.2,13.5,0.1,32.6,0.1c32.8,0,35.2-0.5,36.3,0.6
		c0.1,0.1,0.2,0.1,0.2,0.2c1.5,1.1,2.1,2.7,2.1,4.9v1.9h-77.3v-2C285.4,6.6,285.7,5.5,286.1,4.8L286.1,4.8L286.1,4.8z"/>
	<path id="path1522" class="st7" d="M688.3,6.2c0.1-0.5,0.4-1.3,0.8-1.8c0.5-0.8,0.8-1.5,2.7-1.8c3.2-0.5,11.4-0.2,35.1-0.2
		c19.3,0,28.3-0.5,32.5-0.4c2.7,0.1,3.2,0.8,3.6,1c1.6,0.9,2.3,2.4,2.3,4.8v2.1h-77.3l0-1.4C688.1,7.7,688.2,6.7,688.3,6.2
		L688.3,6.2L688.3,6.2z"/>
	<path id="path1524" class="st8" d="M874,334.6c20.6-10.1,37.2-21.9,53.9-38.2c35.7-34.8,57-78.7,63.1-129.7
		c0.6-5.1,0.8-13.1,1-40.9l0.2-34.6h1.4c1,0,3,0,3.7,1.4l1.1,2.1l-0.2,30.4c-0.1,16.9-0.2,33.5-0.5,37
		c-3.9,50.8-24.6,97.1-59.5,133.3c-16.9,17.6-35.7,31.5-57.9,42.8c-8.4,4.3-10.1,4.9-11.8,4.2c-1.1-0.4-4.2-2.7-4.1-3.2
		C864.4,339.2,869,337.1,874,334.6L874,334.6L874,334.6z"/>
	<path id="path1530" class="st4" d="M96.7,3.4c0.5-0.6,1.2-1.7,5-1.6c6.7,0.3,27.2-0.2,79.1-0.1L263.4,2l6.5,2.6l15,7.9l39.4,0.1
		l39.6-0.4l13.2-7.1l7.7-2.9l7.3-0.4l48,0.1l22.1-0.1l34.1,0.1l10.5,0.1h10.5l8.6-0.1l25.6,0h19.4l27.5-0.2L620,1.8l11,0l19.6,0.1
		l10.2,0l5.7,0.5l5.8,1.9l5.5,3l9.8,5.3h39.5l39.6-0.4l9.8-5.3l5.3-2.7l5.1-1.8l7.6-0.7l13.3,0.2l12.2-0.1h11.1l10.9,0l9.9,0h6.5
		l2.9,0l17.4,0.1l21.5,0h10.8l8.4-0.1l5.1,0l5.9-0.2l3.1,2.2l1.1,3.2l-0.1,3.2c0,1.4-0.1,2.7-0.2,3.9c-0.1,0.9-0.1,1.8-0.4,2.6
		c-0.4,1-1,1.7-1.3,2c-0.2,0.2-1.7,1.2-4.8,1.3c-2.1,0.1-4.7,0-8.3,0c-4.1,0-9.7,0.1-16.4,0c-10-0.1-23.1,0-40.4-0.1
		c-13.2,0-28.7,0.2-47,0.1c-62.8-0.2-158-0.2-301-0.2L98.7,20l-1.8-1.3C94.3,16.9,94,6.1,96.7,3.4L96.7,3.4L96.7,3.4z"/>
	<path id="path1532" class="st4" d="M535.4,22.4h392.4V31H143v-8.6H535.4L535.4,22.4z"/>
	<ellipse id="path3879" class="st9" cx="279.4" cy="128.2" rx="40.3" ry="40.3"/>
	<ellipse id="path3881" class="st10" cx="279.1" cy="128.2" rx="34.5" ry="34.1"/>
	<path id="path96" d="M306.1,128.3l-26.4-26.8v7.7h-22.5v38.5h22.5v7.2L306.1,128.3L306.1,128.3z M265.2,136.1v-15.2h14.5v15.2
		H265.2z"/>
</g>
</svg>
