<?xml version="1.0" encoding="utf-8"?>
<!-- Generator: Adobe Illustrator 22.0.1, SVG Export Plug-In . SVG Version: 6.00 Build 0)  -->
<svg version="1.1" id="Layer_1" xmlns="http://www.w3.org/2000/svg" xmlns:xlink="http://www.w3.org/1999/xlink" x="0px" y="0px"
	 viewBox="0 0 1000.8 1000" style="enable-background:new 0 0 1000.8 1000;" xml:space="preserve">
<style type="text/css">
	.st0{opacity:0.1;}
	.st1{fill:#02C5E5;}
	.st2{fill:#FFFFFF;}
</style>
<g class="st0">
	<path class="st1" d="M419.1,642.6v67.6c0,3.3-2.7,6-6,6h-4.2v-79.5h4.2C416.4,636.6,419.1,639.3,419.1,642.6z"/>
	<path class="st1" d="M419.1,239.8v67.6c0,3.3-2.7,6-6,6h-4.2v-79.5h4.2C416.4,233.9,419.1,236.5,419.1,239.8z"/>
	<path class="st1" d="M330.1,7v2.6h-54.2c-84.8,0-161.4,50.7-194.6,128.7l-3.4-3.4c-1.8-1.7-2.3-4.4-1.3-6.6
		C111.2,50.8,188.1,1,272.9,1h51.2C327.4,1,330.1,3.7,330.1,7z"/>
	<path class="st1" d="M359.6,115.1h-46.9c-1.6,0-3-1.3-3-3v-11.7c0-1.6,1.3-3,3-3h46.9c1.6,0,3,1.3,3,3v11.7
		C362.6,113.8,361.3,115.1,359.6,115.1z"/>
	<circle class="st1" cx="237.9" cy="464.4" r="37.5"/>
	<circle class="st1" cx="237.9" cy="611.3" r="37.5"/>
	<circle class="st1" cx="311.4" cy="537.9" r="37.5"/>
	<ellipse class="st1" cx="164.5" cy="537.9" rx="37.5" ry="37.5"/>
	<path class="st1" d="M269.1,689.9h45c4.9,0,8.9,4,8.9,8.9v45c0,4.9-4,8.9-8.9,8.9h-45c-4.9,0-8.9-4-8.9-8.9v-45
		C260.2,693.9,264.2,689.9,269.1,689.9z"/>
	<circle class="st1" cx="291.6" cy="721.3" r="19.4"/>
	<path class="st1" d="M234.6,187.1v12.3c0,3-2.2,5.5-5.2,5.9c-25.2,3.7-45,23.5-48.7,48.7c-0.4,2.9-2.9,5.1-5.9,5.2h-12.3
		C164.3,220.1,195.5,188.9,234.6,187.1z"/>
	<path class="st1" d="M234.6,325.6v12.3c-39.1-1.7-70.3-33-72.1-72h12.3c3,0,5.5,2.2,5.9,5.2c3.7,25.2,23.5,45,48.7,48.7
		C232.4,320.1,234.6,322.6,234.6,325.6z"/>
	<path class="st1" d="M313.3,265.9c-1.7,39.1-33,70.3-72.1,72v-12.3c0-3,2.2-5.5,5.2-5.9c25.2-3.7,45-23.5,48.7-48.7
		c0.4-2.9,2.9-5.1,5.9-5.2L313.3,265.9z"/>
	<path class="st1" d="M313.3,259.2H301c-3,0-5.5-2.2-5.9-5.2c-3.7-25.2-23.5-45-48.7-48.7c-2.9-0.4-5.1-2.9-5.2-5.9v-12.3
		C280.3,188.9,311.6,220.1,313.3,259.2z"/>
	<path class="st1" d="M313.4,262.5c0,1.1,0,2.2-0.1,3.3H301c-3,0-5.5,2.2-5.9,5.2c-3.7,25.2-23.5,45-48.7,48.7
		c-2.9,0.4-5.1,2.9-5.2,5.9v12.3c-1.1,0.1-2.2,0.1-3.3,0.1s-2.2,0-3.3-0.1v-12.3c0-3-2.2-5.5-5.2-5.9c-25.2-3.7-45-23.5-48.7-48.7
		c-0.4-2.9-2.9-5.1-5.9-5.2h-12.3c-0.1-1.1-0.1-2.2-0.1-3.3s0-2.2,0.1-3.3h12.3c3,0,5.5-2.2,5.9-5.2c3.7-25.2,23.5-45,48.7-48.7
		c2.9-0.4,5.1-2.9,5.2-5.9v-12.3c1.1-0.1,2.2-0.1,3.3-0.1s2.2,0,3.3,0.1v12.3c0,3,2.2,5.5,5.2,5.9c25.2,3.7,45,23.5,48.7,48.7
		c0.4,2.9,2.9,5.1,5.9,5.2h12.3C313.4,260.3,313.4,261.4,313.4,262.5z"/>
</g>
<path class="st2" d="M413.1,906.6h-7.9c-3.6,0-6.4-2.9-6.5-6.5V71.2c0-3.6,2.9-6.4,6.5-6.5h7.9c3.6,0,6.4,2.9,6.5,6.5V207
	c0,4.9-1.2,9.6-3.4,14l-6.7,13v79.2l6.7,13c2.2,4.3,3.4,9.1,3.4,13.9v269.7c0,4.9-1.2,9.6-3.4,14l-6.7,13V716l6.7,13
	c2.2,4.3,3.4,9.1,3.4,13.9v157.2C419.6,903.7,416.7,906.6,413.1,906.6z M405.2,65.7c-3,0-5.5,2.4-5.5,5.5v828.9c0,3,2.4,5.5,5.5,5.5
	h7.9c3,0,5.5-2.4,5.5-5.5V742.9c0-4.7-1.1-9.3-3.3-13.5l-6.8-13.1c0-0.1-0.1-0.2-0.1-0.2v-79.5c0-0.1,0-0.2,0.1-0.2l6.8-13.1
	c2.2-4.2,3.3-8.8,3.3-13.5V340.1c0-4.7-1.1-9.3-3.3-13.5l-6.8-13.1c0-0.1-0.1-0.2-0.1-0.2v-79.5c0-0.1,0-0.2,0.1-0.2l6.8-13.1
	c2.2-4.2,3.3-8.8,3.3-13.5V71.2c0-3-2.4-5.5-5.5-5.5H405.2z"/>
<path class="st2" d="M399.3,858.9h-11.2c-0.3,0-0.5-0.2-0.5-0.5V72c0-0.3,0.2-0.5,0.5-0.5h11.2c0.3,0,0.5,0.2,0.5,0.5v786.4
	C399.8,858.7,399.6,858.9,399.3,858.9z M388.6,857.9h10.2V72.5h-10.2V857.9z"/>
<path class="st2" d="M382.1,1000H275.9C158.9,1000,64,905.2,64,788.1l0,0V220.9C64,104.1,159.1,9.1,275.9,9.1h106.2
	c3.6,0,6.5,2.9,6.5,6.5v978C388.6,997.1,385.7,1000,382.1,1000z M275.9,10.1C159.6,10.1,65,104.7,65,220.9v567.2
	C65,904.4,159.6,999,275.9,999h106.2c3,0,5.5-2.4,5.5-5.5v-978c0-3-2.4-5.5-5.5-5.5H275.9V10.1z"/>
<polygon class="st1" points="237.9,448.9 225.8,469.9 250,469.9 "/>
<polygon class="st1" points="237.9,626.9 225.8,605.9 250,605.9 "/>
<polygon class="st1" points="148.9,537.9 169.9,550 169.9,525.8 "/>
<polygon class="st1" points="326.9,537.9 305.9,550 305.9,525.8 "/>
<path class="st1" d="M413.1,717.1h-4.2c-0.6,0-1-0.4-1-1l0,0v-79.5c0-0.6,0.4-1,1-1l0,0h4.2c3.8,0,6.9,3.1,7,7v67.6
	C420.1,714,417,717.1,413.1,717.1z M409.9,715.1h3.2c2.7,0,5-2.2,5-5v-67.6c0-2.7-2.2-5-5-5h-3.2V715.1z"/>
<path class="st1" d="M413.1,314.3h-4.2c-0.6,0-1-0.4-1-1v-79.5c0-0.6,0.4-1,1-1h4.2c3.8,0,6.9,3.1,7,7v67.6
	C420.1,311.2,417,314.3,413.1,314.3z M409.9,312.3h3.2c2.7,0,5-2.2,5-5v-67.6c0-2.7-2.2-5-5-5h-3.2V312.3z"/>
<path class="st1" d="M81.3,139.3c-0.3,0-0.5-0.1-0.7-0.3l-3.4-3.4c-2-2-2.6-5.1-1.5-7.8C110.5,50.1,187.7,0.1,272.9,0h51.2
	c3.8,0,6.9,3.1,7,7v2.6c0,0.6-0.4,1-1,1h-54.2C191.4,10.5,115.1,61,82.2,138.7c-0.1,0.3-0.4,0.5-0.7,0.6
	C81.4,139.3,81.3,139.3,81.3,139.3z M272.9,2C188.5,2.1,112,51.7,77.5,128.7c-0.8,1.9-0.4,4.1,1.1,5.5l2.4,2.4
	C114.6,58.8,191.3,8.5,276,8.6h53.2V7c0-2.7-2.2-5-5-5H272.9z"/>
<path class="st1" d="M359.6,116.1h-46.9c-2.2,0-4-1.8-4-4v-11.7c0-2.2,1.8-4,4-4h46.9c2.2,0,4,1.8,4,4v11.7
	C363.6,114.3,361.8,116.1,359.6,116.1z M312.7,98.5c-1.1,0-2,0.9-2,2v11.7c0,1.1,0.9,2,2,2h46.9c1.1,0,2-0.9,2-2v-11.7
	c0-1.1-0.9-2-2-2H312.7z"/>
<path class="st1" d="M237.9,502.9c-21.2,0-38.5-17.2-38.5-38.5c0-21.2,17.2-38.5,38.5-38.5c21.2,0,38.5,17.2,38.5,38.5
	C276.4,485.7,259.2,502.9,237.9,502.9z M237.9,428c-20.1,0-36.5,16.3-36.5,36.5c0,20.1,16.3,36.5,36.5,36.5
	c20.1,0,36.5-16.3,36.5-36.5S258.1,428,237.9,428z"/>
<path class="st1" d="M237.9,649.8c-21.2,0-38.5-17.2-38.5-38.5s17.2-38.5,38.5-38.5c21.2,0,38.5,17.2,38.5,38.5
	S259.2,649.8,237.9,649.8z M237.9,574.9c-20.1,0-36.5,16.3-36.5,36.5s16.3,36.5,36.5,36.5s36.5-16.3,36.5-36.5l0,0
	C274.4,591.2,258.1,574.9,237.9,574.9z"/>
<path class="st1" d="M311.4,576.3c-21.2,0-38.5-17.2-38.5-38.5c0-21.2,17.2-38.5,38.5-38.5s38.5,17.2,38.5,38.5l0,0
	C349.8,559.1,332.6,576.3,311.4,576.3z M311.4,501.4c-20.1,0-36.5,16.3-36.5,36.5s16.3,36.5,36.5,36.5c20.1,0,36.5-16.3,36.5-36.5
	l0,0C347.8,517.7,331.5,501.4,311.4,501.4L311.4,501.4z"/>
<path class="st1" d="M164.5,576.3c-21.2,0-38.5-17.2-38.5-38.5c0-21.2,17.2-38.5,38.5-38.5s38.5,17.2,38.5,38.5l0,0
	C202.9,559.1,185.7,576.3,164.5,576.3z M164.5,501.4c-20.1,0-36.5,16.3-36.5,36.5c0,20.1,16.3,36.5,36.5,36.5
	c20.1,0,36.5-16.3,36.5-36.5l0,0C200.9,517.7,184.6,501.4,164.5,501.4L164.5,501.4z"/>
<path class="st1" d="M314.1,753.7h-45c-5.5,0-9.9-4.4-9.9-9.9v-45c0-5.5,4.4-9.9,9.9-9.9h45c5.5,0,9.9,4.4,9.9,9.9v45
	C324,749.3,319.5,753.7,314.1,753.7z M269.1,690.9c-4.4,0-7.9,3.6-7.9,7.9v45c0,4.4,3.6,7.9,7.9,7.9h45c4.4,0,7.9-3.6,7.9-7.9v-45
	c0-4.4-3.6-7.9-7.9-7.9H269.1z"/>
<path class="st1" d="M291.6,741.7c-11.3,0-20.4-9.2-20.4-20.4c0-11.3,9.2-20.4,20.4-20.4c11.3,0,20.4,9.2,20.4,20.4l0,0
	C312,732.6,302.9,741.7,291.6,741.7z M291.6,702.8c-10.2,0-18.4,8.3-18.4,18.4s8.3,18.4,18.4,18.4c10.2,0,18.4-8.3,18.4-18.4
	S301.8,702.9,291.6,702.8z"/>
<path class="st1" d="M174.8,260.2h-12.3c-0.6,0-1-0.4-1-1l0,0c1.7-39.6,33.4-71.3,73-73c0.3,0,0.5,0.1,0.7,0.3s0.3,0.4,0.3,0.7v12.3
	c0,3.5-2.6,6.4-6,6.9c-24.7,3.7-44.2,23.1-47.9,47.9C181.2,257.6,178.3,260.2,174.8,260.2z M163.6,258.2h11.2c2.5,0,4.6-1.8,4.9-4.3
	c3.9-25.6,24-45.7,49.6-49.6c2.5-0.3,4.3-2.4,4.3-4.9v-11.2C196.2,190.3,165.7,220.8,163.6,258.2L163.6,258.2z"/>
<path class="st1" d="M234.6,338.9L234.6,338.9c-39.6-1.7-71.3-33.4-73-73c0-0.6,0.4-1,1-1l0,0h12.3c3.5,0,6.4,2.6,6.9,6
	c3.7,24.7,23.1,44.2,47.9,47.9c3.4,0.5,6,3.4,6,6.9V338C235.6,338.5,235.1,338.9,234.6,338.9L234.6,338.9z M163.6,266.9
	c2.2,37.4,32.6,67.8,70,70v-11.2c0-2.5-1.8-4.6-4.3-4.9c-25.6-3.9-45.7-24-49.6-49.6c-0.3-2.5-2.4-4.3-4.9-4.3H163.6z"/>
<path class="st1" d="M241.3,338.9c-0.6,0-1-0.4-1-1v-12.3c0-3.5,2.6-6.4,6-6.9c24.7-3.7,44.2-23.1,47.9-47.9c0.5-3.4,3.4-6,6.9-6
	h12.3c0.6,0,1,0.4,1,1l0,0C312.6,305.5,280.9,337.2,241.3,338.9L241.3,338.9z M301,266.9c-2.5,0-4.6,1.8-4.9,4.3
	c-3.9,25.6-24,45.7-49.6,49.6c-2.5,0.3-4.3,2.4-4.3,4.9v11.2c37.4-2.2,67.8-32.6,70-70H301z"/>
<path class="st1" d="M313.3,260.2H301c-3.5,0-6.4-2.6-6.9-6c-3.7-24.7-23.1-44.2-47.9-47.9c-3.4-0.5-6-3.4-6-6.9v-12.3
	c0-0.3,0.1-0.5,0.3-0.7s0.5-0.3,0.7-0.3c39.6,1.7,71.3,33.4,73,73C314.3,259.7,313.9,260.2,313.3,260.2L313.3,260.2L313.3,260.2z
	 M242.3,188.2v11.2c0,2.5,1.8,4.6,4.3,4.9c25.6,3.9,45.7,24,49.6,49.6c0.3,2.5,2.4,4.3,4.9,4.3h11.2
	C310.1,220.8,279.6,190.3,242.3,188.2L242.3,188.2z"/>
<path class="st1" d="M237.9,339c-1.2,0-2.3,0-3.4-0.1c-0.5,0-0.9-0.5-0.9-1v-12.3c0-2.5-1.8-4.6-4.3-4.9
	c-25.6-3.9-45.7-24-49.6-49.6c-0.3-2.5-2.4-4.3-4.9-4.3h-12.3c-0.5,0-1-0.4-1-0.9c-0.1-1.1-0.1-2.2-0.1-3.4s0-2.3,0.1-3.4
	c0-0.5,0.5-0.9,1-0.9h12.3c2.5,0,4.6-1.8,4.9-4.3c3.9-25.6,24-45.7,49.6-49.6c2.5-0.3,4.3-2.4,4.3-4.9v-12.3c0-0.5,0.4-1,0.9-1
	c2.3-0.1,4.5-0.1,6.8,0c0.5,0,0.9,0.5,0.9,1v12.3c0,2.5,1.8,4.6,4.3,4.9c25.6,3.9,45.7,24,49.6,49.6c0.3,2.5,2.4,4.3,4.9,4.3h12.3
	c0.5,0,1,0.4,1,0.9c0.1,1.1,0.1,2.2,0.1,3.4s0,2.3-0.1,3.4c0,0.5-0.5,0.9-1,0.9H301c-2.5,0-4.6,1.8-4.9,4.3
	c-3.9,25.6-24,45.7-49.6,49.6c-2.5,0.3-4.3,2.4-4.3,4.9v12.3c0,0.5-0.4,1-0.9,1C240.2,339,239.1,339,237.9,339z M235.6,337
	c1.5,0.1,3.1,0.1,4.7,0v-11.3c0-3.5,2.6-6.4,6-6.9c24.7-3.7,44.2-23.1,47.9-47.9c0.5-3.4,3.4-6,6.9-6h11.3c0-0.8,0-1.5,0-2.3
	s0-1.6,0-2.3H301c-3.5,0-6.4-2.6-6.9-6c-3.7-24.7-23.1-44.2-47.9-47.9c-3.4-0.5-6-3.4-6-6.9v-11.3c-1.5-0.1-3.1-0.1-4.7,0v11.3
	c0,3.5-2.6,6.4-6,6.9c-24.7,3.7-44.2,23.1-47.9,47.9c-0.5,3.4-3.4,6-6.9,6h-11.3c0,0.8,0,1.5,0,2.3s0,1.6,0,2.3h11.3
	c3.5,0,6.4,2.6,6.9,6c3.7,24.7,23.1,44.2,47.9,47.9c3.4,0.5,6,3.4,6,6.9L235.6,337z"/>
</svg>
