<?xml version="1.0" encoding="utf-8"?>
<!-- Generator: Adobe Illustrator 22.0.1, SVG Export Plug-In . SVG Version: 6.00 Build 0)  -->
<svg version="1.1" id="Layer_1" xmlns="http://www.w3.org/2000/svg" xmlns:xlink="http://www.w3.org/1999/xlink" x="0px" y="0px"
	 viewBox="0 0 1000.8 1000" style="enable-background:new 0 0 1000.8 1000;" xml:space="preserve">
<style type="text/css">
	.st0{opacity:0.1;}
	.st1{fill:#FF5F55;}
	.st2{fill:#FFFFFF;}
</style>
<g class="st0">
	<path class="st1" d="M597.9,233.9v79.5h-4.2c-3.3,0-6-2.7-6-6v-67.6c0-3.3,2.7-6,6-6h4.2V233.9z"/>
	<path class="st1" d="M597.9,636.6v79.5h-4.2c-3.3,0-6-2.7-6-6v-67.6c0-3.3,2.7-6,6-6L597.9,636.6L597.9,636.6z"/>
	<path class="st1" d="M929,134.9l-3.4,3.4C892.4,60.3,815.8,9.6,730.9,9.6h-54.2V7c0-3.3,2.7-6,6-6l0,0h51.2
		c84.8,0,161.7,49.8,196.4,127.2C931.3,130.5,930.8,133.1,929,134.9z"/>
	<path class="st1" d="M679.5,94.5V82.8c0-1.6-1.3-3-3-3l0,0h-11.7c-1.6,0-3,1.3-3,3l0,0v11.7c0,1.6-1.3,3-3,3l0,0h-11.7
		c-1.6,0-3,1.3-3,3l0,0v11.7c0,1.6,1.3,3,3,3l0,0h11.7c1.6,0,3,1.3,3,3l0,0v11.7c0,1.6,1.3,3,3,3l0,0h11.7c1.6,0,3-1.3,3-3l0,0
		v-11.7c0-1.6,1.3-3,3-3l0,0h11.7c1.6,0,3-1.3,3-3l0,0v-11.7c0-1.6-1.3-3-3-3l0,0h-11.7C680.8,97.5,679.5,96.1,679.5,94.5
		L679.5,94.5z"/>
	<circle class="st1" cx="768.9" cy="333.9" r="37.5"/>
	<circle class="st1" cx="768.9" cy="187.1" r="37.5"/>
	<circle class="st1" cx="842.3" cy="260.5" r="37.5"/>
	<circle class="st1" cx="695.5" cy="260.5" r="37.5"/>
	<circle class="st1" cx="715" cy="721.3" r="27.9"/>
	<path class="st1" d="M765.6,460.3v12.3c0,3-2.2,5.5-5.2,5.9c-25.2,3.7-45,23.5-48.7,48.7c-0.4,2.9-2.9,5.1-5.9,5.2h-12.3
		C695.2,493.3,726.5,462,765.6,460.3z"/>
	<path class="st1" d="M765.6,598.8v12.3c-39.1-1.7-70.3-33-72.1-72h12.3c3,0,5.5,2.2,5.9,5.2c3.7,25.2,23.5,45,48.7,48.7
		C763.4,593.3,765.6,595.8,765.6,598.8z"/>
	<path class="st1" d="M844.3,539c-1.7,39.1-33,70.3-72.1,72v-12.3c0-3,2.2-5.5,5.2-5.9c25.2-3.7,45-23.5,48.7-48.7
		c0.4-2.9,2.9-5.1,5.9-5.2L844.3,539z"/>
	<path class="st1" d="M844.3,532.4H832c-3,0-5.5-2.2-5.9-5.2c-3.7-25.2-23.5-45-48.7-48.7c-2.9-0.4-5.1-2.9-5.2-5.9v-12.3
		C811.3,462,842.6,493.3,844.3,532.4z"/>
	<path class="st1" d="M844.4,535.7c0,1.1,0,2.2-0.1,3.3H832c-3,0-5.5,2.2-5.9,5.2c-3.7,25.2-23.5,45-48.7,48.7
		c-2.9,0.4-5.1,2.9-5.2,5.9v12.3c-1.1,0.1-2.2,0.1-3.3,0.1s-2.2,0-3.3-0.1v-12.3c0-3-2.2-5.5-5.2-5.9c-25.2-3.7-45-23.5-48.7-48.7
		c-0.4-2.9-2.9-5.1-5.9-5.2h-12.3c-0.1-1.1-0.1-2.2-0.1-3.3s0-2.2,0.1-3.3h12.3c3,0,5.5-2.2,5.9-5.2c3.7-25.2,23.5-45,48.7-48.7
		c2.9-0.4,5.1-2.9,5.2-5.9v-12.3c1.1-0.1,2.2-0.1,3.3-0.1s2.2,0,3.3,0.1v12.3c0,3,2.2,5.5,5.2,5.9c25.2,3.7,45,23.5,48.7,48.7
		c0.4,2.9,2.9,5.1,5.9,5.2h12.3C844.3,533.5,844.4,534.6,844.4,535.7z"/>
</g>
<path class="st2" d="M601.6,906.6h-7.9c-3.6,0-6.4-2.9-6.5-6.5V742.9c0-4.9,1.2-9.6,3.4-13.9l6.7-13v-79.2l-6.7-13
	c-2.2-4.3-3.4-9.1-3.4-14V340.1c0-4.9,1.2-9.6,3.4-13.9l6.7-13V234l-6.7-13c-2.2-4.3-3.4-9.1-3.4-14V71.2c0-3.6,2.9-6.4,6.5-6.5h7.9
	c3.6,0,6.4,2.9,6.5,6.5v828.9C608,903.7,605.1,906.6,601.6,906.6z M593.7,65.7c-3,0-5.5,2.4-5.5,5.5V207c0,4.7,1.1,9.3,3.3,13.5
	l6.8,13.1c0,0.1,0.1,0.1,0.1,0.2v79.5c0,0.1,0,0.2-0.1,0.2l-6.8,13.1c-2.2,4.2-3.3,8.8-3.3,13.5v269.7c0,4.7,1.1,9.3,3.3,13.5
	l6.8,13.1c0,0.1,0.1,0.1,0.1,0.2v79.5c0,0.1,0,0.2-0.1,0.2l-6.8,13.1c-2.2,4.2-3.3,8.8-3.3,13.5v157.2c0,3,2.4,5.5,5.5,5.5h7.9
	c3,0,5.5-2.4,5.5-5.5V71.2c0-3-2.4-5.5-5.5-5.5H593.7z"/>
<path class="st2" d="M618.8,858.9h-11.3c-0.3,0-0.5-0.2-0.5-0.5l0,0V72c0-0.3,0.2-0.5,0.5-0.5h11.3c0.3,0,0.5,0.2,0.5,0.5v786.4
	C619.3,858.7,619.1,858.9,618.8,858.9L618.8,858.9z M608,857.9h10.3V72.5H608V857.9z"/>
<path class="st2" d="M730.9,1000H624.7c-3.6,0-6.5-2.9-6.5-6.5v-978c0-3.6,2.9-6.5,6.5-6.5h106.2c116.8,0,211.9,95.1,211.9,211.9
	v567.2C942.8,905.1,848,1000,730.9,1000L730.9,1000z M624.7,10.1c-3,0-5.5,2.4-5.5,5.5v978c0,3,2.4,5.5,5.5,5.5h106.2
	c116.3,0,210.9-94.6,210.9-210.9V220.9C941.8,104.6,847.2,10,730.9,10L624.7,10.1z"/>
<path class="st2" d="M715,763.2c-23.1,0-41.9-18.7-41.9-41.9s18.7-41.9,41.9-41.9s41.9,18.7,41.9,41.9l0,0
	C756.8,744.4,738.1,763.1,715,763.2z M715,680.4c-22.6,0-40.9,18.3-40.9,40.9c0,22.6,18.3,40.9,40.9,40.9
	c22.6,0,40.9-18.3,40.9-40.9l0,0C755.8,698.7,737.6,680.4,715,680.4z"/>
<path class="st1" d="M782.2,203.2h-5.5l-7.8-12.9l-7.8,12.9h-5.4l10.6-16.3l-9.8-15.6h5.2l7.3,12l7.4-12h5l-9.8,15.4L782.2,203.2z"
	/>
<path class="st1" d="M709.2,244.5l-11.6,20.6v11.4h-4.4V265l-11.6-20.5h5.3l6.4,11.7l2.3,4.7l2.2-4.3l6.4-12.1L709.2,244.5z"/>
<path class="st1" d="M855.9,276.5h-4.7l-2.2-7h-13.3l-2.3,7h-4.5l10.6-32h6L855.9,276.5z M847.7,265.6l-5.4-17.1l-5.4,17.1H847.7z"
	/>
<path class="st1" d="M779.4,340.4c0,1.4-0.3,2.8-0.9,4.1c-0.6,1.2-1.5,2.2-2.5,3c-1.2,0.9-2.6,1.5-4,1.9c-1.7,0.4-3.4,0.7-5.2,0.6
	h-8.4v-32h9.2c7.1,0,10.7,2.6,10.7,7.8c0,1.6-0.4,3.1-1.2,4.5c-1,1.4-2.4,2.3-4,2.8c0.9,0.2,1.7,0.4,2.5,0.8s1.5,0.9,2,1.5
	c0.6,0.6,1.1,1.4,1.4,2.2C779.2,338.4,779.4,339.4,779.4,340.4z M773.7,326.3c0-0.6-0.1-1.3-0.3-1.8c-0.2-0.6-0.6-1.1-1-1.5
	c-0.6-0.5-1.3-0.8-2-1c-1-0.3-2.1-0.4-3.2-0.4h-4.5v10h4.4c0.9,0,1.8-0.1,2.7-0.3c0.8-0.2,1.5-0.5,2.1-1c0.6-0.4,1-1,1.3-1.7
	C773.6,327.9,773.7,327.1,773.7,326.3L773.7,326.3z M774.8,340.5c0-0.8-0.2-1.5-0.5-2.2c-0.4-0.7-0.9-1.2-1.5-1.7
	c-0.7-0.5-1.5-0.8-2.4-1c-1-0.3-2.1-0.4-3.2-0.4h-4.5v11h4.6c2.5,0,4.4-0.5,5.6-1.4C774.2,343.8,774.9,342.2,774.8,340.5
	L774.8,340.5z"/>
<path class="st1" d="M715,701.3L695.4,721h5.6v16.8h28.2V721h5.3L715,701.3z M720.7,731.8h-11.1V721h11.1V731.8z"/>
<path class="st1" d="M597.9,314.3h-4.2c-3.8,0-6.9-3.1-7-7v-67.6c0-3.8,3.1-6.9,7-7h4.2c0.6,0,1,0.4,1,1l0,0v79.5
	C598.9,313.9,598.4,314.3,597.9,314.3L597.9,314.3z M593.7,234.8c-2.7,0-5,2.2-5,5v67.6c0,2.7,2.2,5,5,5h3.2v-77.5L593.7,234.8
	L593.7,234.8z"/>
<path class="st1" d="M597.9,717.1h-4.2c-3.8,0-6.9-3.1-7-7v-67.6c0-3.8,3.1-6.9,7-7h4.2c0.6,0,1,0.4,1,1l0,0V716
	C598.9,716.6,598.4,717.1,597.9,717.1L597.9,717.1z M593.7,637.6c-2.7,0-5,2.2-5,5v67.6c0,2.7,2.2,5,5,5h3.2v-77.5L593.7,637.6
	L593.7,637.6z"/>
<path class="st1" d="M925.6,139.3c-0.1,0-0.1,0-0.2,0c-0.3-0.1-0.6-0.3-0.7-0.6C891.7,61,815.4,10.5,730.9,10.6h-54.2
	c-0.6,0-1-0.4-1-1l0,0V7c0-3.8,3.1-6.9,7-7h51.2c85.2,0.1,162.4,50.1,197.3,127.8c1.2,2.6,0.6,5.7-1.5,7.8l-3.4,3.4
	C926.1,139.2,925.8,139.3,925.6,139.3z M677.7,8.6h53.2c84.7-0.1,161.3,50.2,195,128l2.4-2.4l0,0c1.5-1.4,1.9-3.6,1.1-5.5
	C894.8,51.7,818.3,2.1,733.9,2h-51.2c-2.7,0-5,2.2-5,5V8.6z"/>
<path class="st1" d="M676.5,133.7h-11.7c-2.2,0-4-1.8-4-4V118c0-1.1-0.9-2-2-2h-11.7c-2.2,0-4-1.8-4-4v-11.7c0-2.2,1.8-4,4-4h11.7
	c1.1,0,2-0.9,2-2V82.8c0-2.2,1.8-4,4-4h11.7c2.2,0,4,1.8,4,4v11.7c0,1.1,0.9,2,2,2h11.7c2.2,0,4,1.8,4,4v11.7c0,2.2-1.8,4-4,4h-11.7
	c-1.1,0-2,0.9-2,2v11.7C680.5,131.9,678.7,133.7,676.5,133.7z M647.2,98.5c-1.1,0-2,0.9-2,2v11.7c0,1.1,0.9,2,2,2h11.7
	c2.2,0,4,1.8,4,4v11.7c0,1.1,0.9,2,2,2h11.7c1.1,0,2-0.9,2-2v-11.7c0-2.2,1.8-4,4-4h11.7c1.1,0,2-0.9,2-2v-11.7c0-1.1-0.9-2-2-2
	h-11.7c-2.2,0-4-1.8-4-4V82.8c0-1.1-0.9-2-2-2h-11.7c-1.1,0-2,0.9-2,2v11.7c0,2.2-1.8,4-4,4H647.2z"/>
<path class="st1" d="M768.9,372.4c-21.2,0-38.5-17.2-38.5-38.5c0-21.2,17.2-38.5,38.5-38.5c21.2,0,38.5,17.2,38.5,38.5
	C807.3,355.2,790.1,372.4,768.9,372.4z M768.9,297.5c-20.1,0-36.5,16.3-36.5,36.5c0,20.1,16.3,36.5,36.5,36.5
	c20.1,0,36.5-16.3,36.5-36.5C805.3,313.8,789,297.5,768.9,297.5L768.9,297.5z"/>
<path class="st1" d="M768.9,225.5c-21.2,0-38.5-17.2-38.5-38.5c0-21.2,17.2-38.5,38.5-38.5c21.2,0,38.5,17.2,38.5,38.5
	C807.3,208.3,790.1,225.5,768.9,225.5z M768.9,150.6c-20.1,0-36.5,16.3-36.5,36.5c0,20.1,16.3,36.5,36.5,36.5
	c20.1,0,36.5-16.3,36.5-36.5C805.3,166.9,789,150.6,768.9,150.6L768.9,150.6z"/>
<path class="st1" d="M842.3,299c-21.2,0-38.5-17.2-38.5-38.5c0-21.2,17.2-38.5,38.5-38.5c21.2,0,38.5,17.2,38.5,38.5
	C880.8,281.7,863.6,298.9,842.3,299z M842.3,224c-20.1,0-36.5,16.3-36.5,36.5c0,20.1,16.3,36.5,36.5,36.5
	c20.1,0,36.5-16.3,36.5-36.5C878.8,240.4,862.5,224,842.3,224L842.3,224z"/>
<path class="st1" d="M695.5,299c-21.2,0-38.5-17.2-38.5-38.5c0-21.2,17.2-38.5,38.5-38.5c21.2,0,38.5,17.2,38.5,38.5
	C733.9,281.7,716.7,298.9,695.5,299z M695.5,224c-20.1,0-36.5,16.3-36.5,36.5c0,20.1,16.3,36.5,36.5,36.5
	c20.1,0,36.5-16.3,36.5-36.5C731.9,240.4,715.6,224,695.5,224L695.5,224z"/>
<path class="st1" d="M715,750.2c-16,0-28.9-13-28.9-28.9s13-28.9,28.9-28.9c16,0,28.9,13,28.9,28.9l0,0
	C743.9,737.3,731,750.2,715,750.2z M715,694.3c-14.9,0-26.9,12.1-26.9,26.9s12.1,26.9,26.9,26.9c14.9,0,26.9-12.1,26.9-26.9
	C741.9,706.4,729.9,694.4,715,694.3z"/>
<path class="st1" d="M705.8,533.4h-12.3c-0.6,0-1-0.4-1-1l0,0c1.7-39.6,33.4-71.3,73-73c0.3,0,0.5,0.1,0.7,0.3
	c0.2,0.2,0.3,0.4,0.3,0.7v12.3c0,3.5-2.6,6.4-6,6.9c-24.7,3.7-44.2,23.1-47.9,47.9C712.2,530.8,709.3,533.4,705.8,533.4z
	 M694.6,531.4h11.2c2.5,0,4.6-1.8,4.9-4.3c3.9-25.6,24-45.7,49.6-49.6c2.5-0.3,4.3-2.4,4.3-4.9v-11.2
	C727.2,463.5,696.7,494,694.6,531.4z"/>
<path class="st1" d="M765.6,612.1C765.6,612.1,765.5,612.1,765.6,612.1c-39.6-1.7-71.3-33.4-73-73c0-0.6,0.4-1,1-1l0,0h12.3
	c3.5,0,6.4,2.6,6.9,6c3.7,24.7,23.1,44.2,47.9,47.9c3.4,0.5,6,3.4,6,6.9v12.3C766.6,611.6,766.1,612.1,765.6,612.1L765.6,612.1
	L765.6,612.1z M694.6,540c2.2,37.4,32.6,67.8,70,70v-11.2c0-2.5-1.8-4.6-4.3-4.9c-25.6-3.9-45.7-24-49.6-49.6
	c-0.3-2.5-2.4-4.3-4.9-4.3H694.6z"/>
<path class="st1" d="M772.2,612.1c-0.6,0-1-0.4-1-1l0,0v-12.3c0-3.5,2.6-6.4,6-6.9c24.7-3.7,44.2-23.1,47.9-47.9
	c0.5-3.4,3.4-6,6.9-6h12.3c0.6,0,1,0.4,1,1l0,0C843.5,578.7,811.9,610.3,772.2,612.1C772.3,612.1,772.3,612.1,772.2,612.1z M832,540
	c-2.5,0-4.6,1.8-4.9,4.3c-3.9,25.6-24,45.7-49.6,49.6c-2.5,0.3-4.3,2.4-4.3,4.9V610c37.4-2.2,67.8-32.6,70-70H832z"/>
<path class="st1" d="M844.3,533.4H832c-3.5,0-6.4-2.6-6.9-6c-3.7-24.7-23.1-44.2-47.9-47.9c-3.4-0.5-6-3.4-6-6.9v-12.3
	c0-0.3,0.1-0.5,0.3-0.7s0.5-0.3,0.7-0.3c39.6,1.7,71.3,33.4,73,73C845.3,532.9,844.9,533.3,844.3,533.4L844.3,533.4L844.3,533.4z
	 M773.2,461.4v11.2c0,2.5,1.8,4.6,4.3,4.9c25.6,3.9,45.7,24,49.6,49.6c0.3,2.5,2.4,4.3,4.9,4.3h11.2
	C841.1,494,810.6,463.5,773.2,461.4z"/>
<path class="st1" d="M768.9,612.2c-1.2,0-2.3,0-3.4-0.1c-0.5,0-0.9-0.5-0.9-1v-12.3c0-2.5-1.8-4.6-4.3-4.9
	c-25.6-3.9-45.7-24-49.6-49.6c-0.3-2.5-2.4-4.3-4.9-4.3h-12.3c-0.5,0-1-0.4-1-0.9c-0.1-1.1-0.1-2.2-0.1-3.4s0-2.3,0.1-3.4
	c0-0.5,0.5-0.9,1-0.9h12.3c2.5,0,4.6-1.8,4.9-4.3c3.9-25.6,24-45.7,49.6-49.6c2.5-0.3,4.3-2.4,4.3-4.9v-12.3c0-0.5,0.4-1,0.9-1
	c2.3-0.1,4.5-0.1,6.8,0c0.5,0,0.9,0.5,0.9,1v12.3c0,2.5,1.8,4.6,4.3,4.9c25.6,3.9,45.7,24,49.6,49.6c0.3,2.5,2.4,4.3,4.9,4.3h12.3
	c0.5,0,1,0.4,1,0.9c0.1,1.1,0.1,2.2,0.1,3.4s0,2.3-0.1,3.4c0,0.5-0.5,0.9-1,0.9H832c-2.5,0-4.6,1.8-4.9,4.3
	c-3.9,25.6-24,45.7-49.6,49.6c-2.5,0.3-4.3,2.4-4.3,4.9v12.3c0,0.5-0.4,1-0.9,1C771.2,612.1,770.1,612.2,768.9,612.2z M766.6,610.1
	c1.5,0.1,3.1,0.1,4.7,0v-11.3c0-3.5,2.6-6.4,6-6.9c24.7-3.7,44.2-23.1,47.9-47.9c0.5-3.4,3.4-6,6.9-6h11.3c0-0.8,0-1.5,0-2.3
	s0-1.6,0-2.3H832c-3.5,0-6.4-2.6-6.9-6c-3.7-24.7-23.1-44.2-47.9-47.9c-3.4-0.5-6-3.4-6-6.9v-11.3c-1.5-0.1-3.1-0.1-4.7,0v11.3
	c0,3.5-2.6,6.4-6,6.9c-24.7,3.7-44.2,23.1-47.9,47.9c-0.5,3.4-3.4,6-6.9,6h-11.3c0,0.8,0,1.5,0,2.3s0,1.6,0,2.3h11.3
	c3.5,0,6.4,2.6,6.9,6c3.7,24.7,23.1,44.2,47.9,47.9c3.4,0.5,6,3.4,6,6.9v11.3H766.6z"/>
</svg>
