<?xml version="1.0" encoding="utf-8"?>
<!-- Generator: Adobe Illustrator 22.0.1, SVG Export Plug-In . SVG Version: 6.00 Build 0)  -->
<svg version="1.1" id="Layer_1" xmlns="http://www.w3.org/2000/svg" xmlns:xlink="http://www.w3.org/1999/xlink" x="0px" y="0px"
	 viewBox="0 0 1000 1000.5" style="enable-background:new 0 0 1000 1000.5;" xml:space="preserve">
<style type="text/css">
	.st0{opacity:0.1;}
	.st1{fill:#1ABC9C;}
	.st2{fill:#CCCCCC;}
	.st3{fill:#FFFFFF;}
</style>
<g class="st0">
	<path class="st1" d="M259.4,630.9c-22.4,12.5-32.3,39.7-49,69.8c-35.7,64.1-50.5,128.9-116.6,128.9C40.8,829.5,1,776.1,1,705.8
		c0-48.3,29.9-226.9,55.6-347.6C113.4,453.9,219.5,604.4,259.4,630.9z"/>
	<path class="st1" d="M999,705.8c0,70.4-39.9,123.8-92.7,123.8c-66.1,0-80.9-64.8-116.6-128.9c-16.7-30-26.7-57.3-49-69.8
		c39.8-26.5,146-177,202.7-272.7C969.1,478.9,999,657.5,999,705.8z"/>
	<circle class="st1" cx="630.3" cy="482.7" r="56.2"/>
	<circle class="st1" cx="630.3" cy="482.7" r="40.5"/>
	<circle class="st1" cx="764.9" cy="276.6" r="36.6"/>
	<circle class="st1" cx="764.9" cy="412.6" r="36.6"/>
	<circle class="st1" cx="223.9" cy="344.8" r="56.2"/>
	<circle class="st1" cx="223.9" cy="344.8" r="40.5"/>
	<circle class="st1" cx="843.1" cy="344.6" r="36.6"/>
	<circle class="st1" cx="686.7" cy="344.6" r="36.6"/>
	<circle class="st1" cx="624.1" cy="269.3" r="22.1"/>
	<circle class="st1" cx="571.3" cy="344.6" r="22.1"/>
	<circle class="st1" cx="375.9" cy="269.3" r="22.1"/>
	<circle class="st1" cx="428.7" cy="344.6" r="14"/>
	<path class="st1" d="M414.6,326.5h28.2c2.2,0,4.1,1.8,4.1,4.1v28.2c0,2.2-1.8,4.1-4.1,4.1h-28.2c-2.2,0-4.1-1.8-4.1-4.1v-28.2
		C410.6,328.3,412.4,326.5,414.6,326.5z"/>
	<path class="st1" d="M351.6,158.8c-88.4,3.8-169.6,13.7-207,39.4c-14.9,10.2-26.4,16.9-32.9,20.5C142.6,135.9,282,138,299,138
		c6.5,0,26.6,8.7,39.9,14.8h0C346.3,156.2,351.6,158.8,351.6,158.8z"/>
	<path class="st1" d="M888.3,218.7c-6.5-3.6-18-10.3-32.9-20.6c-37.4-25.7-118.7-35.6-207-39.4c0,0,5.3-2.6,12.6-6
		c13.4-6.1,33.4-14.8,40-14.8C717.9,138,857.4,135.9,888.3,218.7z"/>
	<path class="st1" d="M414.6,461.1H373c-2.2,0-4.1-1.8-4.1-4.1v-41.6c0-2.2-1.8-4.1-4.1-4.1c0,0,0,0,0,0h-36.4
		c-2.2,0-4.1,1.8-4.1,4.1c0,0,0,0,0,0v41.6c0,2.2-1.8,4.1-4.1,4.1h-41.6c-2.2,0-4.1,1.8-4.1,4.1v36.4c0,2.2,1.8,4.1,4.1,4.1h41.6
		c2.2,0,4.1,1.8,4.1,4.1l0,0v41.6c0,2.2,1.8,4.1,4.1,4.1c0,0,0,0,0,0h36.4c2.2,0,4.1-1.8,4.1-4.1l0,0v-41.6c0-2.2,1.8-4.1,4.1-4.1
		l0,0h41.6c2.2,0,4.1-1.8,4.1-4.1v-36.4C418.6,462.9,416.8,461.1,414.6,461.1z"/>
</g>
<path class="st2" d="M661,153.1L661,153.1c-0.2,0-0.3-0.1-0.3-0.3c0-0.1,0.1-0.2,0.2-0.2c0.1,0,0.3,0.1,0.3,0.2
	C661.3,153,661.2,153.1,661,153.1C661,153.1,661,153.1,661,153.1z"/>
<path class="st3" d="M630.3,560.6c-43,0-77.9-34.9-77.9-77.9s34.9-77.9,77.9-77.9c43,0,77.9,34.9,77.9,77.9
	C708.2,525.7,673.3,560.6,630.3,560.6z M630.3,405.8c-42.5,0-76.9,34.4-76.9,76.9s34.4,76.9,76.9,76.9c42.5,0,76.9-34.4,76.9-76.9
	C707.2,440.3,672.8,405.9,630.3,405.8L630.3,405.8z"/>
<path class="st3" d="M223.9,422.7c-43,0-77.9-34.9-77.9-77.9c0-43,34.9-77.9,77.9-77.9s77.9,34.9,77.9,77.9l0,0
	C301.7,387.8,266.9,422.7,223.9,422.7z M223.9,267.9c-42.5,0-76.9,34.4-76.9,76.9c0,42.5,34.4,76.9,76.9,76.9s76.9-34.4,76.9-76.9
	l0,0C300.7,302.4,266.3,268,223.9,267.9z"/>
<path class="st3" d="M648.4,159.3L648.4,159.3c-49.9-2.1-102.8-2.3-148.4-2.3c-45.6,0-98.4,0.2-148.4,2.3c-0.1,0-0.2,0-0.2-0.1
	c-0.1,0-5.4-2.6-12.6-6c-0.3-0.1-0.4-0.4-0.2-0.7c0.1-0.2,0.2-0.3,0.4-0.3c2-0.2,50-4.9,161.1-4.9c111.7,0,159.1,4.7,161,4.9
	c0.3,0,0.5,0.3,0.4,0.5c0,0.2-0.1,0.3-0.3,0.4c-7.2,3.3-12.6,5.9-12.6,6C648.5,159.3,648.4,159.3,648.4,159.3z M340.9,153.2
	c5.8,2.7,10.1,4.8,10.8,5.1c49.9-2.1,102.7-2.3,148.3-2.3c45.6,0,98.4,0.2,148.3,2.3c0.7-0.4,5-2.4,10.8-5.1
	c-9.8-0.9-58.2-4.7-159.1-4.7C399.6,148.5,350.7,152.3,340.9,153.2L340.9,153.2z"/>
<path class="st3" d="M740.6,631.4c-0.1,0-0.2,0-0.2-0.1c-8.6-4.8-18.6-7.2-30.7-7.2H290.3c-12,0-22.1,2.4-30.7,7.2
	c-0.2,0.1-0.4,0.1-0.5,0C218.3,604.2,110,449.1,56.2,358.4c-0.1-0.1-0.1-0.2-0.1-0.4c11.3-53.3,20.7-90,27.1-106.1
	c1.2-3.1,2.9-5.9,4.9-8.5l12.7-16.2c2.9-3.7,6.5-6.8,10.6-9c0,0,0,0,0,0l0,0c7.1-3.9,18.5-10.6,32.8-20.5
	c32-22,99.8-34.9,207.3-39.4c49.5-2.1,100.5-2.3,148.4-2.3c47.9,0,98.8,0.2,148.4,2.3c107.5,4.6,175.3,17.5,207.3,39.4
	c14.4,9.9,25.8,16.6,32.9,20.5c4.1,2.2,7.7,5.3,10.6,9l12.7,16.2c2.1,2.6,3.7,5.5,4.9,8.6c6.4,16.1,15.7,52.8,27.1,106.1
	c0,0.1,0,0.3-0.1,0.4C890,449.1,781.7,604.2,740.9,631.3C740.8,631.4,740.7,631.4,740.6,631.4z M57.2,358.1
	c53.6,90.4,161.4,244.7,202.2,272.2c8.7-4.8,18.8-7.2,30.9-7.2h419.4c12.1,0,22.2,2.3,30.9,7.2c40.8-27.5,148.6-181.8,202.2-272.2
	c-11.3-53.1-20.6-89.7-27-105.7c-1.2-3-2.8-5.8-4.8-8.3l-12.7-16.2c-2.8-3.6-6.3-6.5-10.3-8.7c-7.1-3.9-18.5-10.7-33-20.6
	c-31.8-21.9-99.4-34.7-206.8-39.3c-49.5-2.1-100.4-2.3-148.3-2.3c-47.9,0-98.8,0.2-148.4,2.3c-107.3,4.6-174.9,17.4-206.7,39.3
	c-14.4,9.9-25.8,16.6-32.9,20.5c0,0-0.1,0-0.1,0.1c-4,2.2-7.5,5.2-10.3,8.7l-12.7,16.2c-2,2.5-3.6,5.3-4.8,8.3
	C77.8,268.4,68.5,305,57.2,358.1z"/>
<path class="st1" d="M93.7,830.5C40.3,830.5,0,776.9,0,705.8C0,657.1,29.9,478.8,55.6,358c0.1-0.5,0.6-0.9,1.2-0.8
	c0.3,0.1,0.5,0.2,0.7,0.5c53.7,90.5,161.9,245.4,202.4,272.4c0.5,0.3,0.6,0.9,0.3,1.4c-0.1,0.1-0.2,0.2-0.3,0.3
	c-17.4,9.7-27.3,28.8-38.8,50.9c-3.1,6-6.3,12.1-9.8,18.4c-7.3,13.1-13.7,26.1-19.8,38.7C167.5,788.5,146.9,830.5,93.7,830.5z
	 M57.1,360.9C31.5,481.6,2,657.5,2,705.8c0,70,39.4,122.8,91.7,122.8c52,0,72.3-41.5,95.9-89.6c6.2-12.6,12.6-25.7,19.9-38.8
	c3.5-6.3,6.7-12.4,9.8-18.4c11.3-21.8,21.2-40.7,38.2-51C216.1,601.5,110.7,450.9,57.1,360.9z"/>
<path class="st1" d="M906.3,830.5c-53.3,0-73.9-42-97.7-90.7c-6.2-12.6-12.5-25.6-19.8-38.7c-3.5-6.3-6.7-12.5-9.8-18.4
	c-11.5-22.1-21.4-41.2-38.8-50.9c-0.5-0.3-0.7-0.9-0.4-1.4c0.1-0.1,0.2-0.3,0.3-0.3c40.6-27,148.7-181.8,202.4-272.4
	c0.3-0.5,0.9-0.6,1.4-0.3c0.2,0.1,0.4,0.4,0.5,0.7c25.7,120.9,55.6,299.1,55.6,347.8C1000,776.9,959.7,830.5,906.3,830.5z
	 M742.5,630.8c17.1,10.2,26.9,29.2,38.2,51c3.1,6,6.3,12.1,9.8,18.4c7.3,13.1,13.7,26.1,19.9,38.7c23.5,48.1,43.9,89.6,95.9,89.6
	c52.3,0,91.7-52.8,91.7-122.8c0-48.2-29.5-224.2-55.1-344.9C889.3,450.9,783.9,601.5,742.5,630.8z"/>
<path class="st1" d="M630.3,539.9c-31.6,0-57.2-25.6-57.2-57.2c0-31.6,25.6-57.2,57.2-57.2c31.6,0,57.2,25.6,57.2,57.2l0,0
	C687.5,514.3,661.9,539.9,630.3,539.9z M630.3,427.5c-30.5,0-55.2,24.7-55.2,55.2c0,30.5,24.7,55.2,55.2,55.2
	c30.5,0,55.2-24.7,55.2-55.2C685.5,452.2,660.8,427.5,630.3,427.5L630.3,427.5z"/>
<path class="st1" d="M630.3,524.2c-22.9,0-41.5-18.6-41.5-41.5s18.6-41.5,41.5-41.5c22.9,0,41.5,18.6,41.5,41.5
	C671.8,505.6,653.2,524.2,630.3,524.2z M630.3,443.2c-21.8,0-39.5,17.7-39.5,39.5c0,21.8,17.7,39.5,39.5,39.5
	c21.8,0,39.5-17.7,39.5-39.5C669.8,460.9,652.1,443.2,630.3,443.2z"/>
<path class="st1" d="M764.9,314.2c-20.7,0-37.6-16.8-37.5-37.6c0-20.7,16.8-37.6,37.6-37.5c20.7,0,37.5,16.8,37.5,37.6
	C802.4,297.4,785.6,314.1,764.9,314.2z M764.9,241.1c-19.6,0-35.6,15.9-35.6,35.6c0,19.6,15.9,35.6,35.6,35.6
	c19.6,0,35.6-15.9,35.6-35.6C800.4,257,784.5,241.1,764.9,241.1L764.9,241.1z"/>
<path class="st1" d="M764.9,450.2c-20.7,0-37.6-16.8-37.5-37.6c0-20.7,16.8-37.6,37.6-37.5c20.7,0,37.5,16.8,37.5,37.6
	C802.4,433.4,785.6,450.2,764.9,450.2z M764.9,377.1c-19.6,0-35.6,15.9-35.6,35.6c0,19.6,15.9,35.6,35.6,35.6
	c19.6,0,35.6-15.9,35.6-35.6C800.4,393,784.5,377.1,764.9,377.1z"/>
<path class="st1" d="M223.9,402.1c-31.6,0-57.2-25.6-57.2-57.2c0-31.6,25.6-57.2,57.2-57.2s57.2,25.6,57.2,57.2
	C281.1,376.4,255.5,402,223.9,402.1z M223.9,289.6c-30.5,0-55.2,24.7-55.2,55.2c0,30.5,24.7,55.2,55.2,55.2
	c30.5,0,55.2-24.7,55.2-55.2c0,0,0,0,0,0C279.1,314.4,254.4,289.7,223.9,289.6L223.9,289.6z"/>
<path class="st1" d="M223.9,386.4c-22.9,0-41.5-18.6-41.5-41.5c0-22.9,18.6-41.5,41.5-41.5s41.5,18.6,41.5,41.5
	C265.4,367.8,246.8,386.3,223.9,386.4z M223.9,305.3c-21.8,0-39.5,17.7-39.5,39.5c0,21.8,17.7,39.5,39.5,39.5s39.5-17.7,39.5-39.5
	l0,0C263.4,323,245.7,305.3,223.9,305.3L223.9,305.3z"/>
<path class="st1" d="M843.1,382.2c-20.7,0-37.6-16.8-37.6-37.5s16.8-37.6,37.5-37.6c20.7,0,37.6,16.8,37.6,37.5c0,0,0,0,0,0
	C880.6,365.4,863.8,382.2,843.1,382.2z M843.1,309.1c-19.6,0-35.6,15.9-35.6,35.6s15.9,35.6,35.6,35.6c19.6,0,35.6-15.9,35.6-35.6
	c0,0,0,0,0,0C878.6,325,862.7,309.1,843.1,309.1z"/>
<path class="st1" d="M686.7,382.2c-20.7,0-37.6-16.8-37.6-37.6s16.8-37.6,37.6-37.6c20.7,0,37.6,16.8,37.6,37.6
	C724.2,365.4,707.4,382.2,686.7,382.2z M686.7,309.1c-19.6,0-35.6,15.9-35.6,35.6s15.9,35.6,35.6,35.6c19.6,0,35.6-15.9,35.6-35.6
	l0,0C722.2,325,706.3,309.1,686.7,309.1z"/>
<path class="st1" d="M624.1,292.4c-12.8,0-23.1-10.3-23.1-23.1c0-12.8,10.3-23.1,23.1-23.1c12.8,0,23.1,10.3,23.1,23.1
	C647.2,282,636.8,292.4,624.1,292.4z M624.1,248.2c-11.7,0-21.1,9.5-21.1,21.1c0,11.7,9.5,21.1,21.1,21.1c11.7,0,21.1-9.5,21.1-21.1
	C645.2,257.6,635.7,248.2,624.1,248.2z"/>
<path class="st1" d="M571.3,367.7c-12.8,0-23.1-10.3-23.1-23.1c0-12.8,10.3-23.1,23.1-23.1c12.8,0,23.1,10.3,23.1,23.1
	C594.3,357.4,584,367.7,571.3,367.7z M571.3,323.5c-11.7,0-21.1,9.5-21.1,21.1c0,11.7,9.5,21.1,21.1,21.1c11.7,0,21.1-9.5,21.1-21.1
	C592.3,333,582.9,323.5,571.3,323.5L571.3,323.5z"/>
<path class="st1" d="M375.9,292.4c-12.8,0-23.1-10.3-23.1-23.1c0-12.8,10.3-23.1,23.1-23.1c12.8,0,23.1,10.3,23.1,23.1
	C399,282,388.7,292.4,375.9,292.4z M375.9,248.2c-11.7,0-21.1,9.5-21.1,21.1c0,11.7,9.5,21.1,21.1,21.1c11.7,0,21.1-9.5,21.1-21.1
	C397,257.6,387.6,248.2,375.9,248.2z"/>
<path class="st1" d="M428.7,359.6c-8.3,0-15-6.7-15-15s6.7-15,15-15s15,6.7,15,15l0,0C443.7,352.9,437,359.6,428.7,359.6z
	 M428.7,331.7c-7.2,0-13,5.8-13,13c0,7.2,5.8,13,13,13c7.2,0,13-5.8,13-13c0,0,0,0,0,0C441.7,337.5,435.9,331.7,428.7,331.7
	L428.7,331.7z"/>
<path class="st1" d="M442.8,363.8h-28.2c-2.8,0-5.1-2.3-5.1-5.1v-28.2c0-2.8,2.3-5.1,5.1-5.1h28.2c2.8,0,5.1,2.3,5.1,5.1v28.2
	C447.9,361.5,445.6,363.8,442.8,363.8z M414.6,327.5c-1.7,0-3.1,1.4-3.1,3.1v28.2c0,1.7,1.4,3.1,3.1,3.1h28.2c1.7,0,3.1-1.4,3.1-3.1
	v-28.2c0-1.7-1.4-3.1-3.1-3.1H414.6z"/>
<path class="st1" d="M111.7,219.7c-0.6,0-1-0.4-1-1c0-0.1,0-0.2,0.1-0.3c27.3-73.2,138.4-81.3,186-81.3c0.3,0,0.6,0,1,0l1.2,0
	c6.6,0,25.5,8.1,40.3,14.9c0,0,0.1,0,0.1,0c7.2,3.3,12.6,6,12.7,6c0.5,0.2,0.7,0.8,0.5,1.3c-0.2,0.3-0.5,0.5-0.9,0.6
	c-107.2,4.6-174.8,17.4-206.5,39.2c-14.6,10-26,16.7-33,20.6C112.1,219.6,111.9,219.7,111.7,219.7z M296.8,139
	c-46.6,0-154.6,7.8-183.1,77.5c7-4,17.5-10.3,30.4-19.1c31.6-21.7,98.2-34.6,203.6-39.4c-2.2-1.1-5.4-2.5-8.9-4.2c0,0-0.1,0-0.1,0
	c-20.6-9.5-34.7-14.7-39.5-14.7l-1.2,0C297.5,139,297.1,139,296.8,139L296.8,139z"/>
<path class="st1" d="M888.3,219.7c-0.2,0-0.3,0-0.5-0.1c-7-3.9-18.5-10.7-33-20.6c-31.7-21.8-99.3-34.6-206.5-39.2c-0.6,0-1-0.5-1-1
	c0-0.4,0.2-0.7,0.6-0.9c0.1,0,5.4-2.6,12.7-6C682.2,142,695.8,137,701,137l1.2,0c0.3,0,0.6,0,1,0c47.6,0,158.7,8.1,186.1,81.4
	c0.2,0.5-0.1,1.1-0.6,1.3C888.5,219.7,888.4,219.7,888.3,219.7L888.3,219.7z M652.4,158c105.3,4.7,171.9,17.6,203.6,39.4
	c12.9,8.8,23.3,15.1,30.4,19.1C857.8,146.8,749.8,139,703.2,139c-0.3,0-0.6,0-1,0l-1.2,0c-4.8,0-18.8,5.2-39.5,14.7
	C657.8,155.4,654.6,156.9,652.4,158z"/>
<path class="st1" d="M364.9,556.4h-36.4c-2.8,0-5.1-2.3-5.1-5.1v-41.6c0-1.7-1.4-3.1-3.1-3.1h-41.6c-2.8,0-5.1-2.3-5.1-5.1v-36.4
	c0-2.8,2.3-5.1,5.1-5.1h41.6c1.7,0,3.1-1.4,3.1-3.1v-41.6c0-2.8,2.3-5.1,5.1-5.1h36.4c2.8,0,5.1,2.3,5.1,5.1v41.6
	c0,1.7,1.4,3.1,3.1,3.1h41.6c2.8,0,5.1,2.3,5.1,5.1v36.4c0,2.8-2.3,5.1-5.1,5.1H373c-1.7,0-3.1,1.4-3.1,3.1v41.6
	C369.9,554.1,367.7,556.4,364.9,556.4z M278.8,462.1c-1.7,0-3.1,1.4-3.1,3.1v36.4c0,1.7,1.4,3.1,3.1,3.1h41.6c2.8,0,5.1,2.3,5.1,5.1
	v41.6c0,1.7,1.4,3.1,3.1,3.1h36.4c1.7,0,3.1-1.4,3.1-3.1v-41.6c0-2.8,2.3-5.1,5.1-5.1h41.6c1.7,0,3.1-1.4,3.1-3.1v-36.4
	c0-1.7-1.4-3.1-3.1-3.1H373c-2.8,0-5.1-2.3-5.1-5.1v-41.6c0-1.7-1.4-3.1-3.1-3.1h-36.4c-1.7,0-3.1,1.4-3.1,3.1v41.6
	c0,2.8-2.3,5.1-5.1,5.1H278.8z"/>
<rect x="363.7" y="267.5" class="st1" width="24.4" height="3.5"/>
<polygon class="st1" points="636.3,267.5 625.8,267.5 625.8,257.1 622.3,257.1 622.3,267.5 611.9,267.5 611.9,271 622.3,271 
	622.3,281.4 625.8,281.4 625.8,271 636.3,271 "/>
<path class="st1" d="M775.5,289.9H771l-6.3-10.4l-6.3,10.4h-4.4l8.6-13.2l-7.9-12.6h4.2l5.9,9.7l5.9-9.7h4l-7.9,12.4L775.5,289.9z"
	/>
<path class="st1" d="M697.8,331.8l-9.3,16.5v9.2h-3.5v-9.3l-9.3-16.5h4.2l5.1,9.4l1.9,3.8l1.7-3.4l5.2-9.8L697.8,331.8z"/>
<path class="st1" d="M854,357.5h-3.8l-1.8-5.6h-10.7l-1.8,5.6h-3.6l8.5-25.7h4.8L854,357.5z M847.4,348.8L843,335l-4.4,13.8H847.4z"
	/>
<path class="st1" d="M773.3,417.8c0,1.1-0.2,2.3-0.7,3.3c-0.5,1-1.2,1.8-2,2.4c-1,0.7-2.1,1.2-3.2,1.5c-1.4,0.4-2.8,0.5-4.2,0.5
	h-6.7v-25.7h7.4c5.7,0,8.6,2.1,8.6,6.3c0,1.3-0.3,2.5-1,3.6c-0.8,1.1-1.9,1.9-3.2,2.2c0.7,0.1,1.4,0.4,2,0.7
	c0.6,0.3,1.2,0.7,1.6,1.2c0.5,0.5,0.9,1.1,1.1,1.8C773.2,416.2,773.4,417,773.3,417.8z M768.8,406.5c0-0.5-0.1-1-0.2-1.5
	c-0.2-0.5-0.4-0.9-0.8-1.2c-0.5-0.4-1-0.6-1.6-0.8c-0.8-0.2-1.7-0.3-2.5-0.3H760v8.1h3.5c0.7,0,1.5-0.1,2.2-0.3
	c0.6-0.1,1.2-0.4,1.7-0.8c0.5-0.3,0.8-0.8,1.1-1.3C768.7,407.8,768.8,407.2,768.8,406.5L768.8,406.5z M769.6,417.9
	c0-0.6-0.1-1.2-0.4-1.8c-0.3-0.5-0.7-1-1.2-1.3c-0.6-0.4-1.2-0.7-1.9-0.8c-0.8-0.2-1.7-0.3-2.5-0.3H760v8.9h3.7
	c1.6,0.1,3.2-0.3,4.5-1.1C769.2,420.6,769.7,419.3,769.6,417.9L769.6,417.9z"/>
<path class="st1" d="M571.3,329.3L557.7,343h3.9v11.6h19.5V343h3.7L571.3,329.3z M575.2,350.4h-7.7V343h7.7L575.2,350.4z"/>
<polygon class="st1" points="346.7,426.4 339.2,439.4 354.2,439.4 "/>
<polygon class="st1" points="346.7,540.4 339.2,527.4 354.2,527.4 "/>
<polygon class="st1" points="403.7,483.4 390.7,475.9 390.7,490.9 "/>
<polygon class="st1" points="289.6,483.4 302.6,475.9 302.6,490.9 "/>
</svg>
