<svg xmlns="http://www.w3.org/2000/svg" xmlns:svg="http://www.w3.org/2000/svg" id="Layer_1" width="1000.8" height="1300" x="0" y="0" version="1.1" viewBox="0 0 1000.8 1300" xml:space="preserve"><metadata id="metadata85"/><style id="style2" type="text/css">.st1{fill:#02c5e5}</style><style id="style2-6" type="text/css">.st1{fill:#02c5e5}.st3{fill:#fff}</style><g id="g344" transform="translate(0,300)"><path id="path66-7" d="m 413.1,906.6 h -7.9 c -3.6,0 -6.4,-2.9 -6.5,-6.5 V 71.2 c 0,-3.6 2.9,-6.4 6.5,-6.5 h 7.9 c 3.6,0 6.4,2.9 6.5,6.5 V 207 c 0,4.9 -1.2,9.6 -3.4,14 l -6.7,13 v 79.2 l 6.7,13 c 2.2,4.3 3.4,9.1 3.4,13.9 v 269.7 c 0,4.9 -1.2,9.6 -3.4,14 l -6.7,13 V 716 l 6.7,13 c 2.2,4.3 3.4,9.1 3.4,13.9 v 157.2 c 0,3.6 -2.9,6.5 -6.5,6.5 z M 405.2,65.7 c -3,0 -5.5,2.4 -5.5,5.5 v 828.9 c 0,3 2.4,5.5 5.5,5.5 h 7.9 c 3,0 5.5,-2.4 5.5,-5.5 V 742.9 c 0,-4.7 -1.1,-9.3 -3.3,-13.5 l -6.8,-13.1 c 0,-0.1 -0.1,-0.2 -0.1,-0.2 v -79.5 c 0,-0.1 0,-0.2 0.1,-0.2 l 6.8,-13.1 c 2.2,-4.2 3.3,-8.8 3.3,-13.5 V 340.1 c 0,-4.7 -1.1,-9.3 -3.3,-13.5 l -6.8,-13.1 c 0,-0.1 -0.1,-0.2 -0.1,-0.2 v -79.5 c 0,-0.1 0,-0.2 0.1,-0.2 l 6.8,-13.1 c 2.2,-4.2 3.3,-8.8 3.3,-13.5 V 71.2 c 0,-3 -2.4,-5.5 -5.5,-5.5 z" class="st3" style="fill:#000"/><path id="path68-5" d="m 399.3,858.9 h -11.2 c -0.3,0 -0.5,-0.2 -0.5,-0.5 V 72 c 0,-0.3 0.2,-0.5 0.5,-0.5 h 11.2 c 0.3,0 0.5,0.2 0.5,0.5 v 786.4 c 0,0.3 -0.2,0.5 -0.5,0.5 z m -10.7,-1 h 10.2 V 72.5 h -10.2 z" class="st3" style="fill:#000"/><path id="path70-3" d="M 382.1,1000 H 275.9 C 158.9,1000 64,905.2 64,788.1 c 0,0 0,0 0,0 V 220.9 C 64,104.1 159.1,9.1 275.9,9.1 h 106.2 c 3.6,0 6.5,2.9 6.5,6.5 v 978 c 0,3.5 -2.9,6.4 -6.5,6.4 z M 275.9,10.1 C 159.6,10.1 65,104.7 65,220.9 V 788.1 C 65,904.4 159.6,999 275.9,999 h 106.2 c 3,0 5.5,-2.4 5.5,-5.5 v -978 c 0,-3 -2.4,-5.5 -5.5,-5.5 H 275.9 Z" class="st3" style="fill:#000"/><path id="path98" d="m 413.1,717.1 h -4.2 c -0.6,0 -1,-0.4 -1,-1 0,0 0,0 0,0 v -79.5 c 0,-0.6 0.4,-1 1,-1 0,0 0,0 0,0 h 4.2 c 3.8,0 6.9,3.1 7,7 v 67.6 c 0,3.8 -3.1,6.9 -7,6.9 z m -3.2,-2 h 3.2 c 2.7,0 5,-2.2 5,-5 v -67.6 c 0,-2.7 -2.2,-5 -5,-5 h -3.2 z" class="st1" style="fill:#000"/><path id="path100" d="m 413.1,314.3 h -4.2 c -0.6,0 -1,-0.4 -1,-1 v -79.5 c 0,-0.6 0.4,-1 1,-1 h 4.2 c 3.8,0 6.9,3.1 7,7 v 67.6 c 0,3.8 -3.1,6.9 -7,6.9 z m -3.2,-2 h 3.2 c 2.7,0 5,-2.2 5,-5 v -67.6 c 0,-2.7 -2.2,-5 -5,-5 h -3.2 z" class="st1" style="fill:#000"/><path style="fill:#00bbdb;fill-opacity:1;stroke:#000;stroke-width:1;stroke-opacity:1" id="path1144" d="M 257.24031,997.87141 C 231.00562,994.85925 207.29188,989.42604 182.14949,976.89078 160.25417,965.97443 141.01707,951.17849 124.7007,934.38991 92.385223,901.13922 70.993413,856.60594 65.658526,807.7016 65.28629,804.28935 65.60032,777.25611 65.321787,735.45113 64.265473,576.90901 64.42116,214.87541 65.832698,201.04147 c 1.806274,-17.70261 6.06302,-36.49109 12.012095,-52.35867 2.796862,-7.4599 7.091312,-15.77684 10.715421,-23.13845 C 119.94788,61.78692 180.7783,21.164531 250.9852,11.961211 269.16651,9.5778481 384.12059,8.7019738 386.44913,11.030497 c 0.15343,0.153425 0.87429,2.31235 1.04555,7.011277 0.40459,11.1005 0.35029,35.996153 1.26274,79.381547 0.6886,32.741359 -0.0274,76.313339 0.10052,132.519699 0.15984,70.25759 -1.57659,160.16298 -1.57659,274.77051 0,484.50248 1.44371,491.1849 -0.86873,492.42248 -0.32431,0.17356 -2.47056,1.663 -5.33883,1.8051 -21.9107,1.08549 -119.24063,-0.54237 -120.56646,-0.6946 z"/><polygon id="polygon80" points="225.8 469.9 250 469.9 237.9 448.9" class="st1" transform="matrix(1.1037134,0,0,1.0523169,-24.636066,-24.267048)" style="fill:#333;stroke:#000;stroke-width:.927894;stroke-opacity:1"/><polygon id="polygon82" points="237.9 626.9 225.8 605.9 250 605.9" class="st1" transform="matrix(1.0574383,0,0,1.0316716,-13.259456,-19.457378)" style="fill:#333;stroke:#000;stroke-width:.957418;stroke-opacity:1"/><polygon id="polygon84" points="148.9 537.9 169.9 550 169.9 525.8" class="st1" transform="matrix(1.0443863,0,0,1.1036462,-7.5389156,-55.555947)" style="fill:#333;stroke:#000;stroke-width:.931439;stroke-opacity:1"/><polygon id="polygon86" points="305.9 550 305.9 525.8 326.9 537.9" class="st1" transform="matrix(1.2181479,0,0,1.1364095,-67.797686,-73.39984)" style="fill:#333;stroke:#000;stroke-width:.849928;stroke-opacity:1"/><path id="path102" d="m 81.300444,139.3 c -0.3,0 -0.5,-0.1 -0.7,-0.3 l -3.4,-3.4 c -2,-2 -2.6,-5.1 -1.5,-7.8 C 110.50044,50.1 187.70044,0.1 272.90044,0 h 51.2 c 3.8,0 6.9,3.1 7,7 v 2.6 c 0,0.6 -0.4,1 -1,1 h -54.2 c -84.5,-0.1 -160.8,50.4 -193.699996,128.1 -0.1,0.3 -0.4,0.5 -0.7,0.6 -0.1,0 -0.2,0 -0.2,0 z M 272.90044,2 c -84.4,0.1 -160.9,49.7 -195.399996,126.7 -0.8,1.9 -0.4,4.1 1.1,5.5 l 2.4,2.4 C 114.60044,58.8 191.30044,8.5 276.00044,8.6 h 53.2 V 7 c 0,-2.7 -2.2,-5 -5,-5 z" class="st1" style="fill:#000"/><path id="path104" d="m 359.60044,116.1 h -46.9 c -2.2,0 -4,-1.8 -4,-4 v -11.7 c 0,-2.2 1.8,-4 4,-4 h 46.9 c 2.2,0 4,1.8 4,4 v 11.7 c 0,2.2 -1.8,4 -4,4 z m -46.9,-17.6 c -1.1,0 -2,0.9 -2,2 v 11.7 c 0,1.1 0.9,2 2,2 h 46.9 c 1.1,0 2,-0.9 2,-2 v -11.7 c 0,-1.1 -0.9,-2 -2,-2 z" class="st1" style="fill:#000"/><path id="path106" d="m 237.90044,502.9 c -21.2,0 -38.5,-17.2 -38.5,-38.5 0,-21.2 17.2,-38.5 38.5,-38.5 21.2,0 38.5,17.2 38.5,38.5 0,21.3 -17.2,38.5 -38.5,38.5 z m 0,-74.9 c -20.1,0 -36.5,16.3 -36.5,36.5 0,20.1 16.3,36.5 36.5,36.5 20.1,0 36.5,-16.3 36.5,-36.5 0,-20.2 -16.3,-36.5 -36.5,-36.5 z" class="st1" style="fill:#000"/><path id="path108" d="m 237.90044,649.8 c -21.2,0 -38.5,-17.2 -38.5,-38.5 0,-21.3 17.2,-38.5 38.5,-38.5 21.2,0 38.5,17.2 38.5,38.5 0,21.3 -17.2,38.5 -38.5,38.5 z m 0,-74.9 c -20.1,0 -36.5,16.3 -36.5,36.5 0,20.2 16.3,36.5 36.5,36.5 20.2,0 36.5,-16.3 36.5,-36.5 0,0 0,0 0,0 0,-20.2 -16.3,-36.5 -36.5,-36.5 z" class="st1" style="fill:#000"/><path id="path110" d="m 311.40044,576.3 c -21.2,0 -38.5,-17.2 -38.5,-38.5 0,-21.2 17.2,-38.5 38.5,-38.5 21.3,0 38.5,17.2 38.5,38.5 v 0 c -0.1,21.3 -17.3,38.5 -38.5,38.5 z m 0,-74.9 c -20.1,0 -36.5,16.3 -36.5,36.5 0,20.2 16.3,36.5 36.5,36.5 20.1,0 36.5,-16.3 36.5,-36.5 0,0 0,0 0,0 -0.1,-20.2 -16.4,-36.5 -36.5,-36.5 z" class="st1" style="fill:#000"/><path id="path112" d="m 164.50044,576.3 c -21.2,0 -38.5,-17.2 -38.5,-38.5 0,-21.2 17.2,-38.5 38.5,-38.5 21.3,0 38.5,17.2 38.5,38.5 v 0 c -0.1,21.3 -17.3,38.5 -38.5,38.5 z m 0,-74.9 c -20.1,0 -36.5,16.3 -36.5,36.5 0,20.1 16.3,36.5 36.5,36.5 20.1,0 36.5,-16.3 36.5,-36.5 0,0 0,0 0,0 -0.1,-20.2 -16.4,-36.5 -36.5,-36.5 z" class="st1" style="fill:#000"/><path id="path114" d="m 314.10044,753.7 h -45 c -5.5,0 -9.9,-4.4 -9.9,-9.9 v -45 c 0,-5.5 4.4,-9.9 9.9,-9.9 h 45 c 5.5,0 9.9,4.4 9.9,9.9 v 45 c 0,5.5 -4.5,9.9 -9.9,9.9 z m -45,-62.8 c -4.4,0 -7.9,3.6 -7.9,7.9 v 45 c 0,4.4 3.6,7.9 7.9,7.9 h 45 c 4.4,0 7.9,-3.6 7.9,-7.9 v -45 c 0,-4.4 -3.6,-7.9 -7.9,-7.9 z" class="st1" style="fill:#000"/><path id="path116" d="m 291.60044,741.7 c -11.3,0 -20.4,-9.2 -20.4,-20.4 0,-11.3 9.2,-20.4 20.4,-20.4 11.3,0 20.4,9.2 20.4,20.4 0,0 0,0 0,0 0,11.3 -9.1,20.4 -20.4,20.4 z m 0,-38.9 c -10.2,0 -18.4,8.3 -18.4,18.4 0,10.1 8.3,18.4 18.4,18.4 10.2,0 18.4,-8.3 18.4,-18.4 0,-10.1 -8.2,-18.3 -18.4,-18.4 z" class="st1" style="fill:#000"/><path id="path118" d="m 174.80044,260.2 h -12.3 c -0.6,0 -1,-0.4 -1,-1 0,0 0,0 0,0 1.7,-39.6 33.4,-71.3 73,-73 0.3,0 0.5,0.1 0.7,0.3 0.2,0.2 0.3,0.4 0.3,0.7 v 12.3 c 0,3.5 -2.6,6.4 -6,6.9 -24.7,3.7 -44.2,23.1 -47.9,47.9 -0.4,3.3 -3.3,5.9 -6.8,5.9 z m -11.2,-2 h 11.2 c 2.5,0 4.6,-1.8 4.9,-4.3 3.9,-25.6 24,-45.7 49.6,-49.6 2.5,-0.3 4.3,-2.4 4.3,-4.9 v -11.2 c -37.4,2.1 -67.9,32.6 -70,70 z" class="st1" style="fill:#000"/><path id="path120" d="m 234.60044,338.9 v 0 c -39.6,-1.7 -71.3,-33.4 -73,-73 0,-0.6 0.4,-1 1,-1 0,0 0,0 0,0 h 12.3 c 3.5,0 6.4,2.6 6.9,6 3.7,24.7 23.1,44.2 47.9,47.9 3.4,0.5 6,3.4 6,6.9 V 338 c -0.1,0.5 -0.6,0.9 -1.1,0.9 z m -71,-72 c 2.2,37.4 32.6,67.8 70,70 v -11.2 c 0,-2.5 -1.8,-4.6 -4.3,-4.9 -25.6,-3.9 -45.7,-24 -49.6,-49.6 -0.3,-2.5 -2.4,-4.3 -4.9,-4.3 z" class="st1" style="fill:#000"/><path id="path122" d="m 241.30044,338.9 c -0.6,0 -1,-0.4 -1,-1 v -12.3 c 0,-3.5 2.6,-6.4 6,-6.9 24.7,-3.7 44.2,-23.1 47.9,-47.9 0.5,-3.4 3.4,-6 6.9,-6 h 12.3 c 0.6,0 1,0.4 1,1 0,0 0,0 0,0 -1.8,39.7 -33.5,71.4 -73.1,73.1 z m 59.7,-72 c -2.5,0 -4.6,1.8 -4.9,4.3 -3.9,25.6 -24,45.7 -49.6,49.6 -2.5,0.3 -4.3,2.4 -4.3,4.9 v 11.2 c 37.4,-2.2 67.8,-32.6 70,-70 z" class="st1" style="fill:#000"/><path id="path124" d="m 313.30044,260.2 h -12.3 c -3.5,0 -6.4,-2.6 -6.9,-6 -3.7,-24.7 -23.1,-44.2 -47.9,-47.9 -3.4,-0.5 -6,-3.4 -6,-6.9 v -12.3 c 0,-0.3 0.1,-0.5 0.3,-0.7 0.2,-0.2 0.5,-0.3 0.7,-0.3 39.6,1.7 71.3,33.4 73,73 0.1,0.6 -0.3,1.1 -0.9,1.1 0,0 0,0 0,0 z m -71,-72 v 11.2 c 0,2.5 1.8,4.6 4.3,4.9 25.6,3.9 45.7,24 49.6,49.6 0.3,2.5 2.4,4.3 4.9,4.3 h 11.2 c -2.2,-37.4 -32.7,-67.9 -70,-70 z" class="st1" style="fill:#000"/><path id="path126" d="m 237.90044,339 c -1.2,0 -2.3,0 -3.4,-0.1 -0.5,0 -0.9,-0.5 -0.9,-1 v -12.3 c 0,-2.5 -1.8,-4.6 -4.3,-4.9 -25.6,-3.9 -45.7,-24 -49.6,-49.6 -0.3,-2.5 -2.4,-4.3 -4.9,-4.3 h -12.3 c -0.5,0 -1,-0.4 -1,-0.9 -0.1,-1.1 -0.1,-2.2 -0.1,-3.4 0,-1.2 0,-2.3 0.1,-3.4 0,-0.5 0.5,-0.9 1,-0.9 h 12.3 c 2.5,0 4.6,-1.8 4.9,-4.3 3.9,-25.6 24,-45.7 49.6,-49.6 2.5,-0.3 4.3,-2.4 4.3,-4.9 v -12.3 c 0,-0.5 0.4,-1 0.9,-1 2.3,-0.1 4.5,-0.1 6.8,0 0.5,0 0.9,0.5 0.9,1 v 12.3 c 0,2.5 1.8,4.6 4.3,4.9 25.6,3.9 45.7,24 49.6,49.6 0.3,2.5 2.4,4.3 4.9,4.3 h 12.3 c 0.5,0 1,0.4 1,0.9 0.1,1.1 0.1,2.2 0.1,3.4 0,1.2 0,2.3 -0.1,3.4 0,0.5 -0.5,0.9 -1,0.9 h -12.3 c -2.5,0 -4.6,1.8 -4.9,4.3 -3.9,25.6 -24,45.7 -49.6,49.6 -2.5,0.3 -4.3,2.4 -4.3,4.9 v 12.3 c 0,0.5 -0.4,1 -0.9,1 -1.1,0.1 -2.2,0.1 -3.4,0.1 z m -2.3,-2 c 1.5,0.1 3.1,0.1 4.7,0 v -11.3 c 0,-3.5 2.6,-6.4 6,-6.9 24.7,-3.7 44.2,-23.1 47.9,-47.9 0.5,-3.4 3.4,-6 6.9,-6 h 11.3 c 0,-0.8 0,-1.5 0,-2.3 0,-0.8 0,-1.6 0,-2.3 h -11.4 c -3.5,0 -6.4,-2.6 -6.9,-6 -3.7,-24.7 -23.1,-44.2 -47.9,-47.9 -3.4,-0.5 -6,-3.4 -6,-6.9 v -11.3 c -1.5,-0.1 -3.1,-0.1 -4.7,0 v 11.3 c 0,3.5 -2.6,6.4 -6,6.9 -24.7,3.7 -44.2,23.1 -47.9,47.9 -0.5,3.4 -3.4,6 -6.9,6 h -11.3 c 0,0.8 0,1.5 0,2.3 0,0.8 0,1.6 0,2.3 h 11.3 c 3.5,0 6.4,2.6 6.9,6 3.7,24.7 23.1,44.2 47.9,47.9 3.4,0.5 6,3.4 6,6.9 z" class="st1" style="fill:#000"/><path style="fill:#1a1a1a;fill-opacity:1;stroke:#000;stroke-width:.999997;stroke-opacity:1" id="path179" d="m 158.02789,574.27925 c -14.73064,-3.25266 -24.85554,-12.70578 -29.04419,-27.11717 -0.98592,-3.39218 -1.21679,-6.26957 -0.93511,-11.65556 0.33774,-6.4583 0.67944,-7.76803 3.52546,-13.51272 11.35216,-22.91431 40.68588,-27.928 58.61532,-10.01846 19.42229,19.40073 11.99924,51.86436 -13.89781,60.78009 -5.19354,1.788 -13.81105,2.50701 -18.26367,1.52382 z m 12.59864,-36.29462 c 0,-7.35074 -0.18108,-13.36496 -0.40241,-13.36496 -0.89601,0 -23.32454,13.1809 -22.99291,13.51259 0.66445,0.66458 22.24473,13.11359 22.82266,13.1657 0.31497,0.0284 0.57266,-5.96261 0.57266,-13.31333 z"/><path style="fill:#1a1a1a;fill-opacity:1;stroke:#000;stroke-width:.999997;stroke-opacity:1" id="path181" d="m 232.50517,500.57091 c -6.91699,-0.86484 -15.04235,-4.99807 -20.4853,-10.42051 -14.58513,-14.53016 -14.55979,-36.85709 0.0584,-51.42015 23.0282,-22.94142 62.26853,-6.95317 62.26853,25.37095 0,10.34881 -3.46897,18.75364 -10.723,25.98031 -8.34032,8.30891 -19.22192,11.97685 -31.1186,10.4894 z m 18.58209,-30.69278 c -0.91811,-2.38357 -12.79282,-22.35099 -13.28879,-22.34521 -0.45143,0.005 -5.88471,9.05299 -11.95805,19.91302 l -2.0157,3.60439 h 13.85703 c 12.18288,0 13.80248,-0.14161 13.40551,-1.1722 z"/><path style="fill:#1a1a1a;fill-opacity:1;stroke:#000;stroke-width:.999997;stroke-opacity:1" id="path185" d="m 229.21434,646.98161 c -12.9232,-3.46654 -23.15418,-13.73508 -26.52403,-26.62142 -5.92248,-22.64757 11.58541,-45.21876 35.15949,-45.32763 7.44717,-0.0344 11.29183,0.91312 18.09999,4.46071 16.90217,8.80735 23.84898,30.39169 15.40753,47.87245 -7.54225,15.61868 -25.6403,24.04261 -42.14298,19.61589 z M 245.434,616.92014 c 3.65424,-6.30197 6.48622,-11.61534 6.29329,-11.8075 -0.19293,-0.19216 -6.40658,-0.25572 -13.80812,-0.14123 l -13.45735,0.20814 6.66623,11.58776 c 3.66642,6.37327 6.89025,11.59297 7.16405,11.59935 0.27381,0.006 3.48766,-5.14457 7.1419,-11.44652 z"/><path style="fill:#1a1a1a;fill-opacity:1;stroke:#000;stroke-width:1;stroke-opacity:1" id="path187" d="m 307.85537,574.24407 c -0.34478,-0.0389 -1.62711,-0.27075 -2.84962,-0.51537 -11.23844,-2.24892 -20.9226,-9.70179 -26.17378,-20.1432 -2.82839,-5.62398 -4.20289,-12.18393 -3.75883,-17.93953 1.14218,-14.80435 11.33006,-27.74217 25.61809,-32.53303 8.75405,-2.93529 18.04495,-2.18507 26.72988,2.15843 8.69225,4.34715 15.48783,12.11097 18.64346,21.29973 5.25881,15.31297 -0.71552,32.17026 -14.73029,41.56334 -5.99457,4.01773 -13.35804,6.28235 -20.18834,6.20884 -1.46502,-0.0157 -2.94577,-0.0604 -3.29057,-0.0993 z m -0.66719,-23.08553 c 0.71175,-0.35815 3.02697,-1.62049 5.14496,-2.80516 8.66766,-4.84825 15.63944,-9.1681 16.21592,-10.0477 0.27948,-0.42642 0.28078,-0.49758 0.0166,-0.90068 -0.86957,-1.32678 -21.50733,-13.52937 -22.8817,-13.52937 -0.25925,0 -0.5656,0.11351 -0.68079,0.25225 -0.41371,0.49837 -0.59707,4.78502 -0.59431,13.89388 0.003,9.06159 0.17803,13.03427 0.59744,13.53951 0.32082,0.38645 0.78324,0.3011 2.18189,-0.40273 z"/><path style="fill:#333;fill-opacity:1;stroke:#000;stroke-width:1;stroke-opacity:1" id="path189" d="m 287.96017,739.09726 c -1.01606,-0.21912 -2.9756,-0.9477 -4.35453,-1.61905 -2.09414,-1.01956 -2.88115,-1.59464 -4.77748,-3.49097 -1.89792,-1.89791 -2.4703,-2.68159 -3.48941,-4.77748 -2.66648,-5.48389 -2.66607,-10.55714 10e-4,-16.08572 1.0133,-2.10022 1.56326,-2.85257 3.48092,-4.76199 3.62968,-3.61405 7.72755,-5.3398 12.70198,-5.34921 8.35146,-0.0158 15.68299,5.71579 17.81213,13.92506 0.52326,2.01754 0.54009,6.16569 0.0339,8.34799 -1.47072,6.34008 -6.30854,11.44929 -12.69973,13.41212 -2.44922,0.7522 -6.26202,0.92699 -8.70906,0.39925 z"/><path style="fill:#1a1a1a;fill-opacity:1;stroke:#000;stroke-width:1;stroke-opacity:1" id="path191" d="m 267.23012,751.2862 c -1.59942,-0.43597 -2.94763,-1.29847 -4.05871,-2.59652 -1.81264,-2.11766 -1.73429,-0.87988 -1.73429,-27.39725 0,-26.73402 -0.0972,-25.30688 1.87658,-27.54923 0.58306,-0.66239 1.71204,-1.51487 2.55332,-1.92799 l 1.5081,-0.74058 h 24.1534 24.15339 l 1.77672,0.87468 c 1.25727,0.61895 2.04823,1.23027 2.70544,2.091 1.78729,2.34073 1.72742,1.33094 1.64816,27.80036 -0.0712,23.78487 -0.0733,23.86757 -0.63865,25.09049 -0.72339,1.56486 -2.26169,3.10316 -3.93043,3.93043 l -1.30842,0.64864 -23.75199,0.0516 c -18.21394,0.0396 -24.03192,-0.0247 -24.95262,-0.27565 z m 27.28995,-9.68076 c 10.60326,-1.53286 18.09097,-10.66806 17.50501,-21.35655 -0.18432,-3.36213 -0.66908,-5.27077 -2.04745,-8.06138 -4.59235,-9.29756 -15.46557,-13.67756 -25.3079,-10.19463 -2.76161,0.97725 -4.68871,2.16763 -7.02836,4.34145 -3.05146,2.83517 -5.11688,6.34636 -6.04249,10.27217 -0.50715,2.151 -0.50715,7.22087 0,9.37186 0.92171,3.90925 2.95421,7.3745 6.0133,10.25221 2.20884,2.07787 4.16469,3.31668 6.72144,4.2573 3.40627,1.25315 6.72782,1.61756 10.18645,1.11757 z"/><path style="fill:#1a1a1a;fill-opacity:1;stroke:#1a1a1a;stroke-width:1;stroke-opacity:1" id="path1082" d="m 235.77295,330.34531 c 0,-6.0203 -0.0462,-6.51813 -0.73076,-7.87124 -1.06164,-2.09851 -2.95253,-3.39477 -5.65313,-3.87537 -15.06064,-2.68022 -27.49575,-10.15006 -36.51861,-21.93692 -4.96934,-6.49162 -8.83069,-15.11098 -10.3887,-23.18981 -0.83474,-4.3284 -1.3998,-5.65891 -2.97647,-7.00848 -1.7724,-1.51711 -3.30405,-1.79252 -9.96885,-1.79252 h -5.86461 v -2.11107 -2.11107 h 6.26944 c 6.12912,0 6.30805,-0.0192 7.9945,-0.85963 2.44443,-1.21811 3.32179,-2.74063 4.22338,-7.32906 4.56927,-23.25403 22.39532,-40.97679 45.63214,-45.36773 4.16129,-0.78634 5.57438,-1.57205 6.90818,-3.84114 0.9048,-1.53927 0.91186,-1.5954 1.02116,-8.12677 l 0.11006,-6.57679 h 2.0822 2.0822 v 6.27497 c 0,6.20191 0.0104,6.29547 0.89315,8.03629 1.32629,2.61551 2.65075,3.37644 7.56606,4.34684 19.37922,3.82593 35.08856,16.98397 42.28514,35.41774 1.04383,2.67375 1.9437,5.93165 3.31831,12.01372 0.58905,2.60627 1.67368,4.16462 3.60307,5.17675 1.1513,0.60396 1.95144,0.68258 7.85861,0.77219 l 6.57679,0.0998 v 2.0925 2.09249 h -6.26944 c -6.12912,0 -6.30805,0.0192 -7.9945,0.85963 -2.20181,1.09721 -3.39863,2.90223 -3.90849,5.89474 -4.06097,23.83452 -22.22419,42.32715 -45.97159,46.8053 -4.2535,0.8021 -5.71797,1.66037 -6.96502,4.08193 -0.79329,1.54043 -0.83455,1.89301 -0.94026,8.03533 l -0.11057,6.42419 h -2.08169 -2.0817 z"/><path style="fill:#1a1a1a;fill-opacity:1;stroke:#4d4d4d;stroke-width:1" id="path1084" d="m 163.78864,257.28223 c 0.0926,-0.49123 0.26012,-1.9162 0.37218,-3.1666 0.34565,-3.85681 1.73866,-10.12043 3.27937,-14.74553 8.02141,-24.0797 28.10082,-42.70464 52.74332,-48.92282 3.12397,-0.78829 7.58171,-1.54879 11.2861,-1.92544 l 2.02988,-0.20639 v 5.8726 c 0,8.54266 -0.3854,9.15422 -6.53853,10.37563 -18.42711,3.65779 -33.66767,15.25204 -41.92018,31.89074 -2.55007,5.14144 -4.14587,10.08856 -5.47376,16.9691 -0.45828,2.3746 -1.81844,3.9985 -3.71595,4.43649 -0.71452,0.16493 -3.75876,0.30335 -6.76499,0.30761 l -5.46587,0.008 z"/><path style="fill:#1a1a1a;fill-opacity:1;stroke:#4d4d4d;stroke-width:1" id="path1086" d="m 229.76452,336.39384 c -26.99792,-3.04756 -50.79328,-21.35759 -60.92173,-46.87799 -2.38214,-6.00221 -4.22117,-13.35788 -4.67827,-18.71196 -0.11259,-1.31887 -0.27512,-2.73804 -0.36117,-3.1537 l -0.15645,-0.75574 6.32279,0.10618 c 5.78597,0.0972 6.39885,0.16304 7.21874,0.77582 1.58067,1.18137 2.03872,2.1715 2.89278,6.25312 1.21968,5.82894 2.45374,9.35857 5.18759,14.8375 2.85902,5.72977 5.67403,9.77885 9.85937,14.18161 8.62003,9.0678 19.6967,15.16512 31.73111,17.46684 3.63419,0.69508 4.63135,1.16546 5.80819,2.73983 0.6132,0.82034 0.6781,1.4276 0.77012,7.20628 0.0943,5.92221 0.0643,6.30785 -0.48717,6.26798 -0.32321,-0.0233 -1.75687,-0.17446 -3.1859,-0.33577 z"/><path style="fill:#1a1a1a;fill-opacity:1;stroke:#4d4d4d;stroke-width:1" id="path1088" d="m 299.6703,257.71116 c -2.39043,-0.853 -2.81858,-1.58503 -3.81252,-6.51855 -3.66786,-18.20579 -15.40436,-33.45997 -31.99138,-41.57986 -4.81668,-2.35792 -8.58209,-3.67044 -13.47836,-4.69819 -4.72195,-0.99115 -6.17077,-1.58672 -7.05619,-2.9006 -0.70499,-1.04613 -0.73853,-1.38133 -0.73853,-7.38107 0,-3.45685 0.11517,-6.28518 0.25593,-6.28518 0.14076,0 1.93111,0.20926 3.97855,0.46502 11.96867,1.4951 22.85594,5.62979 32.79042,12.45291 4.36974,3.00118 7.416,5.6069 11.57682,9.90259 9.30395,9.60553 15.50823,20.66713 18.77966,33.48224 0.93232,3.65217 2.12151,10.886 2.12151,12.90514 0,0.58643 -0.30132,0.619 -5.60245,0.60551 -3.82949,-0.01 -5.98886,-0.15214 -6.82346,-0.44996 z"/><path style="fill:#1a1a1a;fill-opacity:1;stroke:#4d4d4d;stroke-width:1" id="path1090" d="m 242.3249,330.46177 c 0.097,-5.7735 0.163,-6.38655 0.77566,-7.20629 1.18269,-1.58243 2.17182,-2.02925 6.33209,-2.86041 23.48707,-4.69236 41.89612,-23.31363 46.43689,-46.97223 0.66775,-3.47916 1.14738,-4.47847 2.71006,-5.64639 0.81991,-0.6128 1.43277,-0.67865 7.22079,-0.77584 l 6.32483,-0.10621 -0.19591,1.73011 c -1.19107,10.51857 -3.29919,17.9842 -7.45853,26.41337 -11.17834,22.65366 -32.93361,38.14197 -57.96776,41.26919 -2.04744,0.25577 -3.84896,0.46502 -4.00338,0.46502 -0.15442,0 -0.23305,-2.83964 -0.17474,-6.31032 z"/><path style="fill:#1a1a1a;fill-opacity:1;stroke:#000;stroke-width:.999998;stroke-opacity:1" id="path1092" d="m 311.60253,113.45766 c -0.55307,-0.55307 -0.67321,-1.83753 -0.67321,-7.19731 0,-4.50308 0.15925,-6.68335 0.51409,-7.03819 0.38766,-0.38766 6.43841,-0.5141 24.60307,-0.5141 21.32785,0 24.16614,0.0772 24.76219,0.67322 0.55166,0.55166 0.67322,1.82364 0.67322,7.0445 0,6.09825 -0.0408,6.39986 -0.95215,7.03819 -0.83385,0.58406 -3.89051,0.66691 -24.60307,0.66691 -20.92962,0 -23.72838,-0.0775 -24.32414,-0.67322 z"/><path style="fill:#000;fill-opacity:1;stroke:#4d4d4d;stroke-width:.999998" id="path1094" d="m 78.977784,134.18912 c -2.35328,-2.74929 -2.18932,-3.66269 2.26682,-12.62797 C 92.012734,99.89682 104.871,81.96966 121.771,65.058734 153.11752,33.69194 193.3541,12.833792 237.03838,5.305545 252.10894,2.708387 253.57756,2.630423 291.07604,2.43687 l 34.76922,-0.179466 1.35092,1.207149 c 0.9677,0.864713 1.41875,1.712966 1.59003,2.990242 l 0.23911,1.783092 -33.78877,0.194148 c -36.2509,0.208295 -38.76527,0.335101 -53.2555,2.685802 -38.392,6.2282 -72.8916,22.039868 -103.29303,47.340693 -6.79226,5.652686 -19.46547,18.33117 -25.22484,25.23531 -8.3636,10.02603 -16.479016,21.67655 -22.544486,32.36489 -3.07683,5.42188 -9.61802,18.64996 -9.61802,19.45027 0,0.91062 -0.80534,0.45303 -2.32289,-1.31988 z"/><path style="fill:#000;fill-opacity:1;stroke:#000;stroke-width:1;stroke-opacity:1" id="path1150" d="m 398.44844,615.98373 c 0,-216.02489 -0.0215,-633.986049 0.12697,-525.973599 0.14845,108.012439 0.29139,614.347419 0.14294,722.359859 -0.0401,29.20619 -0.0907,43.20012 -0.12499,45.04791 -0.0926,4.98585 -0.14492,-83.82167 -0.14492,-241.43417 z"/><path style="fill:#1a1a1a;fill-opacity:1;stroke:#000;stroke-width:1;stroke-opacity:1" id="path1152" d="m 400.62988,903.164 c -1.48283,-2.11702 -0.83255,-44.16773 -0.83255,-417.61555 0,-373.44781 -0.81158,-415.197415 0.67125,-417.31444 1.37591,-1.964385 3.40896,-2.252646 8.48523,-2.252646 1.77094,0 3.84166,-0.08796 5.42907,0.210876 1.40618,0.264716 3.16687,2.038026 3.49464,2.365798 0.49522,0.495217 0.3217,4.318356 0.43962,16.36819 0.1111,11.353396 -0.22256,28.989262 -0.22256,55.337332 0,44.70634 0.60945,61.76349 0.136,69.7887 -0.25741,4.36328 -1.18492,6.13499 -1.9011,8.04917 -1.16098,3.10304 -3.86364,8.15599 -5.61012,10.90989 l -3.1754,5.00708 0.39853,40.34769 c 0.37154,37.61503 -0.21444,39.05077 1.63547,41.67417 1.08842,1.5435 2.94744,6.13491 4.62112,9.33312 l 3.04306,5.81494 1.31284,7.9315 -0.0707,19.78753 -0.10737,15.79956 -0.21131,97.91413 c -0.20099,93.13106 1.25117,126.69008 -0.28021,141.09354 -0.44236,4.16066 -1.62132,6.51589 -2.28217,8.50207 -0.90516,2.72046 -2.09268,4.90784 -3.84656,7.82045 l -3.66064,6.0791 0.3792,15.57297 0.11069,25.0662 c 0.11714,26.5248 0.58051,40.42685 1.28995,40.8653 0.59597,0.36833 2.69223,4.04112 4.32574,8.44952 l 3.32256,8.96672 1.09731,9.02354 -0.19118,15.86739 -0.18943,57.8651 c -0.2026,61.8851 0.4238,84.47685 -0.4696,85.55336 -0.77641,0.93553 -4.47782,2.42762 -8.42197,2.42762 -5.161,0 -7.33923,-0.63936 -8.71946,-2.60992 z"/><path style="fill:#1a1a1a;fill-opacity:1;stroke:#000;stroke-width:1;stroke-opacity:1" id="path1154" d="m 388.84323,464.93186 0.0252,-5.22079 0.35628,-387.023108 h 4.22905 4.22904 V 464.93186 L 398.8,857.9 393.4746,858.08261 388.6,857.9 Z"/><path style="fill:#00bbdb;fill-opacity:1;stroke:#000;stroke-width:1;stroke-opacity:1" id="path1156" d="m 409.89998,273.33293 v -38.63294 h 3.04188 c 1.74435,0 3.58682,0.88543 4.31941,2.07573 1.73761,2.82321 1.73761,70.29119 0,73.11439 -0.73259,1.19032 -2.57506,2.07573 -4.31941,2.07573 h -3.04188 z"/><path style="fill:#00bbdb;fill-opacity:1;stroke:#000;stroke-width:1;stroke-opacity:1" id="path1158" d="m 409.89998,676.164 v -38.66403 h 3.04381 c 1.74545,0 3.58909,0.88613 4.32215,2.07741 1.7387,2.82547 1.7387,70.34777 0,73.17325 -0.73306,1.19129 -2.5767,2.0774 -4.32215,2.0774 h -3.04381 z"/><path style="opacity:1;fill:#1a1a1a;fill-opacity:1;stroke:#4d4d4d;stroke-width:1" id="path1502"/></g><ellipse id="path4030" cx="-630.031" cy="861.013" rx="15.407" ry="14.105" transform="scale(-1,1)" style="fill:#2e2f31;fill-opacity:1;stroke:#000;stroke-width:1;stroke-linecap:round;stroke-linejoin:round;stroke-miterlimit:4;stroke-dasharray:none;stroke-opacity:1"/><path id="path4038" d="m 531.57205,538.85036 v 45.92786" style="fill:none;stroke:#000;stroke-width:1px;stroke-linecap:butt;stroke-linejoin:miter;stroke-opacity:1"/><path id="path4040" d="M 538.66113,544.78398 V 581.251" style="fill:none;stroke:#000;stroke-width:1px;stroke-linecap:butt;stroke-linejoin:miter;stroke-opacity:1"/><path id="path4062" d="m 618.21618,561.30922 c 0.15897,-2.39247 0.93393,-4.19426 2.34943,-5.4612 1.05382,-0.94329 2.4969,-1.60711 4.18689,-1.92587 0.38638,-0.0728 1.08711,-0.17756 1.09745,-0.16356 0,0.005 0.0932,0.85525 0.2017,1.89259 0.10822,1.03731 0.20533,1.93952 0.21568,2.00495 0.0181,0.10453 0.0103,0.11877 -0.0516,0.11877 -0.12143,0 -0.66218,0.12325 -1.06042,0.24145 -1.89486,0.56317 -2.9076,1.70318 -3.13568,3.52943 -0.0526,0.41968 0.2402,1.20332 0.3147,1.59414 0.19574,1.0321 0.5477,1.44923 1.24585,1.96064 0.54534,0.39941 0.84078,0.63241 1.52991,0.63397 0.49114,0 0.79513,-0.17703 1.12084,-0.34918 0.22397,-0.11875 0.54525,-0.72408 0.72476,-0.97125 0.4284,-0.59002 0.57331,-0.18167 1.33421,-2.91459 0.47521,-1.70735 0.75977,-2.52129 1.19088,-3.4071 0.58401,-1.19961 1.35632,-2.06979 2.41398,-2.71969 0.58281,-0.35813 1.33375,-0.64229 2.04739,-0.77469 0.33923,-0.0633 0.49023,-0.0718 1.18512,-0.0711 0.6888,7.5e-4 0.84197,0.01 1.1342,0.0705 1.71036,0.34984 3.14515,1.32777 3.98586,2.71644 0.37788,0.62406 0.6928,1.43192 0.8702,2.23216 0.38944,1.75661 0.31125,4.08353 -0.19239,5.72547 -0.23225,0.75754 -0.63066,1.547 -1.06364,2.10803 -0.29761,0.38576 -1.03764,1.06284 -1.46261,1.33836 -0.68025,0.44086 -1.27214,1.08216 -2.11357,1.24388 -0.42538,0.0817 -1.27033,-0.14168 -1.5376,-0.14168 h -0.15716 l -2.2e-4,-0.18229 c -1.6e-4,-0.10006 -0.0391,-0.97392 -0.0865,-1.94151 -0.0477,-0.9676 -0.0862,-1.8095 -0.0862,-1.87098 l -7e-5,-0.11166 0.30292,-0.0566 c 0.67911,-0.12659 0.64274,-0.69151 1.05495,-1.00838 0.80274,-0.61701 1.57932,-1.59904 1.57884,-3.10599 -2.4e-4,-0.99245 -0.26656,-1.2378 -0.6209,-1.90047 -0.41109,-0.7689 -0.52472,-0.63395 -1.25089,-0.66875 -0.54033,-0.0264 -0.60261,0.54818 -0.97987,0.86389 -0.60357,0.50503 -0.65515,0.26871 -1.33681,2.74768 -0.53065,1.92992 -1.61672,3.72692 -2.02402,4.67676 -0.7236,1.68735 -1.46229,1.88688 -2.90464,2.54118 -0.86271,0.39132 -1.65737,0.56338 -2.80448,0.60727 -1.3619,0.0524 -2.61283,-0.24592 -3.80829,-0.90695 -1.3364,-0.73899 -2.29253,-1.88343 -2.83806,-3.39691 -0.47562,-1.31947 -0.68418,-3.07542 -0.56986,-4.79727 v 0 z" style="fill:#000;stroke:#000;stroke-width:.0133722;stroke-linecap:round;stroke-linejoin:round;stroke-miterlimit:4;stroke-dasharray:none;stroke-opacity:1"/><path id="path4064" d="m 630.09646,971.66625 h 11.20079 l -7.7e-4,4.47736 c -3.9e-4,2.46263 -0.0181,4.8542 -0.0344,5.31477 -0.12014,3.00951 -0.56807,4.32259 -1.86223,5.4598 -1.43936,1.26481 -3.65136,1.78958 -5.84831,1.38753 -1.22398,-0.224 -2.30114,-0.78622 -3.1233,-1.63027 -0.75525,-0.77541 -1.34589,-2.02193 -1.58341,-3.3415 -0.0526,-0.2928 -0.0649,-0.32336 -0.10591,-0.26949 -0.0258,0.0337 -0.20067,0.27472 -0.38963,0.53623 -0.79262,1.09807 -1.46856,1.72397 -2.8174,2.60895 -0.78277,0.51353 -1.17221,0.74339 -4.12365,2.43453 l -2.49548,1.4299 -0.008,-2.44288 c -0.005,-1.92858 2.7e-4,-2.45065 0.0344,-2.47945 0.0234,-0.0215 1.34449,-0.8352 2.93457,-1.81113 4.5931,-2.81923 5.11319,-3.17081 5.65776,-3.8248 0.54019,-0.64863 0.67406,-1.16979 0.70337,-2.7382 l 0.0181,-0.99053 h -4.67857 -4.67867 v -2.06046 -2.06036 h 11.20079 z m 1.74946,9.28763 c 0.0409,0.67298 0.11392,1.26781 0.18719,1.52499 0.22165,0.77651 0.88153,1.38438 1.75173,1.61386 0.32467,0.0855 1.148,0.12136 1.50829,0.0653 0.87376,-0.13534 1.48211,-0.5375 1.85019,-1.22332 0.35302,-0.65774 0.37769,-0.95998 0.37905,-4.65174 l 7.5e-4,-2.49624 h -2.85643 -2.85653 l 7e-5,2.29025 c 0,1.25954 0.0181,2.55403 0.0356,2.87661 z" style="fill:#000;stroke:#000;stroke-width:.0133722;stroke-linecap:round;stroke-linejoin:round;stroke-miterlimit:4;stroke-dasharray:none;stroke-opacity:1"/><path id="path4066" d="m 618.48834,960.72379 c 0.26992,-3.13481 1.47063,-5.14907 3.82731,-6.42085 0.94544,-0.51008 2.47246,-0.96116 3.66673,-1.08314 l 0.21439,-0.0214 0.0207,0.10785 c 0.0372,0.19794 0.41957,3.90855 0.40445,3.92234 -0.008,0.007 -0.17193,0.0441 -0.3639,0.0822 -0.19212,0.0376 -0.53821,0.12634 -0.76937,0.19651 -1.79072,0.54475 -2.7801,1.57117 -3.10355,3.21988 -0.0989,0.50413 -0.10744,1.60822 -0.0155,2.14051 0.12169,0.71048 0.32194,1.25035 0.6218,1.6747 0.41144,0.58234 0.98794,1.0195 1.60624,1.21829 0.34978,0.11236 1.05168,0.14484 1.3996,0.0645 0.68302,-0.15762 1.12961,-0.53488 1.53764,-1.29896 0.28622,-0.53585 0.48608,-1.14697 1.12493,-3.44026 0.58179,-2.0886 0.89522,-2.93441 1.4688,-3.96444 0.54763,-0.9834 1.29532,-1.75609 2.25091,-2.32632 1.0162,-0.60643 2.16997,-0.88864 3.44103,-0.84174 1.09522,0.0405 2.1108,0.34696 3.03462,0.9161 0.67952,0.41875 1.15791,0.85897 1.62314,1.49397 0.94821,1.29426 1.41875,3.00624 1.41828,5.1604 -5.4e-4,2.4013 -0.5283,4.2219 -1.61346,5.56569 -0.28052,0.34751 -0.87705,0.89358 -1.25657,1.15047 -1.02517,0.69385 -2.17752,1.07827 -3.55571,1.18615 -0.21154,0.0168 -0.38907,0.0262 -0.39448,0.0215 -0.0155,-0.0141 -0.21309,-4.13646 -0.20041,-4.14922 0.008,-0.007 0.14966,-0.0386 0.32003,-0.0726 0.96084,-0.19177 1.73387,-0.57719 2.16612,-1.08024 0.33457,-0.38922 0.56064,-0.89429 0.68786,-1.53658 0.1015,-0.51332 0.11134,-1.67163 0.0181,-2.21419 -0.14526,-0.84985 -0.46593,-1.54361 -0.92193,-1.99457 -0.48336,-0.47793 -1.31478,-0.61609 -1.9837,-0.32951 -0.30417,0.13037 -0.66295,0.44566 -0.87729,0.7711 -0.39693,0.60258 -0.7762,1.64298 -1.28809,3.53321 -0.61793,2.28163 -1.08691,3.57856 -1.64611,4.55253 -0.90497,1.57616 -2.40653,2.63296 -4.21401,2.96573 -0.65494,0.12066 -1.14141,0.15526 -1.88939,0.13511 -0.52546,-0.0141 -0.75937,-0.0355 -1.08943,-0.0994 -1.82284,-0.35238 -3.39382,-1.33729 -4.32844,-2.71383 -0.65796,-0.969 -1.07881,-2.20396 -1.27779,-3.74995 -0.0534,-0.41339 -0.0974,-2.3393 -0.0626,-2.74128 v 0 z" style="fill:#000;stroke:#000;stroke-width:.0135255;stroke-linecap:round;stroke-linejoin:round;stroke-miterlimit:4;stroke-dasharray:none;stroke-opacity:1"/><path id="path4068" d="m 630.08177,575.12806 11.69573,-0.0768 0.11296,2.83872 -0.11296,2.7832 -10.22217,-0.0657 -8.46941,0.0657 -0.23931,4.64789 -0.21033,5.23455 -2.19525,-0.11373 h -1.89113 v -7.29401 l -0.13688,-8.09662 z" style="fill:#000;stroke:#000;stroke-width:.0135255;stroke-linecap:round;stroke-linejoin:round;stroke-miterlimit:4;stroke-dasharray:none;stroke-opacity:1"/><path style="fill:none;stroke:#000;stroke-width:1px;stroke-linecap:butt;stroke-linejoin:miter;stroke-opacity:1" id="path249" d="m 564.81854,320.07351 2.80254,-2.94783 2.10843,-1.80063 3.89781,-2.62722 4.93974,-2.563 3.81131,-1.26428 3.8729,-0.82566 1.38974,-0.20307 2.88842,-0.16699 h 57.79227 l 1.57144,0.1495 1.7697,0.23946 1.77484,0.23845 2.72964,0.54365 2.31281,0.60657 2.44326,0.75609 2.94394,0.94407 2.12886,0.90455 3.8498,1.71936 2.75741,1.53909 2.10581,1.19691 3.23498,2.16487 2.4201,1.63817 1.43595,1.20589 1.89607,1.45278 3.21175,2.60881 2.42278,2.54722 4.25902,4.70095 2.59949,3.25688 1.67743,2.63026 1.27103,2.18885 1.91183,3.73696 0.72706,1.65104 1.16131,2.96921 0.66224,2.6045 0.78479,3.27949 0.33987,2.68699 0.0483,2.38913 v 4.00596 2.85158 877.28853 l -0.16384,2.4984 -0.34524,3.4016 -1.29885,4.7808 -1.23966,3.7841 -3.60497,7.2728 -2.57375,4.0663 -2.46855,3.2069 -1.48186,1.9802 -2.66944,2.87 -3.06989,3.0298 -2.17649,1.9303 -4.01872,3.1261 -4.11447,2.8611 -2.30753,1.2764 -3.52352,1.8502 -3.6903,1.6841 -4.15406,1.4576 -3.72593,1.1705 -3.68244,0.746 -3.28501,0.4427 -3.07889,0.2681 h -56.72802 l -2.27377,-0.2166 -3.66214,-0.647 -2.13716,-0.5101 -2.60358,-0.9022 -3.70761,-1.5158 -3.72085,-1.8958 -3.11883,-1.9649 -2.49439,-2.0644 -3.08564,-2.8864 -3.11412,-3.839 -2.38795,-3.9255 -1.37928,-3.2422 -1.06978,-2.9089 -0.81446,-3.3604 -0.4154,-3.6114 -0.024,-2.148 V 343.23256 l 0.28062,-2.94096 0.63887,-3.85473 1.31769,-4.26752 1.53215,-3.69272 2.5337,-4.4686 1.96993,-2.5833 z"/><path style="fill:none;stroke:#000;stroke-width:1px;stroke-linecap:butt;stroke-linejoin:miter;stroke-opacity:1" id="path253" d="m 694.62149,334.10362 2.87464,2.17056 1.39448,1.27449 1.10633,1.19174 1.33926,1.50114 1.38209,1.74045 1.13752,1.55135 1.14707,1.6191 1.76331,2.78539 1.13353,1.9937 0.91903,1.69462 1.33241,2.59815 1.11209,2.33 1.56583,3.39111 0.63568,1.22029 0.77282,1.85718 0.72486,1.75471 0.98903,2.11635 1.04466,2.26736 0.86003,1.7056 0.74871,1.46183 0.77843,1.50459 1.16158,2.03635 0.69941,1.16948 1.32156,2.11591 1.16136,1.5888 0.91829,1.1277 1.46722,1.69949 1.41993,1.42143 1.99344,1.72936 2.2557,1.72741 2.15114,1.20765 1.3718,0.68691 3.115,1.23393 4.1538,1.06385 3.08686,0.4687 3.22131,0.30291 h 28.48289 l 0.94647,0.0524 0.97841,0.35799 1.16352,0.47513 0.9822,0.70154 1.01456,1.07822 0.92826,1.35838 0.65022,1.72693 0.1277,1.59566 -0.29606,1.44502 -0.74147,1.59474 -1.99052,3.45657 -2.4225,4.16279 -2.33536,3.53915 -1.37414,1.9664 -1.24262,1.70801 -1.41326,1.83088 -1.34109,1.74508 -2.14664,2.66591 -1.97231,2.31029 -1.08591,1.37517 -2.41419,2.77055 -1.30886,1.52879 -3.03361,3.40228 -1.58159,1.80779 -1.34438,1.31431 -2.46317,2.6295 -1.04614,1.0908 -4.84623,5.03258 -3.60112,3.77568 -1.74314,1.82893 -2.10543,2.2459 -6.06161,6.49298 -2.39368,2.59389 -2.01406,2.20329 -1.6282,1.85603 -1.14047,1.25547 -1.6465,1.98517 -1.72596,2.18615 -1.52881,1.91959 -1.25534,1.48184 -1.12938,1.52402 -1.65189,2.2517 -1.15137,1.60225 -1.31306,1.81213 -1.08907,1.73832 -1.86192,2.96443 -1.97162,3.32339 -1.21492,2.47246 -1.36959,2.68936 -0.95325,2.42774 -1.07073,2.91455 -0.76263,2.02052 h -0.62464"/><path style="font-variation-settings:normal;opacity:1;vector-effect:none;fill:#1a1a1a;fill-opacity:1;stroke:#000;stroke-width:1px;stroke-linecap:butt;stroke-linejoin:miter;stroke-miterlimit:4;stroke-dasharray:none;stroke-dashoffset:0;stroke-opacity:1;stop-color:#000;stop-opacity:1" id="path255" d="m 554.98557,806.60461 h -3.31475 l -1.21084,0.19637 -1.41973,0.53148 -1.57035,0.97257 -0.93192,0.98281 -0.8244,1.30431 -0.46075,1.2916 -0.0637,0.91287 -0.15809,2.36292 -0.25772,3.06459 -0.2171,3.23629 -0.2039,3.99231 -0.12562,3.06084 -0.14526,4.35384 -0.0857,5.46574 v 13.91733 l 0.15624,2.15982 0.0695,2.19857 0.20282,3.01372 0.22689,2.9539 0.16898,2.8368 0.32646,4.37395 0.12161,1.93446 0.12107,1.18541 0.30831,1.25065 0.75377,1.13471 1.01957,0.99641 1.54585,0.8017 1.28043,0.2251 h 4.57179 0.17232 z"/><path style="font-variation-settings:normal;opacity:1;vector-effect:none;fill:#1a1a1a;fill-opacity:1;stroke:#000;stroke-width:1px;stroke-linecap:butt;stroke-linejoin:miter;stroke-miterlimit:4;stroke-dasharray:none;stroke-dashoffset:0;stroke-opacity:1;stop-color:#000;stop-opacity:1" id="path298" d="m 554.91046,880.77518 h -3.31475 l -1.21084,0.19637 -1.41973,0.53148 -1.57035,0.97256 -0.93192,0.98282 -0.8244,1.3043 -0.46075,1.29161 -0.0637,0.91286 -0.15809,2.36293 -0.25772,3.06459 -0.2171,3.23628 -0.2039,3.99231 -0.12562,3.06085 -0.14526,4.35383 -0.0857,5.46574 v 13.91733 l 0.15624,2.15982 0.0695,2.19857 0.20282,3.01372 0.22689,2.9539 0.16898,2.8368 0.32646,4.37396 0.12161,1.93446 0.12107,1.18541 0.30831,1.25065 0.75377,1.1347 1.01957,0.99641 1.54585,0.8017 1.28043,0.2251 h 4.57179 0.17232 z"/><path style="fill:none;stroke:#000;stroke-width:1px;stroke-linecap:butt;stroke-linejoin:miter;stroke-opacity:1" id="path300" d="m 555.35214,1000.9073 -0.70664,0.01 -1.15041,0.3129 -0.94439,0.9042 -0.33283,0.8403 v 55.3836 l 0.35102,0.988 1.16661,1.0639 0.76614,0.2105 0.79763,-0.043 z"/><path style="fill:none;stroke:#000;stroke-width:1px;stroke-linecap:butt;stroke-linejoin:miter;stroke-opacity:1" id="path302" d="m 683.4822,322.5276 1.80756,-0.36865 3.52048,0.79736 3.29989,0.79341 3.35684,0.85712 10.58481,3.05757 8.24268,2.61795 6.98289,2.30801 8.19137,2.72032 6.85494,2.1232 7.56186,2.22326 3.02344,0.89258 3.01485,0.78292 2.59184,0.6545 4.39682,1.01106 3.44978,0.73216 4.14889,0.73189 5.67397,0.74901 2.26019,0.25821 2.51619,0.19404 1.51308,0.53857 1.71443,0.82574 1.15366,0.80631 0.81926,0.61787 1.09348,1.17223 1.28918,1.66295 1.03628,2.03633 0.40058,1.60306 0.18894,1.03784 v 22.44381 l -0.19091,1.309 -0.49575,1.41249 -0.82966,1.654 -0.83314,1.22068 -1.26559,1.52171 -1.47306,1.67951 -1.74719,1.81065 -1.52584,1.67117 -1.0269,1.42993 -0.51569,0.92494"/><path style="fill:none;stroke:#000;stroke-width:1px;stroke-linecap:butt;stroke-linejoin:miter;stroke-opacity:1" id="path304" d="m 555.11995,518.09615 -1.01033,0.39258 -1.22841,0.93655 -1.2742,1.02924 -1.33354,1.35102 -1.34981,1.59351 -1.40742,1.80058 -1.06793,1.49244 -0.85098,1.20282 -0.89272,1.39504 -0.99731,1.62995 -0.60208,1.24653 -0.8025,1.69239 -0.93246,1.96822 -0.91473,2.23059 -0.62621,1.91229 -0.57345,2.01006 -0.59474,2.80402 -0.14894,0.35985 -1.18136,-0.13793 -0.97443,-0.18501 -1.29147,-0.54083 -1.00174,-0.69084 -1.15445,-0.99791 -0.60398,-0.85223 -0.49335,-1.12318 -0.37025,-1.37685 v -45.45096 l -0.20339,-1.17956 -0.74794,-1.09777 -0.87864,-0.84867 -1.1084,-0.66091 -1.62768,-0.61457 -1.99954,-0.31262 -2.41898,-0.0433 -3.34195,0.51108 -2.789,1.02869 -1.75751,0.92812 -1.48061,0.99716 -2.10544,1.93079 -1.35698,1.79438 -0.77464,1.80822 -0.53822,2.14889 -0.17548,1.82929 v 15.40503 l -0.74254,2.33437 -0.81509,3.04978 -0.66374,2.10772 -1.44608,5.41074 -0.10817,0.54556 -0.36239,1.62223 -0.43835,2.01252 -0.52816,2.59666 -0.51106,2.94424 -0.53199,3.41725 -0.52183,3.69125 -0.27377,2.56523 -0.17416,1.97814 -0.12505,1.76866 -0.16865,2.53094 -0.0926,2.51807 -0.10085,2.96479 -0.0322,3.59841 0.1372,3.62771 0.15883,3.46399"/><path style="fill:none;stroke:#000;stroke-width:1px;stroke-linecap:butt;stroke-linejoin:miter;stroke-opacity:1" id="path306" d="m 555.11995,607.38224 -1.01033,-0.39258 -1.22841,-0.93654 -1.2742,-1.02925 -1.33354,-1.35102 -1.34981,-1.5935 -1.40742,-1.80059 -1.06793,-1.49243 -0.85098,-1.20282 -0.89272,-1.39505 -0.99731,-1.62995 -0.60208,-1.24653 -0.8025,-1.69239 -0.93246,-1.96821 -0.91473,-2.23059 -0.62621,-1.9123 -0.57345,-2.01006 -0.59474,-2.80402 -0.14894,-0.35985 -1.18136,0.13793 -0.97443,0.18501 -1.29147,0.54083 -1.00174,0.69084 -1.15445,0.99792 -0.60398,0.85223 -0.49335,1.12317 -0.37025,1.37685 v 45.45097 l -0.20339,1.17956 -0.74794,1.09777 -0.87864,0.84866 -1.1084,0.66092 -1.62768,0.61456 -1.99954,0.31262 -2.41898,0.0433 -3.34195,-0.51107 -2.789,-1.0287 -1.75751,-0.92812 -1.48061,-0.99715 -2.10544,-1.93079 -1.35698,-1.79438 -0.77464,-1.80823 -0.53822,-2.14889 -0.17548,-1.82929 v -15.40503 l -0.74254,-2.33437 -0.81509,-3.04977 -0.66374,-2.10773 -1.44608,-5.41074 -0.10817,-0.54555 -0.36239,-1.62224 -0.43835,-2.01252 -0.52816,-2.59665 -0.51106,-2.94425 -0.53199,-3.41725 -0.52183,-3.69125 -0.27377,-2.56522 -0.17416,-1.97815 -0.12505,-1.76866 -0.16865,-2.53094 -0.0926,-2.51807 -0.10085,-2.96479 -0.0322,-3.5984 0.1372,-3.62772 0.15883,-3.46399"/><path style="fill:none;stroke:#000;stroke-width:1px;stroke-linecap:butt;stroke-linejoin:miter;stroke-opacity:1" id="path310" d="m 629.00102,930.67137 h 6.14653 l 2.04067,0.16215 1.12524,0.1958 1.57485,0.44983 1.37911,0.54025 1.49645,0.7516 1.16369,0.77595 1.20645,0.95903 1.07493,1.06679 1.10141,1.41857 0.59407,1.15018 0.53577,1.29561 0.50772,1.37166 0.10921,1.53404 0.0194,1.06304 v 58.84883 l -0.13659,1.1193 -0.20644,0.9935 -0.32745,0.917 -0.29571,0.8905 -0.50231,0.9886 -0.70348,1.073 -0.72708,0.8329 -1.14245,1.2323 -0.95483,0.8506 -1.12308,0.74 -1.3029,0.7638 -1.57811,0.6202 -1.75304,0.421 -1.62477,0.2527 -1.92906,0.036 h -12.21387 l -1.24442,-0.1438 -1.4416,-0.2655 -1.20902,-0.3547 -1.34067,-0.5911 -1.25475,-0.6462 -0.90721,-0.5402 -1.03832,-0.822 -0.71078,-0.7398 -0.67126,-0.637 -1.26722,-1.7893 -1.08212,-2.3971 -0.42262,-1.7353 -0.0315,-1.7747 v -59.09121 l 0.14146,-0.91134 0.21007,-0.66319 0.29836,-1.07418 0.44186,-1.07962 0.47325,-1.02037 0.3698,-0.61649 0.99623,-1.3542 0.95716,-1.00285 0.94225,-0.85279 0.88252,-0.60543 1.18795,-0.67902 1.33894,-0.6658 0.87252,-0.36273 0.97938,-0.32262 0.90474,-0.18457 1.43288,-0.23808 0.46681,-0.0584 1.01236,-0.055 z"/><path style="fill:none;stroke:#000;stroke-width:1px;stroke-linecap:butt;stroke-linejoin:miter;stroke-opacity:1" id="path320" d="m 705.29946,404.37113 h 4.94953 l 1.01129,0.19824 1.02198,0.65847 0.7694,0.84434 0.62305,1.2788 0.41165,1.37503 0.60375,2.17711 0.53032,2.14857 0.38266,1.97177 0.31418,1.95565 0.25283,2.01634 0.22113,2.18648 0.14186,2.361 0.0464,2.06343 -0.0339,2.90094 -0.18666,2.93049 -0.2597,3.12611 -0.3257,2.7483 -0.47254,2.43606 -0.38375,2.06954 -0.62275,2.43127 -0.48757,1.70574 -0.56732,1.13614 -0.65604,0.75733 -0.78933,0.54765 -0.77997,0.31884 -0.82705,0.0912 h -5.1673 -0.22961 V 404.3608 Z"/><path style="fill:none;stroke:#000;stroke-width:1px;stroke-linecap:butt;stroke-linejoin:miter;stroke-opacity:1" id="path322" d="m 555.36415,396.79743 h -3.36229 l -0.95244,0.2579 -0.88685,0.75198 -0.3797,1.096 v 10.8053 l 0.39974,1.00083 0.47383,0.71418 0.63631,0.44263 0.50741,0.16001 h 3.36617 0.21167 z"/><path style="fill:none;stroke:#000;stroke-width:1px;stroke-linecap:butt;stroke-linejoin:miter;stroke-opacity:1" id="path324" d="m 606.45914,1054.8828 h 46.6816 l -23.3408,37.0116 z"/><path style="fill:none;stroke:#000;stroke-width:1px;stroke-linecap:butt;stroke-linejoin:miter;stroke-opacity:1" id="path326" d="m 606.45914,1099.1543 h 46.6816 l -23.3408,37.0115 z"/><path style="fill:none;stroke:#000;stroke-width:1px;stroke-linecap:butt;stroke-linejoin:miter;stroke-opacity:1" id="path328" d="m 606.45914,1143.4531 h 46.6816 l -23.3408,37.0115 z"/><path style="fill:none;stroke:#000;stroke-width:1px;stroke-linecap:butt;stroke-linejoin:miter;stroke-opacity:1" id="path330" d="m 631.08566,1044.0909 h 27.01297 l 1.86984,0.2805 1.34197,0.3596 1.60607,0.6644 1.16604,0.7523 1.14122,0.8781 0.78333,0.8256 0.70342,0.7968 0.63184,1.1132 0.47977,0.9893 0.34526,1.0282 0.24865,1.1979 0.0693,0.8321 v 125.4568 l -0.0521,0.8725 -0.16665,1.0509 -0.4222,1.198 -0.73285,1.4957 -0.85365,1.1513 -1.41766,1.3555 -1.17786,0.9192 -1.59645,0.8597 -1.9127,0.616 -1.74431,0.1955 h -57.29204 l -1.482,-0.1172 -1.53793,-0.38 -1.02579,-0.42 -1.04703,-0.5563 -0.79838,-0.4864 -1.0868,-0.8174 -1.17978,-1.2797 -0.68706,-0.9209 -0.43671,-0.7767 -0.39717,-0.767 -0.36431,-1.0377 -0.17137,-0.7968 -0.0855,-1.2218 v -125.4649 l 0.0755,-1.1013 0.20402,-0.9527 0.22661,-0.7999 0.34294,-0.7651 0.79684,-1.4733 0.86432,-1.1445 1.36362,-1.2251 1.4025,-0.9497 0.76822,-0.4027 1.66903,-0.5936 1.31204,-0.2503 1.48443,-0.1826 1.15796,0.01 z"/><path style="fill:none;stroke:#000;stroke-width:1px;stroke-linecap:butt;stroke-linejoin:miter;stroke-opacity:1" id="path332" d="m 584.21811,307.65169 v -3.15652 l 0.37148,-1.45881 0.75589,-1.0701 1.18763,-0.98136 1.7025,-0.4849 h 45.22792 l 1.58355,0.18907 1.21322,0.58954 0.86017,0.63523 0.62083,0.6164 0.7767,1.22224 0.27256,1.40251 v 2.49159 z"/><path style="font-variation-settings:normal;opacity:1;vector-effect:none;fill:#1a1a1a;fill-opacity:1;stroke:#000;stroke-width:1px;stroke-linecap:butt;stroke-linejoin:miter;stroke-miterlimit:4;stroke-dasharray:none;stroke-dashoffset:0;stroke-opacity:1;stop-color:#000;stop-opacity:1" id="path334" d="m 554.98557,732.43405 h -3.31475 l -1.21084,0.19637 -1.41973,0.53148 -1.57035,0.97256 -0.93192,0.98282 -0.8244,1.3043 -0.46075,1.29161 -0.0637,0.91286 -0.15809,2.36293 -0.25772,3.06459 -0.2171,3.23628 -0.2039,3.99231 -0.12562,3.06085 -0.14526,4.35383 -0.0857,5.46574 v 13.91733 l 0.15624,2.15982 0.0695,2.19857 0.20282,3.01372 0.22689,2.9539 0.16898,2.8368 0.32646,4.37396 0.12161,1.93446 0.12107,1.1854 0.30831,1.25066 0.75377,1.1347 1.01957,0.99641 1.54585,0.8017 1.28043,0.2251 h 4.57179 0.17232 z"/><path style="font-variation-settings:normal;opacity:1;vector-effect:none;fill:#00bbdb;fill-opacity:1;stroke:#000;stroke-width:1px;stroke-linecap:butt;stroke-linejoin:miter;stroke-miterlimit:4;stroke-dasharray:none;stroke-dashoffset:0;stroke-opacity:1;stop-color:#000;stop-opacity:1" id="path460" d="m 575.40725,1292.5752 c -8.50513,-4.4396 -14.59302,-11.4224 -17.41944,-18.9224 -0.26068,-0.6918 -2.10217,-5.5985 -2.32407,-16.4555 -0.95755,-46.8522 0.0692,-191.628 0.0924,-454.79146 0.0395,-447.17165 -1.16464,-463.77985 2.13444,-471.06146 4.14474,-9.14813 14.82174,-19.11565 24.20501,-21.93419 4.35355,-1.30772 20.60861,-0.88744 41.2504,-0.85913 9.13704,0.0125 16.72265,-0.38909 22.30143,-0.24437 9.7504,0.25294 14.61876,1.40481 19.8754,3.83273 13.20934,6.10107 27.37811,16.4207 32.31917,28.24068 1.2204,2.91943 4.50669,7.46836 6.1373,11.04497 l 1.41675,449.7216 -1.5273,449.96593 -4.08634,10.2294 c -5.14691,12.8843 -20.61785,27.6214 -33.70017,32.5287 -8.98936,3.372 -15.168,3.8603 -44.99389,3.8243 -13.98709,-0.017 -20.27955,0.078 -25.76681,0.1196 -1.4993,0.012 -2.53237,0.1219 -3.63781,0.1486 -1.8856,0.045 -3.47223,-0.1698 -5.13087,-0.6073 -1.2319,-0.3249 -1.88857,-0.4449 -3.07941,-0.9415 -0.66852,-0.2788 -1.67524,-0.6042 -2.54621,-0.9578 z m 96.94271,-95.8531 c 0.34361,-0.068 1.16774,-0.4225 1.45971,-0.6578 1.57938,-1.2724 3.13254,-2.332 3.76998,-3.2892 0.7553,-1.134 1.14301,-187.0038 1.15874,-414.46917 l -0.57612,-411.57378 -4.84312,-3.50599 c -3.43566,-2.48711 -8.52491,-1.47394 -44.87908,-1.47394 -41.01713,0 -42.12736,-0.69464 -45.65154,2.83862 -1.56374,1.56777 -1.68966,2.84556 -1.76015,34.2526 -0.0453,20.16919 -0.25443,52.7638 -0.18971,105.84008 0.042,34.48838 -0.39971,77.46436 -0.36851,131.48656 0.0237,40.99241 -0.34276,87.99166 -0.34276,142.48967 0,287.55485 0.28324,410.83535 1.67493,413.44235 1.09524,2.0518 3.44174,3.3319 5.68762,4.2392 3.12702,1.2631 22.75157,1.4763 43.15146,1.4245 20.73025,-0.053 38.09531,-0.3244 38.91512,-0.4876 z"/><path style="font-variation-settings:normal;opacity:1;vector-effect:none;fill:#1a1a1a;fill-opacity:1;stroke:#000;stroke-width:1px;stroke-linecap:butt;stroke-linejoin:miter;stroke-miterlimit:4;stroke-dasharray:none;stroke-dashoffset:0;stroke-opacity:1;stop-color:#000;stop-opacity:1" id="path462" d="m 518.18635,634.34636 c -2.0133,-0.74316 -4.7444,-2.43786 -6.06913,-3.766 -2.24227,-2.24804 -2.45006,-3.20634 -3.00903,-13.87724 -0.37592,-7.17651 -1.34402,-14.09008 -2.5891,-18.48986 -4.49032,-15.86754 -5.9821,-36.98433 -3.75165,-53.1062 0.55771,-4.0312 2.23996,-12.10143 3.73832,-17.93387 2.04085,-7.94409 2.72517,-12.76287 2.72779,-19.20823 0.003,-6.76442 0.37876,-9.22079 1.75882,-11.48976 3.34452,-5.49877 13.94314,-8.16727 17.96065,-4.52211 1.70953,1.55109 1.77236,4.0545 1.77236,70.62081 0,53.82758 -0.25772,69.36608 -1.17129,70.61868 -1.62169,2.2235 -6.99289,2.76866 -11.36774,1.15378 z"/><path style="font-variation-settings:normal;opacity:1;vector-effect:none;fill:#1a1a1a;fill-opacity:1;stroke:#000;stroke-width:1px;stroke-linecap:butt;stroke-linejoin:miter;stroke-miterlimit:4;stroke-dasharray:none;stroke-dashoffset:0;stroke-opacity:1;stop-color:#000;stop-opacity:1" id="path466" d="m 532.33814,562.77279 v -19.58771 l 0.74345,0.53648 c 1.46593,1.05782 3.20996,1.86326 4.03453,1.86326 h 0.83922 v 17.02133 17.02133 l -1.42098,0.35872 c -0.78154,0.19731 -2.04541,0.81224 -2.8086,1.36651 l -1.38762,1.00777 z"/><path style="font-variation-settings:normal;opacity:1;vector-effect:none;fill:#1a1a1a;fill-opacity:1;stroke:#000;stroke-width:1px;stroke-linecap:butt;stroke-linejoin:miter;stroke-miterlimit:4;stroke-dasharray:none;stroke-dashoffset:0;stroke-opacity:1;stop-color:#000;stop-opacity:1" id="path468" d="m 552.92579,605.12795 c -4.61024,-3.77319 -9.57996,-11.63826 -12.26532,-19.41107 l -1.21822,-3.52618 -0.0956,-18.65027 -0.0956,-18.65026 0.82611,-3.11181 c 2.00396,-7.54852 7.57379,-16.9297 12.61547,-21.24804 0.99001,-0.84797 1.87129,-1.47031 1.9584,-1.38298 0.0871,0.0873 0.12066,19.78469 0.0746,43.7719 l -0.0838,43.61311 z"/><path style="font-variation-settings:normal;opacity:1;vector-effect:none;fill:#1a1a1a;fill-opacity:1;stroke:#000;stroke-width:1px;stroke-linecap:butt;stroke-linejoin:miter;stroke-miterlimit:4;stroke-dasharray:none;stroke-dashoffset:0;stroke-opacity:1;stop-color:#000;stop-opacity:1" id="path470" d="m 554.24531,1059.9811 c -0.38562,-0.075 -1.29674,-1.1158 -1.37849,-1.5742 -0.0387,-0.2167 -0.0553,-12.8432 -0.037,-28.0588 l 0.0333,-27.6647 0.4632,-0.4756 c 0.38607,-0.3964 1.36731,-0.5813 1.75961,-0.5842 0.0482,-4e-4 -0.29526,13.0536 -0.29526,29.1581 0,23.3551 -0.0295,29.2776 -0.14603,29.2649 -0.0803,-0.01 -0.26001,-0.038 -0.39932,-0.065 z"/><path style="font-variation-settings:normal;opacity:1;vector-effect:none;fill:#00bbdb;fill-opacity:1;stroke:#000;stroke-width:1px;stroke-linecap:butt;stroke-linejoin:miter;stroke-miterlimit:4;stroke-dasharray:none;stroke-dashoffset:0;stroke-opacity:1;stop-color:#000;stop-opacity:1" id="path472" d="m 620.42769,1013.2884 c -3.57448,-0.8725 -8.96012,-1.3788 -9.30569,-4.7082 l -0.67815,-2.0055 -0.25138,-4.2445 0.41829,-28.18567 c 0.29654,-19.98156 0.0411,-31.19328 0.50411,-32.91713 0.89622,-3.33689 2.97585,-6.44453 6.44362,-8.30431 2.42416,-1.3001 4.38417,-2.04911 12.31933,-2.04911 7.87316,0 9.30668,0.50275 11.63947,1.76142 3.17156,1.71124 4.95339,4.25793 5.90801,6.78394 1.14299,3.02444 0.95659,63.49706 -0.2043,66.28266 -1.21207,2.9084 -4.61574,6.4491 -8.13563,7.3377 -1.79168,0.4523 -6.47414,0.5577 -10.75587,0.4249 -3.25525,-0.101 -6.55619,0.1522 -7.90181,-0.1762 z m 0.80576,-24.14851 c 1.16322,-0.59784 3.35864,-1.93991 4.87872,-2.98238 2.69355,-1.84722 2.34692,-3.71595 2.76767,-2.38687 0.63441,2.00401 4.72774,5.3999 7.58335,4.8628 4.05952,-0.76353 5.0585,-2.82168 5.0585,-10.42179 v -6.53615 h -11.56483 l -11.51834,-0.0293 -4.7e-4,2.21816 0.0337,2.30803 4.63541,-0.0188 c 2.73527,-0.0111 4.24552,-0.44405 4.73547,-0.17155 0.39185,0.21794 0.0185,1.05358 -0.0712,1.68697 -0.14172,1.00046 -0.53695,2.34895 -3.53063,4.29524 -4.24127,2.7574 -5.67341,3.26403 -5.67341,5.70376 0,2.93489 -0.17135,2.93009 2.66607,1.47192 z m 8.72451,-20.28022 c 0.99255,-0.85681 2.35557,-3.3221 3.20525,-5.79732 1.14206,-3.32696 1.57736,-4.85966 2.57572,-4.85966 1.01595,0 1.82378,0.89997 1.98484,2.8501 0.17554,2.12547 -0.11777,2.73658 -1.58921,3.40873 -1.04809,0.47877 -1.79454,1.18693 -1.5773,1.75451 0.19578,0.5115 0.35596,1.50192 0.35596,2.20091 0,2.45771 4.7924,0.83849 6.32761,-2.13792 1.93784,-3.75702 0.66824,-10.20362 -2.32592,-11.81016 -2.08149,-1.11685 -5.66885,-0.79036 -7.54137,0.68637 -1.06893,0.84298 -1.92531,2.93981 -2.5499,5.09386 -1.30345,4.49527 -2.63948,5.88742 -4.17433,5.29693 -2.96077,-1.13908 -2.57455,-6.88848 0.56458,-7.67838 1.60085,-0.40282 2.28581,-2.23765 1.18075,-3.98616 -0.8873,-1.40395 -4.41318,-0.29463 -6.33262,1.99237 -1.36577,1.62731 -1.66572,2.67452 -1.64657,5.7486 0.0129,2.06736 0.41734,4.47138 0.8988,5.34228 1.94785,3.52339 7.593,4.52842 10.64371,1.89494 z"/><path style="font-variation-settings:normal;opacity:1;vector-effect:none;fill:#00c8e8;fill-opacity:.992157;stroke:#000;stroke-width:1px;stroke-linecap:butt;stroke-linejoin:miter;stroke-miterlimit:4;stroke-dasharray:none;stroke-dashoffset:0;stroke-opacity:1;stop-color:#000;stop-opacity:1" id="path474" d="m 632.81036,983.17958 c -0.63556,-0.67826 -0.71845,-1.13691 -0.71845,-3.9753 v -3.20858 h 2.64339 2.64339 v 3.10243 c 0,2.63704 -0.10273,3.23338 -0.68483,3.97531 -0.91474,1.16589 -2.84114,1.21855 -3.8835,0.10614 z"/><path style="font-variation-settings:normal;opacity:1;vector-effect:none;fill:#00bbdb;fill-opacity:1;stroke:#000;stroke-width:1px;stroke-linecap:butt;stroke-linejoin:miter;stroke-miterlimit:4;stroke-dasharray:none;stroke-dashoffset:0;stroke-opacity:1;stop-color:#000;stop-opacity:1" id="path476" d="m 614.90041,611.55893 c -5.47818,-3.70126 -5.46194,-5.62841 -5.47319,-39.94991 -0.01,-29.83751 0.23875,-32.42084 2.03054,-35.3673 2.73782,-4.50213 9.7432,-6.34849 18.29821,-6.34849 8.55502,0 14.93848,1.49439 17.6763,5.99652 1.78955,2.94276 1.41474,6.84185 1.41806,36.21097 0.003,28.17503 0.0839,31.98162 -1.47142,34.88922 -2.76995,5.17816 -6.88103,7.15268 -17.83149,7.15268 -8.29531,0 -11.8731,-0.70953 -14.64701,-2.58369 z m 8.18551,-25.73237 v -5.15343 h 9.34579 9.34579 v -2.81096 -2.81096 h -11.68224 -11.68224 v 7.96439 c 0,7.87069 -0.17512,7.83539 2.13383,7.83539 2.209,0 2.53907,-0.1521 2.53907,-5.02443 z m 7.19177,-16.60471 c 0.18831,-0.0366 0.45055,-0.54459 0.6657,-0.86103 0.6596,-0.97009 1.35497,-2.74044 1.9953,-4.67326 1.56982,-4.73845 3.62862,-5.98608 4.17546,-2.25932 0.17631,1.20159 -0.48112,2.61937 -1.34586,2.95206 -1.97767,0.76085 -1.99781,5.98598 -0.0231,5.98598 2.81061,0 6.03228,-4.36968 6.03228,-8.18181 0,-2.26738 -0.66708,-3.89433 -1.4774,-5.16066 -1.05092,-1.64231 -2.52443,-2.58631 -4.9728,-2.58631 -4.07241,0 -5.67625,1.85418 -7.32959,7.01759 -1.35947,4.24563 -2.76574,4.90543 -4.63024,3.03612 -1.76893,-1.77348 -2.21107,-4.65285 0.27445,-5.44376 1.94089,-0.6176 3.84262,-4.09021 2.19133,-5.11339 -0.54505,-0.33773 -2.20902,-0.10822 -3.69771,0.51 -2.80301,1.16403 -4.21198,4.73237 -4.21865,8.18117 -0.005,2.38104 0.56756,4.70512 2.18461,6.14168 2.68538,2.38566 6.4958,1.17087 9.91016,0.5067 z"/><path style="font-variation-settings:normal;opacity:1;vector-effect:none;fill:#1a1a1a;fill-opacity:1;stroke:#000;stroke-width:1px;stroke-linecap:butt;stroke-linejoin:miter;stroke-miterlimit:4;stroke-dasharray:none;stroke-dashoffset:0;stroke-opacity:1;stop-color:#000;stop-opacity:1" id="path480" d="m 583.49685,1194.3213 c -2.63205,-2.6388 -2.64339,-4.417 -2.64339,-414.70449 l 0.91025,-380.56509 0.0768,-32.0953 2.17287,-2.77511 c 2.35098,-3.00257 4.18121,-2.02246 45.18478,-2.02246 39.9348,0 42.75186,0.15622 45.67967,2.53317 l 2.95718,2.71194 0.16306,412.16132 -0.67534,412.51752 -2.4449,2.3556 c -2.71646,2.6173 -5.74931,2.5331 -45.92889,2.5331 -41.04641,0 -42.91748,-0.1091 -45.45206,-2.6502 z m 81.84368,-7.4058 3.14423,-4.037 0.0827,-66.2535 -0.39676,-66.5434 -2.26148,-3.3325 -3.88235,-2.7418 -32.27071,-0.7473 -32.79612,1.1063 -3.61057,2.1462 -3.24416,3.2525 v 66.7245 c 0,51.3889 0.37971,67.2017 1.65212,68.8007 3.62406,4.5542 6.83181,4.9751 38.22774,5.0155 l 30.77046,-0.8736 z m -24.61354,-173.581 c 7.9414,-2.7755 8.14807,-3.0866 8.14807,-41.16306 0,-32.95752 -0.10203,-35.06928 -2.67771,-37.65159 -1.48289,-1.48673 -4.16023,-2.90576 -5.99586,-3.60546 -4.95757,-1.88972 -17.0157,-1.44776 -22.15047,0.7032 -8.08162,3.38542 -8.9198,5.00242 -8.9198,40.79416 0,20.04755 0.002,33.57605 0.88389,35.22855 2.69585,5.0502 9.31002,6.769 18.65804,6.7743 4.79831,0 9.81254,-0.2968 12.05384,-1.0801 z m -1.58398,-140.068 c 5.13925,-3.46846 7.09546,-8.3228 6.85914,-13.07417 -0.16881,-3.39392 -1.37155,-6.53272 -4.41417,-9.45525 -6.97318,-6.69795 -19.07399,-5.59067 -24.94988,1.89858 -3.21578,4.09873 -3.22084,12.29018 -0.22077,16.5844 4.76762,6.82428 15.50209,8.92162 22.72568,4.04644 z m -1.36978,-61.94554 c 2.03057,-1.08953 2.55651,-2.80695 2.55651,-8.34813 0,-3.83703 -0.71372,-7.69196 -1.58604,-8.56653 -0.87232,-0.87457 -4.9167,-1.59012 -8.98752,-1.59012 -4.07082,0 -8.11521,0.71555 -8.98753,1.59012 -2.57798,2.58462 -2.032,15.24407 0.72693,16.85513 3.02779,1.76807 13.02528,1.80463 16.27765,0.0595 z m 0.46587,-39.18559 c 3.0003,-1.1543 3.0003,-15.78846 0,-16.94275 -3.66595,-1.41039 -15.82543,-0.86346 -17.47045,0.7858 -0.87232,0.87456 -1.58603,4.33307 -1.58603,7.68557 0,3.35251 0.71371,6.81101 1.58603,7.68558 1.64502,1.64926 13.8045,2.19618 17.47045,0.7858 z m 0,-39.75299 c 3.0003,-1.15429 3.0003,-15.78845 0,-16.94275 -3.66595,-1.41038 -15.82543,-0.86346 -17.47045,0.7858 -0.87232,0.87457 -1.58603,4.33307 -1.58603,7.68558 0,3.3525 0.71371,6.81101 1.58603,7.68557 1.64502,1.64926 13.8045,2.19619 17.47045,0.7858 z m 0.5046,-39.21368 c 0.87232,-0.87457 1.58604,-4.72951 1.58604,-8.56653 0,-8.09257 -1.7702,-9.71984 -10.57356,-9.71984 -8.80337,0 -10.57356,1.62727 -10.57356,9.71984 0,3.83702 0.71371,7.69196 1.58603,8.56653 0.87232,0.87457 4.91671,1.59012 8.98753,1.59012 4.07082,0 8.1152,-0.71555 8.98752,-1.59012 z m 6.9047,-82.58433 3.07071,-4.493 0.86249,-33.57673 c 0.56571,-22.02292 -0.51063,-35.24838 -1.42808,-36.96705 -2.15439,-4.03588 -9.35774,-6.42677 -19.34616,-6.42125 -10.21122,0.005 -16.75549,3.01486 -18.90955,8.69506 -0.70882,1.86912 -1.28875,17.83614 -1.28875,35.48223 0,27.49791 0.30761,32.52415 2.15212,35.16432 3.58912,5.1374 9.29638,6.89527 20.679,6.36923 9.16778,-0.42368 10.69887,-0.88197 14.20822,-4.25281 z"/><path style="font-variation-settings:normal;opacity:1;vector-effect:none;fill:#000;fill-opacity:1;stroke:#000;stroke-width:1px;stroke-linecap:butt;stroke-linejoin:miter;stroke-miterlimit:4;stroke-dasharray:none;stroke-dashoffset:0;stroke-opacity:1;stop-color:#000;stop-opacity:1" id="path486" d="m 594.24699,1187.7985 c -1.15909,-0.1861 -2.79951,-1.1442 -3.68761,-2.2365 -1.49488,-1.8388 -1.31131,-8.5525 -1.33055,-68.6798 -0.0137,-42.7931 0.73515,-65.8381 1.58418,-66.8831 3.33535,-4.1049 5.06117,-6.6424 37.3562,-6.6424 19.85047,0 32.4974,1.49 33.95204,2.1545 1.22428,0.5593 4.03684,3.0392 4.89282,4.492 1.41138,2.3954 0.57113,8.6669 0.57113,67.039 v 64.367 l -1.93649,3.9919 -4.71377,2.9045 -30.90991,1.6993 c -20.82649,1.1449 -30.73945,-1.3974 -32.14976,-1.6239 z m 48.27939,-26.876 9.82832,-16.6722 -10.49871,-1.2375 c -6.93861,-0.8179 -18.12085,-0.1436 -24.74598,0 l -11.47394,0.261 12.08666,19.2791 c 6.72092,10.7203 12.32443,15.8272 12.69104,15.4321 0.3666,-0.3951 5.92627,-6.5684 12.11261,-17.0625 z m -0.87571,-43.3626 c 6.55374,-10.4749 10.57311,-17.3167 10.57311,-17.6433 0,-0.3266 -9.16284,-0 -22.78434,-0 -13.62149,0 -21.69277,-0.5851 -21.69277,-0.3178 0,0.5187 19.89711,32.7103 21.45728,34.6835 0.50934,0.6442 -2.27865,3.5495 0.11007,1.4228 1.38644,-1.2344 5.78291,-7.6659 12.33665,-18.1408 z m 1.13238,-46.0729 c 6.22721,-9.9106 9.27066,-15.806 9.27066,-16.0734 0,-0.2673 -9.26032,-0.7017 -22.88182,-0.7017 -13.62149,0 -24.20351,-0.744 -24.20351,-0.5285 0,0.3071 12.54336,18.6285 23.50069,35.8728 1.17961,1.8564 -2.07666,-0.013 -1.06964,-1.0847 0.66128,-0.7037 9.15641,-7.5738 15.38362,-17.4845 z"/><path style="font-variation-settings:normal;opacity:1;vector-effect:none;fill:#1a1a1a;fill-opacity:1;stroke:#000;stroke-width:1px;stroke-linecap:butt;stroke-linejoin:miter;stroke-miterlimit:4;stroke-dasharray:none;stroke-dashoffset:0;stroke-opacity:1;stop-color:#000;stop-opacity:1" id="path488" d="m 627.22564,1086.2996 c -1.36595,-2.1565 -6.28035,-9.9327 -10.92087,-17.2805 l -8.43732,-13.3596 21.71147,-0.1218 c 11.9413,-0.067 21.793,-0.04 21.89266,0.06 0.16849,0.1689 -20.53294,33.2929 -21.37902,34.2082 -0.21085,0.2281 -1.50096,-1.3497 -2.86692,-3.5061 z"/><path style="font-variation-settings:normal;opacity:1;vector-effect:none;fill:#1a1a1a;fill-opacity:1;stroke:#000;stroke-width:1px;stroke-linecap:butt;stroke-linejoin:miter;stroke-miterlimit:4;stroke-dasharray:none;stroke-dashoffset:0;stroke-opacity:1;stop-color:#000;stop-opacity:1" id="path490" d="m 618.93991,1117.4616 c -5.9568,-9.4452 -10.74845,-17.2554 -10.6481,-17.356 0.10035,-0.1006 9.87754,-0.1281 21.7271,-0.061 l 21.54464,0.1219 -10.771,17.1 c -5.92405,9.405 -10.82749,17.1603 -10.89655,17.2341 -0.069,0.074 -4.99929,-7.5937 -10.95609,-17.0389 z"/><path style="font-variation-settings:normal;opacity:1;vector-effect:none;fill:#1a1a1a;fill-opacity:1;stroke:#000;stroke-width:1px;stroke-linecap:butt;stroke-linejoin:miter;stroke-miterlimit:4;stroke-dasharray:none;stroke-dashoffset:0;stroke-opacity:1;stop-color:#000;stop-opacity:1" id="path492" d="m 627.34816,1175.0783 c -1.29113,-2.0355 -6.20112,-9.8147 -10.91108,-17.2872 l -8.56357,-13.5863 21.70844,-0.1218 c 11.93964,-0.067 21.76048,0.1196 21.89378,0.064 1.66501,-0.694 -20.53797,33.3157 -21.38241,34.2108 -0.2266,0.2401 -1.40744,-1.1705 -2.74516,-3.2795 z"/><path style="font-variation-settings:normal;opacity:1;vector-effect:none;fill:#00bbdb;fill-opacity:1;stroke:#000;stroke-width:1px;stroke-linecap:butt;stroke-linejoin:miter;stroke-miterlimit:4;stroke-dasharray:none;stroke-dashoffset:0;stroke-opacity:1;stop-color:#000;stop-opacity:1" id="path494" d="m 705.333,475.35062 0.58572,-25.61496 h 2.58935 c 1.42413,0 3.07073,-0.1852 3.6591,-0.41156 6.23384,-2.39832 6.66628,-39.81075 0.51622,-44.66085 -0.98323,-0.7754 -2.60578,-1.09079 -4.08546,-1.11196 l -3.02606,-0.0433 0.17046,-24.49951 c 0.17521,-25.18178 -0.45706,-26.64286 -3.3757,-33.56049 -0.60015,-1.42246 -0.95981,-2.71801 -0.79924,-2.87899 0.73296,-0.73484 6.77569,9.79438 11.3051,19.6987 8.03987,17.58051 12.92059,24.16575 20.92458,28.23212 5.97386,3.03498 10.12842,3.56131 28.19456,3.57187 l 16.75248,0.01 2.24689,2.25266 c 1.28725,1.29057 2.24478,2.91766 2.24196,3.80967 -0.006,1.78302 -4.60673,10.12411 -8.86443,16.06984 -5.1397,7.17741 -13.21804,16.43802 -27.76099,31.82387 -25.38008,26.85109 -32.85153,36.30476 -38.78153,49.07044 l -2.48145,7.83399 z"/><path style="font-variation-settings:normal;opacity:1;vector-effect:none;fill:#000;fill-opacity:1;stroke:#000;stroke-width:1px;stroke-linecap:butt;stroke-linejoin:miter;stroke-miterlimit:4;stroke-dasharray:none;stroke-dashoffset:0;stroke-opacity:1;stop-color:#000;stop-opacity:1" id="path496" d="m 551.50149,411.19136 c -0.98602,-0.57578 -1.10996,-1.3398 -1.10661,-6.82131 0.002,-2.873 0.0677,-5.46502 0.14652,-5.76006 0.20727,-0.77576 1.25515,-1.22041 2.87607,-1.22041 h 1.41347 v 7.0274 7.02739 l -1.46028,-0.007 c -0.80316,-0.004 -1.64428,-0.11456 -1.86917,-0.24589 z"/><path style="font-variation-settings:normal;opacity:1;vector-effect:none;fill:#000;fill-opacity:1;stroke:#000;stroke-width:1px;stroke-linecap:butt;stroke-linejoin:miter;stroke-miterlimit:4;stroke-dasharray:none;stroke-dashoffset:0;stroke-opacity:1;stop-color:#000;stop-opacity:1" id="path498" d="m 705.29823,426.52862 v -21.6925 l 2.74532,0.0832 c 3.12768,0.0948 3.89424,0.4293 4.72483,2.06157 0.61397,1.20659 1.76821,5.63906 2.33099,8.95136 1.27555,7.50746 1.05966,16.78021 -0.57067,24.51085 -1.52786,7.24475 -1.97566,7.77797 -6.53195,7.77797 h -2.69852 z"/><path style="font-variation-settings:normal;opacity:1;vector-effect:none;fill:#000;fill-opacity:1;stroke:#000;stroke-width:1px;stroke-linecap:butt;stroke-linejoin:miter;stroke-miterlimit:4;stroke-dasharray:none;stroke-dashoffset:0;stroke-opacity:1;stop-color:#000;stop-opacity:1" id="path500" d="m 584.73878,305.9748 c 0.003,-2.26451 1.14147,-4.16777 2.76325,-4.61938 1.23234,-0.34316 46.09771,-0.32639 47.35227,0.0177 0.6001,0.16459 1.31857,0.65313 2.00748,1.36501 1.06534,1.10085 1.37105,1.89697 1.3778,3.58804 l 0.003,0.64418 h -26.75233 -26.75234 l 10e-4,-0.99555 z"/><path style="font-variation-settings:normal;opacity:1;vector-effect:none;fill:#000;fill-opacity:1;stroke:#000;stroke-width:1px;stroke-linecap:butt;stroke-linejoin:miter;stroke-miterlimit:4;stroke-dasharray:none;stroke-dashoffset:0;stroke-opacity:1;stop-color:#000;stop-opacity:1" id="path502" d="m 744.76749,392.34624 c -7.37403,-1.15256 -12.25912,-3.51316 -17.18139,-8.30249 -4.19,-4.07684 -9.97636,-11.23159 -14.15429,-20.84415 -6.80877,-15.6656 -12.32942,-19.2518 -16.1565,-24.99405 -0.5827,-0.8743 -3.10009,-5.66604 -4.55833,-7.29974 -3.50425,-3.92592 -5.49316,-5.94965 -6.99245,-7.1149 -0.67792,-0.52688 -2.15819,-0.77779 -2.10637,-0.82975 0.1682,-0.16863 10.68177,1.9607 15.83895,3.44149 6.54031,1.87794 9.83649,2.91531 21.26168,6.69147 24.21778,8.00427 37.13651,11.3397 48.9486,12.63781 1.92757,0.21183 4.08294,0.48465 4.78972,0.60624 4.01962,0.69158 8.00385,4.57809 8.87032,8.65275 0.19483,0.9162 0.25245,4.67159 0.19948,13.00069 l -0.0745,11.71234 -0.63074,1.34936 c -0.80435,1.72076 -2.07559,3.36646 -5.20034,6.73215 -1.37555,1.48161 -2.82564,3.19454 -3.22244,3.80651 l -0.72144,1.11267 -13.45364,-0.0227 c -9.97413,-0.0168 -13.9716,-0.10364 -15.45634,-0.33571 z"/><path style="fill:#333;fill-opacity:1;stroke:#000;stroke-width:.264985;stroke-opacity:1" id="path926" d="m 626.42004,812.0638 c -3.0151,-0.30334 -4.96457,-1.13982 -5.58976,-2.2103 -1.31153,-2.24565 -1.63054,-9.94619 -0.65837,-13.08723 0.61716,-1.99402 1.1237,-2.59841 3.95631,-3.1346 3.07565,-0.5822 10.37998,-0.38743 12.68678,0.34496 1.50914,0.47914 1.69385,0.57767 2.14224,1.78531 0.74868,2.0164 1.22658,7.31549 0.8778,10.29605 -0.36136,3.08801 -0.86268,4.19746 -2.35622,4.92047 -2.0881,1.01083 -7.02388,1.49128 -11.05878,1.08534 z"/><path style="fill:#333;fill-opacity:1;stroke:#000;stroke-width:.264985;stroke-opacity:1" id="path928" d="m 626.45483,772.42523 c -1.19582,-0.13489 -3.06338,-0.4663 -3.83508,-0.72229 -1.34222,-0.44525 -1.84952,-0.79471 -2.34633,-2.1889 -0.75897,-2.1299 -0.65153,-9.67076 0.10744,-11.80066 0.64277,-1.8038 1.39271,-2.22659 4.72627,-2.66451 2.84021,-0.37312 11.47273,-0.10592 12.66771,0.35154 1.51479,0.57988 2.20815,3.48226 2.20178,8.48923 -0.004,3.1328 -0.28379,5.81187 -0.98109,6.87608 -0.21326,0.32548 -1.09366,1.1394 -1.83309,1.33166 -1.62821,0.42336 -7.87645,0.64719 -10.70761,0.32785 z"/><path style="fill:#333;fill-opacity:1;stroke:#000;stroke-width:.264985;stroke-opacity:1" id="path930" d="m 626.45219,732.49906 c -1.25777,-0.13165 -3.14347,-0.41083 -3.92609,-0.67038 -1.36508,-0.45271 -1.72145,-0.63254 -2.21967,-2.03069 -0.75897,-2.1299 -0.78566,-9.66466 -0.0267,-11.79456 0.64277,-1.8038 1.59031,-2.26853 4.92387,-2.70646 2.84021,-0.37311 11.2883,-0.0856 12.48328,0.3719 1.51479,0.57988 2.27239,3.48197 2.26602,8.48895 -0.004,3.1328 -0.58408,6.09459 -1.28138,7.1588 -0.21517,0.32839 -0.84775,0.6853 -1.5938,0.87529 -1.65266,0.42087 -7.69669,0.6137 -10.62554,0.30715 z"/><path style="fill:#333;fill-opacity:1;stroke:#000;stroke-width:.264985;stroke-opacity:1" id="path932" d="m 625.65956,693.89955 c -0.97518,-0.13612 -2.55333,-0.0903 -3.32293,-0.34698 -1.37509,-0.45857 -1.53415,-0.83609 -2.02375,-2.39853 -0.34888,-1.1134 -0.57835,-2.85799 -0.67551,-5.5487 -0.2167,-6.00139 0.52022,-7.93082 3.07167,-9.20691 1.28365,-0.64201 1.83934,-1.06269 7.10382,-1.06269 5.37865,0 5.54929,0.20323 7.00626,0.91889 1.84975,0.90844 2.42826,1.87471 2.83202,4.71762 0.53225,3.74752 -0.17476,11.16443 -1.26107,12.14752 -1.12933,1.02204 -8.85213,1.32114 -12.73051,0.77978 z"/><path id="path489" d="m 379.06905,101.33936 h 13.1901 l 0.037,-8.25531 h 14.1068 c 3.694,0 4.8671,3.29254 4.8671,8.2606 v 75.70196 c 0,3.53235 -3.4085,6.31095 -6.4405,6.31095 h -9.5226 c -2.5944,0 -2.7443,-2.75044 -3.0117,-5.11156 v -5.02502 h -13.0052 z" style="fill:#1a1a1a;fill-opacity:1;stroke:#000;stroke-width:2.30124px;stroke-linecap:butt;stroke-linejoin:miter;stroke-opacity:1"/><path id="path491" d="M 392.26755,173.06935 V 101.88171" style="fill:#4d4d4d;fill-opacity:1;stroke:#000;stroke-width:2.30124px;stroke-linecap:butt;stroke-linejoin:miter;stroke-opacity:1"/><path style="fill:#000;fill-opacity:1;stroke:#000;stroke-width:2.30124px;stroke-linecap:butt;stroke-linejoin:miter;stroke-opacity:1" id="path493" d="m 320.74985,56.29539 v 15.94604 h 43.5888 V 56.01064 c 0,-2.09826 -1.8726,-3.04523 -3.5597,-3.4883 -12.173,-3.19604 -25.2766,-3.03408 -36.8326,0 -1.8219,0.47838 -3.1965,1.67683 -3.1965,3.77305 z"/><path style="fill:#1a1a1a;fill-opacity:1;stroke:#000;stroke-width:2.09975px;stroke-linecap:butt;stroke-linejoin:miter;stroke-opacity:1" id="path495" d="m 278.71645,200.68211 c -1.8116,5.3094 -14.3159,15.23177 -26.804,17.54252 0,3.02085 2.1746,7.20824 6.6781,7.20824 h 42.9453 c 9.0444,0 6.7685,24.00009 -7.8827,24.00009 h -14.8228 c -30.7958,10.32445 -58.299,10.53516 -88.3562,0 h -15.6167 c -13.60575,0 -16.40685,-23.78104 -7.81066,-23.78104 h 42.12586 c 6.109,0 8.9689,-3.48568 8.6104,-7.02445 -10.9644,-3.70415 -20.7546,-8.55799 -26.2816,-17.58519 v -3.35273 h 87.2518 z"/><path style="fill:#1a1a1a;fill-opacity:1;stroke:#000;stroke-width:1.84474px;stroke-linecap:butt;stroke-linejoin:miter;stroke-opacity:1" id="path497" d="m 274.17465,197.4005 c 0,0.25865 0,6.33998 0,6.33998 0,2.6468 2.5651,3.68761 5.8562,3.68761 17.7306,0.98444 39.2718,0.92676 57.4315,0 3.0517,0 6.0443,-1.82692 6.0104,-3.78467 v -7.73095 h -69.2981 z"/><path style="fill:none;stroke:#000;stroke-width:2.09975px;stroke-linecap:butt;stroke-linejoin:miter;stroke-opacity:1" id="path499" d="m 258.08445,225.33728 h -45.0418"/><path style="fill:#1a1a1a;fill-opacity:1;stroke:#000;stroke-width:1.4781px;stroke-linecap:butt;stroke-linejoin:miter;stroke-opacity:1" id="path501" d="m 355.50055,191.92715 v 11.14596 c 0,0.96002 -0.737,2.03381 -1.3112,2.03381 h -23.0257 c -0.7228,0 -1.5998,-1.11889 -1.5998,-2.48132 v -10.77963 z"/><path style="fill:none;stroke:#000;stroke-width:2.09975px;stroke-linecap:butt;stroke-linejoin:miter;stroke-opacity:1" id="path503" d="m 252.26535,218.07198 h -35.7635"/><path style="fill:#1a1a1a;fill-opacity:1;stroke:#000;stroke-width:1.84684px;stroke-linecap:butt;stroke-linejoin:miter;stroke-opacity:1" id="path505" d="m 128.69523,197.40389 c 0,0.25924 0,6.35443 0,6.35443 0,2.65284 2.56501,3.69602 5.85597,3.69602 17.73073,0.98669 39.27175,0.92888 57.43165,0 3.0517,0 6.0443,-1.83107 6.0102,-3.7933 v -7.74857 h -69.29782 z"/><path id="path509" d="m 91.14151,199.65348 c -8.52966,0 -24.99089,-16.61076 -24.99089,-25.55625 v -58.65862 c 4.57443,-17.00507 13.35533,-35.47833 41.84537,-41.00408 4.97535,0 7.55529,-4.59359 7.55529,-7.40352 26.96999,-35.0496 56.25477,-53.08707 86.30587,-65.49263 h 63.6397 c 27.3731,12.02627 42.6345,29.98675 54.6313,49.5466 V 61.9055 c 0,4.46695 3.7756,9.11203 8.7178,9.11203 h 52.8878 v 128.70726 z" style="fill:#00bbdb;fill-opacity:1;stroke:#000;stroke-width:2.30124px;stroke-linecap:round;stroke-linejoin:round;stroke-opacity:1"/><path id="path511" d="M 100.1578,95.57843 H 327.54875 C 327.43015,49.18358 304.14675,1.15062 259.36955,1.15062 L 195.76105,1.8971 C 133.48741,13.03019 120.68895,56.85936 100.1578,95.57843 Z" style="fill:#1a1a1a;fill-opacity:1;stroke:#000;stroke-width:2.30124px;stroke-linecap:butt;stroke-linejoin:miter;stroke-opacity:1"/><path id="path513" d="m 81.49442,126.18349 h 247.95873 v 27.99243 c 0,9.45565 -12.3167,23.51364 -23.9962,23.51364 H 97.49165 c -12.6963,0 -22.09152,-12.0229 -22.09152,-21.64746 0,-11.5947 -1.02012,-29.85861 6.09429,-29.85861 z" style="fill:#1a1a1a;fill-opacity:1;stroke:#000;stroke-width:2.30124px;stroke-linecap:butt;stroke-linejoin:miter;stroke-opacity:1"/><path style="fill:#b3b3b3;fill-opacity:1;stroke:#000;stroke-width:.0426219;stroke-linecap:round;stroke-linejoin:round;stroke-miterlimit:4;stroke-dasharray:none;stroke-opacity:1" id="path519" d="m 216.49175,61.4392 v -1.87954 l 5.5759,-6.74897 c 3.0668,-3.71194 5.5759,-6.75827 5.5759,-6.76966 0,-0.0114 -2.2283,-0.0205 -4.9515,-0.0205 h -4.9514 v -1.75092 -1.75094 h 7.7716 7.7718 v 1.61419 1.61418 l -5.8379,7.04557 -5.8376,7.04554 6.0529,0.0114 6.0532,0.0114 v 1.7297 1.72968 h -8.6113 -8.6116 v -1.87951 z"/><path style="fill:#b3b3b3;fill-opacity:1;stroke:#000;stroke-width:.0335108;stroke-linecap:round;stroke-linejoin:round;stroke-miterlimit:4;stroke-dasharray:none;stroke-opacity:1" id="path4218" d="M 236.52525,52.97079 V 42.61137 h 2.6255 2.6254 v 8.6079 8.60791 h 6.5824 6.5825 v 1.75151 1.75152 h -9.2079 -9.2079 z"/><path style="fill:#b3b3b3;fill-opacity:1;stroke:#000;stroke-width:.0325267;stroke-linecap:round;stroke-linejoin:round;stroke-miterlimit:4;stroke-dasharray:none;stroke-opacity:1" id="path4220" d="m 227.42615,152.06817 v -10.42336 h 2.4583 2.4584 v 8.66103 8.66102 h 6.1635 6.1634 v 1.76236 1.76232 h -8.6218 -8.6218 z"/></svg>