<?xml version="1.0" encoding="UTF-8"?>
<svg version="1.1" viewBox="0 0 255.76 255.76" xmlns="http://www.w3.org/2000/svg">
<defs>
<style>.cls-1{fill:#02c5e5;}.cls-2{fill:#ff5f55;}.cls-3{fill:none;}</style>
</defs>
<g transform="matrix(.9095 0 0 .8953 11.05 10.745)" data-name="Ebene 2">
<g transform="matrix(1.0347 0 0 1.0337 -11.831 -3.2313)" data-name="Ebene 1">
<g data-name="Ebene 2">
<g data-name="Ebene 1-2">
<path class="cls-1" d="m80.63 0v220.39h-36.26c-14 0-35.74-20.74-35.74-39.13v-141.13c0-20.94 22.73-40.13 40.43-40.13z"/>
<path class="cls-2" d="m175.13 35.37v220.39h36.26c14 0 35.74-20.74 35.74-39.13v-141.13c0-20.94-22.73-40.13-40.43-40.13z"/>
<polygon class="cls-1" points="124.34 137.96 122.58 145.57 90.64 145.57 92.89 137.96"/>
<polygon class="cls-2" points="160.29 137.96 157.84 145.57 122.58 145.57 124.34 137.96"/>
<polygon class="cls-1" points="130.39 111.86 128.62 119.47 95.14 119.47 97.39 111.86"/>
<polygon class="cls-2" points="164.79 111.86 162.34 119.47 128.62 119.47 130.39 111.86"/>
<polygon class="cls-1" points="104.24 167.99 122.83 87.77 129.78 87.77 111.19 167.99"/>
<polygon class="cls-2" points="128.18 167.99 146.77 87.77 153.89 87.77 135.3 167.99"/>
</g>
</g>
</g>
<path transform="matrix(1.0995 0 0 1.1169 -12.149 -12.001)" d="m165.33 142.58v-101.93l16.983 0.16784c19.35 0.19124 19.436 0.20386 26.88 3.9456 12.687 6.3774 21.597 17.899 23.195 29.995 0.30635 2.3198 0.41903 26.298 0.33152 70.546l-0.13258 67.031-1.4193 3.9678c-2.1946 6.1352-5.1178 10.616-10.502 16.098-6.7176 6.839-12.628 10.462-19.053 11.681-1.2174 0.23087-9.8787 0.41977-19.247 0.41977h-17.034z" fill="none" stroke="#000" stroke-width="4"/>
<path transform="matrix(1.0995 0 0 1.1169 -12.149 -12.001)" d="m37.969 211.01c-9.6676-2.6664-20.751-12.474-26.004-23.011-3.4279-6.876-3.1936-1.1507-3.1861-77.849 0.007271-75.191-0.13024-71.16 2.6354-77.259 4.8351-10.663 15.985-20.275 27.517-23.72 3.1495-0.94089 4.3908-1.0144 20.114-1.1904l16.758-0.18759v203.87l-17.883-0.0402c-12.95-0.02915-18.453-0.19769-19.952-0.61107z" fill="none" stroke="#000" stroke-width="4"/>
<path transform="matrix(1.0995 0 0 1.1169 -12.149 -12.001)" d="m121.46 162.07c0.13203-0.55672 1.2139-5.1623 2.4042-10.235l2.1642-9.2224-10.042-0.44988 1.4368-6.2982 10.31-0.44988 1.911-8.0977c1.051-4.4538 1.9175-8.3508 1.9255-8.6601 0.0108-0.41667-1.2674-0.56234-4.9341-0.56234-2.7218 0-4.9486-0.11023-4.9486-0.24495 0-0.13473 0.32828-1.5518 0.72951-3.1491l0.7295-2.9042h10.147l1.5713-6.6356c0.86421-3.6496 2.0487-8.71 2.6322-11.245l1.0609-4.6096 3.0366-0.0016c1.6702-8.65e-4 3.0366 0.18766 3.0366 0.41894s-1.1134 5.1214-2.4743 10.867c-1.3609 5.7455-2.4743 10.613-2.4743 10.816 0 0.20316 3.414 0.42478 7.5866 0.49248l7.5866 0.12309-0.90553 3.0366-0.90554 3.0367h-7.5808c-4.1695 0-7.583 0.15183-7.5856 0.3374-6e-3 0.39451-3.5003 15.259-3.8606 16.42-0.22661 0.73073 0.36976 0.78728 8.3029 0.78728h8.547l-2.2621 6.7281-16.291 0.24495-0.9976 4.0489c-0.54867 2.2269-1.6466 6.8325-2.4399 10.235l-1.4423 6.1858h-3.1073c-2.9936 0-3.0985-0.037-2.8672-1.0122z" fill="none" stroke="#000" stroke-linejoin="round" stroke-width="2" style="paint-order:normal"/>
<path transform="matrix(1.0995 0 0 1.1169 -12.149 -12.001)" d="m98.765 162.76c0.0097-0.19687 1.0819-4.8117 2.3827-10.255l2.365-9.8972-8.6809-0.12198c-6.5034-0.0914-8.6792-0.26065-8.6743-0.67481 0.0036-0.30406 0.38544-1.7675 0.84843-3.2521l0.84181-2.6992 17.368-0.44988 1.9192-8.0977c1.0556-4.4538 1.9282-8.3508 1.9393-8.6601 0.0155-0.43275-2.1682-0.56234-9.4754-0.56234-7.4096 0-9.4489-0.12354-9.2835-0.56235 0.11661-0.30929 0.54881-1.7264 0.96045-3.1491l0.74843-2.5868h18.738l1.143-4.8362c0.62865-2.6599 1.813-7.721 2.632-11.247l1.489-6.4107h3.0876c2.7279 0 3.0609 0.09171 2.8586 0.78728-0.7583 2.6066-4.7802 20.156-4.7802 20.858 0 0.72886 0.34949 0.84874 2.4743 0.84874 1.3609 0 2.4743 0.11023 2.4743 0.24495s-0.32828 1.5518-0.72951 3.1491l-0.7295 2.9042h-5.2544l-0.44847 1.687c-0.63793 2.3997-3.6351 15.245-3.6351 15.579 0 0.15334 1.1393 0.2788 2.5318 0.2788h2.5318l-0.27849 1.687c-0.15317 0.92787-0.49222 2.4462-0.75345 3.3741l-0.47497 1.687h-5.2693l-1.6609 7.0855c-0.91348 3.897-2.0078 8.5026-2.4318 10.235l-0.77087 3.1491-3.0102 0.13302c-1.6556 0.0732-3.0023-0.0281-2.9925-0.22494z" fill="none" stroke="#000" stroke-linejoin="round" stroke-width="2"/>
</g>
</svg>
