<?xml version="1.0" encoding="UTF-8" standalone="no"?>
<svg
   xmlns:dc="http://purl.org/dc/elements/1.1/"
   xmlns:cc="http://creativecommons.org/ns#"
   xmlns:rdf="http://www.w3.org/1999/02/22-rdf-syntax-ns#"
   xmlns:svg="http://www.w3.org/2000/svg"
   xmlns="http://www.w3.org/2000/svg"
   xmlns:sodipodi="http://sodipodi.sourceforge.net/DTD/sodipodi-0.dtd"
   xmlns:inkscape="http://www.inkscape.org/namespaces/inkscape"
   version="1.1"
   id="Layer_1"
   x="0px"
   y="0px"
   viewBox="0 0 1050 1050.5"
   xml:space="preserve"
   sodipodi:docname="Controller_ProCon.svg"
   inkscape:version="1.0.1 (3bc2e813f5, 2020-09-07)"
   width="1050"
   height="1050.5"><metadata
   id="metadata393"><rdf:RDF><cc:Work
       rdf:about=""><dc:format>image/svg+xml</dc:format><dc:type
         rdf:resource="http://purl.org/dc/dcmitype/StillImage" /><dc:title /></cc:Work></rdf:RDF></metadata><defs
   id="defs391"><rect
     x="-3.2529297"
     y="255.14715"
     width="45.694153"
     height="61.787323"
     id="rect6367" /><rect
     x="-2742.2515"
     y="-791.54156"
     width="51.413819"
     height="73.033446"
     id="rect6355" /><inkscape:path-effect
     effect="bspline"
     id="path-effect777"
     is_visible="true"
     lpeversion="0"
     weight="33.333333"
     steps="2"
     helper_size="0"
     apply_no_weight="true"
     apply_with_weight="true"
     only_selected="false" /><inkscape:path-effect
     effect="bspline"
     id="path-effect1911"
     is_visible="true"
     lpeversion="1"
     weight="33.333333"
     steps="2"
     helper_size="0"
     apply_no_weight="true"
     apply_with_weight="true"
     only_selected="false" /><inkscape:path-effect
     effect="spiro"
     id="path-effect1583"
     is_visible="true"
     lpeversion="1" /><inkscape:path-effect
     effect="spiro"
     id="path-effect1579"
     is_visible="true"
     lpeversion="1" /><inkscape:path-effect
     effect="spiro"
     id="path-effect1575"
     is_visible="true"
     lpeversion="1" /><inkscape:path-effect
     effect="spiro"
     id="path-effect1571"
     is_visible="true"
     lpeversion="1" /><inkscape:path-effect
     effect="spiro"
     id="path-effect1567"
     is_visible="true"
     lpeversion="1" /><inkscape:path-effect
     effect="spiro"
     id="path-effect1563"
     is_visible="true"
     lpeversion="1" /><inkscape:path-effect
     effect="spiro"
     id="path-effect1559"
     is_visible="true"
     lpeversion="1" /><inkscape:path-effect
     effect="spiro"
     id="path-effect1376"
     is_visible="true"
     lpeversion="1" /><inkscape:path-effect
     effect="spiro"
     id="path-effect1372"
     is_visible="true"
     lpeversion="1" /><inkscape:path-effect
     effect="spiro"
     id="path-effect1356"
     is_visible="true"
     lpeversion="1" /><inkscape:path-effect
     effect="spiro"
     id="path-effect1352"
     is_visible="true"
     lpeversion="1" /><inkscape:path-effect
     effect="spiro"
     id="path-effect1348"
     is_visible="true"
     lpeversion="1" /><inkscape:path-effect
     effect="spiro"
     id="path-effect1344"
     is_visible="true"
     lpeversion="1" /><inkscape:path-effect
     effect="spiro"
     id="path-effect1336"
     is_visible="true"
     lpeversion="1" /><inkscape:path-effect
     effect="spiro"
     id="path-effect1332"
     is_visible="true"
     lpeversion="1" /><inkscape:path-effect
     effect="spiro"
     id="path-effect1328"
     is_visible="true"
     lpeversion="1" /><inkscape:path-effect
     effect="spiro"
     id="path-effect1324"
     is_visible="true"
     lpeversion="1" /><inkscape:path-effect
     effect="spiro"
     id="path-effect1320"
     is_visible="true"
     lpeversion="1" /><inkscape:path-effect
     effect="spiro"
     id="path-effect1308"
     is_visible="true"
     lpeversion="1" /><inkscape:path-effect
     effect="spiro"
     id="path-effect1304"
     is_visible="true"
     lpeversion="1" /><rect
     x="-2742.2515"
     y="-791.54156"
     width="62.278649"
     height="71.996658"
     id="rect6363" /><rect
     x="-3.2529297"
     y="255.14715"
     width="45.694153"
     height="61.787323"
     id="rect6375" /></defs><sodipodi:namedview
   pagecolor="#ffffff"
   bordercolor="#666666"
   borderopacity="1"
   objecttolerance="10"
   gridtolerance="10"
   guidetolerance="10"
   inkscape:pageopacity="0"
   inkscape:pageshadow="2"
   inkscape:window-width="1920"
   inkscape:window-height="1003"
   id="namedview389"
   showgrid="false"
   inkscape:zoom="0.64"
   inkscape:cx="678.18708"
   inkscape:cy="314.4177"
   inkscape:window-x="1400"
   inkscape:window-y="0"
   inkscape:window-maximized="1"
   inkscape:current-layer="Layer_1"
   inkscape:document-rotation="0" />
<style
   type="text/css"
   id="style280">
	.st0{opacity:0.1;}
	.st1{fill:#1ABC9C;}
	.st2{fill:#CCCCCC;}
	.st3{fill:#FFFFFF;}
</style>



































<style
   type="text/css"
   id="style1175">
	.st0{opacity:0.1;}
	.st1{fill:#1ABC9C;}
	.st2{fill:#CCCCCC;}
	.st3{fill:#FFFFFF;}
</style><path
   style="opacity:1;fill:#3b3b3b;fill-opacity:1;stroke:#000000;stroke-width:0;stroke-opacity:1"
   d="m 660.218,317.28666 c -1.32475,0.81977 -0.20077,-1.70417 0.90068,-3.96853 3.06704,-6.30522 10.36825,-21.51171 18.29034,-36.65329 l 18.74304,-38.70005 7.52422,0.63048 c 2.87452,0.24086 19.69754,1.26308 37.84754,2.37647 86.06419,5.27955 152.87764,13.51997 163.54184,20.45174 0.71817,0.46681 2.77389,0.67882 2.86049,2.64483 0.13669,3.10302 -2.35468,8.99019 -5.41139,15.0731 -8.3397,16.59616 -12.04409,19.99098 -31.6575,24.44371 -26.13617,5.93357 -75.85796,9.73292 -160.88227,12.78643 -15.4,0.55306 -33.54449,0.6281 -40.00699,0.90614 -6.4625,0.27804 -11.75,0.28208 -11.75,0.009 z"
   id="path6345"
   sodipodi:nodetypes="csscsssssssssc" /><path
   style="opacity:1;fill:#20221f;fill-opacity:1;stroke:#000000;stroke-width:0;stroke-opacity:1"
   d="m 928.97724,329.51506 c 0.89282,-2.32663 6.90796,-23.8275 9.59446,-36.95969 9.22672,-45.10219 -9.52386,-91.93982 -26.87551,-118.1679 -0.34662,-0.52393 -9.61153,-9.20064 -9.96658,-9.69927 -13.68797,-19.22298 -65.66266,-59.56877 -76.83998,-60.73732 l -7.75062,-0.8103 -8.08788,-0.61111 3.94362,-9.019453 4.21503,-8.375144 c 10.36263,-20.590259 45.3232,-61.279156 59.73381,-70.957432 21.64007,-14.53364318 60.90681,-17.7914332 85.98048,-7.3149858 13.89131,5.8041638 33.90662,26.3200388 43.19013,46.0415988 10.4758,22.254425 13.9398,51.317276 12.4007,82.800486 -1.2288,25.13632 -5.2752,51.6733 -14.21,78.5612 -8.05068,24.22731 -19.93852,51.13312 -30.6471,69.72515 -3.8677,6.71502 -7.81756,12.23106 -11.04486,16.30587 -9.56335,12.07472 -36.06924,35.56003 -33.6357,29.2183 z"
   id="path6351"
   sodipodi:nodetypes="ssssscccsssssssss" /><path
   style="opacity:1;fill:#3b3b3b;fill-opacity:1;stroke:#000000;stroke-width:0;stroke-opacity:1"
   d="m 896.3932,236.40082 c -14.73005,-3.67801 -34.06098,-5.89763 -69.32894,-7.85779 -48.10172,-2.67345 -68.35314,-5.1435 -88.48333,-12.09268 -17.7828,-6.13883 -23.07021,-7.70117 -22.47581,-9.25015 5.74755,-14.97788 19.27653,-45.64132 33.33804,-71.49694 l 17.12305,-34.21339 21.88878,0.83519 c 10.89713,0.41579 23.74401,1.09904 30.42156,1.55732 l 12.11856,0.83168 17.96766,8.82897 16.58267,8.46727 7.65051,9.04576 c 3.88827,4.59738 8.20709,10.87063 9.7851,13.97094 3.83927,7.54295 10.28643,26.46749 14.52728,42.61223 3.62749,13.8097 11.1299,48.18972 11.1299,50.89707 0,1.93883 -2.69118,0.25006 -12.24503,-2.13548 z"
   id="path6343"
   sodipodi:nodetypes="ssssscsscccsssss" /><path
   style="opacity:1;fill:#0d0d0a;fill-opacity:1;stroke:#000000;stroke-width:0;stroke-opacity:1"
   d="M 430.81645,341.14038 C 328.01189,339.106 130.76839,333.529 126.98969,331.19364 c -2.92039,-1.8049 -18.21136,-45.9964 -19.54296,-62.85189 -1.26055,-15.95616 8.14081,-40.64895 15.84477,-65.96842 7.80426,-25.64915 19.18555,-50.98797 29.70319,-65.63351 6.19529,-8.62678 26.86202,-14.49866 34.09013,-14.49866 2.73437,0 -5.66433,5.63407 -11.26391,14.10589 -10.06385,15.22597 -25.97579,76.07039 -29.84978,97.98818 l -0.62262,5.45685 7.57609,-0.73847 c 0.74354,-0.46776 18.3032,-3.38852 29.3032,-5.48486 21.24871,-4.0495 54.08963,-10.14433 91.74463,-11.93172 21.96014,-1.04239 61.39483,-10.57283 64.87702,-13.89209 0.45583,-0.4345 -0.37428,-1.44573 -1.13356,-3.04684 -0.71715,-1.51229 -1.31867,-3.54895 -2.45223,-6.18464 -4.02719,-9.36381 -11.55245,-26.49123 -26.13961,-55.79333 -10.26205,-20.614 -20.52938,-40.18092 -20.52938,-40.74191 0,-0.561 109.44794,-0.46341 239.28946,-0.4722 l 238.68208,-0.0162 -19.23191,37.92857 c -7.98876,15.75519 -16.84723,33.36429 -22.74728,47.1076 -5.11552,11.91583 -9.17244,20.45764 -9.17244,21.73967 0,0.37257 6.06429,2.61196 14.80045,5.98098 21.0242,8.10779 42.09211,11.36166 94.68919,14.99998 7.75551,0.53648 15.13353,0.58128 21.41919,1.05917 29.19801,2.21991 43.29941,4.45186 54.02756,7.55838 3.84274,1.11274 7.99529,2.2287 8.96927,2.2287 0.49446,0 -0.0137,-0.88636 -0.24327,-2.01215 -0.33046,-1.62088 -0.66287,-4.05709 -1.47808,-7.7471 -1.65929,-7.51067 -3.63948,-19.1425 -7.7827,-35.53558 -7.90415,-31.27352 -13.06793,-45.47103 -19.62771,-55.59337 -2.58463,-3.98832 -15.12169,-17.01052 -14.22735,-17.01052 1.29312,0 4.6922,0.22172 10.56097,1.35242 4.39446,0.84665 10.49263,1.71888 16.38523,6.03414 4.17718,3.05902 9.78726,8.62065 13.45068,14.36454 3.02831,4.7481 4.90948,9.21841 6.05935,11.29667 4.81156,8.69637 8.2604,17.33698 11.80941,26.7987 3.10277,8.27205 8.87912,16.83457 10.52454,30.03522 0.70348,5.64376 4.53035,17.85454 4.99414,24.33129 0.75806,10.58628 3.68412,21.48621 2.32532,33.46193 -1.23556,10.88961 -3.57121,23.26448 -7.15946,38.31613 -5.05294,21.1956 -3.81899,23.09078 -10.08691,24.04914 -7.71966,1.18034 -157.76255,4.44944 -255.00795,7.07484 -104.7425,2.8278 -165.2198,3.29116 -239,1.83116 z m 349.15519,-27.29742 c 2.93727,-0.46968 4.89508,-0.20648 7.71447,-0.46913 67.71627,-6.30851 94.47658,-9.47411 104.50527,-16.9154 5.81258,-4.31293 18.14295,-26.03782 18.14295,-32.17293 0,-2.34077 -1.36725,-2.6709 -4.9219,-4.05522 -5.38948,-2.09888 -15.94783,-4.94969 -35.504,-7.68968 -46.58674,-6.52722 -133.58256,-12.19005 -162.72833,-14.01158 l -9.02804,-0.56423 -20.16277,40.05385 -19.68097,39.38995 -130.90866,0.34843 -131.06455,0.80846 -20.22066,-40.22362 -19.81946,-40.37707 -9.84077,1.17715 c -1.51926,-2.64069 -145.07493,10.90858 -180.01561,18.28975 -21.22527,4.48381 -20.51101,2.95642 -21.13776,8.29802 -0.81348,6.93308 8.60665,25.50448 15.24682,30.72764 3.78538,2.97759 11.78984,5.57819 21.72697,7.9163 23.55969,5.54337 66.89281,8.33463 150.11066,12.45301 30.75983,1.52228 359.8758,-0.85471 429.11569,-1.81686 5.40419,-0.0751 7.87332,-0.28349 9.84902,-0.36884 l 2.52586,-0.10912 3.00376,-0.19446 z"
   id="path6347"
   sodipodi:nodetypes="ssssssssccsssssssscssssssssssssssssssssssssssssssssccccccccsssssssccss" /><path
   style="opacity:1;fill:#3b3b3b;fill-opacity:1;stroke:#000000;stroke-width:0;stroke-opacity:1"
   d="m 385.39661,318.03846 c -0.76321,-0.006 -47.73002,-1.77227 -68.30035,-2.63645 -47.52029,-1.99639 -83.47452,-4.47552 -109.3216,-7.35671 -10.99949,-1.22612 -12.48382,-1.28243 -31.2223,-5.69426 -8.94814,-2.10678 -14.00674,-4.54081 -17.97755,-8.4534 -3.07008,-3.02508 -6.24015,-7.88424 -9.07503,-13.77755 -2.60541,-5.41629 -3.843,-8.64821 -3.57014,-14.14522 l -0.0104,-3.69784 1.76577,-0.32872 c 0.74671,-0.13901 11.18731,-2.58802 23.7341,-4.95894 l 22.88327,-4.32416 38.875,-4.33363 c 21.38125,-2.3835 39.83125,-4.39928 41,-4.47953 21.92819,-1.50556 81.72866,-5.81661 81.87889,-5.6599 0.26152,0.2728 39.53504,79.30961 39.53504,79.56255 0,0.20707 -6.06608,0.3488 -7.21501,0.30534 z"
   id="path6339"
   sodipodi:nodetypes="ssssssscsscscsscs" /><path
   style="opacity:1;fill:#3b3b3b;fill-opacity:1;stroke:#000000;stroke-width:0;stroke-opacity:1"
   d="m 145.8992,238.98605 c 0,-0.64677 3.14823,-15.81079 4.74421,-23.28297 6.7661,-31.67803 13.89927,-56.06607 20.70463,-70.08918 3.02084,-6.22476 6.22717,-11.4123 10.45234,-16.45362 8.02748,-9.57808 21.3614,-17.57626 35.99217,-22.52619 8.42795,-2.85136 10.18951,-3.24979 23.65007,-3.53454 5.98125,-0.12653 13.62941,-0.37342 16.86066,-0.50984 7.81005,-0.32972 29.22068,-0.74869 29.32258,-0.62079 0.0443,0.0556 8.32713,16.08042 18.05652,35.59361 l 17.89637,35.24109 7.47085,17.25691 c 4.08431,9.43435 7.25653,17.60188 7.21128,17.64714 -0.13475,0.13475 -6.81092,2.43774 -12.10622,4.02081 -9.76614,2.91967 -18.87712,5.22303 -24.25283,6.13733 -5.47447,0.93109 -21.02753,3.49834 -44.03713,5.33177 -26.83629,2.13835 -34.23532,3.20617 -46.51732,4.88491 -12.27931,1.67836 -23.94321,3.68548 -33.96676,5.85411 -3.1625,0.68423 -6.91801,1.55441 -8.15551,1.81227 -3.11385,0.64883 -11.12826,1.7309 -16.51806,2.34908 -2.475,0.28386 -5.06207,0.7761 -5.4402,0.84021 -0.45935,0.0779 -1.36765,0.26671 -1.36765,0.0479 z"
   id="path6341"
   sodipodi:nodetypes="ssssssssscssssssssssss" /><path
   style="opacity:1;fill:#20221f;fill-opacity:1;stroke:#000000;stroke-width:0;stroke-opacity:1"
   d="M 97.182033,306.84924 C 72.556268,280.92468 54.707301,245.97749 43.411151,201.56894 36.486077,174.3444 33.812002,157.52803 33.796098,120.40365 33.780088,83.031093 37.418728,76.526937 43.514598,57.840656 45.804885,50.820011 48.498762,44.194039 51.955984,38.390178 62.467876,20.743191 78.236697,9.0493953 96.663495,3.6925802 c 22.319815,-6.488546 54.014365,-3.36788696 74.674575,6.7402138 17.80332,8.710352 49.74494,46.322219 64.89055,72.591173 l 3.73815,6.483551 5.51717,12.761852 -10.29812,0.2151 c -10.32559,0.21567 -29.13818,7.09123 -39.31129,13.93818 -0.66089,0.44481 -3.42209,3.31258 -6.38509,4.59126 -0.0665,0.0287 -0.62137,0.45894 -0.80037,0.5422 -0.35092,0.16322 -0.86592,0.0836 -1.00005,0.13592 -3.55394,1.38486 -7.46457,1.39449 -10.52846,1.95331 -5.86689,1.07006 -13.65754,3.82832 -19.00675,8.52499 -17.29997,15.18958 -38.57715,67.97467 -44.1677,110.18627 -2.81527,21.25668 -2.74867,27.30955 2.30097,52.02795 3.1532,15.43518 10.0155,36.17367 9.52454,36.66463 -0.25427,0.25427 -5.54004,-2.23867 -11.47619,-7.27082 -5.52574,-4.68423 -11.93986,-11.44061 -17.153397,-16.92912 z"
   id="path6349"
   sodipodi:nodetypes="ssssssssccssssssssssss" /><path
   style="fill:#4d4d4d;stroke-width:1"
   d=""
   id="path625" /><path
   style="fill:#4d4d4d;stroke-width:0.999999"
   d=""
   id="path649" /><path
   style="fill:#4d4d4d;stroke-width:0.999999"
   d=""
   id="path657" /><path
   style="fill:#333333;stroke-width:1"
   d=""
   id="path679" /><path
   style="fill:#333333;stroke:#000000;stroke-width:0;stroke-opacity:1"
   d="m 147.55184,432.51372 c 0.019,-0.0179 0.72327,-0.45129 1.56514,-0.96306 4.94389,-3.00542 9.65971,-6.02725 15.34793,-9.83473 2.41182,-1.61438 5.23198,-3.50157 6.26703,-4.19375 15.44392,-10.32806 39.24969,-18.63753 71.42414,-24.93077 3.7449,-0.7325 8.05839,-1.52001 11.58335,-2.11478 1.5017,-0.25338 2.81413,-0.47936 2.91652,-0.50217 0.17311,-0.0386 0.18616,-0.0134 0.18616,0.35856 v 0.40005 l -1.59271,0.27192 c -29.70268,5.071 -51.83288,11.11479 -68.11422,18.60211 -6.36259,2.92597 -15.97557,8.49335 -28.13099,16.29213 -3.27997,2.10439 -7.44,4.74186 -9.55334,6.05684 -0.89911,0.55946 -0.97425,0.59023 -1.44103,0.59023 -0.27085,0 -0.47694,-0.0147 -0.45798,-0.0326 z"
   id="path689" /><path
   style="fill:#333333;stroke:#000000;stroke-width:0;stroke-opacity:1"
   d="m 568.88289,377.33785 c 0.1357,-0.0261 0.33207,-0.0251 0.43637,0.002 0.1043,0.0273 -0.007,0.0487 -0.24673,0.0474 -0.24,-10e-4 -0.32534,-0.0236 -0.18964,-0.0496 z"
   id="path695" /><path
   style="fill:#333333;stroke-width:1"
   d=""
   id="path697" /><path
   style="fill:#333333;stroke-width:0.999999"
   d=""
   id="path733" /><path
   class="st2"
   d="m 687.40741,351.36236 v 0 c -0.19999,0 -0.29999,-0.11251 -0.29999,-0.33752 0,-0.11251 0.1,-0.22502 0.19999,-0.22502 0.1,0 0.29999,0.11251 0.29999,0.22502 0.1,0.22501 0,0.33752 -0.19999,0.33752 0,0 0,0 0,0 z"
   id="path320"
   style="stroke:none;stroke-width:0" /><path
   class="st1"
   d="m 789.9,534.19982 c -20.7,0 -37.6,-16.80001 -37.5,-37.60001 0,-20.7 16.8,-37.6 37.6,-37.5 20.7,0 37.5,16.8 37.5,37.6 -0.1,20.7 -16.9,37.40001 -37.6,37.50001 z m 0,-73.10001 c -19.6,0 -35.6,15.9 -35.6,35.6 0,19.6 15.9,35.60001 35.6,35.60001 19.6,0 35.6,-15.90001 35.6,-35.60001 -0.1,-19.7 -16,-35.6 -35.6,-35.6 z"
   id="path338"
   style="fill:#000000;stroke:none;stroke-width:0" /><path
   class="st1"
   d="m 789.9,670.19982 c -20.7,0 -37.6,-16.8 -37.5,-37.6 0,-20.7 16.8,-37.6 37.6,-37.5 20.7,0 37.5,16.8 37.5,37.6 -0.1,20.7 -16.9,37.5 -37.6,37.5 z m 0,-73.1 c -19.6,0 -35.6,15.9 -35.6,35.6 0,19.6 15.9,35.6 35.6,35.6 19.6,0 35.6,-15.9 35.6,-35.6 -0.1,-19.7 -16,-35.6 -35.6,-35.6 z"
   id="path340"
   style="fill:#000000;stroke:none;stroke-width:0" /><path
   class="st1"
   d="m 868.1,602.19982 c -20.7,0 -37.6,-16.8 -37.6,-37.5 0,-20.7 16.8,-37.60001 37.5,-37.60001 20.7,0 37.6,16.80001 37.6,37.50001 0,0 0,0 0,0 0,20.8 -16.8,37.6 -37.5,37.6 z m 0,-73.10001 c -19.6,0 -35.6,15.90001 -35.6,35.60001 0,19.7 15.9,35.6 35.6,35.6 19.6,0 35.6,-15.9 35.6,-35.6 0,0 0,0 0,0 -0.1,-19.7 -16,-35.60001 -35.6,-35.60001 z"
   id="path346"
   style="fill:#000000;stroke:none;stroke-width:0" /><path
   class="st1"
   d="m 711.7,602.19982 c -20.7,0 -37.6,-16.8 -37.6,-37.6 0,-20.8 16.8,-37.60001 37.6,-37.60001 20.7,0 37.6,16.80001 37.6,37.60001 -0.1,20.8 -16.9,37.6 -37.6,37.6 z m 0,-73.10001 c -19.6,0 -35.6,15.90001 -35.6,35.60001 0,19.7 15.9,35.6 35.6,35.6 19.6,0 35.6,-15.9 35.6,-35.6 v 0 c -0.1,-19.7 -16,-35.60001 -35.6,-35.60001 z"
   id="path348"
   style="fill:#000000;stroke:none;stroke-width:0" /><path
   class="st1"
   d="m 649.1,512.39981 c -12.8,0 -23.1,-10.3 -23.1,-23.1 0,-12.8 10.3,-23.1 23.1,-23.1 12.8,0 23.1,10.3 23.1,23.1 0,12.7 -10.4,23.1 -23.1,23.1 z m 0,-44.2 c -11.7,0 -21.1,9.5 -21.1,21.1 0,11.7 9.5,21.1 21.1,21.1 11.7,0 21.1,-9.5 21.1,-21.1 0,-11.7 -9.5,-21.1 -21.1,-21.1 z"
   id="path350"
   style="fill:#000000;stroke:none;stroke-width:0" /><path
   class="st1"
   d="m 596.3,587.69982 c -12.8,0 -23.1,-10.3 -23.1,-23.1 0,-12.8 10.3,-23.1 23.1,-23.1 12.8,0 23.1,10.3 23.1,23.1 -0.1,12.8 -10.4,23.1 -23.1,23.1 z m 0,-44.2 c -11.7,0 -21.1,9.5 -21.1,21.1 0,11.7 9.5,21.1 21.1,21.1 11.7,0 21.1,-9.5 21.1,-21.1 -0.1,-11.6 -9.5,-21.1 -21.1,-21.1 z"
   id="path352"
   style="fill:#000000;stroke:none;stroke-width:0" /><path
   class="st1"
   d="m 400.9,512.39981 c -12.8,0 -23.1,-10.3 -23.1,-23.1 0,-12.8 10.3,-23.1 23.1,-23.1 12.8,0 23.1,10.3 23.1,23.1 0,12.7 -10.3,23.1 -23.1,23.1 z m 0,-44.2 c -11.7,0 -21.1,9.5 -21.1,21.1 0,11.7 9.5,21.1 21.1,21.1 11.7,0 21.1,-9.5 21.1,-21.1 0,-11.7 -9.4,-21.1 -21.1,-21.1 z"
   id="path354"
   style="fill:#000000;stroke:none;stroke-width:0" /><path
   class="st1"
   d="m 453.7,579.59982 c -8.3,0 -15,-6.7 -15,-15 0,-8.3 6.7,-15 15,-15 8.3,0 15,6.7 15,15 v 0 c 0,8.3 -6.7,15 -15,15 z m 0,-27.9 c -7.2,0 -13,5.8 -13,13 0,7.2 5.8,13 13,13 7.2,0 13,-5.8 13,-13 0,0 0,0 0,0 0,-7.2 -5.8,-13 -13,-13 z"
   id="path356"
   style="fill:#ffffff;stroke:none;stroke-width:0;fill-opacity:1" /><path
   class="st1"
   d="m 392.3933,777.93146 -40.3945,2.09195 c -2.79625,0.14481 -3.89022,-6.05152 -4.05662,-8.84657 l -2.46936,-41.47702 c -0.10103,-1.697 -2.56109,-1.21326 -4.26035,-1.26313 l -41.54022,-1.21911 c -2.7988,-0.0821 -1.30219,-2.94022 -1.32149,-5.74015 l -0.25306,-36.71074 c -0.0193,-2.79994 -1.26916,-6.2565 1.52955,-6.34148 l 44.78698,-1.35981 c 1.69922,-0.0516 1.92388,-0.78373 1.99894,-2.48207 l 1.73813,-39.32715 c 0.063,-1.42619 -0.84622,-5.34524 0.0923,-6.27478 0.90222,-0.89363 5.39003,-0.25407 6.76217,-0.22648 l 35.69884,0.7178 c 1.47105,0.0296 3.27983,-0.55868 4.17557,0.39618 0.80887,0.86226 0.72779,3.19961 0.75922,4.52789 l 1.00717,42.56553 c 0.0402,1.69952 1.86894,1.64457 3.56797,1.70203 L 439.7,679.99982 c 2.7984,0.0947 5.4441,-1.49169 5.52652,1.3071 l 1.25563,42.63654 c 0.0824,2.79879 -3.98428,2.54706 -6.78215,2.65636 l -39.2067,1.53164 c -1.6987,0.0664 -3.1,1.4 -3.1,3.1 v 41.6 c 0,2.8 -2.20374,4.95519 -5,5.1 z M 303.8,682.09982 c -1.7,0 -3.1,1.4 -3.1,3.1 v 36.4 c 0,1.7 1.4,3.1 3.1,3.1 h 41.6 c 2.8,0 5.8517,2.3629 5.80424,5.1625 L 350.5,771.39982 c -0.0288,1.69976 1.4,3.1 3.1,3.1 H 390 c 1.7,0 3.14335,-1.40055 3.1,-3.1 l -1.07924,-42.31081 c -0.0714,-2.79909 3.37924,-4.38919 6.17924,-4.38919 h 41.6 c 1.7,0 3.1,-1.4 3.1,-3.1 v -36.4 c 0,-1.7 -1.4,-3.1 -3.1,-3.1 H 398 c -2.8,0 -5.53564,-2.33548 -5.53564,-5.13548 v -41.6 c 0,-1.7 -0.96451,-2.5533 -2.66436,-2.57611 l -36.4,-0.48841 c -1.69985,-0.0228 -3.1,1.4 -3.1,3.1 v 41.6 c 0,2.8 -2.3,5.1 -5.1,5.1 z"
   id="path364"
   style="fill:#000000;stroke:none;stroke-width:0"
   sodipodi:nodetypes="ssssssssssssssssssssssssssssssssssssssssssssssssssss" /><rect
   x="388.46399"
   y="487.05295"
   class="st1"
   width="25.008055"
   height="4.1680002"
   id="rect366"
   style="fill:#ffffff;stroke:none;stroke-width:0;fill-opacity:1" /><path
   class="st1"
   d="m 596.26878,548.69925 -14.80006,14.63243 4.67775,-0.0638 v 11.31317 h 21.05218 l -0.38054,-10.10362 4.06609,-1.90776 z M 600.2,570.39982 h -7.7 l 0.13976,-7.29486 7.56024,-0.10514 z"
   id="path378"
   style="fill:#ffffff;stroke:none;stroke-width:0;fill-opacity:1"
   sodipodi:nodetypes="ccccccccccccc" /><path
   style="fill:none;stroke:#000000;stroke-width:1.02767px;stroke-linecap:butt;stroke-linejoin:miter;stroke-opacity:1"
   d="m 145.5384,261.9246 48.91355,-9.94386 76.90845,-8.57854 84.93459,-5.43741 37.04503,74.3832 2.99509,6.21749 c 0,0 -129.73659,-2.92442 -194.04465,-10.73313 -5.38953,-0.65443 -10.7458,-1.67167 -16.00517,-3.01863 -8.41917,-2.15621 -17.65668,-3.11317 -24.78964,-8.0783 -4.83746,-3.36728 -8.22948,-8.68837 -10.97526,-13.86362 -2.08724,-3.93401 -3.54076,-7.41109 -4.40777,-11.38815 -0.67992,-3.11884 -0.57422,-9.55905 -0.57422,-9.55905 z"
   id="path1264"
   sodipodi:nodetypes="ccccccsssssc" /><path
   style="fill:none;stroke:#000000;stroke-width:1.02767px;stroke-linecap:butt;stroke-linejoin:miter;stroke-opacity:1"
   d="M 287.88085,101.48987 H 766.56621"
   id="path1284"
   sodipodi:nodetypes="cc" /><path
   style="fill:none;stroke:#000000;stroke-width:1.02767px;stroke-linecap:butt;stroke-linejoin:miter;stroke-opacity:1"
   d="m 396.33511,318.56548 h 275.406"
   id="path1286"
   sodipodi:nodetypes="cc" /><path
   style="fill:none;stroke:#000000;stroke-width:1.02767px;stroke-linecap:butt;stroke-linejoin:miter;stroke-opacity:1"
   d="m 808.46074,102.92871 c 0,0 5.9121,-14.05762 9.50328,-20.141861 6.24979,-10.588551 13.39852,-20.461562 21.10717,-29.564671 13.01682,-15.37152 25.71944,-32.454575 42.1772,-41.972944 12.83748,-7.4245942 27.60697,-10.0373272 41.85587,-10.49481123 15.06084,-0.483564 30.86116,1.02458303 44.673,8.23805823 11.121,5.808126 20.61215,16.057921 28.54295,27.059753 7.66049,10.62687 13.87769,23.161545 17.57429,36.488105 4.4199,15.933991 4.7948,33.231601 4.9643,50.021861 0.1768,17.51733 -0.8974,35.23647 -4.1241,52.32289 -4.4248,23.43001 -11.7156,46.18491 -20.67481,67.67419 -8.7404,20.96449 -18.53729,41.90855 -31.94166,58.97171 -9.63232,12.26152 -34.12961,30.15512 -34.12961,30.15512"
   id="path1288"
   sodipodi:nodetypes="csssssssssssc" /><path
   style="fill:none;stroke:#000000;stroke-width:1.02767px;stroke-linecap:butt;stroke-linejoin:miter;stroke-opacity:1"
   d="m 865.54544,122.0103 -34.16042,-17.50553 -28.19287,-1.91216 -36.62594,-1.10274 -35.81056,70.65473 -15.19618,35.85898 c 0,0 24.14907,10.05694 36.85358,12.86852 42.63162,9.43462 87.22428,6.13602 130.33953,13.0311 8.87438,1.41921 26.32615,5.81829 26.32615,5.81829 0,0 -11.41175,-65.80964 -26.13433,-95.26227 -4.23308,-8.46829 -17.39896,-22.44892 -17.39896,-22.44892 z"
   id="path1292"
   sodipodi:nodetypes="ccccccsscsc" /><path
   style="fill:none;stroke:#000000;stroke-width:1.02767px;stroke-linecap:butt;stroke-linejoin:miter;stroke-opacity:1"
   d="m 908.90866,261.9246 c -14.90518,-7.33225 -31.40718,-7.58007 -47.34252,-10.12985 -25.97853,-4.15676 -78.47947,-8.39255 -78.47947,-8.39255 l -84.93461,-5.43741 -37.04502,74.3832 -2.9951,6.21749 c 0,0 129.7366,-2.92442 194.04467,-10.73313 5.38953,-0.65443 10.7458,-1.67167 16.00517,-3.01863 8.41917,-2.15621 17.89878,-2.78229 24.78964,-8.0783 4.64513,-3.57005 7.4273,-8.87793 10.04415,-13.98801 1.82473,-3.56325 4.22105,-7.41969 5.33887,-11.26376 0.89131,-3.06513 3.43851,-8.15003 0.57422,-9.55905 z"
   id="path1294"
   sodipodi:nodetypes="ssccccssssss" /><path
   style="opacity:1;fill:#20221f;fill-opacity:1;stroke:#000000;stroke-width:0;stroke-opacity:1"
   d="M 89.901385,1043.0497 C 51.120844,1028.2274 26.779773,979.55292 26.705262,924.73816 c -0.02683,-19.73531 7.500083,-83.46075 19.625415,-156.87527 10.010309,-60.60883 32.750067,-178.8554 35.554651,-186.82711 0.817815,-2.32455 5.251509,8.08641 10.198999,15.96393 54.661393,87.0333 126.458083,185.19303 157.975213,221.58253 4.35584,5.02923 9.62016,11.21075 10.65491,12.24515 L 282.5,850.79982 270.63232,861.07967 c -2.03922,1.76637 -4.399,4.33811 -6.86286,8.08522 -7.45471,11.33731 -19.73625,34.26035 -48.72183,89.81381 -28.99495,55.5714 -38.84733,69.8604 -58.75364,80.6948 -10.52791,5.73 -19.35414,9.0786 -35.10656,9.6624 -12.5899,0.4666 -25.260689,-3.9833 -31.286045,-6.2862 z"
   id="path1320"
   sodipodi:nodetypes="ssssssccssssss" /><path
   style="opacity:1;fill:#3b3b3b;fill-opacity:1;stroke:#121212;stroke-width:1.68413;stroke-opacity:1"
   d=""
   id="path1326" /><path
   style="opacity:1;fill:#3b3b3b;fill-opacity:1;stroke:#000000;stroke-width:0;stroke-opacity:1"
   d="m 138.81233,436.14206 c 0.21748,-0.69262 0.7531,-2.92046 1.94059,-5.29196 7.37903,-14.73636 19.26824,-27.90919 34.8344,-38.16487 3.81894,-2.51609 5.85687,-3.54224 9.70119,-5.68509 29.69601,-16.5528 71.96426,-26.20708 122.31518,-27.87295 2.49708,-0.0826 8.56877,-0.16798 11.88456,-0.17343 6.37619,-0.0105 7.71418,0.23428 10.5988,0.96961 7.33708,1.87045 19.9332,7.12156 38.42333,15.71366 4.27028,1.98434 5.04118,2.48573 4.47404,2.58916 -0.31975,0.0583 -4.2958,0.40431 -7.16131,0.53416 -13.19154,0.59778 -31.76437,1.70089 -46.38574,2.92088 -68.93447,5.75182 -116.54811,16.15028 -143.66353,31.71267 -2.96636,1.70249 -4.78573,2.58619 -9.50067,5.80187 -8.30679,5.66538 -18.18384,11.91045 -24.93362,15.76503 -0.90059,0.5143 -1.86291,1.07097 -2.13849,1.23705 L 138.7,436.49981 Z"
   id="path1330"
   sodipodi:nodetypes="sssssscsssssssscs" /><path
   style="opacity:1;fill:#3b3b3b;fill-opacity:1;stroke:none;stroke-width:0;stroke-opacity:1"
   d="m 909.6042,435.71402 c -9.87144,-5.81392 -17.23177,-10.10098 -26.70487,-16.43841 -7.02111,-4.69706 -11.25203,-6.98493 -16.67517,-9.65548 -32.24722,-15.87973 -85.19827,-25.4901 -165.57978,-30.28955 -3.87964,-0.23165 -21.45583,-1.14338 -24.33622,-1.27015 -1.08245,-0.0476 25.57748,-11.99148 34.14889,-15.27939 4.23673,-1.62517 8.35215,-3.08194 10.99929,-3.77654 1.87062,-0.49084 3.51887,-0.31274 13.59939,-0.29756 35.94962,0.0542 72.31633,5.85992 100.35572,15.37117 35.26438,11.96204 59.72087,30.05022 72.48708,53.83754 1.30939,2.43979 3.84287,8.4153 3.53114,8.63887 -0.0331,0.0238 -1.13077,-0.43135 -1.82547,-0.8405 z"
   id="path1332"
   sodipodi:nodetypes="ssssssssssss" /><path
   style="opacity:1;fill:#454644;fill-opacity:1;stroke:none;stroke-width:0;stroke-opacity:1"
   d="m 395.45596,509.87628 c -6.48502,-1.8592 -10.93652,-5.6855 -13.79382,-11.50404 -1.42805,-2.90806 -2.00722,-4.68505 -2.00722,-9.02233 0,-4.22426 0.72494,-6.37076 2.03455,-9.16375 2.1242,-4.53029 5.32048,-7.67886 9.786,-10.10035 3.45943,-1.87593 4.33529,-2.11449 9.31057,-2.11449 4.866,0 6.1706,0.81029 9.7833,2.58721 10.37932,5.1051 14.4768,17.77016 9.3676,28.14973 -2.01976,4.10321 -5.25707,7.6088 -9.50131,9.65682 -4.68671,2.26152 -10.49957,2.7956 -14.97967,1.5112 z m 18.0159,-20.73944 v -2.084 h -12.50402 -12.50403 v 2.084 2.08401 h 12.50403 12.50402 z"
   id="path1338"
   sodipodi:nodetypes="ssssssssssccccccccc" /><path
   style="opacity:1;fill:#454644;fill-opacity:1;stroke:none;stroke-width:0;stroke-opacity:1"
   d="m 643.89381,510.1283 c -16.00277,-4.30084 -21.37493,-23.94309 -9.79788,-35.82407 1.36762,-1.40352 4.05762,-3.34652 5.97776,-4.31776 3.069,-1.55235 4.16297,-1.76629 9.04668,-1.76926 4.7407,-0.003 6.07338,0.23936 9.08653,1.65168 8.75447,4.10336 14.04024,14.18549 12.17527,23.22327 -1.81288,8.78543 -7.95134,15.16261 -16.54121,17.18454 -4.31764,1.01628 -5.68968,0.99582 -9.94715,-0.1484 z m 7.38702,-13.20979 v -5.55574 h 5.55551 5.5555 v -2.16057 -2.16056 h -5.5555 -5.55551 v -5.24709 -5.24711 h -2.16046 -2.16048 v 5.24711 5.24709 h -5.24686 -5.24687 v 2.16056 2.16057 h 5.24687 5.24686 v 5.55574 5.55575 h 2.16048 2.16046 z"
   id="path1340" /><path
   style="opacity:1;fill:#454644;fill-opacity:1;stroke:none;stroke-width:0;stroke-opacity:1"
   d="m 589.20372,584.95719 c -4.25344,-1.78823 -7.33824,-4.25637 -9.64428,-7.16798 -3.26193,-4.11853 -4.4165,-7.83555 -4.41985,-13.14327 -0.004,-5.96137 2.0676,-11.00718 6.21309,-15.07644 8.27191,-8.1198 21.67702,-8.45496 29.94893,-0.33516 4.15996,4.08346 6.18998,9.80428 6.19669,15.74469 0.006,5.55279 -1.87228,10.36674 -5.60025,14.49316 -5.32618,5.89543 -15.60753,8.46445 -22.69433,5.485 z m 17.18736,-16.03276 v -5.65658 h 1.78629 c 0.98246,0 1.78629,-0.20533 1.78629,-0.45628 0,-0.25096 -3.08135,-3.5289 -6.84744,-7.2843 l -6.84744,-6.82802 -6.84744,6.82802 c -3.7661,3.7554 -6.84745,7.03334 -6.84745,7.2843 0,0.25095 0.80383,0.45628 1.78629,0.45628 h 1.78629 v 5.65658 5.65659 h 10.12231 10.1223 z"
   id="path1342"
   sodipodi:nodetypes="sscsscssccssscssscccccc" /><path
   style="opacity:1;fill:#454644;fill-opacity:1;stroke:none;stroke-width:0;stroke-opacity:1"
   d="m 592.49048,566.79368 0.0388,-3.67426 4.15382,-0.071 3.5169,-0.0486 0.0319,3.68856 -0.0319,3.71144 -3.8388,-8.5e-4 -3.8612,8.5e-4 z"
   id="path1344"
   sodipodi:nodetypes="ccccccccc" /><path
   style="opacity:1;fill:#454644;fill-opacity:1;stroke:none;stroke-width:0;stroke-opacity:1"
   d="m 451.39084,577.72034 c -2.71039,-0.5432 -5.45219,-2.01231 -7.54207,-4.33676 -5.69656,-6.33595 -3.94544,-16.32095 3.86975,-20.47481 1.44094,-0.76587 3.47455,-1.38574 6.37542,-1.38505 3.06777,7.3e-4 4.22644,0.63601 6.07554,1.60638 2.75862,1.44768 5.06775,4.59791 5.96889,7.31097 0.92317,2.7794 0.69844,7.94508 -0.51419,10.29957 -2.56241,4.97531 -8.96363,8.03584 -14.23334,6.9797 z"
   id="path1346"
   sodipodi:nodetypes="ssssssss" /><path
   style="opacity:1;fill:#444543;fill-opacity:1;stroke:#121212;stroke-width:1.19086;stroke-opacity:1"
   d=""
   id="path1352" /><path
   style="opacity:1;fill:#20221f;fill-opacity:1;stroke:#000000;stroke-width:0;stroke-opacity:1"
   d="m 959.69862,1043.0497 c 38.78058,-14.8223 63.12158,-63.49678 63.19608,-118.31154 0.027,-19.73531 -7.5,-83.46075 -19.6254,-156.87527 -10.0103,-60.60883 -32.75,-178.8554 -35.55463,-186.82711 -0.81781,-2.32455 -5.25151,8.08641 -10.199,15.96393 -54.66139,87.0333 -126.45808,185.19303 -157.97521,221.58253 -4.35584,5.02923 -9.62016,11.21075 -10.65491,12.24515 L 767.1,850.79982 l 11.86768,10.27985 c 2.03922,1.76637 4.399,4.33811 6.86286,8.08522 7.45471,11.33731 19.73625,34.26035 48.72183,89.81381 28.99495,55.5714 38.84733,69.8604 58.75364,80.6948 10.52791,5.73 19.35414,9.0786 35.10656,9.6624 12.5899,0.4666 25.26069,-3.9833 31.28605,-6.2862 z"
   id="path2106"
   sodipodi:nodetypes="ssssssccssssss" /><style
   type="text/css"
   id="style280-6">
	.st0{opacity:0.1;}
	.st1{fill:#1ABC9C;}
	.st2{fill:#CCCCCC;}
	.st3{fill:#FFFFFF;}
</style><style
   type="text/css"
   id="style1175-5">
	.st0{opacity:0.1;}
	.st1{fill:#1ABC9C;}
	.st2{fill:#CCCCCC;}
	.st3{fill:#FFFFFF;}
</style><g
   id="g3161"
   transform="translate(-2057.3322,-706.68848)"><path
     style="fill:#4d4d4d;stroke-width:1"
     d=""
     id="path625-9" /><path
     style="fill:#4d4d4d;stroke-width:0.999999"
     d=""
     id="path649-2" /><path
     style="fill:#4d4d4d;stroke-width:0.999999"
     d=""
     id="path657-2" /><path
     style="fill:#333333;stroke-width:1"
     d=""
     id="path679-8" /><path
     style="fill:#333333;stroke-width:1"
     d=""
     id="path697-6" /><path
     style="fill:#333333;stroke-width:0.999999"
     d=""
     id="path733-2" /><path
     class="st1"
     d="m 2857.7582,1215.7524 h -4.5 l -6.3,-10.4 -6.3,10.4 h -4.4 l 8.6,-13.2 -7.9,-12.6 h 4.2 l 5.9,9.7 5.9,-9.7 h 4 l -7.9,12.4 z"
     id="path370"
     style="fill:#ffffff" /><path
     class="st1"
     d="m 2779.9248,1257.09 -9.3,16.5 v 9.2 h -3.5 v -9.3 l -9.3,-16.5 h 4.2 l 5.1,9.4 1.9,3.8 1.7,-3.4 5.2,-9.8 z"
     id="path372"
     style="fill:#ffffff" /><path
     class="st1"
     d="m 2936.0178,1282.6378 h -3.8 l -1.8,-5.6 h -10.7 l -1.8,5.6 h -3.6 l 8.5,-25.7 h 4.8 z m -6.6,-8.7 -4.4,-13.8 -4.4,13.8 z"
     id="path374"
     style="fill:#ffffff" /><path
     class="st1"
     d="m 2856.4301,1344.0269 c 0,1.1 -0.2,2.3 -0.7,3.3 -0.5,1 -1.2,1.8 -2,2.4 -1,0.7 -2.1,1.2 -3.2,1.5 -1.4,0.4 -2.8,0.5 -4.2,0.5 h -6.7 v -25.7 h 7.4 c 5.7,0 8.6,2.1 8.6,6.3 0,1.3 -0.3,2.5 -1,3.6 -0.8,1.1 -1.9,1.9 -3.2,2.2 0.7,0.1 1.4,0.4 2,0.7 0.6,0.3 1.2,0.7 1.6,1.2 0.5,0.5 0.9,1.1 1.1,1.8 0.2,0.6 0.4,1.4 0.3,2.2 z m -4.5,-11.3 c 0,-0.5 -0.1,-1 -0.2,-1.5 -0.2,-0.5 -0.4,-0.9 -0.8,-1.2 -0.5,-0.4 -1,-0.6 -1.6,-0.8 -0.8,-0.2 -1.7,-0.3 -2.5,-0.3 h -3.7 v 8.1 h 3.5 c 0.7,0 1.5,-0.1 2.2,-0.3 0.6,-0.1 1.2,-0.4 1.7,-0.8 0.5,-0.3 0.8,-0.8 1.1,-1.3 0.2,-0.6 0.3,-1.2 0.3,-1.9 z m 0.8,11.4 c 0,-0.6 -0.1,-1.2 -0.4,-1.8 -0.3,-0.5 -0.7,-1 -1.2,-1.3 -0.6,-0.4 -1.2,-0.7 -1.9,-0.8 -0.8,-0.2 -1.7,-0.3 -2.5,-0.3 h -3.6 v 8.9 h 3.7 c 1.6,0.1 3.2,-0.3 4.5,-1.1 1,-0.9 1.5,-2.2 1.4,-3.6 z"
     id="path376"
     style="fill:#ffffff" /></g><style
   type="text/css"
   id="style1175-2">
	.st0{opacity:0.1;}
	.st1{fill:#1ABC9C;}
	.st2{fill:#CCCCCC;}
	.st3{fill:#FFFFFF;}
</style><g
   id="g6246"
   transform="translate(-181.90137,798.00717)"
   style="fill:#000000"><path
     class="st1"
     d="m 816.4233,-34.702478 c -31.6,0 -57.2,-25.6 -57.2,-57.19999 0,-31.600002 25.6,-57.200002 57.2,-57.200002 31.6,0 57.2,25.6 57.2,57.200002 0,31.49999 -25.6,57.09999 -57.2,57.19999 z m 0,-112.499992 c -30.5,0 -55.2,24.7 -55.2,55.200002 0,30.49999 24.7,55.19999 55.2,55.19999 30.5,0 55.2,-24.7 55.2,-55.19999 0,0 0,0 0,0 0,-30.400002 -24.7,-55.100002 -55.2,-55.200002 z"
     id="path6242"
     style="fill:#000000" /><path
     class="st1"
     d="m 816.50147,-45.055391 c -25.5864,0 -46.36838,-20.872572 -46.36838,-46.570513 0,-25.697956 20.78198,-46.570526 46.36838,-46.570526 25.58642,0 46.3684,20.87257 46.3684,46.570526 0,25.697941 -20.78198,46.458295 -46.3684,46.570513 z m 0,-91.008899 c -24.35737,0 -44.13377,19.86262 -44.13377,44.326168 0,24.463541 19.7764,44.32615 44.13377,44.32615 24.35738,0 44.13377,-19.862609 44.13377,-44.32615 v 0 c 0,-24.463548 -19.77639,-44.326168 -44.13377,-44.326168 z"
     id="path6244"
     style="fill:#000000;stroke-width:1.11974" /></g><g
   id="g6252"
   transform="translate(-181.90137,798.00717)"
   style="fill:#000000"><path
     class="st1"
     d="m 816.4233,-34.702478 c -31.6,0 -57.2,-25.6 -57.2,-57.19999 0,-31.600002 25.6,-57.200002 57.2,-57.200002 31.6,0 57.2,25.6 57.2,57.200002 0,31.49999 -25.6,57.09999 -57.2,57.19999 z m 0,-112.499992 c -30.5,0 -55.2,24.7 -55.2,55.200002 0,30.49999 24.7,55.19999 55.2,55.19999 30.5,0 55.2,-24.7 55.2,-55.19999 0,0 0,0 0,0 0,-30.400002 -24.7,-55.100002 -55.2,-55.200002 z"
     id="path6248"
     style="fill:#000000" /><path
     class="st1"
     d="m 816.50147,-45.055391 c -25.5864,0 -46.36838,-20.872572 -46.36838,-46.570513 0,-25.697956 20.78198,-46.570526 46.36838,-46.570526 25.58642,0 46.3684,20.87257 46.3684,46.570526 0,25.697941 -20.78198,46.458295 -46.3684,46.570513 z m 0,-91.008899 c -24.35737,0 -44.13377,19.86262 -44.13377,44.326168 0,24.463541 19.7764,44.32615 44.13377,44.32615 24.35738,0 44.13377,-19.862609 44.13377,-44.32615 v 0 c 0,-24.463548 -19.77639,-44.326168 -44.13377,-44.326168 z"
     id="path6250"
     style="fill:#000000;stroke-width:1.11974" /></g><path
   class="st1"
   d="m 118.7,1050.4998 c -53.4,0 -93.7,-53.6 -93.7,-124.69998 0,-48.7 29.9,-227 55.6,-347.8 0.1,-0.5 0.6,-0.9 1.2,-0.8 0.3,0.1 0.5,0.2 0.7,0.5 53.7,90.5 161.9,245.4 202.4,272.4 0.5,0.3 0.6,0.9 0.3,1.4 l -0.3,0.3 c -17.4,9.7 -27.3,28.8 -38.8,50.9 -3.1,6 -6.3,12.1 -9.8,18.4 -7.3,13.1 -13.7,26.1 -19.8,38.7 -24,48.69998 -44.6,90.69998 -97.8,90.69998 z M 82.1,580.89982 c -25.6,120.7 -55.1,296.6 -55.1,344.9 0,70 39.4,122.79998 91.7,122.79998 52,0 72.3,-41.5 95.9,-89.59998 6.2,-12.6 12.6,-25.7 19.9,-38.8 3.5,-6.3 5.51428,-12.24367 8.61428,-18.24367 11.3,-21.8 21.2,-40.7 38.2,-51 C 239.91428,821.65615 135.7,670.89982 82.1,580.89982 Z"
   id="path330"
   style="fill:#000000;stroke:none;stroke-width:0"
   sodipodi:nodetypes="sscccccccccscssccccc" /><path
   class="st1"
   d="m 931.3,1050.4998 c -53.3,0 -73.9,-42 -97.7,-90.69998 -6.2,-12.6 -12.5,-25.6 -19.8,-38.7 -3.5,-6.3 -6.7,-12.5 -9.8,-18.4 -11.5,-22.1 -21.4,-41.2 -38.8,-50.9 -0.5,-0.3 -0.7,-0.9 -0.4,-1.4 0.1,-0.1 0.2,-0.3 0.3,-0.3 40.6,-27 148.7,-181.8 202.4,-272.4 0.3,-0.5 0.9,-0.6 1.4,-0.3 0.2,0.1 0.4,0.4 0.5,0.7 25.7,120.9 55.6,299.1 55.6,347.8 0,70.99998 -40.3,124.59998 -93.7,124.59998 z M 767.5,850.79982 c 17.1,10.2 26.9,29.2 38.2,51 3.1,6 6.3,12.1 9.8,18.4 7.3,13.1 13.7,26.1 19.9,38.7 23.5,48.09998 43.9,89.59998 95.9,89.59998 52.3,0 91.7,-52.79998 91.7,-122.79998 0,-48.2 -29.5,-224.2 -55.1,-344.9 -53.6,90.1 -159,240.7 -200.4,270 z"
   id="path332"
   style="fill:#000000;stroke:none;stroke-width:0" /><path
   class="st3"
   d="m 765.4,850.99982 c -0.1,0 -0.2,0 -0.2,-0.1 -8.6,-4.8 -18.6,-7.2 -30.7,-7.2 l -395.10335,0.27402 -24.50466,0.20066 C 312.32037,844.1956 293,846.09982 284.4,850.89982 c -0.2,0.1 -0.4,0.1 -0.5,0 -40.8,-27.1 -149.1,-182.2 -202.9,-272.9 -0.1,-0.1 -0.1,-0.2 -0.1,-0.4 11.3,-53.30001 20.7,-90.00001 27.1,-106.10001 1.2,-3.1 2.9,-5.9 4.9,-8.5 l 12.7,-16.2 c 2.9,-3.7 6.5,-6.8 10.6,-9 v 0 0 c 7.1,-3.9 18.5,-10.6 32.8,-20.5 32,-22 99.8,-34.9 207.3,-39.4 49.5,-2.1 100.5,-2.3 148.4,-2.3 47.9,0 98.8,0.2 148.4,2.3 107.5,4.6 175.3,17.5 207.3,39.4 14.4,9.9 25.8,16.6 32.9,20.5 4.1,2.2 7.7,5.3 10.6,9 l 12.7,16.2 c 2.1,2.6 3.7,5.5 4.9,8.6 6.4,16.1 15.7,52.8 27.1,106.10001 0,0.1 0,0.3 -0.1,0.4 -53.7,90.6 -162,245.7 -202.8,272.8 -0.1,0.1 -0.2,0.1 -0.3,0.1 z M 82,577.69982 c 53.6,90.4 161.4,244.7 202.2,272.2 8.7,-4.8 18.8,-7.2 30.9,-7.2 h 419.4 c 12.1,0 22.2,2.3 30.9,7.2 40.8,-27.5 148.6,-181.8 202.2,-272.2 -11.3,-53.10001 -20.6,-89.70001 -27,-105.70001 -1.2,-3 -2.8,-5.8 -4.8,-8.3 l -12.7,-16.2 c -2.8,-3.6 -6.3,-6.5 -10.3,-8.7 -7.1,-3.9 -18.5,-10.7 -33,-20.6 -31.8,-21.9 -99.35112,-34.43567 -206.75112,-39.03567 -49.5,-2.1 -100.49968,-1.9233 -148.39968,-1.9233 -38.06383,0 -77.6616,0.0368 -117.31701,1.00603 -8.71122,0.2129 -17.6639,0.19536 -26.33551,0.5418 -1.52925,0.0611 -2.97996,0.25114 -4.50687,0.31579 -107.3,4.6 -175.08981,17.19535 -206.88981,39.09535 -14.4,9.9 -25.8,16.6 -32.9,20.5 0,0 -0.1,0 -0.1,0.1 -4,2.2 -7.5,5.2 -10.3,8.7 l -12.7,16.2 c -2,2.5 -3.6,5.3 -4.8,8.3 -6.2,16 -15.5,52.6 -26.8,105.70001 z"
   id="path328"
   style="fill:#000000;stroke:none;stroke-width:0"
   sodipodi:nodetypes="scscscccccccscsccscccccccccsccssccscccccssscccccccc" /><path
   class="st1"
   d="m 136.7,439.69981 c -0.6,0 -1,-0.4 -1,-1 0,-0.1 0,-0.2 0.1,-0.3 27.3,-73.2 138.4,-81.3 186,-81.3 0.3,0 0.6,0 1,0 h 1.2 c 6.6,0 25.5,8.1 40.3,14.9 0,0 0.1,0 0.1,0 7.2,3.3 12.6,6 12.7,6 0.5,0.2 0.7,0.8 0.5,1.3 -0.2,0.3 -0.5,0.5 -0.9,0.6 -107.2,4.6 -174.8,17.4 -206.5,39.2 -14.6,10 -26,16.7 -33,20.6 -0.1,-0.1 -0.3,0 -0.5,0 z m 185.1,-80.7 c -46.6,0 -154.6,7.8 -183.1,77.5 7,-4 17.5,-10.3 30.4,-19.1 31.6,-21.7 98.2,-34.6 203.6,-39.4 -2.2,-1.1 -5.4,-2.5 -8.9,-4.2 0,0 -0.1,0 -0.1,0 -20.6,-9.5 -34.7,-14.7 -39.5,-14.7 H 323 c -0.5,-0.1 -0.9,-0.1 -1.2,-0.1 z"
   id="path360"
   style="fill:#000000;stroke:#000000;stroke-width:0;stroke-opacity:1" /><path
   class="st1"
   d="m 913.3,439.69981 c -0.2,0 -0.3,0 -0.5,-0.1 -7,-3.9 -18.5,-10.7 -33,-20.6 -31.7,-21.8 -99.3,-34.6 -206.5,-39.2 -0.6,0 -1,-0.5 -1,-1 0,-0.4 0.2,-0.7 0.6,-0.9 0.1,0 5.4,-2.6 12.7,-6 21.6,-9.9 35.2,-14.9 40.4,-14.9 h 1.2 c 0.3,0 0.6,0 1,0 47.6,0 158.7,8.1 186.1,81.4 0.2,0.5 -0.1,1.1 -0.6,1.3 -0.2,0 -0.3,0 -0.4,0 z m -235.9,-61.7 c 105.3,4.7 171.9,17.6 203.6,39.4 12.9,8.8 23.3,15.1 30.4,19.1 -28.6,-69.7 -136.6,-77.5 -183.2,-77.5 -0.3,0 -0.6,0 -1,0 H 726 c -4.8,0 -18.8,5.2 -39.5,14.7 -3.7,1.7 -6.9,3.2 -9.1,4.3 z"
   id="path362"
   style="fill:#000000;stroke:none;stroke-width:0" /><path
   style="opacity:0.799474;fill:#444542;fill-opacity:1;stroke:#000000;stroke-width:0;stroke-opacity:1"
   d="m 350.75975,774.19055 c -0.54927,-0.17612 -0.0304,-12.31917 -0.12645,-24.6074 l -0.16419,-21.00762 -1.8128,-2.08455 c -1.57803,-1.8146 -1.66877,-1.70163 -23.52296,-1.70163 -16.47213,0 -23.55123,0.39462 -24.17546,-0.22962 -1.27311,-1.2731 -1.62935,-41.11494 -0.35204,-42.17504 0.60567,-0.50266 10.32741,-0.77493 25.10191,-0.48637 l 21.46163,-0.58137 1.38487,-1.7435 c 1.25128,-1.57532 1.30939,-2.1523 1.30939,-22.89787 0,-19.54641 -0.16902,-23.2189 0.85054,-24.23846 1.03624,-1.03624 4.51783,-0.84054 21.40164,-0.40154 10.58355,0.27519 19.61437,0.44536 20.11141,0.84002 0.67278,0.53419 0.3109,7.0564 0.3109,23.63141 0,11.97674 0.63693,21.62246 0.87851,22.25201 1.12567,2.93343 2.76338,2.82585 25.60261,2.82585 16.02364,0 23.0059,0.34496 23.6292,0.96825 1.20955,1.20956 1.1588,40.71383 -0.0507,41.92338 -0.62488,0.62488 -7.7734,0.39847 -24.56401,0.39847 -22.63183,0 -21.53798,-0.26923 -23.4191,1.22892 l -2.29007,1.82382 0.41436,21.53509 c 0.23712,12.32354 0.51219,23.26414 0.16846,23.95969 -0.56067,1.13434 -2.92867,1.71623 -21.01702,1.71623 -15.01343,0 -17.03811,0.36407 -17.79796,0.12042 z m 25.10886,-20.28089 3.69537,-6.52399 -7.50066,-0.20164 c -4.12537,-0.11091 -7.64608,-0.0562 -7.8238,0.12148 -0.37461,0.37462 6.97415,13.16997 7.54951,13.14489 0.21131,-0.009 2.04713,-2.95256 4.07958,-6.54074 z M 327.97907,703.1396 v -7.83007 l -4.06587,2.30176 c -7.06587,4.0001 -9.51691,5.66817 -9.03576,6.14932 0.74429,0.74428 11.98533,7.17681 12.5713,7.19374 0.29168,0.008 0.53033,-3.50821 0.53033,-7.81475 z m 94.81485,4.01649 c 5.61176,-3.29722 6.30966,-3.91042 5.15427,-4.52876 -0.73498,-0.39336 -3.80043,-2.172 -6.81211,-3.95256 l -5.47577,-3.23737 v 7.76614 c 0,4.27137 0.14468,7.76613 0.32151,7.76613 0.17683,0 3.24228,-1.71611 6.8121,-3.81358 z m -44.44726,-49.3962 c -0.75161,-1.26396 -2.56476,-4.31 -4.02923,-6.76899 l -2.66268,-4.47089 -1.2059,1.99602 c -0.66324,1.09781 -2.40361,4.14385 -3.86748,6.76898 l -2.66157,4.77298 h 7.8967 7.8967 z"
   id="path2112"
   sodipodi:nodetypes="sscssssscsssssssssssscsssssscsscsscsscsssscssssscsscccs" /><path
   style="opacity:1;fill:#454644;fill-opacity:1;stroke:none;stroke-width:0;stroke-opacity:1"
   d="m 437.35424,581.29672 -1.08639,-1.60879 0.0495,-14.98492 -0.41398,-14.40897 1.06048,-1.68135 2.00158,-1.31138 14.833,-0.0381 c 14.06192,-0.0362 15.60326,-0.18545 16.19055,0.86734 l 1.1674,1.75439 -0.0867,14.72169 c -0.0812,13.78808 0.21407,16.34726 -0.41314,16.97452 -0.61829,0.61829 -3.1575,0.44351 -16.54008,0.52112 l -14.96612,0.0868 z m 22.92584,-3.4701 c 3.09349,-1.5135 5.88301,-5.06063 7.07806,-8.23205 1.29928,-3.44801 1.15335,-8.33121 -0.43733,-11.42296 -2.22354,-4.3218 -5.13707,-6.72337 -9.82905,-7.9254 -11.07143,-2.83637 -20.55238,7.01721 -17.71247,18.10246 1.26932,4.95463 4.06179,7.84575 8.8494,9.86399 2.04825,0.86345 2.72763,1.4466 5.99421,1.33037 3.13256,-0.11146 4.1083,-0.76291 6.05718,-1.71641 z"
   id="path1336"
   sodipodi:nodetypes="ccccccsscsssccssssssss" /><path
   class="st1"
   d="m 469.86081,585.31506 -32.17259,0.57149 c -2.79956,0.0497 -5.35157,-3.04452 -5.1647,-5.83827 L 434.5,550.49982 c 0.18687,-2.79376 2.59239,-7.14622 5.39057,-7.24738 l 28.15713,-1.018 c 2.79817,-0.10117 6.75127,8.48687 6.73887,11.28684 l -0.11689,26.38609 c -0.0124,2.79997 -2.00932,5.35796 -4.80887,5.40769 z M 439.6,547.49982 c -1.7,0 -3.1,1.4 -3.1,3.1 v 28.2 c 0,1.7 1.4,3.1 3.1,3.1 h 28.2 c 1.7,0 3.1,-1.4 3.1,-3.1 v -28.2 c 0,-1.7 -1.4,-3.1 -3.1,-3.1 z"
   id="path358"
   style="fill:#000000;stroke:none;stroke-width:0"
   sodipodi:nodetypes="ssssssssssssssssss" /><path
   style="opacity:1;fill:#121212;fill-opacity:1;stroke:none;stroke-width:0;stroke-opacity:1"
   d="M 262.50166,830.10759 C 244.24758,811.11682 214.58124,773.7454 183.66724,731.0786 150.88651,685.83541 116.6707,634.66231 92.005119,594.01656 L 81.8,577.19982 l 5.257509,-23.44168 3.352955,-14.46615 c 4.957804,-21.3902 8.899419,-36.90855 12.268796,-48.5026 3.04238,-10.46885 5.35584,-19.13152 9.14145,-25.14387 2.48317,-3.94383 6.02553,-7.48951 8.85837,-11.09885 5.7754,-7.35846 9.66251,-12.50883 11.82422,-13.47062 0.46368,-0.2063 2.60002,-1.74907 3.88232,-2.25714 4.63496,-1.83646 12.99593,-6.22816 19.94628,-10.67346 10.55698,-6.75203 16.67966,-12.26572 27.36027,-17.21005 38.9392,-18.02594 88.69183,-25.56733 184.49216,-31.56997 48.87565,-3.06244 262.01808,-3.1463 316.31734,-0.0684 95.0191,5.38606 142.66061,13.37877 180.89807,31.17065 8.5408,3.97403 15.95358,8.79384 24.06384,13.77994 13.4002,8.2383 21.70209,12.94269 27.49527,17.288 8.16129,6.12157 10.27897,11.49599 17.73343,19.91564 5.02772,5.6787 7.52785,12.21012 10.61828,23.23356 2.37202,8.46087 5.22197,19.16259 9.58627,36.73997 6.45918,26.01455 12.77442,53.76144 12.77442,56.14817 0,4.50646 -20.43062,34.6723 -47.16826,74.94221 -17.41857,26.23433 -39.68786,58.53506 -58.45143,84.39364 -18.7,27.60148 -47.28252,63.71724 -69.5773,87.75077 -0.16981,0.18305 -0.97937,1.13358 -1.14841,1.31522 -1.21549,1.30612 -1.54999,2.33678 -2.56142,3.48432 -3.85443,4.37318 -7.14619,7.20254 -10.399,9.81016 -1.50516,1.20661 -3.00255,2.87265 -4.78392,4.41824 -2.37042,2.05668 -5.09247,4.12174 -7.53662,6.75954 -0.93701,-0.22972 -6.76483,-3.21051 -7.59407,-3.543 l -4.99221,-1.83981 -31.87894,-2.16022 c -24.12167,2.90388 -54.236,-0.28978 -79.89263,-0.17807 -3.49775,0.0152 -2.27306,-0.16267 -11.11902,-0.0628 -26.1018,0.29468 -44.65554,0.38108 -63.1151,0.42308 -53.63268,0.12176 -88.22706,0.45084 -151.44647,0.62478 -23.69721,0.36382 -50.28982,-0.769 -75.95584,-0.83882 -20.12032,-0.0548 -39.87616,-0.30918 -55.85061,7.02762 l -11.69327,-9.38338 z m 133.53232,-78.4489 1.19086,-23.81719 23.81719,-1.19085 23.81718,-1.19086 v -22.62633 -22.62633 l -24.33021,-0.67784 -24.33021,-0.67784 -0.67783,-24.33021 -0.67784,-24.33021 -23.1375,-0.68067 -23.13749,-0.68065 -0.67969,24.49784 -0.6797,24.49786 -24.41262,0.67874 -24.41261,0.67877 v 23.73385 23.73388 h 23.56236 c 19.28869,0 23.8246,0.68331 25.00805,3.76737 0.79514,2.07205 1.44568,13.3645 1.44568,25.09429 l 0.4034,20.75476 22.81836,-0.10952 23.22176,-0.68167 z m 270.31695,1.26142 c 9.13621,-5.8658 13.71653,-12.21885 17.02487,-18.24496 3.57414,-6.51026 7.79608,-12.21891 7.85093,-26.20665 0.0913,-23.28806 -9.83157,-37.72965 -22.46493,-47.30461 -5.16471,-3.9144 -11.10001,-6.86455 -17.43752,-9.06155 -4.80041,-1.66413 -9.42965,-3.08667 -16.43307,-3.07696 -9.76371,0.0135 -16.41029,2.92117 -22.76776,5.73122 -7.81361,3.45367 -14.66324,7.41246 -19.89879,13.6241 -8.19204,9.71929 -14.53643,20.26212 -14.11646,39.45278 0.26901,12.29219 2.38279,17.74867 6.1523,24.3032 1.99429,3.46771 4.07437,7.60471 8.48939,12.4198 5.01082,5.46489 15.54775,12.34376 16.38852,12.40156 0.84079,0.0579 13.42068,5.8405 20.20713,5.97858 14.26146,0.29017 22.33663,-0.59859 37.00539,-10.01651 z m 139.74492,-86.72966 c 10.49023,-4.38311 18.40382,-16.21017 20.35557,-26.61388 3.92483,-20.92116 -10.28456,-40.79439 -31.65025,-43.99838 -21.81952,-3.27204 -42.19466,14.84436 -42.19466,36.99456 0,12.87803 7.91595,27.04428 19.77641,33.02516 12.1809,6.14247 22.74637,5.17465 33.71293,0.59254 z M 277.20427,589.71676 c 4.4022,-2.85596 7.46638,-7.54028 9.15453,-10.00429 3.89756,-5.68884 5.88117,-7.33165 6.71615,-12.62071 1.18905,-7.53183 7.08793,-17.66056 1.60823,-34.15841 -5.11798,-15.40882 -10.58182,-25.09295 -23.6605,-33.26863 -14.72235,-9.20316 -34.14273,-11.94531 -49.53478,-6.37283 -13.46366,4.87432 -25.95269,14.7297 -31.49101,27.45439 -2.35071,5.40091 -7.43872,21.06926 -6.20057,31.97796 1.746,15.38313 4.02431,15.9125 10.05702,26.91496 7.86427,14.34286 21.27803,17.99271 34.68295,22.77629 10.32927,3.68602 20.38835,1.39693 28.80095,-1.4132 1.46664,-0.48992 6.1248,-2.37016 7.85976,-3.49573 z m 452.97542,7.04138 c 3.79705,-1.96354 8.2363,-6.1028 11.88452,-10.88588 8.63292,-11.31835 8.89569,-30.94681 1.12047,-41.44103 -8.53608,-11.52115 -16.65572,-16.51548 -29.56326,-16.51548 -14.10096,0 -23.57985,3.3657 -31.68532,13.99252 -18.72064,24.54403 -1.12255,59.91545 29.69132,59.91545 6.42106,0 14.75519,-3.10204 18.55227,-5.06558 z m 155.58796,0.61357 c 19.02116,-9.02614 25.09689,-35.1501 13.03606,-52.81936 -7.7435,-11.34432 -19.93395,-17.64615 -31.98757,-17.27201 -5.50456,0.17086 -11.04882,1.43361 -16.00737,4.77519 -13.79416,9.29589 -21.12543,20.03414 -19.95481,34.61626 2.27156,28.29659 29.3138,42.84785 54.91369,30.69992 z m -274.0042,-16.35355 c 15.34191,-15.34192 5.37647,-39.00423 -16.32334,-39.00423 -6.52801,0 -11.19811,2.64263 -14.93237,6.15966 -4.23253,3.9863 -7.09815,9.29018 -7.09815,16.68923 0,9.40544 5.71132,16.0601 11.85927,19.9156 3.11769,1.95517 7.04151,2.30186 10.51618,2.50689 5.48181,0.32346 10.65837,-0.9471 15.97841,-6.26715 z M 474.14897,566.26567 c 0.90205,-20.72264 -0.95185,-23.00737 -18.66886,-23.00737 -21.29023,0 -21.33863,0.0494 -21.33863,21.78661 v 18.89525 l 20.1195,0.18271 14.83849,0.15549 4.34037,-1.7217 z m 326.54775,-33.97512 c 11.11979,-3.18913 22.30016,-15.18724 25.30514,-26.3469 2.41912,-8.98395 0.87148,-16.14462 -1.99306,-23.43852 -2.03352,-5.1779 -4.88992,-9.86114 -9.23712,-13.77761 -1.66141,-1.4968 -3.72255,-3.12355 -5.97613,-4.21449 -7.31392,-3.5406 -12.70908,-5.29993 -19.16163,-5.22828 -4.65799,0.0517 -9.81293,0.81439 -15.26714,3.29031 -23.65959,10.74021 -29.52208,41.89066 -10.63237,60.78035 5.70777,5.70776 12.24597,8.3241 18.94039,9.79054 3.78493,0.82911 7.44377,0.8628 11.50298,0.59722 2.00533,-0.13121 4.3437,-0.82877 6.51894,-1.45262 z M 418.68641,504.6854 c -0.16274,0.59432 0.32344,-1.62386 0.75648,-2.28608 4.85679,-7.42707 5.08522,-17.14952 1.04856,-24.6921 -2.88468,-5.39008 -12.88343,-11.74836 -19.66088,-11.36295 -18.92297,1.07607 -30.23763,22.02677 -17.02835,37.72514 5.49536,6.53088 12.54404,8.54387 19.69176,7.81449 3.35463,-0.34232 7.79008,-2.74995 11.13376,-4.47947 2.04114,-1.05577 5.02277,-6.23984 4.5255,-4.42384 z m 247.08582,0.41903 c 1.95189,-1.95189 3.08725,-4.09639 4.03923,-6.11879 1.1885,-2.52486 1.94383,-5.03962 1.94383,-8.83261 0,-11.83725 -4.47207,-16.73854 -13.25436,-21.28002 -5.50658,-2.84756 -8.6781,-2.42563 -11.97938,-2.14441 -3.41406,0.29084 -6.94004,0.56724 -11.67627,5.30348 -7.55182,7.55184 -8.96528,10.25402 -8.40434,19.07976 0.73664,11.59008 8.25419,17.98427 18.23442,20.57041 5.69347,1.47533 9.79388,0.11812 13.35414,-1.25582 2.79403,-1.07825 4.64672,-2.226 7.74273,-5.322 z"
   id="path1318"
   sodipodi:nodetypes="sssccsssssssssssssssssscssssscsccssscsccsccccccccccccccccccsssccccssssssssssssssssssssssssssssssssssssssssssssssssssssssssccccsssssssssssssssssssssssssssssss" /><polygon
   class="st1"
   points="302.6,475.9 302.6,490.9 289.6,483.4 "
   id="polygon386"
   style="fill:#e6e6e6;stroke:none;stroke-width:0"
   transform="translate(25,219.99981)" /><polygon
   class="st1"
   points="354.2,527.4 346.7,540.4 339.2,527.4 "
   id="polygon2110"
   style="fill:#e6e6e6;stroke:none;stroke-width:0"
   transform="matrix(1,0,0,-1,25,1187.3998)" /><polygon
   class="st1"
   points="390.7,475.9 390.7,490.9 403.7,483.4 "
   id="polygon384"
   style="fill:#ececec;stroke:none;stroke-width:0"
   transform="translate(25,219.99981)" /><polygon
   class="st1"
   points="339.2,527.4 354.2,527.4 346.7,540.4 "
   id="polygon382"
   style="fill:#e6e6e6;stroke:none;stroke-width:0"
   transform="translate(25,219.99981)" /><path
   style="opacity:1;fill:#ffffff;fill-opacity:1;stroke:#000000;stroke-width:0;stroke-opacity:1"
   d="m 646.96781,496.91365 v -5.5625 h -5.25 -5.25 v -2.125 -2.125 h 5.25 5.25 v -5.25 -5.25 h 2.15625 2.15625 v 5.25 5.25 h 5.53125 5.53125 v 2.125 2.125 h -5.53125 -5.53125 v 5.5625 5.5625 h -2.15625 -2.15625 z"
   id="path6258" /><path
   style="opacity:1;fill:#252625;fill-opacity:1;stroke:#000000;stroke-width:0;stroke-opacity:1"
   d="m 628.29435,761.15533 c -11.60031,-1.42753 -23.70942,-6.90024 -32.022,-15.09109 -4.89556,-4.82387 -8.4109,-9.79856 -11.48205,-16.05235 -17.34201,-35.31358 7.66631,-77.56695 47.03643,-79.25209 18.36135,-0.78591 36.01381,7.22886 47.19618,22.06765 3.36213,4.46148 7.79919,13.89603 9.13529,19.05313 6.43139,24.82385 -5.13299,50.83774 -27.7939,63.01024 -9.19401,4.93864 -21.81915,7.52597 -32.06995,6.26451 z m 17.8537,-9.82262 c 4.4309,-1.17123 10.75912,-4.28294 14.3016,-6.72023 8.63416,-5.94046 15.23153,-14.95301 18.50818,-25.60297 1.24392,-4.04306 1.61707,-4.89692 1.61707,-12.71774 0,-7.82083 -0.35054,-8.44557 -1.59446,-12.48862 -2.58737,-8.40964 -6.53571,-15.03925 -12.51361,-20.75566 -5.78223,-5.52929 -10.84609,-8.68768 -18.78824,-11.11462 -4.08655,-1.24876 -5.6836,-1.5599 -13.24188,-1.5599 -7.53025,0 -8.28081,0.10808 -12.29161,1.33464 -15.98307,4.88787 -26.8864,16.00238 -31.78068,31.99103 -1.23506,4.03469 -1.96468,4.87729 -1.96468,12.68194 0,7.80465 0.71609,8.81347 1.95115,12.84816 3.22046,10.52059 9.74604,19.70941 18.06875,25.36302 5.16767,3.5104 12.37195,6.11339 18.57678,7.23365 4.17973,0.75464 14.67909,0.68954 19.15163,-0.4927 z"
   id="path6278"
   sodipodi:nodetypes="sssssssssssssssssssssss" /><path
   style="opacity:1;fill:#545553;fill-opacity:1;stroke:#000000;stroke-width:0;stroke-opacity:1"
   d="m 624.91691,750.31745 c -16.24363,-3.63718 -29.30122,-17.18614 -33.58555,-33.43687 -1.37227,-5.20509 -1.27366,-15.03979 -0.0536,-19.9939 2.28647,-9.28454 5.71057,-15.73309 12.53311,-22.49597 6.70419,-6.64558 14.26588,-10.45063 23.40764,-12.04482 5.49687,-0.95857 9.26266,-0.83041 14.75953,0.12816 8.73986,1.52411 16.12049,4.6729 22.716,10.89327 9.43811,8.90129 14.24857,20.14141 14.18619,33.16178 -0.0369,7.69449 -1.17093,12.62045 -4.67527,19.72867 -2.80369,5.68699 -6.60776,10.7198 -11.38242,14.61071 -3.6785,2.99765 -12.18105,7.38353 -16.63751,8.59841 -4.23849,1.15546 -17.01344,1.80324 -21.26809,0.85056 z"
   id="path6280"
   sodipodi:nodetypes="ssssssssssss" /><g
   id="g6327"
   transform="translate(-576.1663,639.16947)"
   style="fill:#000000"><path
     class="st1"
     d="m 816.4233,-34.702478 c -31.6,0 -57.2,-25.6 -57.2,-57.19999 0,-31.600002 25.6,-57.200002 57.2,-57.200002 31.6,0 57.2,25.6 57.2,57.200002 0,31.49999 -25.6,57.09999 -57.2,57.19999 z m 0,-112.499992 c -30.5,0 -55.2,24.7 -55.2,55.200002 0,30.49999 24.7,55.19999 55.2,55.19999 30.5,0 55.2,-24.7 55.2,-55.19999 0,0 0,0 0,0 0,-30.400002 -24.7,-55.100002 -55.2,-55.200002 z"
     id="path6323"
     style="fill:#000000" /><path
     class="st1"
     d="m 816.50147,-45.055391 c -25.5864,0 -46.36838,-20.872572 -46.36838,-46.570513 0,-25.697956 20.78198,-46.570526 46.36838,-46.570526 25.58642,0 46.3684,20.87257 46.3684,46.570526 0,25.697941 -20.78198,46.458295 -46.3684,46.570513 z m 0,-91.008899 c -24.35737,0 -44.13377,19.86262 -44.13377,44.326168 0,24.463541 19.7764,44.32615 44.13377,44.32615 24.35738,0 44.13377,-19.862609 44.13377,-44.32615 v 0 c 0,-24.463548 -19.77639,-44.326168 -44.13377,-44.326168 z"
     id="path6325"
     style="fill:#000000;stroke-width:1.11974" /></g><g
   id="g6333"
   transform="translate(-576.1663,639.16947)"
   style="fill:#000000"><path
     class="st1"
     d="m 816.4233,-34.702478 c -31.6,0 -57.2,-25.6 -57.2,-57.19999 0,-31.600002 25.6,-57.200002 57.2,-57.200002 31.6,0 57.2,25.6 57.2,57.200002 0,31.49999 -25.6,57.09999 -57.2,57.19999 z m 0,-112.499992 c -30.5,0 -55.2,24.7 -55.2,55.200002 0,30.49999 24.7,55.19999 55.2,55.19999 30.5,0 55.2,-24.7 55.2,-55.19999 0,0 0,0 0,0 0,-30.400002 -24.7,-55.100002 -55.2,-55.200002 z"
     id="path6329"
     style="fill:#000000" /><path
     class="st1"
     d="m 816.50147,-45.055391 c -25.5864,0 -46.36838,-20.872572 -46.36838,-46.570513 0,-25.697956 20.78198,-46.570526 46.36838,-46.570526 25.58642,0 46.3684,20.87257 46.3684,46.570526 0,25.697941 -20.78198,46.458295 -46.3684,46.570513 z m 0,-91.008899 c -24.35737,0 -44.13377,19.86262 -44.13377,44.326168 0,24.463541 19.7764,44.32615 44.13377,44.32615 24.35738,0 44.13377,-19.862609 44.13377,-44.32615 v 0 c 0,-24.463548 -19.77639,-44.326168 -44.13377,-44.326168 z"
     id="path6331"
     style="fill:#000000;stroke-width:1.11974" /></g><path
   style="opacity:1;fill:#252625;fill-opacity:1;stroke:#000000;stroke-width:0;stroke-opacity:1"
   d="m 234.02942,602.31763 c -11.60031,-1.42753 -23.70942,-6.90024 -32.022,-15.09109 -4.89556,-4.82387 -8.4109,-9.79856 -11.48205,-16.05235 -17.34201,-35.31358 7.66631,-77.56695 47.03643,-79.25209 18.36135,-0.78591 36.01381,7.22886 47.19618,22.06765 3.36213,4.46148 7.79919,13.89603 9.13529,19.05313 6.43139,24.82385 -5.13299,50.83774 -27.7939,63.01024 -9.19401,4.93864 -21.81915,7.52597 -32.06995,6.26451 z m 17.8537,-9.82262 c 4.4309,-1.17123 10.75912,-4.28294 14.3016,-6.72023 8.63416,-5.94046 15.23153,-14.95301 18.50818,-25.60297 1.24392,-4.04306 1.61707,-4.89692 1.61707,-12.71774 0,-7.82083 -0.35054,-8.44557 -1.59446,-12.48862 -2.58737,-8.40964 -6.53571,-15.03925 -12.51361,-20.75566 -5.78223,-5.52929 -10.84609,-8.68768 -18.78824,-11.11462 -4.08655,-1.24876 -5.6836,-1.5599 -13.24188,-1.5599 -7.53025,0 -8.28081,0.10808 -12.29161,1.33464 -15.98307,4.88787 -26.8864,16.00238 -31.78068,31.99103 -1.23506,4.03469 -1.96468,4.87729 -1.96468,12.68194 0,7.80465 0.71609,8.81347 1.95115,12.84816 3.22046,10.52059 9.74604,19.70941 18.06875,25.36302 5.16767,3.5104 12.37195,6.11339 18.57678,7.23365 4.17973,0.75464 14.67909,0.68954 19.15163,-0.4927 z"
   id="path6335"
   sodipodi:nodetypes="sssssssssssssssssssssss" /><path
   style="opacity:1;fill:#545553;fill-opacity:1;stroke:#000000;stroke-width:0;stroke-opacity:1"
   d="m 230.65198,591.47975 c -16.24363,-3.63718 -29.30122,-17.18614 -33.58555,-33.43687 -1.37227,-5.20509 -1.27366,-15.03979 -0.0536,-19.9939 2.28647,-9.28454 5.71057,-15.73309 12.53311,-22.49597 6.70419,-6.64558 14.26588,-10.45063 23.40764,-12.04482 5.49687,-0.95857 9.26266,-0.83041 14.75953,0.12816 8.73986,1.52411 16.12049,4.6729 22.716,10.89327 9.43811,8.90129 14.24857,20.14141 14.18619,33.16178 -0.0369,7.69449 -1.17093,12.62045 -4.67527,19.72867 -2.80369,5.68699 -6.60776,10.7198 -11.38242,14.61071 -3.6785,2.99765 -12.18105,7.38353 -16.63751,8.59841 -4.23849,1.15546 -17.01344,1.80324 -21.26809,0.85056 z"
   id="path6337"
   sodipodi:nodetypes="ssssssssssss" /><path
   style="fill:none;stroke:#000000;stroke-width:1.02767px;stroke-linecap:butt;stroke-linejoin:miter;stroke-opacity:1"
   d="m 188.90163,122.0103 c 0,0 -18.85549,1.7878 -26.77012,7.2931 -8.68779,6.0431 -15.27391,16.2386 -20.37699,26.60834 -15.65228,31.80624 -27.81774,67.96216 -29.2399,104.84918 -0.93086,24.14405 13.84853,70.628 13.84853,70.628 m 0,0 c 0,0 252.01795,12.28985 378.34438,12.53315 141.20796,0.27196 423.49847,-12.38079 423.49847,-12.38079"
   id="path6291"
   sodipodi:nodetypes="csssccsc" /><path
   style="fill:none;stroke:#000000;stroke-width:1.02767px;stroke-linecap:butt;stroke-linejoin:miter;stroke-opacity:1"
   d="m 188.90163,122.0103 c 9.84115,-8.17682 21.83128,-14.08485 34.16041,-17.50553 9.07636,-2.51821 18.78492,-1.45165 28.19287,-1.91216 12.19957,-0.59715 36.62594,-1.10274 36.62594,-1.10274 l 35.81058,70.65473 15.19617,35.85898 c 0,0 -26.42571,8.80374 -39.32217,10.53318 -42.8309,5.7437 -85.65259,7.21069 -128.18325,17.09047 -8.36038,1.9421 -25.82529,3.74497 -25.82529,3.74497 0,0 11.32358,-65.5795 25.97665,-94.93299 4.2233,-8.46024 10.04498,-16.34429 17.36809,-22.42891 z"
   id="path1262"
   sodipodi:nodetypes="ssscccsscss" /><path
   style="fill:none;stroke:#000000;stroke-width:1.02767px;stroke-linecap:butt;stroke-linejoin:miter;stroke-opacity:1"
   d="m 245.84128,102.4386 c 0,0 -5.76706,-13.56751 -9.35823,-19.651751 C 230.23325,72.198298 223.08453,62.325287 215.37588,53.222178 202.35905,37.850658 189.65643,20.767603 173.19867,11.249234 160.36119,3.8246518 145.5836,1.4898198 131.34281,0.75442277 116.00437,-0.03765523 99.981569,0.87541177 85.616627,7.368779 74.607367,12.345281 65.963835,20.164119 56.507422,31.298832 47.573652,41.818136 43.039216,58.02839 39.342587,71.354951 34.922682,87.28896 33.648381,116.53993 33.648381,116.53993 c 0,0 -0.960455,43.0713 8.788617,78.59059 9.749073,35.51928 9.900725,37.90374 18.095353,55.58077 8.330773,17.97071 18.318558,35.30495 31.233138,50.5532 9.755691,11.51855 27.739781,29.96595 34.597661,30.12443"
   id="path1258"
   sodipodi:nodetypes="csssssssczasc" /><text
   xml:space="preserve"
   id="text6353"
   style="font-style:normal;font-weight:normal;font-size:40px;line-height:1.25;font-family:sans-serif;white-space:pre;shape-inside:url(#rect6355);fill:#ffffff;fill-opacity:1;stroke:none;"
   transform="matrix(0.97792603,0,0,0.96451704,2900.9057,909.73499)"><tspan
     x="-2742.252"
     y="-757.38102"><tspan
       style="fill:#ffffff">ZL</tspan></tspan></text><text
   xml:space="preserve"
   id="text6361"
   style="font-style:normal;font-weight:normal;font-size:40px;line-height:1.25;font-family:sans-serif;white-space:pre;shape-inside:url(#rect6363);fill:#ffffff;fill-opacity:1;stroke:none;"
   transform="matrix(0.97792603,0,0,0.96451704,3473.1053,909.73499)"><tspan
     x="-2742.252"
     y="-757.38102"><tspan
       style="fill:#ffffff">ZR</tspan></tspan></text><text
   xml:space="preserve"
   id="text6365"
   style="font-style:normal;font-weight:normal;font-size:40px;line-height:1.25;font-family:sans-serif;white-space:pre;shape-inside:url(#rect6367);fill:#ffffff;fill-opacity:1;stroke:none;"
   transform="translate(250.14856,2.4219055)"><tspan
     x="-3.2539062"
     y="289.30648"><tspan
       style="fill:#ffffff">L</tspan></tspan></text><text
   xml:space="preserve"
   id="text6373"
   style="font-style:normal;font-weight:normal;font-size:40px;line-height:1.25;font-family:sans-serif;white-space:pre;shape-inside:url(#rect6375);fill:#ffffff;fill-opacity:1;stroke:none;"
   transform="translate(781.74891,2.4219055)"><tspan
     x="-3.2539062"
     y="289.30648"><tspan
       style="fill:#ffffff">R</tspan></tspan></text><path
   style="opacity:1;fill:#3b3c3a;fill-opacity:1;stroke:#000000;stroke-width:0;stroke-opacity:1"
   d="m 785.64551,667.92499 c -8.15309,-1.13602 -15.0704,-4.54677 -20.75974,-10.23612 -8.9285,-8.9285 -12.39431,-21.39165 -9.34523,-33.60576 3.36093,-13.46336 14.29474,-23.65724 28.22997,-26.31953 3.11895,-0.59587 9.18634,-0.58261 12.375,0.027 13.05146,2.49536 23.44512,11.64463 27.45735,24.17 1.30965,4.08843 1.65393,6.39581 1.63662,10.9685 -0.0122,3.23174 -0.13271,4.67657 -0.55639,6.67211 -1.50148,7.07212 -4.72455,13.03435 -9.77783,18.08764 -5.02258,5.02257 -11.04724,8.29153 -17.96,9.74503 -2.78306,0.58517 -8.7602,0.84494 -11.29975,0.49109 z m 6.8002,-22.77451 c 2.08011,-0.43751 3.82122,-1.37987 5.0267,-2.72066 1.35168,-1.50339 1.76103,-2.84172 1.63465,-5.34431 -0.0805,-1.59334 -0.20733,-2.03516 -0.84488,-2.94229 -0.45588,-0.64863 -1.25285,-1.33 -2.03138,-1.7367 l -1.28117,-0.6693 1.0859,-0.76541 c 1.41215,-0.99537 2.15231,-2.46375 2.3035,-4.56982 0.14493,-2.01889 -0.21817,-3.22199 -1.35078,-4.47566 -1.71403,-1.89722 -4.96187,-2.58958 -11.46774,-2.44462 l -3.25,0.0724 -0.0647,12.9375 -0.0648,12.9375 h 4.48995 c 2.46947,0 5.0861,-0.12539 5.81475,-0.27864 z"
   id="path6377" /><path
   style="opacity:1;fill:#3b3c3a;fill-opacity:1;stroke:#000000;stroke-width:0;stroke-opacity:1"
   d="m 785.89551,638.05412 v -4.43662 l 2.94997,0.10518 c 2.50133,0.0892 3.1362,0.19842 4.17451,0.71831 1.70933,0.85588 2.24219,1.67349 2.24219,3.44041 0,1.91885 -0.63165,2.98958 -2.23339,3.78586 -1.04436,0.51919 -1.68535,0.62925 -4.18331,0.71831 l -2.94997,0.10518 z"
   id="path6379" /><path
   style="opacity:1;fill:#3b3c3a;fill-opacity:1;stroke:#000000;stroke-width:0;stroke-opacity:1"
   d="m 785.89551,626.58046 v -3.90134 h 2.3893 c 2.77536,0 4.23874,0.30963 5.24118,1.10895 0.62892,0.50149 0.72898,0.76908 0.81958,2.19205 0.12529,1.96762 -0.28074,2.89767 -1.6315,3.73713 -0.82075,0.51007 -1.32589,0.59799 -3.88106,0.67547 l -2.9375,0.0891 z"
   id="path6381" /><path
   style="opacity:1;fill:#3b3c3a;fill-opacity:1;stroke:#000000;stroke-width:0;stroke-opacity:1"
   d="m 707.39551,599.92499 c -7.92113,-1.1037 -14.96701,-4.50926 -20.38541,-9.85308 -6.22903,-6.1433 -9.75995,-13.54668 -10.61451,-22.25575 -1.07687,-10.97477 3.61757,-22.59585 12.03642,-29.79613 4.92609,-4.21307 10.10613,-6.76316 16.49169,-8.11872 3.45265,-0.73294 9.46672,-0.78505 12.97181,-0.11239 14.48926,2.78063 25.42291,13.49277 28.54643,27.9681 0.73248,3.39453 0.79693,10.17685 0.12818,13.48958 -2.8807,14.27003 -13.69532,25.20587 -27.87486,28.1873 -2.78306,0.58517 -8.7602,0.84494 -11.29975,0.49109 z m 6,-28.0293 v -4.53343 l 4.64728,-8.23595 c 2.55601,-4.52978 4.60913,-8.27396 4.5625,-8.32041 -0.0466,-0.0465 -0.98287,-0.12211 -2.08055,-0.16812 l -1.99577,-0.0837 -1.2063,2.25 c -0.66346,1.2375 -2.20164,4.15068 -3.41817,6.47372 l -2.21187,4.22372 -0.5442,-1.09872 c -0.29931,-0.60429 -1.85477,-3.54559 -3.45658,-6.53622 l -2.91239,-5.4375 h -2.19197 c -1.20559,0 -2.19198,0.053 -2.19198,0.11787 0,0.0648 2.08125,3.80978 4.625,8.32212 l 4.625,8.20425 v 4.67788 4.67788 h 1.875 1.875 z"
   id="path6383" /><path
   style="opacity:1;fill:#3b3c3a;fill-opacity:1;stroke:#000000;stroke-width:0;stroke-opacity:1"
   d="m 785.64551,531.92499 c -8.15309,-1.13602 -15.0704,-4.54677 -20.75974,-10.23612 -8.9285,-8.9285 -12.39431,-21.39165 -9.34523,-33.60576 3.36093,-13.46336 14.29474,-23.65724 28.22997,-26.31953 3.11895,-0.59587 9.18634,-0.58261 12.375,0.027 13.05146,2.49536 23.44512,11.64463 27.45735,24.17 1.30965,4.08843 1.65393,6.39581 1.63662,10.9685 -0.0122,3.23174 -0.13271,4.67657 -0.55639,6.67211 -1.50148,7.07212 -4.72455,13.03435 -9.77783,18.08764 -5.02258,5.02257 -11.04724,8.29153 -17.96,9.74503 -2.78306,0.58517 -8.7602,0.84494 -11.29975,0.49109 z m 0.875,-27.49805 c 1.65,-2.74797 3.05748,-4.99665 3.12774,-4.99706 0.0703,-5e-4 1.47651,2.24475 3.125,4.98925 l 2.99726,4.99001 2.43188,0.01 2.43189,0.01 -1.35916,-2.10687 c -0.74754,-1.15877 -2.22449,-3.4369 -3.28212,-5.0625 -1.05763,-1.6256 -2.40627,-3.70686 -2.99698,-4.62503 l -1.07402,-1.66939 3.86176,-6.04894 c 2.12396,-3.32693 3.86175,-6.15213 3.86175,-6.27823 0,-0.12637 -0.92533,-0.19669 -2.06162,-0.15667 l -2.06161,0.0726 -2.78041,4.58251 c -1.52923,2.52038 -2.85752,4.60163 -2.95177,4.625 -0.0942,0.0234 -1.43761,-2.03877 -2.98527,-4.58252 l -2.81392,-4.62499 -2.20335,-0.0727 c -1.92048,-0.0633 -2.18395,-0.0221 -2.05224,0.32113 0.0831,0.21659 1.84382,3.09152 3.91268,6.38873 l 3.76156,5.99492 -4.00742,6.13862 c -2.20408,3.37624 -4.1237,6.3559 -4.26582,6.62145 -0.24676,0.46108 -0.15383,0.4827 2.0629,0.4799 l 2.32129,-0.003 3,-4.99631 z"
   id="path6385" /><path
   style="opacity:1;fill:#3b3c3a;fill-opacity:1;stroke:#000000;stroke-width:0;stroke-opacity:1"
   d="m 864.77051,600.03207 c -5.36259,-0.77061 -8.80039,-1.78331 -12.6516,-3.72686 -3.56595,-1.79958 -5.81339,-3.45471 -8.989,-6.61994 -5.2846,-5.26732 -8.43262,-11.12516 -9.90901,-18.43867 -0.62781,-3.10997 -0.6123,-10.0886 0.0293,-13.19248 3.02446,-14.6309 13.99984,-25.42204 28.77029,-28.28733 3.36305,-0.65239 9.43968,-0.58876 12.84681,0.13452 7.99698,1.69764 14.39024,5.4025 19.83,11.49139 6.24807,6.99365 9.66289,17.34209 8.71871,26.42159 -1.64716,15.8395 -12.84574,28.38681 -28.22077,31.61961 -2.33603,0.49118 -8.64865,0.8534 -10.42475,0.59817 z m -3.12922,-26.53974 0.87922,-2.81179 h 5.25 5.25 l 0.87928,2.81179 0.87928,2.81179 2.05822,0.0726 c 1.13202,0.0399 2.05584,0.0399 2.05294,0 -0.003,-0.0399 -1.9058,-5.86636 -4.22865,-12.94761 l -4.22335,-12.875 -2.51137,-0.0711 -2.51136,-0.0711 -4.17287,12.69614 c -2.29508,6.98287 -4.22603,12.84174 -4.291,13.01971 -0.0917,0.25111 0.32179,0.30709 1.84616,0.25 l 1.96428,-0.0736 z"
   id="path6387" /><path
   style="opacity:1;fill:#3b3c3a;fill-opacity:1;stroke:#000000;stroke-width:0;stroke-opacity:1"
   d="m 863.75778,566.74162 c 0.3174,-1.31077 3.92282,-12.36072 4.00491,-12.27432 0.0631,0.0664 2.6759,8.18388 3.99103,12.39932 l 0.17548,0.5625 h -4.16894 -4.16895 z"
   id="path6389" /><path
   style="fill:none;stroke:#000000;stroke-width:1.02767px;stroke-linecap:butt;stroke-linejoin:miter;stroke-opacity:1"
   d="m 865.98538,122.0103 c 0,0 18.85549,1.7878 26.77012,7.2931 8.68779,6.0431 15.27391,16.2386 20.37699,26.60834 15.65228,31.80624 27.81774,67.96216 29.2399,104.84918 0.93086,24.14405 -13.84853,70.628 -13.84853,70.628 m 0,0 c 0,0 -252.01795,12.28985 -378.34438,12.53315 -141.20796,0.27196 -423.49847,-12.38079 -423.49847,-12.38079"
   id="path978"
   sodipodi:nodetypes="csssccsc" /></svg>
