<?xml version="1.0" encoding="UTF-8" standalone="no"?>
<svg
   xmlns:dc="http://purl.org/dc/elements/1.1/"
   xmlns:cc="http://creativecommons.org/ns#"
   xmlns:rdf="http://www.w3.org/1999/02/22-rdf-syntax-ns#"
   xmlns:svg="http://www.w3.org/2000/svg"
   xmlns="http://www.w3.org/2000/svg"
   xmlns:sodipodi="http://sodipodi.sourceforge.net/DTD/sodipodi-0.dtd"
   xmlns:inkscape="http://www.inkscape.org/namespaces/inkscape"
   version="1.1"
   id="Layer_1"
   x="0px"
   y="0px"
   viewBox="0 0 999.99996 1300"
   xml:space="preserve"
   sodipodi:docname="Controller_JoyConPair.svg"
   inkscape:version="1.0.1 (3bc2e813f5, 2020-09-07)"
   width="1000"
   height="1300"><metadata
   id="metadata161"><rdf:RDF><cc:Work
       rdf:about=""><dc:format>image/svg+xml</dc:format><dc:type
         rdf:resource="http://purl.org/dc/dcmitype/StillImage" /><dc:title /></cc:Work></rdf:RDF></metadata><defs
   id="defs159"><inkscape:path-effect
     effect="bspline"
     id="path-effect141"
     is_visible="true"
     lpeversion="1"
     weight="33.333333"
     steps="2"
     helper_size="0"
     apply_no_weight="true"
     apply_with_weight="true"
     only_selected="false" /><inkscape:path-effect
     effect="bspline"
     id="path-effect137"
     is_visible="true"
     lpeversion="1"
     weight="33.333333"
     steps="2"
     helper_size="0"
     apply_no_weight="true"
     apply_with_weight="true"
     only_selected="false" /><inkscape:path-effect
     effect="bspline"
     id="path-effect133"
     is_visible="true"
     lpeversion="1"
     weight="33.333333"
     steps="2"
     helper_size="0"
     apply_no_weight="true"
     apply_with_weight="true"
     only_selected="false" /></defs><sodipodi:namedview
   pagecolor="#ffffff"
   bordercolor="#666666"
   borderopacity="1"
   objecttolerance="10"
   gridtolerance="10"
   guidetolerance="10"
   inkscape:pageopacity="0"
   inkscape:pageshadow="2"
   inkscape:window-width="1920"
   inkscape:window-height="1003"
   id="namedview157"
   showgrid="false"
   inkscape:zoom="2"
   inkscape:cx="872.63708"
   inkscape:cy="388.56525"
   inkscape:window-x="1400"
   inkscape:window-y="0"
   inkscape:window-maximized="1"
   inkscape:current-layer="layer1"
   inkscape:document-rotation="0"
   showguides="true"
   inkscape:guide-bbox="true"
   scale-x="1.7" />
<style
   type="text/css"
   id="style2">
	.st0{opacity:0.1;}
	.st1{fill:#02C5E5;}
	.st2{fill:#FF5F55;}
	.st3{fill:#FFFFFF;}
</style>















































<path
   style="opacity:1;fill:#1a1a1a;fill-opacity:1;stroke:#4d4d4d;stroke-width:1"
   d=""
   id="path1502" /><g
   inkscape:groupmode="layer"
   id="layer1"
   inkscape:label="Layer 1"><g
     id="g344"
     transform="translate(-64,299.7467)"><path
       class="st3"
       d="m 413.1,906.6 h -7.9 c -3.6,0 -6.4,-2.9 -6.5,-6.5 V 71.2 c 0,-3.6 2.9,-6.4 6.5,-6.5 h 7.9 c 3.6,0 6.4,2.9 6.5,6.5 V 207 c 0,4.9 -1.2,9.6 -3.4,14 l -6.7,13 v 79.2 l 6.7,13 c 2.2,4.3 3.4,9.1 3.4,13.9 v 269.7 c 0,4.9 -1.2,9.6 -3.4,14 l -6.7,13 V 716 l 6.7,13 c 2.2,4.3 3.4,9.1 3.4,13.9 v 157.2 c 0,3.6 -2.9,6.5 -6.5,6.5 z M 405.2,65.7 c -3,0 -5.5,2.4 -5.5,5.5 v 828.9 c 0,3 2.4,5.5 5.5,5.5 h 7.9 c 3,0 5.5,-2.4 5.5,-5.5 V 742.9 c 0,-4.7 -1.1,-9.3 -3.3,-13.5 l -6.8,-13.1 c 0,-0.1 -0.1,-0.2 -0.1,-0.2 v -79.5 c 0,-0.1 0,-0.2 0.1,-0.2 l 6.8,-13.1 c 2.2,-4.2 3.3,-8.8 3.3,-13.5 V 340.1 c 0,-4.7 -1.1,-9.3 -3.3,-13.5 l -6.8,-13.1 c 0,-0.1 -0.1,-0.2 -0.1,-0.2 v -79.5 c 0,-0.1 0,-0.2 0.1,-0.2 l 6.8,-13.1 c 2.2,-4.2 3.3,-8.8 3.3,-13.5 V 71.2 c 0,-3 -2.4,-5.5 -5.5,-5.5 z"
       id="path66-7"
       style="fill:#000000" /><path
       class="st3"
       d="m 399.3,858.9 h -11.2 c -0.3,0 -0.5,-0.2 -0.5,-0.5 V 72 c 0,-0.3 0.2,-0.5 0.5,-0.5 h 11.2 c 0.3,0 0.5,0.2 0.5,0.5 v 786.4 c 0,0.3 -0.2,0.5 -0.5,0.5 z m -10.7,-1 h 10.2 V 72.5 h -10.2 z"
       id="path68-5"
       style="fill:#000000" /><path
       class="st3"
       d="M 382.1,1000 H 275.9 C 158.9,1000 64,905.2 64,788.1 c 0,0 0,0 0,0 V 220.9 C 64,104.1 159.1,9.1 275.9,9.1 h 106.2 c 3.6,0 6.5,2.9 6.5,6.5 v 978 c 0,3.5 -2.9,6.4 -6.5,6.4 z M 275.9,10.1 C 159.6,10.1 65,104.7 65,220.9 V 788.1 C 65,904.4 159.6,999 275.9,999 h 106.2 c 3,0 5.5,-2.4 5.5,-5.5 v -978 c 0,-3 -2.4,-5.5 -5.5,-5.5 H 275.9 Z"
       id="path70-3"
       style="fill:#000000" /><path
       class="st1"
       d="m 413.1,717.1 h -4.2 c -0.6,0 -1,-0.4 -1,-1 0,0 0,0 0,0 v -79.5 c 0,-0.6 0.4,-1 1,-1 0,0 0,0 0,0 h 4.2 c 3.8,0 6.9,3.1 7,7 v 67.6 c 0,3.8 -3.1,6.9 -7,6.9 z m -3.2,-2 h 3.2 c 2.7,0 5,-2.2 5,-5 v -67.6 c 0,-2.7 -2.2,-5 -5,-5 h -3.2 z"
       id="path98"
       style="fill:#000000" /><path
       class="st1"
       d="m 413.1,314.3 h -4.2 c -0.6,0 -1,-0.4 -1,-1 v -79.5 c 0,-0.6 0.4,-1 1,-1 h 4.2 c 3.8,0 6.9,3.1 7,7 v 67.6 c 0,3.8 -3.1,6.9 -7,6.9 z m -3.2,-2 h 3.2 c 2.7,0 5,-2.2 5,-5 v -67.6 c 0,-2.7 -2.2,-5 -5,-5 h -3.2 z"
       id="path100"
       style="fill:#000000" /><path
       style="fill:#00bbdb;fill-opacity:1;stroke:#000000;stroke-width:1;stroke-opacity:1"
       d="M 257.24031,997.87141 C 231.00562,994.85925 207.29188,989.42604 182.14949,976.89078 160.25417,965.97443 141.01707,951.17849 124.7007,934.38991 92.385223,901.13922 70.993413,856.60594 65.658526,807.7016 65.28629,804.28935 65.60032,777.25611 65.321787,735.45113 64.265473,576.90901 64.42116,214.87541 65.832698,201.04147 c 1.806274,-17.70261 6.06302,-36.49109 12.012095,-52.35867 2.796862,-7.4599 7.091312,-15.77684 10.715421,-23.13845 C 119.94788,61.78692 180.7783,21.164531 250.9852,11.961211 269.16651,9.5778481 384.12059,8.7019738 386.44913,11.030497 c 0.15343,0.153425 0.87429,2.31235 1.04555,7.011277 0.40459,11.1005 0.35029,35.996153 1.26274,79.381547 0.6886,32.741359 -0.0274,76.313339 0.10052,132.519699 0.15984,70.25759 -1.57659,160.16298 -1.57659,274.77051 0,484.50248 1.44371,491.1849 -0.86873,492.42248 -0.32431,0.17356 -2.47056,1.663 -5.33883,1.8051 -21.9107,1.08549 -119.24063,-0.54237 -120.56646,-0.6946 z"
       id="path1144"
       sodipodi:nodetypes="ssssssssssssssssss" /><polygon
       class="st1"
       points="237.9,448.9 225.8,469.9 250,469.9 "
       id="polygon80"
       style="fill:#333333;stroke:#000000;stroke-width:0.927894;stroke-opacity:1"
       transform="matrix(1.1037134,0,0,1.0523169,-24.636066,-24.267048)" /><polygon
       class="st1"
       points="250,605.9 237.9,626.9 225.8,605.9 "
       id="polygon82"
       style="fill:#333333;stroke:#000000;stroke-width:0.957418;stroke-opacity:1"
       transform="matrix(1.0574383,0,0,1.0316716,-13.259456,-19.457378)" /><polygon
       class="st1"
       points="169.9,525.8 148.9,537.9 169.9,550 "
       id="polygon84"
       style="fill:#333333;stroke:#000000;stroke-width:0.931439;stroke-opacity:1"
       transform="matrix(1.0443863,0,0,1.1036462,-7.5389156,-55.555947)" /><polygon
       class="st1"
       points="326.9,537.9 305.9,550 305.9,525.8 "
       id="polygon86"
       style="fill:#333333;stroke:#000000;stroke-width:0.849928;stroke-opacity:1"
       transform="matrix(1.2181479,0,0,1.1364095,-67.797686,-73.39984)" /><path
       class="st1"
       d="m 81.300444,139.3 c -0.3,0 -0.5,-0.1 -0.7,-0.3 l -3.4,-3.4 c -2,-2 -2.6,-5.1 -1.5,-7.8 C 110.50044,50.1 187.70044,0.1 272.90044,0 h 51.2 c 3.8,0 6.9,3.1 7,7 v 2.6 c 0,0.6 -0.4,1 -1,1 h -54.2 c -84.5,-0.1 -160.8,50.4 -193.699996,128.1 -0.1,0.3 -0.4,0.5 -0.7,0.6 -0.1,0 -0.2,0 -0.2,0 z M 272.90044,2 c -84.4,0.1 -160.9,49.7 -195.399996,126.7 -0.8,1.9 -0.4,4.1 1.1,5.5 l 2.4,2.4 C 114.60044,58.8 191.30044,8.5 276.00044,8.6 h 53.2 V 7 c 0,-2.7 -2.2,-5 -5,-5 z"
       id="path102"
       style="fill:#000000" /><path
       class="st1"
       d="m 359.60044,116.1 h -46.9 c -2.2,0 -4,-1.8 -4,-4 v -11.7 c 0,-2.2 1.8,-4 4,-4 h 46.9 c 2.2,0 4,1.8 4,4 v 11.7 c 0,2.2 -1.8,4 -4,4 z m -46.9,-17.6 c -1.1,0 -2,0.9 -2,2 v 11.7 c 0,1.1 0.9,2 2,2 h 46.9 c 1.1,0 2,-0.9 2,-2 v -11.7 c 0,-1.1 -0.9,-2 -2,-2 z"
       id="path104"
       style="fill:#000000" /><path
       class="st1"
       d="m 237.90044,502.9 c -21.2,0 -38.5,-17.2 -38.5,-38.5 0,-21.2 17.2,-38.5 38.5,-38.5 21.2,0 38.5,17.2 38.5,38.5 0,21.3 -17.2,38.5 -38.5,38.5 z m 0,-74.9 c -20.1,0 -36.5,16.3 -36.5,36.5 0,20.1 16.3,36.5 36.5,36.5 20.1,0 36.5,-16.3 36.5,-36.5 0,-20.2 -16.3,-36.5 -36.5,-36.5 z"
       id="path106"
       style="fill:#000000" /><path
       class="st1"
       d="m 237.90044,649.8 c -21.2,0 -38.5,-17.2 -38.5,-38.5 0,-21.3 17.2,-38.5 38.5,-38.5 21.2,0 38.5,17.2 38.5,38.5 0,21.3 -17.2,38.5 -38.5,38.5 z m 0,-74.9 c -20.1,0 -36.5,16.3 -36.5,36.5 0,20.2 16.3,36.5 36.5,36.5 20.2,0 36.5,-16.3 36.5,-36.5 0,0 0,0 0,0 0,-20.2 -16.3,-36.5 -36.5,-36.5 z"
       id="path108"
       style="fill:#000000" /><path
       class="st1"
       d="m 311.40044,576.3 c -21.2,0 -38.5,-17.2 -38.5,-38.5 0,-21.2 17.2,-38.5 38.5,-38.5 21.3,0 38.5,17.2 38.5,38.5 v 0 c -0.1,21.3 -17.3,38.5 -38.5,38.5 z m 0,-74.9 c -20.1,0 -36.5,16.3 -36.5,36.5 0,20.2 16.3,36.5 36.5,36.5 20.1,0 36.5,-16.3 36.5,-36.5 0,0 0,0 0,0 -0.1,-20.2 -16.4,-36.5 -36.5,-36.5 z"
       id="path110"
       style="fill:#000000" /><path
       class="st1"
       d="m 164.50044,576.3 c -21.2,0 -38.5,-17.2 -38.5,-38.5 0,-21.2 17.2,-38.5 38.5,-38.5 21.3,0 38.5,17.2 38.5,38.5 v 0 c -0.1,21.3 -17.3,38.5 -38.5,38.5 z m 0,-74.9 c -20.1,0 -36.5,16.3 -36.5,36.5 0,20.1 16.3,36.5 36.5,36.5 20.1,0 36.5,-16.3 36.5,-36.5 0,0 0,0 0,0 -0.1,-20.2 -16.4,-36.5 -36.5,-36.5 z"
       id="path112"
       style="fill:#000000" /><path
       class="st1"
       d="m 314.10044,753.7 h -45 c -5.5,0 -9.9,-4.4 -9.9,-9.9 v -45 c 0,-5.5 4.4,-9.9 9.9,-9.9 h 45 c 5.5,0 9.9,4.4 9.9,9.9 v 45 c 0,5.5 -4.5,9.9 -9.9,9.9 z m -45,-62.8 c -4.4,0 -7.9,3.6 -7.9,7.9 v 45 c 0,4.4 3.6,7.9 7.9,7.9 h 45 c 4.4,0 7.9,-3.6 7.9,-7.9 v -45 c 0,-4.4 -3.6,-7.9 -7.9,-7.9 z"
       id="path114"
       style="fill:#000000" /><path
       class="st1"
       d="m 291.60044,741.7 c -11.3,0 -20.4,-9.2 -20.4,-20.4 0,-11.3 9.2,-20.4 20.4,-20.4 11.3,0 20.4,9.2 20.4,20.4 0,0 0,0 0,0 0,11.3 -9.1,20.4 -20.4,20.4 z m 0,-38.9 c -10.2,0 -18.4,8.3 -18.4,18.4 0,10.1 8.3,18.4 18.4,18.4 10.2,0 18.4,-8.3 18.4,-18.4 0,-10.1 -8.2,-18.3 -18.4,-18.4 z"
       id="path116"
       style="fill:#000000" /><path
       class="st1"
       d="m 174.80044,260.2 h -12.3 c -0.6,0 -1,-0.4 -1,-1 0,0 0,0 0,0 1.7,-39.6 33.4,-71.3 73,-73 0.3,0 0.5,0.1 0.7,0.3 0.2,0.2 0.3,0.4 0.3,0.7 v 12.3 c 0,3.5 -2.6,6.4 -6,6.9 -24.7,3.7 -44.2,23.1 -47.9,47.9 -0.4,3.3 -3.3,5.9 -6.8,5.9 z m -11.2,-2 h 11.2 c 2.5,0 4.6,-1.8 4.9,-4.3 3.9,-25.6 24,-45.7 49.6,-49.6 2.5,-0.3 4.3,-2.4 4.3,-4.9 v -11.2 c -37.4,2.1 -67.9,32.6 -70,70 z"
       id="path118"
       style="fill:#000000" /><path
       class="st1"
       d="m 234.60044,338.9 v 0 c -39.6,-1.7 -71.3,-33.4 -73,-73 0,-0.6 0.4,-1 1,-1 0,0 0,0 0,0 h 12.3 c 3.5,0 6.4,2.6 6.9,6 3.7,24.7 23.1,44.2 47.9,47.9 3.4,0.5 6,3.4 6,6.9 V 338 c -0.1,0.5 -0.6,0.9 -1.1,0.9 z m -71,-72 c 2.2,37.4 32.6,67.8 70,70 v -11.2 c 0,-2.5 -1.8,-4.6 -4.3,-4.9 -25.6,-3.9 -45.7,-24 -49.6,-49.6 -0.3,-2.5 -2.4,-4.3 -4.9,-4.3 z"
       id="path120"
       style="fill:#000000" /><path
       class="st1"
       d="m 241.30044,338.9 c -0.6,0 -1,-0.4 -1,-1 v -12.3 c 0,-3.5 2.6,-6.4 6,-6.9 24.7,-3.7 44.2,-23.1 47.9,-47.9 0.5,-3.4 3.4,-6 6.9,-6 h 12.3 c 0.6,0 1,0.4 1,1 0,0 0,0 0,0 -1.8,39.7 -33.5,71.4 -73.1,73.1 z m 59.7,-72 c -2.5,0 -4.6,1.8 -4.9,4.3 -3.9,25.6 -24,45.7 -49.6,49.6 -2.5,0.3 -4.3,2.4 -4.3,4.9 v 11.2 c 37.4,-2.2 67.8,-32.6 70,-70 z"
       id="path122"
       style="fill:#000000" /><path
       class="st1"
       d="m 313.30044,260.2 h -12.3 c -3.5,0 -6.4,-2.6 -6.9,-6 -3.7,-24.7 -23.1,-44.2 -47.9,-47.9 -3.4,-0.5 -6,-3.4 -6,-6.9 v -12.3 c 0,-0.3 0.1,-0.5 0.3,-0.7 0.2,-0.2 0.5,-0.3 0.7,-0.3 39.6,1.7 71.3,33.4 73,73 0.1,0.6 -0.3,1.1 -0.9,1.1 0,0 0,0 0,0 z m -71,-72 v 11.2 c 0,2.5 1.8,4.6 4.3,4.9 25.6,3.9 45.7,24 49.6,49.6 0.3,2.5 2.4,4.3 4.9,4.3 h 11.2 c -2.2,-37.4 -32.7,-67.9 -70,-70 z"
       id="path124"
       style="fill:#000000" /><path
       class="st1"
       d="m 237.90044,339 c -1.2,0 -2.3,0 -3.4,-0.1 -0.5,0 -0.9,-0.5 -0.9,-1 v -12.3 c 0,-2.5 -1.8,-4.6 -4.3,-4.9 -25.6,-3.9 -45.7,-24 -49.6,-49.6 -0.3,-2.5 -2.4,-4.3 -4.9,-4.3 h -12.3 c -0.5,0 -1,-0.4 -1,-0.9 -0.1,-1.1 -0.1,-2.2 -0.1,-3.4 0,-1.2 0,-2.3 0.1,-3.4 0,-0.5 0.5,-0.9 1,-0.9 h 12.3 c 2.5,0 4.6,-1.8 4.9,-4.3 3.9,-25.6 24,-45.7 49.6,-49.6 2.5,-0.3 4.3,-2.4 4.3,-4.9 v -12.3 c 0,-0.5 0.4,-1 0.9,-1 2.3,-0.1 4.5,-0.1 6.8,0 0.5,0 0.9,0.5 0.9,1 v 12.3 c 0,2.5 1.8,4.6 4.3,4.9 25.6,3.9 45.7,24 49.6,49.6 0.3,2.5 2.4,4.3 4.9,4.3 h 12.3 c 0.5,0 1,0.4 1,0.9 0.1,1.1 0.1,2.2 0.1,3.4 0,1.2 0,2.3 -0.1,3.4 0,0.5 -0.5,0.9 -1,0.9 h -12.3 c -2.5,0 -4.6,1.8 -4.9,4.3 -3.9,25.6 -24,45.7 -49.6,49.6 -2.5,0.3 -4.3,2.4 -4.3,4.9 v 12.3 c 0,0.5 -0.4,1 -0.9,1 -1.1,0.1 -2.2,0.1 -3.4,0.1 z m -2.3,-2 c 1.5,0.1 3.1,0.1 4.7,0 v -11.3 c 0,-3.5 2.6,-6.4 6,-6.9 24.7,-3.7 44.2,-23.1 47.9,-47.9 0.5,-3.4 3.4,-6 6.9,-6 h 11.3 c 0,-0.8 0,-1.5 0,-2.3 0,-0.8 0,-1.6 0,-2.3 h -11.4 c -3.5,0 -6.4,-2.6 -6.9,-6 -3.7,-24.7 -23.1,-44.2 -47.9,-47.9 -3.4,-0.5 -6,-3.4 -6,-6.9 v -11.3 c -1.5,-0.1 -3.1,-0.1 -4.7,0 v 11.3 c 0,3.5 -2.6,6.4 -6,6.9 -24.7,3.7 -44.2,23.1 -47.9,47.9 -0.5,3.4 -3.4,6 -6.9,6 h -11.3 c 0,0.8 0,1.5 0,2.3 0,0.8 0,1.6 0,2.3 h 11.3 c 3.5,0 6.4,2.6 6.9,6 3.7,24.7 23.1,44.2 47.9,47.9 3.4,0.5 6,3.4 6,6.9 z"
       id="path126"
       style="fill:#000000" /><path
       style="fill:#1a1a1a;fill-opacity:1;stroke:#000000;stroke-width:0.999997;stroke-opacity:1"
       d="m 158.02789,574.27925 c -14.73064,-3.25266 -24.85554,-12.70578 -29.04419,-27.11717 -0.98592,-3.39218 -1.21679,-6.26957 -0.93511,-11.65556 0.33774,-6.4583 0.67944,-7.76803 3.52546,-13.51272 11.35216,-22.91431 40.68588,-27.928 58.61532,-10.01846 19.42229,19.40073 11.99924,51.86436 -13.89781,60.78009 -5.19354,1.788 -13.81105,2.50701 -18.26367,1.52382 z m 12.59864,-36.29462 c 0,-7.35074 -0.18108,-13.36496 -0.40241,-13.36496 -0.89601,0 -23.32454,13.1809 -22.99291,13.51259 0.66445,0.66458 22.24473,13.11359 22.82266,13.1657 0.31497,0.0284 0.57266,-5.96261 0.57266,-13.31333 z"
       id="path179" /><path
       style="fill:#1a1a1a;fill-opacity:1;stroke:#000000;stroke-width:0.999997;stroke-opacity:1"
       d="m 232.50517,500.57091 c -6.91699,-0.86484 -15.04235,-4.99807 -20.4853,-10.42051 -14.58513,-14.53016 -14.55979,-36.85709 0.0584,-51.42015 23.0282,-22.94142 62.26853,-6.95317 62.26853,25.37095 0,10.34881 -3.46897,18.75364 -10.723,25.98031 -8.34032,8.30891 -19.22192,11.97685 -31.1186,10.4894 z m 18.58209,-30.69278 c -0.91811,-2.38357 -12.79282,-22.35099 -13.28879,-22.34521 -0.45143,0.005 -5.88471,9.05299 -11.95805,19.91302 l -2.0157,3.60439 h 13.85703 c 12.18288,0 13.80248,-0.14161 13.40551,-1.1722 z"
       id="path181" /><path
       style="fill:#1a1a1a;fill-opacity:1;stroke:#000000;stroke-width:0.999997;stroke-opacity:1"
       d="m 229.21434,646.98161 c -12.9232,-3.46654 -23.15418,-13.73508 -26.52403,-26.62142 -5.92248,-22.64757 11.58541,-45.21876 35.15949,-45.32763 7.44717,-0.0344 11.29183,0.91312 18.09999,4.46071 16.90217,8.80735 23.84898,30.39169 15.40753,47.87245 -7.54225,15.61868 -25.6403,24.04261 -42.14298,19.61589 z M 245.434,616.92014 c 3.65424,-6.30197 6.48622,-11.61534 6.29329,-11.8075 -0.19293,-0.19216 -6.40658,-0.25572 -13.80812,-0.14123 l -13.45735,0.20814 6.66623,11.58776 c 3.66642,6.37327 6.89025,11.59297 7.16405,11.59935 0.27381,0.006 3.48766,-5.14457 7.1419,-11.44652 z"
       id="path185" /><path
       style="fill:#1a1a1a;fill-opacity:1;stroke:#000000;stroke-width:1;stroke-opacity:1"
       d="m 307.85537,574.24407 c -0.34478,-0.0389 -1.62711,-0.27075 -2.84962,-0.51537 -11.23844,-2.24892 -20.9226,-9.70179 -26.17378,-20.1432 -2.82839,-5.62398 -4.20289,-12.18393 -3.75883,-17.93953 1.14218,-14.80435 11.33006,-27.74217 25.61809,-32.53303 8.75405,-2.93529 18.04495,-2.18507 26.72988,2.15843 8.69225,4.34715 15.48783,12.11097 18.64346,21.29973 5.25881,15.31297 -0.71552,32.17026 -14.73029,41.56334 -5.99457,4.01773 -13.35804,6.28235 -20.18834,6.20884 -1.46502,-0.0157 -2.94577,-0.0604 -3.29057,-0.0993 z m -0.66719,-23.08553 c 0.71175,-0.35815 3.02697,-1.62049 5.14496,-2.80516 8.66766,-4.84825 15.63944,-9.1681 16.21592,-10.0477 0.27948,-0.42642 0.28078,-0.49758 0.0166,-0.90068 -0.86957,-1.32678 -21.50733,-13.52937 -22.8817,-13.52937 -0.25925,0 -0.5656,0.11351 -0.68079,0.25225 -0.41371,0.49837 -0.59707,4.78502 -0.59431,13.89388 0.003,9.06159 0.17803,13.03427 0.59744,13.53951 0.32082,0.38645 0.78324,0.3011 2.18189,-0.40273 z"
       id="path187" /><path
       style="fill:#333333;fill-opacity:1;stroke:#000000;stroke-width:1;stroke-opacity:1"
       d="m 287.96017,739.09726 c -1.01606,-0.21912 -2.9756,-0.9477 -4.35453,-1.61905 -2.09414,-1.01956 -2.88115,-1.59464 -4.77748,-3.49097 -1.89792,-1.89791 -2.4703,-2.68159 -3.48941,-4.77748 -2.66648,-5.48389 -2.66607,-10.55714 10e-4,-16.08572 1.0133,-2.10022 1.56326,-2.85257 3.48092,-4.76199 3.62968,-3.61405 7.72755,-5.3398 12.70198,-5.34921 8.35146,-0.0158 15.68299,5.71579 17.81213,13.92506 0.52326,2.01754 0.54009,6.16569 0.0339,8.34799 -1.47072,6.34008 -6.30854,11.44929 -12.69973,13.41212 -2.44922,0.7522 -6.26202,0.92699 -8.70906,0.39925 z"
       id="path189" /><path
       style="fill:#1a1a1a;fill-opacity:1;stroke:#000000;stroke-width:1;stroke-opacity:1"
       d="m 267.23012,751.2862 c -1.59942,-0.43597 -2.94763,-1.29847 -4.05871,-2.59652 -1.81264,-2.11766 -1.73429,-0.87988 -1.73429,-27.39725 0,-26.73402 -0.0972,-25.30688 1.87658,-27.54923 0.58306,-0.66239 1.71204,-1.51487 2.55332,-1.92799 l 1.5081,-0.74058 h 24.1534 24.15339 l 1.77672,0.87468 c 1.25727,0.61895 2.04823,1.23027 2.70544,2.091 1.78729,2.34073 1.72742,1.33094 1.64816,27.80036 -0.0712,23.78487 -0.0733,23.86757 -0.63865,25.09049 -0.72339,1.56486 -2.26169,3.10316 -3.93043,3.93043 l -1.30842,0.64864 -23.75199,0.0516 c -18.21394,0.0396 -24.03192,-0.0247 -24.95262,-0.27565 z m 27.28995,-9.68076 c 10.60326,-1.53286 18.09097,-10.66806 17.50501,-21.35655 -0.18432,-3.36213 -0.66908,-5.27077 -2.04745,-8.06138 -4.59235,-9.29756 -15.46557,-13.67756 -25.3079,-10.19463 -2.76161,0.97725 -4.68871,2.16763 -7.02836,4.34145 -3.05146,2.83517 -5.11688,6.34636 -6.04249,10.27217 -0.50715,2.151 -0.50715,7.22087 0,9.37186 0.92171,3.90925 2.95421,7.3745 6.0133,10.25221 2.20884,2.07787 4.16469,3.31668 6.72144,4.2573 3.40627,1.25315 6.72782,1.61756 10.18645,1.11757 z"
       id="path191" /><path
       style="fill:#1a1a1a;fill-opacity:1;stroke:#1a1a1a;stroke-width:1;stroke-opacity:1"
       d="m 235.77295,330.34531 c 0,-6.0203 -0.0462,-6.51813 -0.73076,-7.87124 -1.06164,-2.09851 -2.95253,-3.39477 -5.65313,-3.87537 -15.06064,-2.68022 -27.49575,-10.15006 -36.51861,-21.93692 -4.96934,-6.49162 -8.83069,-15.11098 -10.3887,-23.18981 -0.83474,-4.3284 -1.3998,-5.65891 -2.97647,-7.00848 -1.7724,-1.51711 -3.30405,-1.79252 -9.96885,-1.79252 h -5.86461 v -2.11107 -2.11107 h 6.26944 c 6.12912,0 6.30805,-0.0192 7.9945,-0.85963 2.44443,-1.21811 3.32179,-2.74063 4.22338,-7.32906 4.56927,-23.25403 22.39532,-40.97679 45.63214,-45.36773 4.16129,-0.78634 5.57438,-1.57205 6.90818,-3.84114 0.9048,-1.53927 0.91186,-1.5954 1.02116,-8.12677 l 0.11006,-6.57679 h 2.0822 2.0822 v 6.27497 c 0,6.20191 0.0104,6.29547 0.89315,8.03629 1.32629,2.61551 2.65075,3.37644 7.56606,4.34684 19.37922,3.82593 35.08856,16.98397 42.28514,35.41774 1.04383,2.67375 1.9437,5.93165 3.31831,12.01372 0.58905,2.60627 1.67368,4.16462 3.60307,5.17675 1.1513,0.60396 1.95144,0.68258 7.85861,0.77219 l 6.57679,0.0998 v 2.0925 2.09249 h -6.26944 c -6.12912,0 -6.30805,0.0192 -7.9945,0.85963 -2.20181,1.09721 -3.39863,2.90223 -3.90849,5.89474 -4.06097,23.83452 -22.22419,42.32715 -45.97159,46.8053 -4.2535,0.8021 -5.71797,1.66037 -6.96502,4.08193 -0.79329,1.54043 -0.83455,1.89301 -0.94026,8.03533 l -0.11057,6.42419 h -2.08169 -2.0817 z"
       id="path1082" /><path
       style="fill:#1a1a1a;fill-opacity:1;stroke:#4d4d4d;stroke-width:1"
       d="m 163.78864,257.28223 c 0.0926,-0.49123 0.26012,-1.9162 0.37218,-3.1666 0.34565,-3.85681 1.73866,-10.12043 3.27937,-14.74553 8.02141,-24.0797 28.10082,-42.70464 52.74332,-48.92282 3.12397,-0.78829 7.58171,-1.54879 11.2861,-1.92544 l 2.02988,-0.20639 v 5.8726 c 0,8.54266 -0.3854,9.15422 -6.53853,10.37563 -18.42711,3.65779 -33.66767,15.25204 -41.92018,31.89074 -2.55007,5.14144 -4.14587,10.08856 -5.47376,16.9691 -0.45828,2.3746 -1.81844,3.9985 -3.71595,4.43649 -0.71452,0.16493 -3.75876,0.30335 -6.76499,0.30761 l -5.46587,0.008 z"
       id="path1084" /><path
       style="fill:#1a1a1a;fill-opacity:1;stroke:#4d4d4d;stroke-width:1"
       d="m 229.76452,336.39384 c -26.99792,-3.04756 -50.79328,-21.35759 -60.92173,-46.87799 -2.38214,-6.00221 -4.22117,-13.35788 -4.67827,-18.71196 -0.11259,-1.31887 -0.27512,-2.73804 -0.36117,-3.1537 l -0.15645,-0.75574 6.32279,0.10618 c 5.78597,0.0972 6.39885,0.16304 7.21874,0.77582 1.58067,1.18137 2.03872,2.1715 2.89278,6.25312 1.21968,5.82894 2.45374,9.35857 5.18759,14.8375 2.85902,5.72977 5.67403,9.77885 9.85937,14.18161 8.62003,9.0678 19.6967,15.16512 31.73111,17.46684 3.63419,0.69508 4.63135,1.16546 5.80819,2.73983 0.6132,0.82034 0.6781,1.4276 0.77012,7.20628 0.0943,5.92221 0.0643,6.30785 -0.48717,6.26798 -0.32321,-0.0233 -1.75687,-0.17446 -3.1859,-0.33577 z"
       id="path1086" /><path
       style="fill:#1a1a1a;fill-opacity:1;stroke:#4d4d4d;stroke-width:1"
       d="m 299.6703,257.71116 c -2.39043,-0.853 -2.81858,-1.58503 -3.81252,-6.51855 -3.66786,-18.20579 -15.40436,-33.45997 -31.99138,-41.57986 -4.81668,-2.35792 -8.58209,-3.67044 -13.47836,-4.69819 -4.72195,-0.99115 -6.17077,-1.58672 -7.05619,-2.9006 -0.70499,-1.04613 -0.73853,-1.38133 -0.73853,-7.38107 0,-3.45685 0.11517,-6.28518 0.25593,-6.28518 0.14076,0 1.93111,0.20926 3.97855,0.46502 11.96867,1.4951 22.85594,5.62979 32.79042,12.45291 4.36974,3.00118 7.416,5.6069 11.57682,9.90259 9.30395,9.60553 15.50823,20.66713 18.77966,33.48224 0.93232,3.65217 2.12151,10.886 2.12151,12.90514 0,0.58643 -0.30132,0.619 -5.60245,0.60551 -3.82949,-0.01 -5.98886,-0.15214 -6.82346,-0.44996 z"
       id="path1088" /><path
       style="fill:#1a1a1a;fill-opacity:1;stroke:#4d4d4d;stroke-width:1"
       d="m 242.3249,330.46177 c 0.097,-5.7735 0.163,-6.38655 0.77566,-7.20629 1.18269,-1.58243 2.17182,-2.02925 6.33209,-2.86041 23.48707,-4.69236 41.89612,-23.31363 46.43689,-46.97223 0.66775,-3.47916 1.14738,-4.47847 2.71006,-5.64639 0.81991,-0.6128 1.43277,-0.67865 7.22079,-0.77584 l 6.32483,-0.10621 -0.19591,1.73011 c -1.19107,10.51857 -3.29919,17.9842 -7.45853,26.41337 -11.17834,22.65366 -32.93361,38.14197 -57.96776,41.26919 -2.04744,0.25577 -3.84896,0.46502 -4.00338,0.46502 -0.15442,0 -0.23305,-2.83964 -0.17474,-6.31032 z"
       id="path1090" /><path
       style="fill:#1a1a1a;fill-opacity:1;stroke:#000000;stroke-width:0.999998;stroke-opacity:1"
       d="m 311.60253,113.45766 c -0.55307,-0.55307 -0.67321,-1.83753 -0.67321,-7.19731 0,-4.50308 0.15925,-6.68335 0.51409,-7.03819 0.38766,-0.38766 6.43841,-0.5141 24.60307,-0.5141 21.32785,0 24.16614,0.0772 24.76219,0.67322 0.55166,0.55166 0.67322,1.82364 0.67322,7.0445 0,6.09825 -0.0408,6.39986 -0.95215,7.03819 -0.83385,0.58406 -3.89051,0.66691 -24.60307,0.66691 -20.92962,0 -23.72838,-0.0775 -24.32414,-0.67322 z"
       id="path1092" /><path
       style="fill:#000000;fill-opacity:1;stroke:#4d4d4d;stroke-width:0.999998"
       d="m 78.977784,134.18912 c -2.35328,-2.74929 -2.18932,-3.66269 2.26682,-12.62797 C 92.012734,99.89682 104.871,81.96966 121.771,65.058734 153.11752,33.69194 193.3541,12.833792 237.03838,5.305545 252.10894,2.708387 253.57756,2.630423 291.07604,2.43687 l 34.76922,-0.179466 1.35092,1.207149 c 0.9677,0.864713 1.41875,1.712966 1.59003,2.990242 l 0.23911,1.783092 -33.78877,0.194148 c -36.2509,0.208295 -38.76527,0.335101 -53.2555,2.685802 -38.392,6.2282 -72.8916,22.039868 -103.29303,47.340693 -6.79226,5.652686 -19.46547,18.33117 -25.22484,25.23531 -8.3636,10.02603 -16.479016,21.67655 -22.544486,32.36489 -3.07683,5.42188 -9.61802,18.64996 -9.61802,19.45027 0,0.91062 -0.80534,0.45303 -2.32289,-1.31988 z"
       id="path1094" /><path
       style="fill:#000000;fill-opacity:1;stroke:#000000;stroke-width:1;stroke-opacity:1"
       d="m 398.44844,615.98373 c 0,-216.02489 -0.0215,-633.986049 0.12697,-525.973599 0.14845,108.012439 0.29139,614.347419 0.14294,722.359859 -0.0401,29.20619 -0.0907,43.20012 -0.12499,45.04791 -0.0926,4.98585 -0.14492,-83.82167 -0.14492,-241.43417 z"
       id="path1150"
       sodipodi:nodetypes="sssss" /><path
       style="fill:#1a1a1a;fill-opacity:1;stroke:#000000;stroke-width:1;stroke-opacity:1"
       d="m 400.62988,903.164 c -1.48283,-2.11702 -0.83255,-44.16773 -0.83255,-417.61555 0,-373.44781 -0.81158,-415.197415 0.67125,-417.31444 1.37591,-1.964385 3.40896,-2.252646 8.48523,-2.252646 1.77094,0 3.84166,-0.08796 5.42907,0.210876 1.40618,0.264716 3.16687,2.038026 3.49464,2.365798 0.49522,0.495217 0.3217,4.318356 0.43962,16.36819 0.1111,11.353396 -0.22256,28.989262 -0.22256,55.337332 0,44.70634 0.60945,61.76349 0.136,69.7887 -0.25741,4.36328 -1.18492,6.13499 -1.9011,8.04917 -1.16098,3.10304 -3.86364,8.15599 -5.61012,10.90989 l -3.1754,5.00708 0.39853,40.34769 c 0.37154,37.61503 -0.21444,39.05077 1.63547,41.67417 1.08842,1.5435 2.94744,6.13491 4.62112,9.33312 l 3.04306,5.81494 1.31284,7.9315 -0.0707,19.78753 -0.10737,15.79956 -0.21131,97.91413 c -0.20099,93.13106 1.25117,126.69008 -0.28021,141.09354 -0.44236,4.16066 -1.62132,6.51589 -2.28217,8.50207 -0.90516,2.72046 -2.09268,4.90784 -3.84656,7.82045 l -3.66064,6.0791 0.3792,15.57297 0.11069,25.0662 c 0.11714,26.5248 0.58051,40.42685 1.28995,40.8653 0.59597,0.36833 2.69223,4.04112 4.32574,8.44952 l 3.32256,8.96672 1.09731,9.02354 -0.19118,15.86739 -0.18943,57.8651 c -0.2026,61.8851 0.4238,84.47685 -0.4696,85.55336 -0.77641,0.93553 -4.47782,2.42762 -8.42197,2.42762 -5.161,0 -7.33923,-0.63936 -8.71946,-2.60992 z"
       id="path1152"
       sodipodi:nodetypes="ssssssssssscsssccccssssccssscccsssss" /><path
       style="fill:#1a1a1a;fill-opacity:1;stroke:#000000;stroke-width:1;stroke-opacity:1"
       d="M 389.22472,464.93186 V 72.687962 h 4.22905 4.22904 V 464.93186 L 398.8,857.9 393.4746,858.08261 388.6,857.9 Z"
       id="path1154"
       sodipodi:nodetypes="ccccccccc" /><path
       style="fill:#00bbdb;fill-opacity:1;stroke:#000000;stroke-width:1;stroke-opacity:1"
       d="m 409.89998,273.33293 v -38.63294 h 3.04188 c 1.74435,0 3.58682,0.88543 4.31941,2.07573 1.73761,2.82321 1.73761,70.29119 0,73.11439 -0.73259,1.19032 -2.57506,2.07573 -4.31941,2.07573 h -3.04188 z"
       id="path1156" /><path
       style="fill:#00bbdb;fill-opacity:1;stroke:#000000;stroke-width:1;stroke-opacity:1"
       d="m 409.89998,676.164 v -38.66403 h 3.04381 c 1.74545,0 3.58909,0.88613 4.32215,2.07741 1.7387,2.82547 1.7387,70.34777 0,73.17325 -0.73306,1.19129 -2.5767,2.0774 -4.32215,2.0774 h -3.04381 z"
       id="path1158" /><path
       style="opacity:1;fill:#1a1a1a;fill-opacity:1;stroke:#4d4d4d;stroke-width:1"
       d=""
       id="path1502-3" /></g><g
     id="g315"
     transform="translate(56.713,299.7467)"><g
       class="st0"
       id="g64"><path
         class="st2"
         d="m 597.9,233.9 v 79.5 h -4.2 c -3.3,0 -6,-2.7 -6,-6 v -67.6 c 0,-3.3 2.7,-6 6,-6 h 4.2 z"
         id="path36" /><path
         class="st2"
         d="m 597.9,636.6 v 79.5 h -4.2 c -3.3,0 -6,-2.7 -6,-6 v -67.6 c 0,-3.3 2.7,-6 6,-6 h 4.2 z"
         id="path38" /><path
         class="st2"
         d="m 929,134.9 -3.4,3.4 C 892.4,60.3 815.8,9.6 730.9,9.6 H 676.7 V 7 c 0,-3.3 2.7,-6 6,-6 0,0 0,0 0,0 h 51.2 c 84.8,0 161.7,49.8 196.4,127.2 1,2.3 0.5,4.9 -1.3,6.7 z"
         id="path40" /><path
         class="st2"
         d="M 679.5,94.5 V 82.8 c 0,-1.6 -1.3,-3 -3,-3 v 0 h -11.7 c -1.6,0 -3,1.3 -3,3 0,0 0,0 0,0 v 11.7 c 0,1.6 -1.3,3 -3,3 v 0 h -11.7 c -1.6,0 -3,1.3 -3,3 0,0 0,0 0,0 v 11.7 c 0,1.6 1.3,3 3,3 v 0 h 11.7 c 1.6,0 3,1.3 3,3 0,0 0,0 0,0 v 11.7 c 0,1.6 1.3,3 3,3 v 0 h 11.7 c 1.6,0 3,-1.3 3,-3 v 0 -11.7 c 0,-1.6 1.3,-3 3,-3 v 0 h 11.7 c 1.6,0 3,-1.3 3,-3 0,0 0,0 0,0 v -11.7 c 0,-1.6 -1.3,-3 -3,-3 v 0 h -11.7 c -1.7,0 -3,-1.4 -3,-3 0,0 0,0 0,0 z"
         id="path42" /><circle
         class="st2"
         cx="768.90002"
         cy="333.89999"
         r="37.5"
         id="circle44" /><circle
         class="st2"
         cx="768.90002"
         cy="187.10001"
         r="37.5"
         id="circle46" /><circle
         class="st2"
         cx="842.29999"
         cy="260.5"
         r="37.5"
         id="circle48" /><circle
         class="st2"
         cx="695.5"
         cy="260.5"
         r="37.5"
         id="circle50" /><circle
         class="st2"
         cx="715"
         cy="721.29999"
         r="27.9"
         id="circle52" /><path
         class="st2"
         d="m 765.6,460.3 v 12.3 c 0,3 -2.2,5.5 -5.2,5.9 -25.2,3.7 -45,23.5 -48.7,48.7 -0.4,2.9 -2.9,5.1 -5.9,5.2 h -12.3 c 1.7,-39.1 33,-70.4 72.1,-72.1 z"
         id="path54" /><path
         class="st2"
         d="m 765.6,598.8 v 12.3 c -39.1,-1.7 -70.3,-33 -72.1,-72 h 12.3 c 3,0 5.5,2.2 5.9,5.2 3.7,25.2 23.5,45 48.7,48.7 3,0.3 5.2,2.8 5.2,5.8 z"
         id="path56" /><path
         class="st2"
         d="m 844.3,539 c -1.7,39.1 -33,70.3 -72.1,72 v -12.3 c 0,-3 2.2,-5.5 5.2,-5.9 25.2,-3.7 45,-23.5 48.7,-48.7 0.4,-2.9 2.9,-5.1 5.9,-5.2 z"
         id="path58" /><path
         class="st2"
         d="M 844.3,532.4 H 832 c -3,0 -5.5,-2.2 -5.9,-5.2 -3.7,-25.2 -23.5,-45 -48.7,-48.7 -2.9,-0.4 -5.1,-2.9 -5.2,-5.9 v -12.3 c 39.1,1.7 70.4,33 72.1,72.1 z"
         id="path60" /><path
         class="st2"
         d="m 844.4,535.7 c 0,1.1 0,2.2 -0.1,3.3 H 832 c -3,0 -5.5,2.2 -5.9,5.2 -3.7,25.2 -23.5,45 -48.7,48.7 -2.9,0.4 -5.1,2.9 -5.2,5.9 v 12.3 c -1.1,0.1 -2.2,0.1 -3.3,0.1 -1.1,0 -2.2,0 -3.3,-0.1 v -12.3 c 0,-3 -2.2,-5.5 -5.2,-5.9 -25.2,-3.7 -45,-23.5 -48.7,-48.7 -0.4,-2.9 -2.9,-5.1 -5.9,-5.2 h -12.3 c -0.1,-1.1 -0.1,-2.2 -0.1,-3.3 0,-1.1 0,-2.2 0.1,-3.3 h 12.3 c 3,0 5.5,-2.2 5.9,-5.2 3.7,-25.2 23.5,-45 48.7,-48.7 2.9,-0.4 5.1,-2.9 5.2,-5.9 v -12.3 c 1.1,-0.1 2.2,-0.1 3.3,-0.1 1.1,0 2.2,0 3.3,0.1 v 12.3 c 0,3 2.2,5.5 5.2,5.9 25.2,3.7 45,23.5 48.7,48.7 0.4,2.9 2.9,5.1 5.9,5.2 h 12.3 c 0,1.1 0.1,2.2 0.1,3.3 z"
         id="path62" /></g><path
       class="st3"
       d="m 601.6,906.6 h -7.9 c -3.6,0 -6.4,-2.9 -6.5,-6.5 V 742.9 c 0,-4.9 1.2,-9.6 3.4,-13.9 l 6.7,-13 v -79.2 l -6.7,-13 c -2.2,-4.3 -3.4,-9.1 -3.4,-14 V 340.1 c 0,-4.9 1.2,-9.6 3.4,-13.9 l 6.7,-13 V 234 l -6.7,-13 c -2.2,-4.3 -3.4,-9.1 -3.4,-14 V 71.2 c 0,-3.6 2.9,-6.4 6.5,-6.5 h 7.9 c 3.6,0 6.4,2.9 6.5,6.5 1.06259,276.29779 1.22068,552.59764 0,828.9 -0.1,3.6 -3,6.5 -6.5,6.5 z M 593.7,65.7 c -3,0 -5.5,2.4 -5.5,5.5 V 207 c 0,4.7 1.1,9.3 3.3,13.5 l 6.8,13.1 c 0,0.1 0.1,0.1 0.1,0.2 v 79.5 c 0,0.1 0,0.2 -0.1,0.2 l -6.8,13.1 c -2.2,4.2 -3.3,8.8 -3.3,13.5 v 269.7 c 0,4.7 1.1,9.3 3.3,13.5 l 6.8,13.1 c 0,0.1 0.1,0.1 0.1,0.2 v 79.5 c 0,0.1 0,0.2 -0.1,0.2 l -6.8,13.1 c -2.2,4.2 -3.3,8.8 -3.3,13.5 v 157.2 c 0,3 2.4,5.5 5.5,5.5 h 7.9 c 3,0 5.5,-2.4 5.5,-5.5 V 71.2 c 0,-3 -2.4,-5.5 -5.5,-5.5 z"
       id="path72"
       style="fill:#000000"
       sodipodi:nodetypes="sscsccccssccccsscsccssssccssccssccssccssssssss" /><path
       class="st3"
       d="m 618.8,858.9 h -11.3 c -0.3,0 -0.5,-0.2 -0.5,-0.5 v 0 l 0.75749,-786.429231 c 2.9e-4,-0.3 0.2,-0.5 0.5,-0.5 h 11.3 C 619.85749,71.470769 619.3,71.7 619.3,72 v 786.4 c 0,0.3 -0.2,0.5 -0.5,0.5 z m -9.93686,-1 H 618.3 l 0.75749,-785.429231 h -10.3 l 1.00926,8.753045 c -0.5826,256.113716 4.51479,511.751226 -1.08804,768.299606 -0.0608,2.78307 0.24763,5.59331 0.18443,8.37658 z"
       id="path74"
       style="fill:#000000"
       sodipodi:nodetypes="ssscsssssscccccsc" /><path
       class="st3"
       d="m 730.68234,1000.2542 h -106.2 c -3.6,0 -6.5,-2.89995 -6.5,-6.49995 V 15.754249 c 0,-3.6 2.9,-6.5000003 6.5,-6.5000003 h 106.2 c 116.8,0 211.9,95.1000013 211.9,211.9000013 v 567.2 c 0,117 -94.8,211.89995 -211.9,211.89995 0,0 0,0 0,0 z m -106.2,-989.899951 c -3,0 -5.5,2.4 -5.5,5.5 V 993.85425 c 0,3 2.4,5.5 5.5,5.5 h 106.2 c 116.3,0 210.9,-94.6 210.9,-210.9 v -567.3 c 0,-116.3 -94.6,-210.900001 -210.9,-210.900001 z"
       id="path76"
       style="fill:#000000" /><path
       class="st2"
       d="m 597.9,314.3 h -4.2 c -3.8,0 -6.9,-3.1 -7,-7 v -67.6 c 0,-3.8 3.1,-6.9 7,-7 h 4.2 c 0.6,0 1,0.4 1,1 0,0 0,0 0,0 v 79.5 c 0,0.7 -0.5,1.1 -1,1.1 0,0 0,0 0,0 z m -4.2,-79.5 c -2.7,0 -5,2.2 -5,5 v 67.6 c 0,2.7 2.2,5 5,5 h 3.2 v -77.5 h -3.2 z"
       id="path128"
       style="fill:#000000" /><path
       class="st2"
       d="m 597.9,717.1 h -4.2 c -3.8,0 -6.9,-3.1 -7,-7 v -67.6 c 0,-3.8 3.1,-6.9 7,-7 h 4.2 c 0.6,0 1,0.4 1,1 0,0 0,0 0,0 V 716 c 0,0.6 -0.5,1.1 -1,1.1 0,0 0,0 0,0 z m -4.2,-79.5 c -2.7,0 -5,2.2 -5,5 v 67.6 c 0,2.7 2.2,5 5,5 h 3.2 v -77.5 h -3.2 z"
       id="path130"
       style="fill:#000000" /><path
       style="fill:#ff5f53;fill-opacity:1;stroke:#000005;stroke-width:1.00051;stroke-opacity:0.956863"
       d="m 748.76734,998.67923 c 26.61833,-2.35509 50.50138,-9.19997 75.94584,-21.76611 5.0911,-2.51431 10.04483,-5.20072 14.85582,-8.05153 19.10445,-11.32055 36.26919,-27.08285 49.59754,-41.73902 25.48932,-28.02866 45.45624,-70.0817 51.37605,-116.52411 0.084,-0.65912 0.3966,-4.2662 0.37335,-6.75389 -0.0641,-6.85752 0.64519,-20.00285 0.80157,-38.33851 0.66141,-77.55489 1.0938,-244.03988 1.06613,-376.43674 -0.0211,-101.20234 -0.3111,-182.48746 -0.97305,-188.91287 -2.68737,-26.08933 -9.30087,-49.05862 -20.7698,-72.13549 C 889.27628,64.106475 828.08674,20.577545 757.0364,11.351548 745.67399,9.8761207 696.33771,9.7004055 660.43479,10.025388 c -7.73693,0.07003 -14.06771,-0.081483 -20.13516,0.05607 -7.4696,0.169301 -12.89971,-0.06855 -16.20341,0.248963 -1.72548,0.165835 -3.02594,0.790181 -3.22758,0.989913 -0.10173,0.100777 -1.42468,1.382777 -1.53437,3.347983 -0.28881,5.173999 -0.25578,17.11445 -0.43762,38.051844 -0.0367,4.233968 -0.0729,8.833333 -0.10824,13.815332 -0.035,4.930626 0.13264,10.123636 0.0992,15.820541 -0.0515,8.771897 0.12426,18.558756 0.0715,29.251086 -0.0484,9.8101 -0.24503,20.49671 0.002,32.01614 0.19247,8.97238 0.20413,18.37601 0.1562,28.43632 -0.072,15.10409 0.59165,31.14878 0.32443,48.96901 -0.22457,14.97582 0.11579,29.98781 -0.0372,46.92447 -0.10009,11.07577 0.0792,22.61567 -0.021,34.60622 -0.0602,7.20067 -0.008,14.53968 -0.0794,22.07309 -0.49593,52.10724 -0.0184,112.20821 -0.0184,180.33298 0,254.31464 -0.31499,376.10005 -0.0496,435.15254 0.0344,7.66703 -0.1971,14.45107 -0.13045,20.14913 0.0257,2.19566 -0.0445,4.29755 -0.0184,6.23195 0.0449,3.31894 -0.0346,6.64265 0.013,9.25764 0.0534,2.93004 -0.065,5.80443 -0.006,7.96224 0.13585,4.98798 0.0957,8.09705 0.27441,10.03685 0.26175,2.84095 1.26489,3.57892 1.56035,3.82606 0.21876,0.18298 1.30179,0.92883 3.07939,1.08771 4.53273,0.40514 14.55751,0.34773 27.08968,0.22654 9.86391,-0.0954 21.28116,-0.23028 32.79643,-0.21023 32.13223,0.0559 65.23405,0.25492 64.87309,-0.006 z"
       id="path1240"
       sodipodi:nodetypes="ssssssssccsssssssssssssssssssssssssssss" /><path
       class="st3"
       d="m 715,763.2 c -23.1,0 -41.9,-18.7 -41.9,-41.9 0,-23.2 18.7,-41.9 41.9,-41.9 23.2,0 41.9,18.7 41.9,41.9 v 0 c -0.1,23.1 -18.8,41.8 -41.9,41.9 z m 0,-82.8 c -22.6,0 -40.9,18.3 -40.9,40.9 0,22.6 18.3,40.9 40.9,40.9 22.6,0 40.9,-18.3 40.9,-40.9 v 0 C 755.8,698.7 737.6,680.4 715,680.4 Z"
       id="path78"
       style="fill:#000000" /><path
       class="st2"
       d="m 782.2,203.2 h -5.5 L 769.05805,192.28414 761.1,203.2 h -5.4 l 10.6,-16.3 -9.8,-15.6 h 5.2 l 7.43748,10.56391 L 776.4,171.3 h 5 l -9.8,15.4 z"
       id="path88"
       style="fill:#ffffff;fill-opacity:1"
       sodipodi:nodetypes="ccccccccccccc" /><path
       class="st2"
       d="m 709.2,244.5 -11.6,20.6 v 11.4 h -4.4 V 265 l -11.6,-20.5 h 5.3 l 6.4,11.7 2.08146,2.98786 L 697.8,256.6 l 6.4,-12.1 z"
       id="path90"
       style="fill:#ffffff"
       sodipodi:nodetypes="cccccccccccc" /><path
       class="st2"
       d="m 855.9,276.5 h -4.7 l -2.2,-7 -12.36339,0.32833 L 833.4,276.5 h -4.5 L 838.82682,241.29573 845.5,244.5 Z m -8.73488,-11.27058 -4.88343,-14.5941 -4.58555,14.81187 z"
       id="path92"
       style="fill:#ffffff"
       sodipodi:nodetypes="ccccccccccccc" /><path
       class="st2"
       d="m 779.4,340.4 c 0,1.4 -0.3,2.8 -0.9,4.1 -0.6,1.2 -1.5,2.2 -2.5,3 -1.2,0.9 -2.6,1.5 -4,1.9 -1.7,0.4 -3.4,0.7 -5.2,0.6 h -8.4 v -32 h 9.2 c 7.1,0 10.7,2.6 10.7,7.8 0,1.6 -0.4,3.1 -1.2,4.5 -1,1.4 -1.00535,2.3267 -2.60535,2.8267 0.9,0.2 0.30535,0.3733 1.10535,0.7733 0.8,0.4 1.5,0.9 2,1.5 0.6,0.6 1.1,1.4 1.4,2.2 0.2,0.8 0.4,1.8 0.4,2.8 z m -5.7,-14.1 c 0,-0.6 -0.1,-1.3 -0.3,-1.8 -0.2,-0.6 -0.6,-1.1 -1,-1.5 -0.6,-0.5 -1.3,-0.8 -2,-1 -1,-0.3 -2.1,-0.4 -3.2,-0.4 h -4.5 v 10 h 4.4 c 0.9,0 1.8,-0.1 2.7,-0.3 0.8,-0.2 1.5,-0.5 2.1,-1 0.6,-0.4 1,-1 1.3,-1.7 0.4,-0.7 0.5,-1.5 0.5,-2.3 z m 1.1,14.2 c 0,-0.8 -0.2,-1.5 -0.5,-2.2 -0.4,-0.7 -0.9,-1.2 -1.5,-1.7 -0.7,-0.5 -1.5,-0.8 -2.4,-1 -1,-0.3 -2.1,-0.4 -3.2,-0.4 h -4.5 v 11 h 4.6 c 2.5,0 4.4,-0.5 5.6,-1.4 1.3,-1 2,-2.6 1.9,-4.3 z"
       id="path94"
       style="fill:#ffffff"
       sodipodi:nodetypes="sccccccssccsccsscccsccscccsccccsccscc" /><path
       class="st2"
       d="m 925.6,139.3 c -0.1,0 -0.1,0 -0.2,0 -0.3,-0.1 -0.6,-0.3 -0.7,-0.6 C 891.7,61 815.4,10.5 730.9,10.6 h -54.2 c -0.6,0 -1,-0.4 -1,-1 0,0 0,0 0,0 V 7 c 0,-3.8 3.1,-6.9 7,-7 h 51.2 c 85.2,0.1 162.4,50.1 197.3,127.8 1.2,2.6 0.6,5.7 -1.5,7.8 l -3.4,3.4 c -0.2,0.2 -0.5,0.3 -0.7,0.3 z M 677.7,8.6 h 53.2 c 84.7,-0.1 161.3,50.2 195,128 l 2.4,-2.4 v 0 c 1.5,-1.4 1.9,-3.6 1.1,-5.5 C 894.8,51.7 818.3,2.1 733.9,2 h -51.2 c -2.7,0 -5,2.2 -5,5 z"
       id="path132"
       style="fill:#000000" /><path
       class="st2"
       d="m 676.5,133.7 h -11.7 c -2.2,0 -4,-1.8 -4,-4 V 118 c 0,-1.1 -0.9,-2 -2,-2 h -11.7 c -2.2,0 -4,-1.8 -4,-4 v -11.7 c 0,-2.2 1.8,-4 4,-4 h 11.7 c 1.1,0 2,-0.9 2,-2 V 82.8 c 0,-2.2 1.8,-4 4,-4 h 11.7 c 2.2,0 4,1.8 4,4 v 11.7 c 0,1.1 0.9,2 2,2 h 11.7 c 2.2,0 4,1.8 4,4 v 11.7 c 0,2.2 -1.8,4 -4,4 h -11.7 c -1.1,0 -2,0.9 -2,2 v 11.7 c 0,2 -1.8,3.8 -4,3.8 z M 647.2,98.5 c -1.1,0 -2,0.9 -2,2 v 11.7 c 0,1.1 0.9,2 2,2 h 11.7 c 2.2,0 4,1.8 4,4 v 11.7 c 0,1.1 0.9,2 2,2 h 11.7 c 1.1,0 2,-0.9 2,-2 v -11.7 c 0,-2.2 1.8,-4 4,-4 h 11.7 c 1.1,0 2,-0.9 2,-2 v -11.7 c 0,-1.1 -0.9,-2 -2,-2 h -11.7 c -2.2,0 -4,-1.8 -4,-4 V 82.8 c 0,-1.1 -0.9,-2 -2,-2 h -11.7 c -1.1,0 -2,0.9 -2,2 v 11.7 c 0,2.2 -1.8,4 -4,4 z"
       id="path134"
       style="fill:#000000" /><path
       class="st2"
       d="m 768.9,372.4 c -21.2,0 -38.5,-17.2 -38.5,-38.5 0,-21.2 17.2,-38.5 38.5,-38.5 21.2,0 38.5,17.2 38.5,38.5 -0.1,21.3 -17.3,38.5 -38.5,38.5 z m 0,-74.9 c -20.1,0 -36.5,16.3 -36.5,36.5 0,20.1 16.3,36.5 36.5,36.5 20.1,0 36.5,-16.3 36.5,-36.5 -0.1,-20.2 -16.4,-36.5 -36.5,-36.5 z"
       id="path136"
       style="fill:#000000" /><path
       class="st2"
       d="m 768.9,225.5 c -21.2,0 -38.5,-17.2 -38.5,-38.5 0,-21.2 17.2,-38.5 38.5,-38.5 21.2,0 38.5,17.2 38.5,38.5 -0.1,21.3 -17.3,38.5 -38.5,38.5 z m 0,-74.9 c -20.1,0 -36.5,16.3 -36.5,36.5 0,20.1 16.3,36.5 36.5,36.5 20.1,0 36.5,-16.3 36.5,-36.5 -0.1,-20.2 -16.4,-36.5 -36.5,-36.5 z"
       id="path138"
       style="fill:#000000" /><path
       class="st2"
       d="m 842.3,299 c -21.2,0 -38.5,-17.2 -38.5,-38.5 0,-21.2 17.2,-38.5 38.5,-38.5 21.2,0 38.5,17.2 38.5,38.5 0,21.2 -17.2,38.4 -38.5,38.5 z m 0,-75 c -20.1,0 -36.5,16.3 -36.5,36.5 0,20.1 16.3,36.5 36.5,36.5 20.1,0 36.5,-16.3 36.5,-36.5 0,-20.1 -16.3,-36.5 -36.5,-36.5 z"
       id="path140"
       style="fill:#000000" /><path
       class="st2"
       d="m 695.5,299 c -21.2,0 -38.5,-17.2 -38.5,-38.5 0,-21.2 17.2,-38.5 38.5,-38.5 21.2,0 38.5,17.2 38.5,38.5 -0.1,21.2 -17.3,38.4 -38.5,38.5 z m 0,-75 c -20.1,0 -36.5,16.3 -36.5,36.5 0,20.1 16.20703,36.19743 36.40703,36.19743 C 715.50703,296.69743 732,280.7 732,260.5 731.9,240.4 715.6,224 695.5,224 Z"
       id="path142"
       style="fill:#000000"
       sodipodi:nodetypes="cssccssscs" /><path
       class="st2"
       d="m 715,750.2 c -16,0 -28.9,-13 -28.9,-28.9 0,-15.9 13,-28.9 28.9,-28.9 16,0 28.9,13 28.9,28.9 0,0 0,0 0,0 0,16 -12.9,28.9 -28.9,28.9 z m 0,-55.9 c -14.9,0 -26.9,12.1 -26.9,26.9 0,14.8 12.1,26.9 26.9,26.9 14.9,0 26.9,-12.1 26.9,-26.9 0,-14.8 -12,-26.8 -26.9,-26.9 z"
       id="path144"
       style="fill:#000000" /><path
       class="st2"
       d="m 705.8,533.4 h -12.3 c -0.6,0 -1,-0.4 -1,-1 0,0 0,0 0,0 1.7,-39.6 33.4,-71.3 73,-73 0.3,0 0.5,0.1 0.7,0.3 0.2,0.2 0.3,0.4 0.3,0.7 v 12.3 c 0,3.5 -2.6,6.4 -6,6.9 -24.7,3.7 -44.2,23.1 -47.9,47.9 -0.4,3.3 -3.3,5.9 -6.8,5.9 z m -11.2,-2 h 11.2 c 2.5,0 4.6,-1.8 4.9,-4.3 3.9,-25.6 24,-45.7 49.6,-49.6 2.5,-0.3 4.3,-2.4 4.3,-4.9 v -11.2 c -37.4,2.1 -67.9,32.6 -70,70 z"
       id="path146"
       style="fill:#000000" /><path
       class="st2"
       d="m 765.6,612.1 c 0,0 -0.1,0 0,0 -39.6,-1.7 -71.3,-33.4 -73,-73 0,-0.6 0.4,-1 1,-1 0,0 0,0 0,0 h 12.3 c 3.5,0 6.4,2.6 6.9,6 3.7,24.7 23.1,44.2 47.9,47.9 3.4,0.5 6,3.4 6,6.9 v 12.3 c -0.1,0.4 -0.6,0.9 -1.1,0.9 0,0 0,0 0,0 z m -71,-72.1 c 2.2,37.4 32.6,67.8 70,70 v -11.2 c 0,-2.5 -1.8,-4.6 -4.3,-4.9 -25.6,-3.9 -45.7,-24 -49.6,-49.6 -0.3,-2.5 -2.4,-4.3 -4.9,-4.3 z"
       id="path148"
       style="fill:#000000" /><path
       class="st2"
       d="m 772.2,612.1 c -0.6,0 -1,-0.4 -1,-1 0,0 0,0 0,0 v -12.3 c 0,-3.5 2.6,-6.4 6,-6.9 24.7,-3.7 44.2,-23.1 47.9,-47.9 0.5,-3.4 3.4,-6 6.9,-6 h 12.3 c 0.6,0 1,0.4 1,1 0,0 0,0 0,0 -1.8,39.7 -33.4,71.3 -73.1,73.1 0.1,0 0.1,0 0,0 z M 832,540 c -2.5,0 -4.6,1.8 -4.9,4.3 -3.9,25.6 -24,45.7 -49.6,49.6 -2.5,0.3 -4.3,2.4 -4.3,4.9 V 610 c 37.4,-2.2 67.8,-32.6 70,-70 z"
       id="path150"
       style="fill:#000000" /><path
       class="st2"
       d="M 844.3,533.4 H 832 c -3.5,0 -6.4,-2.6 -6.9,-6 -3.7,-24.7 -23.1,-44.2 -47.9,-47.9 -3.4,-0.5 -6,-3.4 -6,-6.9 v -12.3 c 0,-0.3 0.1,-0.5 0.3,-0.7 0.2,-0.2 0.5,-0.3 0.7,-0.3 39.6,1.7 71.3,33.4 73,73 0.1,0.6 -0.3,1 -0.9,1.1 0,0 0,0 0,0 z m -71.1,-72 v 11.2 c 0,2.5 1.8,4.6 4.3,4.9 25.6,3.9 45.7,24 49.6,49.6 0.3,2.5 2.4,4.3 4.9,4.3 h 11.2 c -2.1,-37.4 -32.6,-67.9 -70,-70 z"
       id="path152"
       style="fill:#000000" /><path
       class="st2"
       d="m 768.9,612.2 c -1.2,0 -2.3,0 -3.4,-0.1 -0.5,0 -0.9,-0.5 -0.9,-1 v -12.3 c 0,-2.5 -1.8,-4.6 -4.3,-4.9 -25.6,-3.9 -45.7,-24 -49.6,-49.6 -0.3,-2.5 -2.4,-4.3 -4.9,-4.3 h -12.3 c -0.5,0 -1,-0.4 -1,-0.9 -0.1,-1.1 -0.1,-2.2 -0.1,-3.4 0,-1.2 0,-2.3 0.1,-3.4 0,-0.5 0.5,-0.9 1,-0.9 h 12.3 c 2.5,0 4.6,-1.8 4.9,-4.3 3.9,-25.6 24,-45.7 49.6,-49.6 2.5,-0.3 4.3,-2.4 4.3,-4.9 v -12.3 c 0,-0.5 0.4,-1 0.9,-1 2.3,-0.1 4.5,-0.1 6.8,0 0.5,0 0.9,0.5 0.9,1 v 12.3 c 0,2.5 1.8,4.6 4.3,4.9 25.6,3.9 45.7,24 49.6,49.6 0.3,2.5 2.4,4.3 4.9,4.3 h 12.3 c 0.5,0 1,0.4 1,0.9 0.1,1.1 0.1,2.2 0.1,3.4 0,1.2 0,2.3 -0.1,3.4 0,0.5 -0.5,0.9 -1,0.9 H 832 c -2.5,0 -4.6,1.8 -4.9,4.3 -3.9,25.6 -24,45.7 -49.6,49.6 -2.5,0.3 -4.3,2.4 -4.3,4.9 v 12.3 c 0,0.5 -0.4,1 -0.9,1 -1.1,0 -2.2,0.1 -3.4,0.1 z m -2.3,-2.1 c 1.5,0.1 3.1,0.1 4.7,0 v -11.3 c 0,-3.5 2.6,-6.4 6,-6.9 24.7,-3.7 44.2,-23.1 47.9,-47.9 0.5,-3.4 3.4,-6 6.9,-6 h 11.3 c 0,-0.8 0,-1.5 0,-2.3 0,-0.8 0,-1.6 0,-2.3 H 832 c -3.5,0 -6.4,-2.6 -6.9,-6 -3.7,-24.7 -23.1,-44.2 -47.9,-47.9 -3.4,-0.5 -6,-3.4 -6,-6.9 v -11.3 c -1.5,-0.1 -3.1,-0.1 -4.7,0 v 11.3 c 0,3.5 -2.6,6.4 -6,6.9 -24.7,3.7 -44.2,23.1 -47.9,47.9 -0.5,3.4 -3.4,6 -6.9,6 h -11.3 c 0,0.8 0,1.5 0,2.3 0,0.8 0,1.6 0,2.3 h 11.3 c 3.5,0 6.4,2.6 6.9,6 3.7,24.7 23.1,44.2 47.9,47.9 3.4,0.5 6,3.4 6,6.9 v 11.3 z"
       id="path154"
       style="fill:#000000" /><path
       style="opacity:1;fill:#1a1a1a;fill-opacity:1;stroke:#000000;stroke-width:1;stroke-opacity:1"
       d="m 686.27756,295.45757 c -6.3268,-1.65761 -11.32251,-3.90411 -16.49956,-9.07174 -7.7249,-7.71084 -11.28942,-16.94502 -10.84116,-27.69713 0.56274,-13.49806 8.02922,-25.02897 20.03386,-30.95782 10.51307,-5.1922 22.55435,-5.30046 32.66309,-0.26666 7.93543,3.95157 12.83197,10.03322 16.62983,17.97347 5.18792,10.84649 4.24806,24.40322 -2.39714,34.5766 -4.99743,7.65076 -13.48676,13.69608 -22.04004,15.69491 -4.81862,1.12607 -12.72306,1.01273 -17.54888,-0.25163 z m 11.6608,-24.5355 v -5.81067 l 5.62044,-9.96942 c 3.09124,-5.48319 5.62044,-10.21511 5.62044,-10.51538 0,-0.30027 -1.15454,-0.54595 -2.56564,-0.54595 h -2.56564 l -4.20029,8.09641 c -2.67942,5.1648 -4.33588,7.8298 -4.57474,7.3601 -0.20594,-0.40496 -2.13104,-4.04835 -4.27799,-8.0964 l -3.90356,-7.36011 h -2.87335 c -1.58035,0 -2.87336,0.12781 -2.87336,0.28402 0,0.1562 2.64964,4.96636 5.88808,10.68923 l 5.88809,10.40522 v 5.63681 5.63682 h 2.40876 2.40876 z"
       id="path1462"
       sodipodi:nodetypes="sssssssssccssscssscssscccccc" /><path
       style="opacity:1;fill:#1a1a1a;fill-opacity:1;stroke:#000000;stroke-width:1;stroke-opacity:1"
       d="m 762.70726,222.86949 c 0,-0.31779 -3.67998,-0.84661 -5.68279,-1.60232 -2.94688,-1.11193 -5.893,-2.63216 -7.96131,-4.01553 -6.91015,-4.62179 -11.71459,-10.88088 -14.5402,-18.94258 -1.34575,-3.83954 -2.05596,-5.2027 -2.05596,-11.44945 0,-6.24676 0.71021,-7.1825 2.05596,-11.02204 3.87774,-11.0635 11.80142,-19.0577 22.76847,-22.97107 4.25097,-1.51687 5.14759,-2.2896 11.56025,-2.2896 6.41266,0 7.33188,0.77273 11.58285,2.2896 14.51853,5.18065 24.01748,17.63258 24.67097,32.86862 0.45428,10.5913 -2.7416,19.49589 -10.18797,26.91404 -7.55957,7.53093 -14.42052,10.69917 -24.62686,10.98514 -3.38565,0.0949 -6.8474,-0.62298 -7.58341,-0.76478 z m 2.38607,-25.68467 c 4.25443,-7.14961 3.37755,-7.25493 8.20926,0.98595 l 3.05431,5.20938 3.12152,0.01 3.12152,0.01 -1.22963,-2.0073 c -0.6763,-1.10401 -3.07664,-4.86619 -5.3341,-8.36039 l -4.10446,-6.35309 4.75516,-7.43514 c 2.61533,-4.08932 4.75516,-7.56602 4.75516,-7.72599 0,-0.15996 -1.24936,-0.21804 -2.77636,-0.12905 l -2.77635,0.16179 -3.10726,5.05393 c -1.70899,2.77966 -3.29562,5.24229 -3.52585,5.47251 -0.23022,0.23022 -1.93136,-2.10426 -3.78031,-5.18775 l -3.36174,-5.60633 h -2.95881 -2.95881 l 1.22685,2.0073 c 0.67476,1.10402 2.8714,4.62127 4.88142,7.81612 l 3.65457,5.80881 -4.85255,7.43415 c -2.66891,4.08878 -4.99211,7.79781 -5.16268,8.24229 -0.25287,0.65897 0.2216,0.80814 2.57051,0.80814 h 2.88063 z"
       id="path1464"
       sodipodi:nodetypes="sssssssssssssscscccsscssscssscccsscssscc" /><path
       style="opacity:1;fill:#1a1a1a;fill-opacity:1;stroke:#000000;stroke-width:1;stroke-opacity:1"
       d="m 834.9366,296.44624 c -6.69858,-0.99593 -15.58735,-5.79462 -20.80585,-12.87465 -3.02683,-4.10655 -6.22101,-10.66585 -7.26537,-15.67097 -2.76322,-13.24277 2.63571,-27.85526 13.26894,-35.91309 19.99373,-15.15118 48.09433,-6.6877 56.44101,16.99918 1.86188,5.28381 2.98287,13.31429 1.68043,19.16849 -1.50813,6.77877 -4.86668,12.85647 -10.19438,18.15862 -5.26572,5.24048 -9.89475,7.95133 -16.43315,9.62357 -4.85615,1.24199 -12.03259,1.20154 -16.69163,0.50885 z m -0.17393,-23.059 1.06927,-3.3455 6.50377,-0.1501 6.50377,-0.1501 0.98735,3.36178 0.98735,3.36179 2.51591,0.16314 c 1.8243,0.1183 2.51592,-0.0335 2.51592,-0.55237 0,-0.39353 -2.29576,-7.75345 -5.10169,-16.35537 l -5.10169,-15.63986 h -3.1506 -3.1506 l -5.20854,15.65695 c -2.86469,8.61132 -5.31927,15.95804 -5.45462,16.32605 -0.17576,0.47789 0.50564,0.6691 2.38452,0.6691 h 2.6306 z"
       id="path1466"
       sodipodi:nodetypes="sssssssssccccccssscccssscc" /><path
       style="opacity:1;fill:#1a1a1a;fill-opacity:1;stroke:#000000;stroke-width:1;stroke-opacity:1"
       d="m 763.70798,369.86416 c -8.12397,-1.27623 -14.23623,-3.96267 -20.56659,-10.26395 -3.76197,-3.74468 -5.37393,-6.19207 -7.19215,-9.96045 -7.60051,-15.75262 -2.96024,-33.08108 10.77538,-44.10464 6.3567,-5.10159 13.61954,-7.5924 22.13836,-7.5924 29.9337,0 46.67982,33.83863 28.70945,58.01278 -2.79638,3.76175 -6.27683,7.45135 -10.51135,9.84091 -7.04064,3.97306 -15.70093,5.26986 -23.3531,4.06775 z m 11.20335,-21.38348 c 3.07353,-1.75995 4.52918,-4.20847 4.57675,-7.69846 0.0443,-3.24643 -1.27165,-5.85301 -3.49954,-6.93201 l -1.49389,-0.72351 1.60877,-1.54129 c 1.87307,-1.79453 2.80455,-4.70189 2.3305,-7.27407 -0.92747,-5.03237 -3.68485,-6.33408 -13.45172,-6.35026 l -7.09246,-0.0118 v 16.10974 16.10973 l 7.3601,-0.18515 c 6.6513,-0.16732 7.58173,-0.31206 9.66149,-1.50296 z"
       id="path1468"
       sodipodi:nodetypes="ssssssssssscssscccsss" /><path
       style="opacity:1;fill:#1a1a1a;fill-opacity:1;stroke:#000000;stroke-width:1;stroke-opacity:1"
       d="m 762.70726,326.44188 v -4.88945 l 3.72999,0.26688 c 4.16057,0.29769 6.24901,1.33706 6.7575,3.36306 0.94714,3.77369 -1.80659,6.14376 -7.14199,6.14695 l -3.3455,0.002 z"
       id="path1470" /><path
       style="opacity:1;fill:#1a1a1a;fill-opacity:1;stroke:#000000;stroke-width:0.999998;stroke-opacity:1"
       d="m 837.54718,264.82028 c 0,-0.76372 4.25204,-14.10124 4.62716,-14.51418 0.17889,-0.19692 1.32644,2.82483 2.55012,6.715 1.22368,3.89017 2.33144,7.35074 2.46168,7.69016 0.18748,0.48856 -0.7918,0.61711 -4.70107,0.61711 -3.25732,0 -4.93789,-0.17292 -4.93789,-0.50809 z"
       id="path1496" /><path
       style="opacity:1;fill:#1a1a1a;fill-opacity:1;stroke:#000000;stroke-width:0.999998;stroke-opacity:1"
       d="m 763.06218,340.74443 v -5.12084 h 3.61513 c 4.59667,0 6.58099,0.93645 7.49973,3.5393 0.55274,1.56594 0.54465,2.04231 -0.0591,3.47983 -0.97646,2.32493 -3.07062,3.22256 -7.51823,3.22256 h -3.53752 z"
       id="path1498" /><path
       style="opacity:1;fill:#1a1a1a;fill-opacity:1;stroke:#1a1a1a;stroke-width:1;stroke-opacity:1"
       d="m 766.92321,602.64753 c -0.29048,-8.92659 -0.82524,-9.72678 -10.1321,-11.86299 -21.0747,-4.8373 -37.20457,-20.14213 -42.61333,-41.34602 -0.55002,-2.15622 -1.08744,-5.19544 -1.08744,-5.87916 0,-0.68371 -1.0064,-2.24952 -2.23643,-3.47956 l -2.34864,-1.94853 -6.86019,-0.2879 h -6.97241 v -1.97332 -1.97332 h 5.94109 c 6.60342,0 9.93688,-1.00153 11.20212,-3.36564 0.44261,-0.82703 1.50127,-3.93512 2.00022,-6.97425 2.67764,-16.30961 14.91214,-30.68661 29.48362,-37.96428 4.71573,-2.35525 11.36654,-4.65443 15.50589,-5.36038 6.61875,-1.12879 8.22218,-3.61509 8.22218,-12.74947 v -5.94109 h 1.97332 1.97332 v 6.89625 c 0,6.61611 0.0735,6.97475 1.80888,8.82901 1.46262,1.5628 3.90685,1.70471 9.49139,3.0655 20.40883,4.97306 35.28463,20.46042 40.71665,40.14848 0.78813,2.85653 1.76467,6.36883 2.17007,7.80511 1.22789,4.35011 3.85392,5.61076 11.68766,5.61076 h 6.48046 v 1.97332 1.97332 h -6.6104 c -6.95598,0 -9.89025,0.84134 -10.81193,3.1001 -0.2638,0.64649 -1.27295,4.60779 -2.13571,8.03332 -5.38972,21.39923 -21.27622,36.72039 -42.13505,41.53173 -9.94989,2.29507 -10.66202,3.14671 -10.66202,12.75068 v 6.28151 h -1.91345 -1.91345 z"
       id="path1500"
       sodipodi:nodetypes="ssssscccccsssssscccsssssscccssssscccs" /><path
       style="opacity:1;fill:#1a1a1a;fill-opacity:1;stroke:#4d4d4d;stroke-width:1"
       d=""
       id="path1502-6" /><path
       style="opacity:1;fill:#1a1a1a;fill-opacity:1;stroke:#4d4d4d;stroke-width:1"
       d="m 695.45795,526.49678 c 1.75282,-15.26781 8.92367,-31.22618 20.42144,-42.95218 11.95352,-12.1908 27.52102,-19.18005 45.72176,-21.6406 l 2.79554,-0.37793 v 6.18375 c 0,7.93282 -0.12396,8.86863 -6.84011,10.24498 -22.30129,4.57023 -41.81316,22.08888 -46.1026,44.18863 -1.7607,9.07134 -2.35691,9.12221 -11.11415,9.12221 h -5.42936 z"
       id="path1504"
       sodipodi:nodetypes="ssscsssscs" /><path
       style="opacity:1;fill:#1a1a1a;fill-opacity:1;stroke:#4d4d4d;stroke-width:1"
       d="M 754.53008,608.24817 C 722.31091,601.3332 698.78801,575.33696 695.1389,542.61223 l -0.23838,-2.13776 h 6.36187 c 6.88754,0 6.85298,0.0191 7.74616,1.01913 1.26613,1.41754 1.51209,3.83358 2.42978,7.89599 4.79388,21.22157 24.19052,39.13835 46.58676,43.98208 6.89875,1.49203 6.3716,2.73181 6.3716,10.28576 v 5.88328 l -2.13776,-0.0463 c -1.17577,-0.0255 -4.65375,-0.58628 -7.72885,-1.24626 z"
       id="path1506"
       sodipodi:nodetypes="sscssssscsss" /><path
       style="opacity:1;fill:#1a1a1a;fill-opacity:1;stroke:#4d4d4d;stroke-width:1"
       d="m 773.33996,603.05325 c -0.28949,-7.25738 0.97796,-8.25157 5.32662,-8.99716 4.85038,-0.83162 11.1113,-2.92244 16.31659,-5.44891 15.80304,-7.67023 27.12455,-21.98721 31.55746,-39.907 0.97744,-3.95125 1.56987,-7.24086 2.2486,-7.73716 0.71733,-0.52453 3.90303,-0.48855 7.84997,-0.48855 h 6.21369 l -0.43161,3.7822 c -3.78834,33.19719 -31.7798,61.26383 -64.82878,65.00289 l -3.98698,0.45108 z"
       id="path1508"
       sodipodi:nodetypes="sssssscsscs" /><path
       style="opacity:1;fill:#1a1a1a;fill-opacity:1;stroke:#4d4d4d;stroke-width:1"
       d="m 828.66155,529.84176 c -1.17591,-1.07273 -1.30676,-2.96446 -2.112,-6.72672 -4.37909,-20.45999 -18.95972,-36.61709 -39.28934,-43.53733 -2.43875,-0.83016 -5.8241,-1.71782 -7.52299,-1.97259 -1.88233,-0.28227 -3.85602,-0.56229 -4.78314,-1.4894 -1.37609,-1.3761 -1.34856,-2.61232 -1.34856,-8.254 v -6.23739 l 2.46665,0.33127 c 18.99503,2.55107 32.67768,9.21103 45.44487,22.12006 10.43139,10.54728 17.44069,23.80984 20.16018,38.14583 0.547,2.88355 0.99455,6.09813 0.99455,7.14349 v 1.90066 h -5.88329 c -5.18197,0 -6.69797,-0.12032 -8.12693,-1.42388 z"
       id="path1510"
       sodipodi:nodetypes="sssssscsssscss" /><path
       style="opacity:1;fill:#1a1a1a;fill-opacity:1;stroke:#000000;stroke-width:0.999999;stroke-opacity:1"
       d="m 663.62068,131.03319 c -0.53326,-0.58925 -0.625,-1.69704 -0.625,-7.54707 v -6.85645 l -1.10115,-1.23333 -1.10115,-1.23332 -7.11278,-0.10646 c -4.06806,-0.0609 -6.47681,0.46167 -7.5734,-0.16401 -1.35335,-0.7722 -0.86115,-3.06574 -0.86115,-7.62988 0,-4.68262 0.12554,-6.289149 0.5353,-6.850301 0.49015,-0.671243 1.10329,-0.741434 7.26979,-0.832236 3.70397,-0.05454 7.12214,-0.18656 7.59593,-0.293374 0.47378,-0.106815 1.19541,-0.741963 1.60361,-1.411441 0.66219,-1.086052 0.74232,-1.921972 0.74358,-7.756551 8.2e-4,-3.782617 0.16622,-6.847257 0.39235,-7.269795 0.3648,-0.681634 0.8563,-0.730476 7.35092,-0.730476 6.49462,0 6.98613,0.04884 7.35092,0.730476 0.22614,0.422538 0.39154,3.487178 0.39236,7.269795 10e-4,5.834579 0.0814,6.670499 0.74358,7.756551 0.4082,0.669478 1.12983,1.304626 1.60361,1.411441 0.47379,0.106814 3.89196,0.238833 7.59593,0.293374 6.1665,0.0908 6.77964,0.160993 7.26979,0.832236 0.40976,0.561152 0.5353,2.167681 0.5353,6.850301 0,4.82187 0.7369,7.18936 -0.88407,7.88102 -1.15658,0.4935 -3.76592,-0.14378 -7.55048,-0.0871 l -7.11278,0.10646 -1.10115,1.23332 -1.10115,1.23333 v 6.92207 c 0,6.22636 -0.0694,6.98488 -0.69062,7.54707 -0.58568,0.53003 -1.66715,0.62501 -7.11685,0.62501 -5.74601,0 -6.49238,-0.0731 -7.05124,-0.69063 z"
       id="path1512"
       sodipodi:nodetypes="sscccssssssssssscssssssscccssss" /><path
       style="opacity:1;fill:#1a1a1a;fill-opacity:1;stroke:#4d4d4d;stroke-width:1.00067"
       d="m 709.8986,726.4428 v -5.25741 h 5.30749 5.20734 v 5.25741 5.25742 h -5.20734 -5.30749 z"
       id="path1514" /><path
       style="opacity:1;fill:#1a1a1a;fill-opacity:1;stroke:#4d4d4d;stroke-width:1"
       d="m 709.32587,761.61376 c -14.84534,-2.33618 -27.22151,-12.34303 -32.43644,-26.22673 -7.52289,-20.0282 2.33277,-43.0312 22.02756,-51.41208 6.07171,-2.58375 7.95693,-3.52014 15.69808,-3.49043 6.50926,0.025 7.91106,0.60374 11.25868,1.62027 14.44352,4.38591 24.64194,14.87492 28.58676,29.40132 0.78714,2.89856 1.10607,5.2416 1.09829,10.74202 -0.008,5.44704 -0.33673,6.15425 -1.11435,9.04799 -4.75273,17.68623 -20.04274,29.95104 -38.0751,30.54176 -2.55811,0.0838 -5.72767,-0.0171 -7.04348,-0.22412 z m 12.01917,-11.94961 c 11.93985,-2.6283 21.26602,-13.04595 22.49006,-25.12213 2.18282,-21.53536 -18.13115,-37.7028 -38.52104,-30.65805 -4.17709,1.44319 -6.99053,3.28712 -10.81791,7.09005 -2.821,2.80297 -3.81838,4.14269 -5.32568,7.15366 -2.55937,5.1126 -3.29841,8.68914 -3.02322,14.63061 0.31524,6.80606 2.15585,11.73401 6.30752,16.88741 6.75846,8.38917 18.22621,12.36591 28.89027,10.01845 z"
       id="path1518"
       sodipodi:nodetypes="cssssscsscssssssss" /><path
       style="opacity:1;fill:#ff5f55;fill-opacity:0.956863;stroke:#000000;stroke-width:1;stroke-opacity:1"
       d="m 591.47251,714.31134 c -1.32743,-0.80942 -2.29002,-0.92179 -2.47367,-5.31313 -0.18144,-4.33862 0.062,-13.48601 0.062,-32.6299 0,-32.80523 -0.46981,-35.19682 0.63005,-36.25656 0.0664,-0.064 0.1032,-0.14627 0.16097,-0.21975 1.14169,-1.45141 2.68891,-2.12685 4.87199,-2.12685 h 1.91275 v 38.63637 38.63636 l -1.98864,-0.002 c -1.28887,-7.5e-4 -2.40626,-0.25607 -3.17548,-0.72512 z"
       id="path1520"
       sodipodi:nodetypes="cssscscccccc" /><path
       style="opacity:1;fill:#ff5f55;fill-opacity:0.956863;stroke:#000000;stroke-width:1;stroke-opacity:1"
       d="m 592.87653,312.11027 c -0.50555,-0.0951 -1.32392,-0.43812 -1.8186,-0.76224 -0.77901,-0.51042 -1.53827,-0.76694 -1.82846,-2.70306 -0.48349,-3.2259 -0.1686,-11.38158 -0.1686,-35.10181 0,-19.2629 -0.52222,-28.34633 -0.3807,-32.53262 0.0922,-2.72597 0.77878,-3.23422 1.00023,-3.60909 0.93375,-1.58064 2.4287,-2.28781 4.83664,-2.28781 h 2.11959 V 273.75 312.38636 l -1.42045,-0.0516 c -0.78125,-0.0284 -1.83409,-0.1294 -2.33965,-0.22451 z"
       id="path1522"
       sodipodi:nodetypes="ssssssscccsss" /><path
       style="opacity:1;fill:#000000;fill-opacity:0.956863;stroke:#4d4d4d;stroke-width:1"
       d="M 921.31509,126.45258 C 911.22775,105.90097 899.41123,89.210741 883.15837,72.558198 848.342,36.885643 804.48862,15.547979 753.51164,9.4762173 748.44895,8.8732107 740.43487,8.6841876 712.59008,8.5110262 L 677.96414,8.2956939 V 6.8885761 c 0,-0.9784616 0.0131,-2.9650392 1.40163,-3.6743483 l 2.12353,-1.1288295 30.378,0.2249304 c 16.92737,0.1253367 33.54939,0.2176979 37.00428,0.4846569 50.75274,3.9216602 97.06468,24.5817024 133.31418,59.4722764 17.58138,16.922285 31.48259,35.738975 42.78184,57.909488 4.28368,8.40514 4.87972,10.05538 4.25358,11.77682 -0.41652,1.14511 -2.66192,4.17147 -3.17716,4.12934 -0.14438,-0.0118 -2.24836,-4.57649 -4.72893,-9.63033 z"
       id="path1524"
       sodipodi:nodetypes="sssscsscsssssss" /><path
       style="opacity:1;fill:#1a1a1a;fill-opacity:1;stroke:#000000;stroke-width:1;stroke-opacity:1"
       d="m 590.08186,903.77298 c -0.55877,-0.54988 -1.70743,-1.18329 -1.55645,-5.03977 0.26239,-6.70193 -0.21555,-27.16243 -0.13871,-79.12435 l 0.29646,-82.56455 2.57494,-6.44666 7.90468,-15.05275 0.10278,-39.42573 L 598.9,636.5 l -7.10988,-13.23431 -2.91024,-7.69331 -0.38184,-7.29025 0.0879,-48.02714 -0.10334,-22.13198 0.0966,-34.13422 0.0553,-10.47634 0.0117,-10.49224 -0.0696,-8.60257 0.0161,-25.57403 -0.005,-19.35155 -0.14968,-27.48393 0.0746,-21.58573 -0.0172,-11.0146 0.10416,-19.60547 -0.0482,-10.22715 0.54617,-5.68471 1.91706,-5.78584 2.96237,-5.52269 5.28838,-9.81904 V 273.28018 L 598.9,233.7 l -5.2812,-9.75149 -2.68351,-5.33049 -1.81693,-5.13665 -0.73664,-7.59716 0.23713,-13.31736 -0.12377,-12.24771 -0.0136,-11.08368 -0.0374,-10.84778 0.0307,-9.87039 0.01,-6.53596 0.018,-2.90392 0.0682,-17.39197 0.0306,-21.51034 -10e-4,-10.808249 -0.0542,-8.443665 0.017,-5.12553 -0.22211,-5.939713 2.2004,-3.055633 L 593.7,65.7 l 3.21783,0.0589 c 1.41548,0.02591 2.72523,0.05679 3.94006,0.2405 0.8633,0.130547 1.83634,0.127121 2.58513,0.398351 0.99296,0.35967 1.67802,1.018584 2.03567,1.315407 0.20827,0.172853 1.21427,1.722556 1.32566,4.747437 0.0757,2.056368 -0.0202,4.681671 -0.01,8.332014 0.0118,4.09125 0.083,9.689119 0.0361,16.361518 -0.0703,10.012523 -0.0176,23.117313 -0.0816,40.379883 -0.0488,13.18104 0.19588,28.6727 0.14409,46.98667 -0.17752,62.76594 -0.24767,157.98682 -0.2362,300.97578 l 0.0334,416.2456 -1.26287,1.82282 c -1.80326,2.60281 -12.60786,2.90243 -15.34573,0.2081 z"
       id="path1530"
       sodipodi:nodetypes="sssccccccccccccccccccccccccccccccccccccccccccccccsssssssssscsss" /><path
       style="opacity:1;fill:#1a1a1a;fill-opacity:1;stroke:#000000;stroke-width:1;stroke-opacity:1"
       d="M 609.12095,465.08874 V 72.721096 h 4.31173 4.31173 V 465.08874 857.45638 h -4.31173 -4.31173 z"
       id="path1532" /><ellipse
       id="path3879"
       style="fill:#999595;fill-opacity:1;stroke:#000000;stroke-width:2.39278;stroke-linecap:round;stroke-linejoin:round;stroke-miterlimit:4;stroke-dasharray:none;stroke-opacity:1"
       cx="714.8844"
       cy="721.06708"
       rx="40.266735"
       ry="40.271378" /><ellipse
       style="fill:#3a3d40;fill-opacity:1;stroke:#000000;stroke-width:2.72654;stroke-linecap:round;stroke-linejoin:round;stroke-miterlimit:4;stroke-dasharray:none;stroke-opacity:1"
       id="path3881"
       cx="714.94818"
       cy="721.38947"
       rx="34.056984"
       ry="34.485676" /><path
       class="st2"
       d="m 715,694.3 -26.77014,26.41636 h 7.64861 v 22.52766 h 38.51622 v -22.52766 h 7.23886 z m 7.78519,40.89843 h -15.16064 v -14.48207 h 15.16064 z"
       id="path96"
       style="fill:#000000;stroke-width:1.35332" /></g><path
     sodipodi:nodetypes="cccccccccccc"
     inkscape:connector-curvature="0"
     id="path4136"
     d="m 680.8329,101.33936 h -13.19009 l -0.0372,-8.255307 h -14.10678 c -3.694,0 -4.86707,3.292534 -4.86707,8.260597 v 75.70196 c 0,3.53235 3.40852,6.31095 6.44045,6.31095 h 9.52259 c 2.5944,0 2.74434,-2.75044 3.01169,-5.11156 v -5.02502 h 13.00529 z"
     style="fill:#1a1a1a;fill-opacity:1;stroke:#000000;stroke-width:2.30124px;stroke-linecap:butt;stroke-linejoin:miter;stroke-opacity:1" /><path
     sodipodi:nodetypes="cc"
     inkscape:connector-curvature="0"
     id="path4138"
     d="M 667.63443,173.06935 V 101.88171"
     style="fill:#1a1a1a;fill-opacity:1;stroke:#000000;stroke-width:2.30124px;stroke-linecap:butt;stroke-linejoin:miter;stroke-opacity:1" /><path
     style="fill:#000000;fill-opacity:1;stroke:#000000;stroke-width:2.30124px;stroke-linecap:butt;stroke-linejoin:miter;stroke-opacity:1"
     d="m 739.15217,56.29539 v 15.946041 h -43.5888 V 56.010642 c 0,-2.098267 1.87258,-3.045238 3.55963,-3.488308 12.17302,-3.196036 25.27663,-3.034074 36.83267,0 1.82189,0.478381 3.1965,1.676837 3.1965,3.773056 z"
     id="path4158"
     inkscape:connector-curvature="0"
     sodipodi:nodetypes="ccccccc" /><path
     style="fill:#1a1a1a;fill-opacity:1;stroke:#000000;stroke-width:2.15573;stroke-linecap:butt;stroke-linejoin:miter;stroke-miterlimit:4;stroke-dasharray:none;stroke-opacity:1"
     d="m 781.18551,200.84448 c 1.81167,5.59747 14.31597,16.05818 26.80398,18.49431 0,3.18475 -2.17456,7.59933 -6.67803,7.59933 h -42.94533 c -9.04439,0 -6.76848,25.30224 7.88272,25.30224 h 14.82275 c 30.79579,10.88463 58.29906,11.10676 88.35628,0 h 15.61665 c 13.60575,0 16.40685,-25.0713 7.81066,-25.0713 h -42.12588 c -6.10893,0 -8.96884,-3.67481 -8.61035,-7.40557 10.9644,-3.90513 20.75456,-9.02232 26.28159,-18.53931 v -3.53463 h -87.25178 z"
     id="path4146"
     inkscape:connector-curvature="0"
     sodipodi:nodetypes="ccccccccccccccc" /><path
     style="fill:#1a1a1a;fill-opacity:1;stroke:#000000;stroke-width:1.97231;stroke-linecap:butt;stroke-linejoin:miter;stroke-miterlimit:4;stroke-dasharray:none;stroke-opacity:1"
     d="m 785.72736,197.61379 c 0,0.29572 0,7.24873 0,7.24873 0,3.02618 -2.56512,4.21618 -5.85626,4.21618 -17.73054,1.12554 -39.27177,1.0596 -57.43145,0 -3.05168,0 -6.04433,-2.08878 -6.01039,-4.32715 v -8.83908 h 69.2981 z"
     id="path4154"
     inkscape:connector-curvature="0"
     sodipodi:nodetypes="sccccccs" /><path
     style="fill:none;stroke:#000000;stroke-width:2.15573;stroke-linecap:butt;stroke-linejoin:miter;stroke-miterlimit:4;stroke-dasharray:none;stroke-opacity:1"
     d="m 801.81755,226.83735 h 45.04178"
     id="path4148"
     inkscape:connector-curvature="0" /><path
     style="fill:#1a1a1a;fill-opacity:1;stroke:#000000;stroke-width:2.1477;stroke-linecap:butt;stroke-linejoin:miter;stroke-miterlimit:4;stroke-dasharray:none;stroke-opacity:1"
     d="m 704.71423,192.24653 v 12.01609 c 0,1.03496 1.44365,2.19259 2.56837,2.19259 h 45.10268 c 1.41577,0 3.13375,-1.20624 3.13375,-2.67504 v -11.62115 z"
     id="path4142"
     inkscape:connector-curvature="0"
     sodipodi:nodetypes="ccccccc" /><path
     style="fill:none;stroke:#000000;stroke-width:2.15573;stroke-linecap:butt;stroke-linejoin:miter;stroke-miterlimit:4;stroke-dasharray:none;stroke-opacity:1"
     d="m 807.6366,219.17785 h 35.76351"
     id="path4150"
     inkscape:connector-curvature="0"
     sodipodi:nodetypes="cc" /><path
     style="fill:#1a1a1a;fill-opacity:1;stroke:#000000;stroke-width:1.96467;stroke-linecap:butt;stroke-linejoin:miter;stroke-miterlimit:4;stroke-dasharray:none;stroke-opacity:1"
     d="m 931.20675,197.60063 c 0,0.29344 0,7.19268 0,7.19268 0,3.00278 -2.56501,4.18358 -5.85597,4.18358 -17.73073,1.11684 -39.27172,1.05141 -57.43168,0 -3.05166,0 -6.04429,-2.07262 -6.01013,-4.29369 v -8.77073 h 69.29778 z"
     id="path4144"
     inkscape:connector-curvature="0"
     sodipodi:nodetypes="sccccccs" /><path
     sodipodi:nodetypes="sccccccs"
     inkscape:connector-curvature="0"
     id="path4160"
     d="m 858.45697,197.63487 c 0,0.29939 0,7.33855 0,7.33855 0,3.06368 -2.56511,4.26842 -5.85601,4.26842 -17.73077,1.1395 -39.27177,1.07274 -57.4317,0 -3.05168,0 -6.0443,-2.11465 -6.01014,-4.38077 v -8.9486 h 69.29785 z"
     style="fill:#1a1a1a;fill-opacity:1;stroke:#000000;stroke-width:1.9845;stroke-linecap:butt;stroke-linejoin:miter;stroke-miterlimit:4;stroke-dasharray:none;stroke-opacity:1" /><path
     sodipodi:nodetypes="ccccccccccccc"
     inkscape:connector-curvature="0"
     id="path4140"
     d="m 968.76047,199.65348 c 8.52966,0 24.99089,-16.61076 24.99089,-25.55625 v -58.65862 c -4.57443,-17.00507 -13.35533,-35.478328 -41.84537,-41.00408 -4.97535,0 -7.55529,-4.593593 -7.55529,-7.403519 C 917.38071,31.981408 888.09597,13.94394 858.0448,1.5383817 H 794.40512 C 767.03205,13.564651 751.77061,31.525124 739.77382,51.084979 v 10.820524 c 0,4.466942 -3.77561,9.112021 -8.71777,9.112021 H 678.16828 V 199.72479 Z"
     style="fill:#ff5f53;fill-opacity:1;stroke:#000000;stroke-width:2.30124px;stroke-linecap:round;stroke-linejoin:round;stroke-opacity:1" /><path
     sodipodi:nodetypes="ccccc"
     inkscape:connector-curvature="0"
     id="path4166"
     d="M 959.74418,95.578426 H 732.35325 C 732.47179,49.183575 755.75521,1.15062 800.53245,1.15062 l 63.60853,0.7464785 c 62.27359,11.1330875 75.07205,54.9622645 95.6032,93.6813275 z"
     style="fill:#1a1a1a;fill-opacity:1;stroke:#000000;stroke-width:2.30124px;stroke-linecap:butt;stroke-linejoin:miter;stroke-opacity:1" /><path
     sodipodi:nodetypes="ccccccc"
     inkscape:connector-curvature="0"
     id="path4168"
     d="M 978.40756,126.18349 H 730.44883 v 27.99243 c 0,9.45565 12.31669,23.51364 23.99616,23.51364 h 207.96534 c 12.6963,0 22.09152,-12.0229 22.09152,-21.64746 0,-11.5947 1.02012,-29.85861 -6.09429,-29.85861 z"
     style="fill:#1a1a1a;fill-opacity:1;stroke:#000000;stroke-width:2.30124px;stroke-linecap:butt;stroke-linejoin:miter;stroke-opacity:1" /><path
     style="fill:#b3b3b3;fill-opacity:1;stroke:#000000;stroke-width:0.0426219;stroke-linecap:round;stroke-linejoin:round;stroke-miterlimit:4;stroke-dasharray:none;stroke-opacity:1"
     d="m 815.30427,152.06817 v -10.42123 l 4.83314,5.9e-4 c 2.65811,3.3e-4 5.22066,0.0205 5.69422,0.0424 2.06412,0.0999 3.36854,0.38224 4.26309,0.92274 1.37392,0.83011 2.28986,2.29536 2.52187,4.03406 0.0698,0.53061 0.0278,1.70342 -0.0814,2.19391 -0.3657,1.6476 -1.32187,2.879 -2.82086,3.63292 -0.57443,0.2889 -1.45224,0.5764 -2.13805,0.70022 -0.28454,0.0512 -0.51679,0.1037 -0.51608,0.11614 6.8e-4,0.0137 0.15343,0.11316 0.3387,0.22298 0.59653,0.35375 1.21864,0.8364 1.75031,1.3583 0.86316,0.8471 1.40854,1.61519 3.70213,5.21324 0.77646,1.21827 1.44017,2.25774 1.4746,2.30996 l 0.0626,0.0949 h -2.53768 -2.53792 l -1.69473,-2.47872 c -3.18932,-4.66409 -3.60893,-5.21082 -4.38563,-5.71206 -0.59814,-0.38608 -1.12447,-0.49152 -2.64298,-0.52955 l -1.02243,-0.0258 v 4.37299 4.37295 h -2.13132 -2.13132 v -10.42122 z m 10.52829,-1.70253 c 0.90687,-0.11613 1.36601,-0.31747 1.80747,-0.79267 0.44566,-0.47955 0.62444,-0.99717 0.62444,-1.80829 0,-1.12302 -0.42359,-1.86219 -1.30232,-2.27314 -0.68255,-0.31921 -0.57259,-0.31053 -4.17686,-0.33119 l -3.21837,-0.0182 v 2.66568 2.66571 l 2.87406,-0.0205 c 2.26803,-0.0161 2.98311,-0.0346 3.39158,-0.087 v 0 z"
     id="path4232"
     inkscape:connector-curvature="0" /><path
     style="fill:#b3b3b3;fill-opacity:1;stroke:#000000;stroke-width:0.0426219;stroke-linecap:round;stroke-linejoin:round;stroke-miterlimit:4;stroke-dasharray:none;stroke-opacity:1"
     d="M 824.38936,52.916016 V 42.513284 l 5.50031,0.01822 c 5.86555,0.01821 5.99551,0.02347 7.21251,0.236844 0.72764,0.127791 1.2063,0.273954 1.73262,0.529704 0.56119,0.272632 0.92919,0.536857 1.3444,0.965169 0.6865,0.708209 1.17119,1.612413 1.4232,2.655056 0.10465,0.436493 0.11392,0.546291 0.11623,1.401798 6.9e-4,0.725362 -0.0233,1.008267 -0.0743,1.294521 -0.49307,2.372679 -2.15713,3.863382 -4.92053,4.408664 -0.52052,0.102747 -0.58004,0.12279 -0.5089,0.173128 0.044,0.0312 0.27805,0.18384 0.51935,0.338992 1.26535,0.81414 2.04879,1.63119 3.24347,3.383274 0.43519,0.6382 3.38993,5.242662 3.43201,5.348069 0.0233,0.04234 -0.49075,0.05101 -2.51118,0.04215 l -2.53257,-0.0114 -1.89628,-2.766293 c -2.70088,-3.939608 -3.00426,-4.356325 -3.57776,-4.912496 -0.79112,-0.767048 -1.35952,-0.94266 -3.17329,-0.980344 L 828.653,54.61555 v 4.3512 4.351165 h -2.13132 -2.13131 v -10.4027 z m 10.29044,-1.663034 c 0.70021,-0.07582 1.02521,-0.153763 1.4046,-0.337001 0.60955,-0.294507 1.03662,-0.843043 1.20307,-1.545677 0.0907,-0.379282 0.0884,-1.172853 -0.002,-1.51464 -0.27525,-1.037227 -1.09727,-1.677094 -2.30428,-1.793635 -0.22549,-0.02279 -1.74122,-0.03988 -3.36922,-0.04055 l -2.96011,-0.0016 v 2.663058 2.663038 l 2.78783,-0.02279 c 1.66078,-0.01369 2.97079,-0.0419 3.23998,-0.07107 v 0 z"
     id="path4234"
     inkscape:connector-curvature="0" /><path
     style="fill:#b3b3b3;fill-opacity:1;stroke:#000000;stroke-width:0.0426219;stroke-linecap:round;stroke-linejoin:round;stroke-miterlimit:4;stroke-dasharray:none;stroke-opacity:1"
     d="m 804.36779,61.4392 v -1.87954 l 5.57588,-6.748973 c 3.06678,-3.711938 5.57589,-6.758273 5.57589,-6.769663 0,-0.0114 -2.22827,-0.02049 -4.95147,-0.02049 h -4.95146 v -1.750915 -1.750941 h 7.7716 7.77183 v 1.614195 1.614171 l -5.83789,7.045572 -5.83763,7.045547 6.05291,0.0114 6.05316,0.0114 v 1.729694 1.729685 h -8.6113 -8.61152 v -1.879513 z"
     id="path4236"
     inkscape:connector-curvature="0" /><path
     sodipodi:nodetypes="cccccccccccc"
     inkscape:connector-curvature="0"
     id="path489"
     d="m 314.06908,101.33936 h 13.19009 l 0.0372,-8.255307 h 14.10678 c 3.694,0 4.86707,3.292534 4.86707,8.260597 v 75.70196 c 0,3.53235 -3.40852,6.31095 -6.44045,6.31095 h -9.52259 c -2.5944,0 -2.74434,-2.75044 -3.01169,-5.11156 v -5.02502 H 314.2902 Z"
     style="fill:#1a1a1a;fill-opacity:1;stroke:#000000;stroke-width:2.30124px;stroke-linecap:butt;stroke-linejoin:miter;stroke-opacity:1" /><path
     sodipodi:nodetypes="cc"
     inkscape:connector-curvature="0"
     id="path491"
     d="M 327.26755,173.06935 V 101.88171"
     style="fill:#4d4d4d;fill-opacity:1;stroke:#000000;stroke-width:2.30124px;stroke-linecap:butt;stroke-linejoin:miter;stroke-opacity:1" /><path
     style="fill:#000000;fill-opacity:1;stroke:#000000;stroke-width:2.30124px;stroke-linecap:butt;stroke-linejoin:miter;stroke-opacity:1"
     d="m 255.74981,56.29539 v 15.946041 h 43.5888 V 56.010642 c 0,-2.098267 -1.87258,-3.045238 -3.55963,-3.488308 -12.17302,-3.196036 -25.27663,-3.034074 -36.83267,0 -1.82189,0.478381 -3.1965,1.676837 -3.1965,3.773056 z"
     id="path493"
     inkscape:connector-curvature="0"
     sodipodi:nodetypes="ccccccc" /><path
     style="fill:#1a1a1a;fill-opacity:1;stroke:#000000;stroke-width:2.09975px;stroke-linecap:butt;stroke-linejoin:miter;stroke-opacity:1"
     d="m 213.71647,200.68211 c -1.81167,5.3094 -14.31597,15.23177 -26.80398,17.54252 0,3.02085 2.17456,7.20824 6.67803,7.20824 h 42.94533 c 9.04439,0 6.76848,24.00009 -7.88272,24.00009 h -14.82275 c -30.79579,10.32445 -58.29906,10.53516 -88.35628,0 h -15.61665 c -13.60575,0 -16.40685,-23.78104 -7.81066,-23.78104 h 42.12588 c 6.10893,0 8.96884,-3.48568 8.61035,-7.02445 -10.9644,-3.70415 -20.75456,-8.55799 -26.28159,-17.58519 v -3.35273 h 87.25178 z"
     id="path495"
     inkscape:connector-curvature="0"
     sodipodi:nodetypes="ccccccccccccccc" /><path
     style="fill:#1a1a1a;fill-opacity:1;stroke:#000000;stroke-width:1.84474px;stroke-linecap:butt;stroke-linejoin:miter;stroke-opacity:1"
     d="m 209.17462,197.4005 c 0,0.25865 0,6.33998 0,6.33998 0,2.6468 2.56512,3.68761 5.85626,3.68761 17.73054,0.98444 39.27177,0.92676 57.43145,0 3.05168,0 6.04433,-1.82692 6.01039,-3.78467 v -7.73095 h -69.2981 z"
     id="path497"
     inkscape:connector-curvature="0"
     sodipodi:nodetypes="sccccccs" /><path
     style="fill:none;stroke:#000000;stroke-width:2.09975px;stroke-linecap:butt;stroke-linejoin:miter;stroke-opacity:1"
     d="M 193.08443,225.33728 H 148.04265"
     id="path499"
     inkscape:connector-curvature="0" /><path
     style="fill:#1a1a1a;fill-opacity:1;stroke:#000000;stroke-width:1.4781px;stroke-linecap:butt;stroke-linejoin:miter;stroke-opacity:1"
     d="m 290.50058,191.92715 v 11.14596 c 0,0.96002 -0.73701,2.03381 -1.3112,2.03381 h -23.02573 c -0.72278,0 -1.59984,-1.11889 -1.59984,-2.48132 v -10.77963 z"
     id="path501"
     inkscape:connector-curvature="0"
     sodipodi:nodetypes="ccccccc" /><path
     style="fill:none;stroke:#000000;stroke-width:2.09975px;stroke-linecap:butt;stroke-linejoin:miter;stroke-opacity:1"
     d="M 187.26538,218.07198 H 151.50187"
     id="path503"
     inkscape:connector-curvature="0"
     sodipodi:nodetypes="cc" /><path
     style="fill:#1a1a1a;fill-opacity:1;stroke:#000000;stroke-width:1.84684px;stroke-linecap:butt;stroke-linejoin:miter;stroke-opacity:1"
     d="m 63.69523,197.40389 c 0,0.25924 0,6.35443 0,6.35443 0,2.65284 2.56501,3.69602 5.85597,3.69602 17.73073,0.98669 39.27172,0.92888 57.43168,0 3.05166,0 6.04429,-1.83107 6.01013,-3.7933 v -7.74857 H 63.69523 Z"
     id="path505"
     inkscape:connector-curvature="0"
     sodipodi:nodetypes="sccccccs" /><path
     sodipodi:nodetypes="ccccccccccccc"
     inkscape:connector-curvature="0"
     id="path509"
     d="m 26.14151,199.65348 c -8.52966,0 -24.99089,-16.61076 -24.99089,-25.55625 V 115.43861 C 5.72505,98.43354 14.50595,79.960282 42.99599,74.43453 c 4.97535,0 7.55529,-4.593593 7.55529,-7.403519 26.96999,-35.049603 56.25473,-53.087071 86.3059,-65.4926293 h 63.63968 c 27.37307,12.0262693 42.63451,29.9867423 54.6313,49.5465973 v 10.820524 c 0,4.466942 3.77561,9.112021 8.71777,9.112021 H 316.7337 V 199.72479 Z"
     style="fill:#00bbdb;fill-opacity:1;stroke:#000000;stroke-width:2.30124px;stroke-linecap:round;stroke-linejoin:round;stroke-opacity:1" /><path
     sodipodi:nodetypes="ccccc"
     inkscape:connector-curvature="0"
     id="path511"
     d="M 35.1578,95.578426 H 262.54873 C 262.43019,49.183575 239.14677,1.15062 194.36953,1.15062 L 130.761,1.8970985 C 68.48741,13.030186 55.68895,56.859363 35.1578,95.578426 Z"
     style="fill:#1a1a1a;fill-opacity:1;stroke:#000000;stroke-width:2.30124px;stroke-linecap:butt;stroke-linejoin:miter;stroke-opacity:1" /><path
     sodipodi:nodetypes="ccccccc"
     inkscape:connector-curvature="0"
     id="path513"
     d="m 16.49442,126.18349 h 247.95873 v 27.99243 c 0,9.45565 -12.31669,23.51364 -23.99616,23.51364 H 32.49165 c -12.6963,0 -22.09152,-12.0229 -22.09152,-21.64746 0,-11.5947 -1.02012,-29.85861 6.09429,-29.85861 z"
     style="fill:#1a1a1a;fill-opacity:1;stroke:#000000;stroke-width:2.30124px;stroke-linecap:butt;stroke-linejoin:miter;stroke-opacity:1" /><path
     style="fill:#b3b3b3;fill-opacity:1;stroke:#000000;stroke-width:0.0426219;stroke-linecap:round;stroke-linejoin:round;stroke-miterlimit:4;stroke-dasharray:none;stroke-opacity:1"
     d="m 151.49179,61.4392 v -1.87954 l 5.57588,-6.748973 c 3.06678,-3.711938 5.57589,-6.758273 5.57589,-6.769663 0,-0.0114 -2.22827,-0.02049 -4.95147,-0.02049 h -4.95146 v -1.750915 -1.750941 h 7.7716 7.77183 v 1.614195 1.614171 l -5.83789,7.045572 -5.83763,7.045547 6.05291,0.0114 6.05316,0.0114 v 1.729694 1.729685 h -8.6113 -8.61152 v -1.879513 z"
     id="path519"
     inkscape:connector-curvature="0" /><path
     style="fill:#b3b3b3;fill-opacity:1;stroke:#000000;stroke-width:0.0335108;stroke-linecap:round;stroke-linejoin:round;stroke-miterlimit:4;stroke-dasharray:none;stroke-opacity:1"
     d="M 171.52526,52.970786 V 42.611364 h 2.62547 2.62545 v 8.607904 8.607907 h 6.5824 6.58243 v 1.751518 1.751517 h -9.20788 -9.20787 z"
     id="path4218"
     inkscape:connector-curvature="0" /><path
     style="fill:#b3b3b3;fill-opacity:1;stroke:#000000;stroke-width:0.0325267;stroke-linecap:round;stroke-linejoin:round;stroke-miterlimit:4;stroke-dasharray:none;stroke-opacity:1"
     d="m 162.42612,152.06817 v -10.42336 h 2.45836 2.45836 v 8.66103 8.66102 h 6.16349 6.16346 v 1.76236 1.76232 h -8.62185 -8.62182 z"
     id="path4220"
     inkscape:connector-curvature="0" /><path
     style="fill:none;stroke:#000000;stroke-width:1px;stroke-linecap:butt;stroke-linejoin:miter;stroke-opacity:1"
     d="m 724.21326,200.03615 v 6.10386 h 9.9129 V 199.759 Z"
     id="path979" /></g></svg>
