<?xml version="1.0" encoding="UTF-8" standalone="no"?>
<svg
   xmlns:dc="http://purl.org/dc/elements/1.1/"
   xmlns:cc="http://creativecommons.org/ns#"
   xmlns:rdf="http://www.w3.org/1999/02/22-rdf-syntax-ns#"
   xmlns:svg="http://www.w3.org/2000/svg"
   xmlns="http://www.w3.org/2000/svg"
   xmlns:sodipodi="http://sodipodi.sourceforge.net/DTD/sodipodi-0.dtd"
   xmlns:inkscape="http://www.inkscape.org/namespaces/inkscape"
   version="1.1"
   id="Layer_1"
   x="0px"
   y="0px"
   viewBox="0 0 1000.8 1000"
   style="enable-background:new 0 0 1000.8 1000;"
   xml:space="preserve"
   sodipodi:docname="JoyConRight.svg"
   inkscape:version="1.0.1 (3bc2e813f5, 2020-09-07)"><metadata
   id="metadata85"><rdf:RDF><cc:Work
       rdf:about=""><dc:format>image/svg+xml</dc:format><dc:type
         rdf:resource="http://purl.org/dc/dcmitype/StillImage" /><dc:title></dc:title></cc:Work></rdf:RDF></metadata><defs
   id="defs83" /><sodipodi:namedview
   pagecolor="#ffffff"
   bordercolor="#666666"
   borderopacity="1"
   objecttolerance="10"
   gridtolerance="10"
   guidetolerance="10"
   inkscape:pageopacity="0"
   inkscape:pageshadow="2"
   inkscape:window-width="1920"
   inkscape:window-height="1003"
   id="namedview81"
   showgrid="false"
   inkscape:zoom="0.715"
   inkscape:cx="500.39999"
   inkscape:cy="504.8442"
   inkscape:window-x="1400"
   inkscape:window-y="0"
   inkscape:window-maximized="1"
   inkscape:current-layer="Layer_1" />
<style
   type="text/css"
   id="style2">
	.st0{opacity:0.1;}
	.st1{fill:#FF5F55;}
	.st2{fill:#FFFFFF;}
</style>
























<style
   type="text/css"
   id="style2-6">
	.st0{opacity:0.1;}
	.st1{fill:#02C5E5;}
	.st2{fill:#FF5F55;}
	.st3{fill:#FFFFFF;}
</style><g
   id="g315"><g
     class="st0"
     id="g64">
	<path
   class="st2"
   d="m 597.9,233.9 v 79.5 h -4.2 c -3.3,0 -6,-2.7 -6,-6 v -67.6 c 0,-3.3 2.7,-6 6,-6 h 4.2 z"
   id="path36" />
	<path
   class="st2"
   d="m 597.9,636.6 v 79.5 h -4.2 c -3.3,0 -6,-2.7 -6,-6 v -67.6 c 0,-3.3 2.7,-6 6,-6 h 4.2 z"
   id="path38" />
	<path
   class="st2"
   d="m 929,134.9 -3.4,3.4 C 892.4,60.3 815.8,9.6 730.9,9.6 H 676.7 V 7 c 0,-3.3 2.7,-6 6,-6 0,0 0,0 0,0 h 51.2 c 84.8,0 161.7,49.8 196.4,127.2 1,2.3 0.5,4.9 -1.3,6.7 z"
   id="path40" />
	<path
   class="st2"
   d="M 679.5,94.5 V 82.8 c 0,-1.6 -1.3,-3 -3,-3 v 0 h -11.7 c -1.6,0 -3,1.3 -3,3 0,0 0,0 0,0 v 11.7 c 0,1.6 -1.3,3 -3,3 v 0 h -11.7 c -1.6,0 -3,1.3 -3,3 0,0 0,0 0,0 v 11.7 c 0,1.6 1.3,3 3,3 v 0 h 11.7 c 1.6,0 3,1.3 3,3 0,0 0,0 0,0 v 11.7 c 0,1.6 1.3,3 3,3 v 0 h 11.7 c 1.6,0 3,-1.3 3,-3 v 0 -11.7 c 0,-1.6 1.3,-3 3,-3 v 0 h 11.7 c 1.6,0 3,-1.3 3,-3 0,0 0,0 0,0 v -11.7 c 0,-1.6 -1.3,-3 -3,-3 v 0 h -11.7 c -1.7,0 -3,-1.4 -3,-3 0,0 0,0 0,0 z"
   id="path42" />
	<circle
   class="st2"
   cx="768.90002"
   cy="333.89999"
   r="37.5"
   id="circle44" />
	<circle
   class="st2"
   cx="768.90002"
   cy="187.10001"
   r="37.5"
   id="circle46" />
	<circle
   class="st2"
   cx="842.29999"
   cy="260.5"
   r="37.5"
   id="circle48" />
	<circle
   class="st2"
   cx="695.5"
   cy="260.5"
   r="37.5"
   id="circle50" />
	<circle
   class="st2"
   cx="715"
   cy="721.29999"
   r="27.9"
   id="circle52" />
	<path
   class="st2"
   d="m 765.6,460.3 v 12.3 c 0,3 -2.2,5.5 -5.2,5.9 -25.2,3.7 -45,23.5 -48.7,48.7 -0.4,2.9 -2.9,5.1 -5.9,5.2 h -12.3 c 1.7,-39.1 33,-70.4 72.1,-72.1 z"
   id="path54" />
	<path
   class="st2"
   d="m 765.6,598.8 v 12.3 c -39.1,-1.7 -70.3,-33 -72.1,-72 h 12.3 c 3,0 5.5,2.2 5.9,5.2 3.7,25.2 23.5,45 48.7,48.7 3,0.3 5.2,2.8 5.2,5.8 z"
   id="path56" />
	<path
   class="st2"
   d="m 844.3,539 c -1.7,39.1 -33,70.3 -72.1,72 v -12.3 c 0,-3 2.2,-5.5 5.2,-5.9 25.2,-3.7 45,-23.5 48.7,-48.7 0.4,-2.9 2.9,-5.1 5.9,-5.2 z"
   id="path58" />
	<path
   class="st2"
   d="M 844.3,532.4 H 832 c -3,0 -5.5,-2.2 -5.9,-5.2 -3.7,-25.2 -23.5,-45 -48.7,-48.7 -2.9,-0.4 -5.1,-2.9 -5.2,-5.9 v -12.3 c 39.1,1.7 70.4,33 72.1,72.1 z"
   id="path60" />
	<path
   class="st2"
   d="m 844.4,535.7 c 0,1.1 0,2.2 -0.1,3.3 H 832 c -3,0 -5.5,2.2 -5.9,5.2 -3.7,25.2 -23.5,45 -48.7,48.7 -2.9,0.4 -5.1,2.9 -5.2,5.9 v 12.3 c -1.1,0.1 -2.2,0.1 -3.3,0.1 -1.1,0 -2.2,0 -3.3,-0.1 v -12.3 c 0,-3 -2.2,-5.5 -5.2,-5.9 -25.2,-3.7 -45,-23.5 -48.7,-48.7 -0.4,-2.9 -2.9,-5.1 -5.9,-5.2 h -12.3 c -0.1,-1.1 -0.1,-2.2 -0.1,-3.3 0,-1.1 0,-2.2 0.1,-3.3 h 12.3 c 3,0 5.5,-2.2 5.9,-5.2 3.7,-25.2 23.5,-45 48.7,-48.7 2.9,-0.4 5.1,-2.9 5.2,-5.9 v -12.3 c 1.1,-0.1 2.2,-0.1 3.3,-0.1 1.1,0 2.2,0 3.3,0.1 v 12.3 c 0,3 2.2,5.5 5.2,5.9 25.2,3.7 45,23.5 48.7,48.7 0.4,2.9 2.9,5.1 5.9,5.2 h 12.3 c 0,1.1 0.1,2.2 0.1,3.3 z"
   id="path62" />
</g><path
     class="st3"
     d="m 601.6,906.6 h -7.9 c -3.6,0 -6.4,-2.9 -6.5,-6.5 V 742.9 c 0,-4.9 1.2,-9.6 3.4,-13.9 l 6.7,-13 v -79.2 l -6.7,-13 c -2.2,-4.3 -3.4,-9.1 -3.4,-14 V 340.1 c 0,-4.9 1.2,-9.6 3.4,-13.9 l 6.7,-13 V 234 l -6.7,-13 c -2.2,-4.3 -3.4,-9.1 -3.4,-14 V 71.2 c 0,-3.6 2.9,-6.4 6.5,-6.5 h 7.9 c 3.6,0 6.4,2.9 6.5,6.5 v 828.9 c -0.1,3.6 -3,6.5 -6.5,6.5 z M 593.7,65.7 c -3,0 -5.5,2.4 -5.5,5.5 V 207 c 0,4.7 1.1,9.3 3.3,13.5 l 6.8,13.1 c 0,0.1 0.1,0.1 0.1,0.2 v 79.5 c 0,0.1 0,0.2 -0.1,0.2 l -6.8,13.1 c -2.2,4.2 -3.3,8.8 -3.3,13.5 v 269.7 c 0,4.7 1.1,9.3 3.3,13.5 l 6.8,13.1 c 0,0.1 0.1,0.1 0.1,0.2 v 79.5 c 0,0.1 0,0.2 -0.1,0.2 l -6.8,13.1 c -2.2,4.2 -3.3,8.8 -3.3,13.5 v 157.2 c 0,3 2.4,5.5 5.5,5.5 h 7.9 c 3,0 5.5,-2.4 5.5,-5.5 V 71.2 c 0,-3 -2.4,-5.5 -5.5,-5.5 z"
     id="path72"
     style="fill:#000000" /><path
     class="st3"
     d="m 618.8,858.9 h -11.3 c -0.3,0 -0.5,-0.2 -0.5,-0.5 0,0 0,0 0,0 V 72 c 0,-0.3 0.2,-0.5 0.5,-0.5 h 11.3 c 0.3,0 0.5,0.2 0.5,0.5 v 786.4 c 0,0.3 -0.2,0.5 -0.5,0.5 0,0 0,0 0,0 z m -10.8,-1 h 10.3 V 72.5 H 608 Z"
     id="path74"
     style="fill:#000000" /><path
     class="st3"
     d="M 730.9,1000 H 624.7 c -3.6,0 -6.5,-2.9 -6.5,-6.5 v -978 c 0,-3.6 2.9,-6.5 6.5,-6.5 h 106.2 c 116.8,0 211.9,95.1 211.9,211.9 v 567.2 c 0,117 -94.8,211.9 -211.9,211.9 0,0 0,0 0,0 z M 624.7,10.1 c -3,0 -5.5,2.4 -5.5,5.5 v 978 c 0,3 2.4,5.5 5.5,5.5 h 106.2 c 116.3,0 210.9,-94.6 210.9,-210.9 V 220.9 C 941.8,104.6 847.2,10 730.9,10 Z"
     id="path76"
     style="fill:#000000" /><path
     class="st2"
     d="m 597.9,314.3 h -4.2 c -3.8,0 -6.9,-3.1 -7,-7 v -67.6 c 0,-3.8 3.1,-6.9 7,-7 h 4.2 c 0.6,0 1,0.4 1,1 0,0 0,0 0,0 v 79.5 c 0,0.7 -0.5,1.1 -1,1.1 0,0 0,0 0,0 z m -4.2,-79.5 c -2.7,0 -5,2.2 -5,5 v 67.6 c 0,2.7 2.2,5 5,5 h 3.2 v -77.5 h -3.2 z"
     id="path128"
     style="fill:#000000" /><path
     class="st2"
     d="m 597.9,717.1 h -4.2 c -3.8,0 -6.9,-3.1 -7,-7 v -67.6 c 0,-3.8 3.1,-6.9 7,-7 h 4.2 c 0.6,0 1,0.4 1,1 0,0 0,0 0,0 V 716 c 0,0.6 -0.5,1.1 -1,1.1 0,0 0,0 0,0 z m -4.2,-79.5 c -2.7,0 -5,2.2 -5,5 v 67.6 c 0,2.7 2.2,5 5,5 h 3.2 v -77.5 h -3.2 z"
     id="path130"
     style="fill:#000000" /><path
     style="fill:#ff5f55;fill-opacity:0.956863;stroke:#4d4d4d;stroke-width:1"
     d="m 748.93436,998.67954 c 26.59545,-2.35471 50.45796,-9.1985 75.88056,-21.7626 65.98743,-32.61168 108.87577,-94.17749 116.99375,-167.94346 1.80381,-16.39057 1.80686,-591.16592 0.003,-608.68789 -2.68506,-26.08512 -9.29287,-49.0507 -20.75194,-72.12385 C 889.32253,64.257568 828.18558,20.735655 757.19631,11.511152 738.81239,9.1223039 622.08856,8.8130147 619.73408,11.146911 c -1.13928,1.129303 -1.47099,112.509439 -1.47099,493.898369 0,485.61761 0.0328,492.45765 2.37105,493.69808 2.83295,1.50294 111.21392,1.44894 128.30022,-0.0637 z"
     id="path1240" /><path
     class="st3"
     d="m 715,763.2 c -23.1,0 -41.9,-18.7 -41.9,-41.9 0,-23.2 18.7,-41.9 41.9,-41.9 23.2,0 41.9,18.7 41.9,41.9 v 0 c -0.1,23.1 -18.8,41.8 -41.9,41.9 z m 0,-82.8 c -22.6,0 -40.9,18.3 -40.9,40.9 0,22.6 18.3,40.9 40.9,40.9 22.6,0 40.9,-18.3 40.9,-40.9 v 0 C 755.8,698.7 737.6,680.4 715,680.4 Z"
     id="path78"
     style="fill:#000000" /><path
     class="st2"
     d="m 782.2,203.2 h -5.5 l -7.8,-12.9 -7.8,12.9 h -5.4 l 10.6,-16.3 -9.8,-15.6 h 5.2 l 7.3,12 7.4,-12 h 5 l -9.8,15.4 z"
     id="path88"
     style="fill:#b3b3b3;fill-opacity:1" /><path
     class="st2"
     d="m 709.2,244.5 -11.6,20.6 v 11.4 h -4.4 V 265 l -11.6,-20.5 h 5.3 l 6.4,11.7 2.3,4.7 2.2,-4.3 6.4,-12.1 z"
     id="path90"
     style="fill:#b3b3b3" /><path
     class="st2"
     d="m 855.9,276.5 h -4.7 l -2.2,-7 h -13.3 l -2.3,7 h -4.5 l 10.6,-32 h 6 z m -8.2,-10.9 -5.4,-17.1 -5.4,17.1 z"
     id="path92"
     style="fill:#b3b3b3" /><path
     class="st2"
     d="m 779.4,340.4 c 0,1.4 -0.3,2.8 -0.9,4.1 -0.6,1.2 -1.5,2.2 -2.5,3 -1.2,0.9 -2.6,1.5 -4,1.9 -1.7,0.4 -3.4,0.7 -5.2,0.6 h -8.4 v -32 h 9.2 c 7.1,0 10.7,2.6 10.7,7.8 0,1.6 -0.4,3.1 -1.2,4.5 -1,1.4 -2.4,2.3 -4,2.8 0.9,0.2 1.7,0.4 2.5,0.8 0.8,0.4 1.5,0.9 2,1.5 0.6,0.6 1.1,1.4 1.4,2.2 0.2,0.8 0.4,1.8 0.4,2.8 z m -5.7,-14.1 c 0,-0.6 -0.1,-1.3 -0.3,-1.8 -0.2,-0.6 -0.6,-1.1 -1,-1.5 -0.6,-0.5 -1.3,-0.8 -2,-1 -1,-0.3 -2.1,-0.4 -3.2,-0.4 h -4.5 v 10 h 4.4 c 0.9,0 1.8,-0.1 2.7,-0.3 0.8,-0.2 1.5,-0.5 2.1,-1 0.6,-0.4 1,-1 1.3,-1.7 0.4,-0.7 0.5,-1.5 0.5,-2.3 z m 1.1,14.2 c 0,-0.8 -0.2,-1.5 -0.5,-2.2 -0.4,-0.7 -0.9,-1.2 -1.5,-1.7 -0.7,-0.5 -1.5,-0.8 -2.4,-1 -1,-0.3 -2.1,-0.4 -3.2,-0.4 h -4.5 v 11 h 4.6 c 2.5,0 4.4,-0.5 5.6,-1.4 1.3,-1 2,-2.6 1.9,-4.3 z"
     id="path94"
     style="fill:#b3b3b3" /><path
     class="st2"
     d="M 715,701.3 695.4,721 h 5.6 v 16.8 h 28.2 V 721 h 5.3 z m 5.7,30.5 H 709.6 V 721 h 11.1 z"
     id="path96"
     style="fill:#333333" /><path
     class="st2"
     d="m 925.6,139.3 c -0.1,0 -0.1,0 -0.2,0 -0.3,-0.1 -0.6,-0.3 -0.7,-0.6 C 891.7,61 815.4,10.5 730.9,10.6 h -54.2 c -0.6,0 -1,-0.4 -1,-1 0,0 0,0 0,0 V 7 c 0,-3.8 3.1,-6.9 7,-7 h 51.2 c 85.2,0.1 162.4,50.1 197.3,127.8 1.2,2.6 0.6,5.7 -1.5,7.8 l -3.4,3.4 c -0.2,0.2 -0.5,0.3 -0.7,0.3 z M 677.7,8.6 h 53.2 c 84.7,-0.1 161.3,50.2 195,128 l 2.4,-2.4 v 0 c 1.5,-1.4 1.9,-3.6 1.1,-5.5 C 894.8,51.7 818.3,2.1 733.9,2 h -51.2 c -2.7,0 -5,2.2 -5,5 z"
     id="path132"
     style="fill:#000000" /><path
     class="st2"
     d="m 676.5,133.7 h -11.7 c -2.2,0 -4,-1.8 -4,-4 V 118 c 0,-1.1 -0.9,-2 -2,-2 h -11.7 c -2.2,0 -4,-1.8 -4,-4 v -11.7 c 0,-2.2 1.8,-4 4,-4 h 11.7 c 1.1,0 2,-0.9 2,-2 V 82.8 c 0,-2.2 1.8,-4 4,-4 h 11.7 c 2.2,0 4,1.8 4,4 v 11.7 c 0,1.1 0.9,2 2,2 h 11.7 c 2.2,0 4,1.8 4,4 v 11.7 c 0,2.2 -1.8,4 -4,4 h -11.7 c -1.1,0 -2,0.9 -2,2 v 11.7 c 0,2 -1.8,3.8 -4,3.8 z M 647.2,98.5 c -1.1,0 -2,0.9 -2,2 v 11.7 c 0,1.1 0.9,2 2,2 h 11.7 c 2.2,0 4,1.8 4,4 v 11.7 c 0,1.1 0.9,2 2,2 h 11.7 c 1.1,0 2,-0.9 2,-2 v -11.7 c 0,-2.2 1.8,-4 4,-4 h 11.7 c 1.1,0 2,-0.9 2,-2 v -11.7 c 0,-1.1 -0.9,-2 -2,-2 h -11.7 c -2.2,0 -4,-1.8 -4,-4 V 82.8 c 0,-1.1 -0.9,-2 -2,-2 h -11.7 c -1.1,0 -2,0.9 -2,2 v 11.7 c 0,2.2 -1.8,4 -4,4 z"
     id="path134"
     style="fill:#000000" /><path
     class="st2"
     d="m 768.9,372.4 c -21.2,0 -38.5,-17.2 -38.5,-38.5 0,-21.2 17.2,-38.5 38.5,-38.5 21.2,0 38.5,17.2 38.5,38.5 -0.1,21.3 -17.3,38.5 -38.5,38.5 z m 0,-74.9 c -20.1,0 -36.5,16.3 -36.5,36.5 0,20.1 16.3,36.5 36.5,36.5 20.1,0 36.5,-16.3 36.5,-36.5 -0.1,-20.2 -16.4,-36.5 -36.5,-36.5 z"
     id="path136"
     style="fill:#000000" /><path
     class="st2"
     d="m 768.9,225.5 c -21.2,0 -38.5,-17.2 -38.5,-38.5 0,-21.2 17.2,-38.5 38.5,-38.5 21.2,0 38.5,17.2 38.5,38.5 -0.1,21.3 -17.3,38.5 -38.5,38.5 z m 0,-74.9 c -20.1,0 -36.5,16.3 -36.5,36.5 0,20.1 16.3,36.5 36.5,36.5 20.1,0 36.5,-16.3 36.5,-36.5 -0.1,-20.2 -16.4,-36.5 -36.5,-36.5 z"
     id="path138"
     style="fill:#000000" /><path
     class="st2"
     d="m 842.3,299 c -21.2,0 -38.5,-17.2 -38.5,-38.5 0,-21.2 17.2,-38.5 38.5,-38.5 21.2,0 38.5,17.2 38.5,38.5 0,21.2 -17.2,38.4 -38.5,38.5 z m 0,-75 c -20.1,0 -36.5,16.3 -36.5,36.5 0,20.1 16.3,36.5 36.5,36.5 20.1,0 36.5,-16.3 36.5,-36.5 0,-20.1 -16.3,-36.5 -36.5,-36.5 z"
     id="path140"
     style="fill:#000000" /><path
     class="st2"
     d="m 695.5,299 c -21.2,0 -38.5,-17.2 -38.5,-38.5 0,-21.2 17.2,-38.5 38.5,-38.5 21.2,0 38.5,17.2 38.5,38.5 -0.1,21.2 -17.3,38.4 -38.5,38.5 z m 0,-75 c -20.1,0 -36.5,16.3 -36.5,36.5 0,20.1 16.3,36.5 36.5,36.5 20.1,0 36.5,-16.3 36.5,-36.5 C 731.9,240.4 715.6,224 695.5,224 Z"
     id="path142"
     style="fill:#000000" /><path
     class="st2"
     d="m 715,750.2 c -16,0 -28.9,-13 -28.9,-28.9 0,-15.9 13,-28.9 28.9,-28.9 16,0 28.9,13 28.9,28.9 0,0 0,0 0,0 0,16 -12.9,28.9 -28.9,28.9 z m 0,-55.9 c -14.9,0 -26.9,12.1 -26.9,26.9 0,14.8 12.1,26.9 26.9,26.9 14.9,0 26.9,-12.1 26.9,-26.9 0,-14.8 -12,-26.8 -26.9,-26.9 z"
     id="path144"
     style="fill:#000000" /><path
     class="st2"
     d="m 705.8,533.4 h -12.3 c -0.6,0 -1,-0.4 -1,-1 0,0 0,0 0,0 1.7,-39.6 33.4,-71.3 73,-73 0.3,0 0.5,0.1 0.7,0.3 0.2,0.2 0.3,0.4 0.3,0.7 v 12.3 c 0,3.5 -2.6,6.4 -6,6.9 -24.7,3.7 -44.2,23.1 -47.9,47.9 -0.4,3.3 -3.3,5.9 -6.8,5.9 z m -11.2,-2 h 11.2 c 2.5,0 4.6,-1.8 4.9,-4.3 3.9,-25.6 24,-45.7 49.6,-49.6 2.5,-0.3 4.3,-2.4 4.3,-4.9 v -11.2 c -37.4,2.1 -67.9,32.6 -70,70 z"
     id="path146"
     style="fill:#000000" /><path
     class="st2"
     d="m 765.6,612.1 c 0,0 -0.1,0 0,0 -39.6,-1.7 -71.3,-33.4 -73,-73 0,-0.6 0.4,-1 1,-1 0,0 0,0 0,0 h 12.3 c 3.5,0 6.4,2.6 6.9,6 3.7,24.7 23.1,44.2 47.9,47.9 3.4,0.5 6,3.4 6,6.9 v 12.3 c -0.1,0.4 -0.6,0.9 -1.1,0.9 0,0 0,0 0,0 z m -71,-72.1 c 2.2,37.4 32.6,67.8 70,70 v -11.2 c 0,-2.5 -1.8,-4.6 -4.3,-4.9 -25.6,-3.9 -45.7,-24 -49.6,-49.6 -0.3,-2.5 -2.4,-4.3 -4.9,-4.3 z"
     id="path148"
     style="fill:#000000" /><path
     class="st2"
     d="m 772.2,612.1 c -0.6,0 -1,-0.4 -1,-1 0,0 0,0 0,0 v -12.3 c 0,-3.5 2.6,-6.4 6,-6.9 24.7,-3.7 44.2,-23.1 47.9,-47.9 0.5,-3.4 3.4,-6 6.9,-6 h 12.3 c 0.6,0 1,0.4 1,1 0,0 0,0 0,0 -1.8,39.7 -33.4,71.3 -73.1,73.1 0.1,0 0.1,0 0,0 z M 832,540 c -2.5,0 -4.6,1.8 -4.9,4.3 -3.9,25.6 -24,45.7 -49.6,49.6 -2.5,0.3 -4.3,2.4 -4.3,4.9 V 610 c 37.4,-2.2 67.8,-32.6 70,-70 z"
     id="path150"
     style="fill:#000000" /><path
     class="st2"
     d="M 844.3,533.4 H 832 c -3.5,0 -6.4,-2.6 -6.9,-6 -3.7,-24.7 -23.1,-44.2 -47.9,-47.9 -3.4,-0.5 -6,-3.4 -6,-6.9 v -12.3 c 0,-0.3 0.1,-0.5 0.3,-0.7 0.2,-0.2 0.5,-0.3 0.7,-0.3 39.6,1.7 71.3,33.4 73,73 0.1,0.6 -0.3,1 -0.9,1.1 0,0 0,0 0,0 z m -71.1,-72 v 11.2 c 0,2.5 1.8,4.6 4.3,4.9 25.6,3.9 45.7,24 49.6,49.6 0.3,2.5 2.4,4.3 4.9,4.3 h 11.2 c -2.1,-37.4 -32.6,-67.9 -70,-70 z"
     id="path152"
     style="fill:#000000" /><path
     class="st2"
     d="m 768.9,612.2 c -1.2,0 -2.3,0 -3.4,-0.1 -0.5,0 -0.9,-0.5 -0.9,-1 v -12.3 c 0,-2.5 -1.8,-4.6 -4.3,-4.9 -25.6,-3.9 -45.7,-24 -49.6,-49.6 -0.3,-2.5 -2.4,-4.3 -4.9,-4.3 h -12.3 c -0.5,0 -1,-0.4 -1,-0.9 -0.1,-1.1 -0.1,-2.2 -0.1,-3.4 0,-1.2 0,-2.3 0.1,-3.4 0,-0.5 0.5,-0.9 1,-0.9 h 12.3 c 2.5,0 4.6,-1.8 4.9,-4.3 3.9,-25.6 24,-45.7 49.6,-49.6 2.5,-0.3 4.3,-2.4 4.3,-4.9 v -12.3 c 0,-0.5 0.4,-1 0.9,-1 2.3,-0.1 4.5,-0.1 6.8,0 0.5,0 0.9,0.5 0.9,1 v 12.3 c 0,2.5 1.8,4.6 4.3,4.9 25.6,3.9 45.7,24 49.6,49.6 0.3,2.5 2.4,4.3 4.9,4.3 h 12.3 c 0.5,0 1,0.4 1,0.9 0.1,1.1 0.1,2.2 0.1,3.4 0,1.2 0,2.3 -0.1,3.4 0,0.5 -0.5,0.9 -1,0.9 H 832 c -2.5,0 -4.6,1.8 -4.9,4.3 -3.9,25.6 -24,45.7 -49.6,49.6 -2.5,0.3 -4.3,2.4 -4.3,4.9 v 12.3 c 0,0.5 -0.4,1 -0.9,1 -1.1,0 -2.2,0.1 -3.4,0.1 z m -2.3,-2.1 c 1.5,0.1 3.1,0.1 4.7,0 v -11.3 c 0,-3.5 2.6,-6.4 6,-6.9 24.7,-3.7 44.2,-23.1 47.9,-47.9 0.5,-3.4 3.4,-6 6.9,-6 h 11.3 c 0,-0.8 0,-1.5 0,-2.3 0,-0.8 0,-1.6 0,-2.3 H 832 c -3.5,0 -6.4,-2.6 -6.9,-6 -3.7,-24.7 -23.1,-44.2 -47.9,-47.9 -3.4,-0.5 -6,-3.4 -6,-6.9 v -11.3 c -1.5,-0.1 -3.1,-0.1 -4.7,0 v 11.3 c 0,3.5 -2.6,6.4 -6,6.9 -24.7,3.7 -44.2,23.1 -47.9,47.9 -0.5,3.4 -3.4,6 -6.9,6 h -11.3 c 0,0.8 0,1.5 0,2.3 0,0.8 0,1.6 0,2.3 h 11.3 c 3.5,0 6.4,2.6 6.9,6 3.7,24.7 23.1,44.2 47.9,47.9 3.4,0.5 6,3.4 6,6.9 v 11.3 z"
     id="path154"
     style="fill:#000000" /><path
     style="opacity:1;fill:#1a1a1a;fill-opacity:1;stroke:#4d4d4d;stroke-width:1"
     d="m 686.27756,295.45757 c -6.3268,-1.65761 -11.02024,-4.44224 -16.19729,-9.60987 -7.7249,-7.71084 -11.00252,-16.02709 -10.55426,-26.7792 0.56274,-13.49806 7.94054,-24.90282 19.94518,-30.83167 10.51307,-5.1922 21.47279,-5.27638 31.58153,-0.24258 7.93543,3.95157 13.41304,9.50319 17.2109,17.44344 5.18792,10.84649 4.24806,24.40322 -2.39714,34.5766 -4.99743,7.65076 -13.48676,13.69608 -22.04004,15.69491 -4.81862,1.12607 -12.72306,1.01273 -17.54888,-0.25163 z m 11.6608,-24.5355 v -5.81067 l 5.62044,-9.96942 c 3.09124,-5.48319 5.62044,-10.21511 5.62044,-10.51538 0,-0.30027 -1.15454,-0.54595 -2.56564,-0.54595 h -2.56564 l -4.20029,8.09641 c -2.67942,5.1648 -4.33588,7.8298 -4.57474,7.3601 -0.20594,-0.40496 -2.13104,-4.04835 -4.27799,-8.0964 l -3.90356,-7.36011 h -2.87335 c -1.58035,0 -2.87336,0.12781 -2.87336,0.28402 0,0.1562 2.64964,4.96636 5.88808,10.68923 l 5.88809,10.40522 v 5.63681 5.63682 h 2.40876 2.40876 z"
     id="path1462" /><path
     style="opacity:1;fill:#1a1a1a;fill-opacity:1;stroke:#4d4d4d;stroke-width:1"
     d="m 762.70726,222.86949 c -4.07666,-0.78537 -10.17009,-3.29429 -13.6441,-5.61785 -6.91015,-4.6218 -11.71459,-10.88088 -14.5402,-18.94258 -1.34575,-3.83954 -1.49911,-4.98899 -1.49911,-11.23574 0,-6.24676 0.15336,-7.39621 1.49911,-11.23575 3.87774,-11.0635 11.80142,-19.0577 22.76847,-22.97107 4.25097,-1.51687 5.15889,-1.64602 11.57155,-1.64602 6.41266,0 7.32058,0.12915 11.57155,1.64602 14.51853,5.18065 23.77179,17.63258 24.42528,32.86862 0.45428,10.5913 -2.84072,19.07821 -10.28709,26.49636 -7.55957,7.53093 -14.1652,10.43737 -24.37154,10.72334 -3.38565,0.0949 -6.75791,0.0565 -7.49392,-0.0853 z m 2.38607,-25.68467 c 4.25443,-7.14961 3.37755,-7.25493 8.20926,0.98595 l 3.05431,5.20938 3.12152,0.01 3.12152,0.01 -1.22963,-2.0073 c -0.6763,-1.10401 -3.07664,-4.86619 -5.3341,-8.36039 l -4.10446,-6.35309 4.75516,-7.43514 c 2.61533,-4.08932 4.75516,-7.56602 4.75516,-7.72599 0,-0.15996 -1.24936,-0.21804 -2.77636,-0.12905 l -2.77635,0.16179 -3.10726,5.05393 c -1.70899,2.77966 -3.29562,5.24229 -3.52585,5.47251 -0.23022,0.23022 -1.93136,-2.10426 -3.78031,-5.18775 l -3.36174,-5.60633 h -2.95881 -2.95881 l 1.22685,2.0073 c 0.67476,1.10402 2.8714,4.62127 4.88142,7.81612 l 3.65457,5.80881 -4.85255,7.43415 c -2.66891,4.08878 -4.99211,7.79781 -5.16268,8.24229 -0.25287,0.65897 0.2216,0.80814 2.57051,0.80814 h 2.88063 z"
     id="path1464" /><path
     style="opacity:1;fill:#1a1a1a;fill-opacity:1;stroke:#4d4d4d;stroke-width:1"
     d="m 833.85476,295.72323 c -6.83119,-1.65863 -13.77734,-5.88165 -18.67395,-11.35311 -3.40208,-3.80148 -7.27107,-11.46438 -8.31543,-16.4695 -2.76322,-13.24277 2.63571,-27.85526 13.26894,-35.91309 19.99373,-15.15118 48.09433,-6.6877 56.44101,16.99918 1.86188,5.28381 2.27747,13.55775 0.97503,19.41195 -1.50813,6.77877 -4.55198,12.15816 -9.87968,17.46031 -5.26572,5.24048 -9.89475,7.95133 -16.43315,9.62357 -4.85615,1.24199 -12.80551,1.35206 -17.38277,0.24069 z m 0.90791,-22.33599 1.06927,-3.3455 6.50377,-0.1501 6.50377,-0.1501 0.98735,3.36178 0.98735,3.36179 2.51591,0.16314 c 1.8243,0.1183 2.51592,-0.0335 2.51592,-0.55237 0,-0.39353 -2.29576,-7.75345 -5.10169,-16.35537 l -5.10169,-15.63986 h -3.1506 -3.1506 l -5.20854,15.65695 c -2.86469,8.61132 -5.31927,15.95804 -5.45462,16.32605 -0.17576,0.47789 0.50564,0.6691 2.38452,0.6691 h 2.6306 z"
     id="path1466" /><path
     style="opacity:1;fill:#1a1a1a;fill-opacity:1;stroke:#4d4d4d;stroke-width:1"
     d="m 763.70798,369.86416 c -8.12397,-1.27622 -14.00129,-4.35733 -20.33165,-10.65861 -3.76197,-3.74468 -5.02094,-5.43974 -6.83916,-9.20812 -7.60051,-15.75262 -3.54817,-33.43875 10.18745,-44.46231 6.3567,-5.10159 13.61954,-7.5924 22.13836,-7.5924 29.9337,0 46.67981,33.83863 28.70945,58.01278 -7.44586,10.01634 -21.60997,15.83377 -33.86445,13.90866 z m 11.20335,-21.38348 c 3.07353,-1.75995 4.52918,-4.20847 4.57675,-7.69846 0.0443,-3.24643 -1.27165,-5.85301 -3.49954,-6.93201 l -1.49389,-0.72351 1.60877,-1.54129 c 1.87307,-1.79453 2.80455,-4.70189 2.3305,-7.27407 -0.92747,-5.03237 -3.68485,-6.33408 -13.45172,-6.35026 l -7.09246,-0.0118 v 16.10974 16.10973 l 7.3601,-0.18515 c 6.6513,-0.16732 7.58173,-0.31206 9.66149,-1.50296 z"
     id="path1468" /><path
     style="opacity:1;fill:#1a1a1a;fill-opacity:1;stroke:#4d4d4d;stroke-width:1"
     d="m 762.70726,326.44188 v -4.88945 l 3.72999,0.26688 c 4.16057,0.29769 6.24901,1.33706 6.7575,3.36306 0.94714,3.77369 -1.80659,6.14376 -7.14199,6.14695 l -3.3455,0.002 z"
     id="path1470" /><path
     style="opacity:1;fill:#1a1a1a;fill-opacity:1;stroke:#4d4d4d;stroke-width:0.999998"
     d="m 837.54718,264.82028 c 0,-0.76372 4.25204,-14.10124 4.62716,-14.51418 0.17889,-0.19692 1.32644,2.82483 2.55012,6.715 1.22368,3.89017 2.33144,7.35074 2.46168,7.69016 0.18748,0.48856 -0.7918,0.61711 -4.70107,0.61711 -3.25732,0 -4.93789,-0.17292 -4.93789,-0.50809 z"
     id="path1496" /><path
     style="opacity:1;fill:#1a1a1a;fill-opacity:1;stroke:#4d4d4d;stroke-width:0.999998"
     d="m 763.06218,340.74443 v -5.12084 h 3.61513 c 4.59667,0 6.58099,0.93645 7.49973,3.5393 0.55274,1.56594 0.54465,2.04231 -0.0591,3.47983 -0.97646,2.32493 -3.07062,3.22256 -7.51823,3.22256 h -3.53752 z"
     id="path1498" /><path
     style="opacity:1;fill:#1a1a1a;fill-opacity:1;stroke:#4d4d4d;stroke-width:1"
     d="m 766.92321,602.64753 c -0.29048,-8.92659 -0.85756,-9.59054 -10.1321,-11.86299 -21.45382,-5.25664 -37.29198,-20.85776 -42.70074,-42.06165 -0.55002,-2.15622 -1.00003,-4.47981 -1.00003,-5.16353 0,-0.68371 -1.0064,-2.24952 -2.23643,-3.47956 l -2.23643,-2.23643 h -6.9724 -6.97241 v -1.97332 -1.97332 h 5.94109 c 6.60342,0 9.93688,-1.00153 11.20212,-3.36564 0.44261,-0.82703 1.34271,-3.96544 2.00022,-6.97425 3.49259,-15.98235 14.91214,-30.68661 29.48362,-37.96428 4.71573,-2.35525 11.36654,-4.65443 15.50589,-5.36038 6.61875,-1.12879 8.22218,-3.61509 8.22218,-12.74947 v -5.94109 h 1.97332 1.97332 v 6.89625 c 0,6.61611 0.0735,6.97475 1.80888,8.82901 1.46262,1.5628 3.13096,2.25493 8.7155,3.61572 20.40883,4.97306 36.06052,19.9102 41.49254,39.59826 0.78813,2.85653 1.76467,6.36883 2.17007,7.80511 1.22789,4.35011 3.85392,5.61076 11.68766,5.61076 h 6.48046 v 1.97332 1.97332 h -6.6104 c -6.95598,0 -9.89025,0.84134 -10.81193,3.1001 -0.2638,0.64649 -1.18554,3.97814 -2.0483,7.40367 -5.38972,21.39923 -21.36363,37.35004 -42.22246,42.16138 -9.94989,2.29507 -10.66202,3.14671 -10.66202,12.75068 v 6.28151 h -1.91345 -1.91345 z"
     id="path1500" /><path
     style="opacity:1;fill:#1a1a1a;fill-opacity:1;stroke:#4d4d4d;stroke-width:1"
     d=""
     id="path1502" /><path
     style="opacity:1;fill:#1a1a1a;fill-opacity:1;stroke:#4d4d4d;stroke-width:1"
     d="m 695.45795,526.49678 c 1.75282,-15.26781 9.42349,-30.89435 20.92126,-42.62035 11.95352,-12.1908 27.0212,-19.51188 45.22194,-21.97243 l 2.79554,-0.37793 v 6.18375 c 0,7.93282 -0.51936,8.65269 -7.23551,10.02904 -22.30129,4.57023 -40.70977,22.45408 -45.7072,44.40457 -2.01248,8.8395 -2.35691,9.12221 -11.11415,9.12221 h -5.42936 z"
     id="path1504" /><path
     style="opacity:1;fill:#1a1a1a;fill-opacity:1;stroke:#4d4d4d;stroke-width:1"
     d="M 754.53008,608.24817 C 722.31091,601.3332 698.78801,575.33696 695.1389,542.61223 l -0.23838,-2.13776 h 6.36187 c 5.30645,0 6.54081,0.19773 7.44049,1.19187 0.59325,0.65553 1.8242,4.13099 2.73545,7.72325 5.73315,22.60074 22.81787,39.26947 45.21411,44.1132 6.89875,1.49203 7.74425,2.60069 7.74425,10.15464 v 5.88328 l -2.13776,-0.0463 c -1.17577,-0.0255 -4.65375,-0.58628 -7.72885,-1.24626 z"
     id="path1506" /><path
     style="opacity:1;fill:#1a1a1a;fill-opacity:1;stroke:#4d4d4d;stroke-width:1"
     d="m 773.60552,603.37682 c 0,-7.26315 0.7124,-8.57514 5.06106,-9.32073 4.85038,-0.83162 11.1113,-2.92244 16.31659,-5.44891 15.80304,-7.67023 27.12455,-21.98721 31.55746,-39.907 0.97744,-3.95125 2.07685,-6.90365 2.75558,-7.39995 0.71733,-0.52453 3.39605,-0.82576 7.34299,-0.82576 h 6.21369 l -0.43161,3.7822 c -3.78834,33.19719 -31.7798,61.26383 -64.82878,65.00289 l -3.98698,0.45108 z"
     id="path1508" /><path
     style="opacity:1;fill:#1a1a1a;fill-opacity:1;stroke:#4d4d4d;stroke-width:1"
     d="m 829.28285,529.78565 c -1.17591,-1.07273 -1.92806,-2.90835 -2.7333,-6.67061 -4.37909,-20.45999 -18.95972,-36.61709 -39.28934,-43.53733 -2.43875,-0.83016 -5.8241,-1.71782 -7.52299,-1.97259 -1.88233,-0.28227 -3.68318,-1.05749 -4.6103,-1.9846 -1.37609,-1.3761 -1.5214,-2.11712 -1.5214,-7.7588 v -6.23739 l 2.46665,0.33127 c 18.99503,2.55107 32.67768,9.21103 45.44487,22.12006 10.43139,10.54728 17.44069,23.80984 20.16018,38.14583 0.547,2.88355 0.99455,6.09813 0.99455,7.14349 v 1.90066 h -5.88329 c -5.18197,0 -6.07667,-0.17643 -7.50563,-1.47999 z"
     id="path1510" /><path
     style="opacity:1;fill:#000000;fill-opacity:1;stroke:#4d4d4d;stroke-width:0.999999"
     d="m 663.62068,131.03319 c -0.53326,-0.58925 -0.625,-1.69704 -0.625,-7.54707 v -6.85645 l -1.10115,-1.23333 -1.10115,-1.23332 -7.11278,-0.10646 c -9.08871,-0.13604 -8.43455,0.46843 -8.43455,-7.79389 0,-4.68262 0.12554,-6.289149 0.5353,-6.850301 0.49015,-0.671243 1.10329,-0.741434 7.26979,-0.832236 3.70397,-0.05454 7.12214,-0.18656 7.59593,-0.293374 0.47378,-0.106815 1.19541,-0.741963 1.60361,-1.411441 0.66219,-1.086052 0.74232,-1.921972 0.74358,-7.756551 8.2e-4,-3.782617 0.16622,-6.847257 0.39235,-7.269795 0.3648,-0.681634 0.8563,-0.730476 7.35092,-0.730476 6.49462,0 6.98613,0.04884 7.35092,0.730476 0.22614,0.422538 0.39154,3.487178 0.39236,7.269795 10e-4,5.834579 0.0814,6.670499 0.74358,7.756551 0.4082,0.669478 1.12983,1.304626 1.60361,1.411441 0.47379,0.106814 3.89196,0.238833 7.59593,0.293374 6.1665,0.0908 6.77964,0.160993 7.26979,0.832236 0.40976,0.561152 0.5353,2.167681 0.5353,6.850301 0,8.26232 0.65416,7.65785 -8.43455,7.79389 l -7.11278,0.10646 -1.10115,1.23332 -1.10115,1.23333 v 6.92207 c 0,6.22636 -0.0694,6.98488 -0.69062,7.54707 -0.58568,0.53003 -1.66715,0.62501 -7.11685,0.62501 -5.74601,0 -6.49238,-0.0731 -7.05124,-0.69063 z"
     id="path1512" /><path
     style="opacity:1;fill:#1a1a1a;fill-opacity:1;stroke:#4d4d4d;stroke-width:1"
     d="m 709.89826,726.4428 v -5.25775 h 5.25776 5.25775 v 5.25775 5.25776 h -5.25775 -5.25776 z"
     id="path1514" /><path
     style="opacity:1;fill:#1a1a1a;fill-opacity:1;stroke:#4d4d4d;stroke-width:1"
     d="m 708.88715,747.11324 c -7.7953,-1.94254 -14.19265,-7.02605 -17.61469,-13.99713 -2.11167,-4.3017 -2.80967,-7.2657 -2.80967,-11.93106 0,-4.6603 0.69677,-7.62382 2.80517,-11.93107 2.98868,-6.10556 8.92756,-11.23718 15.51022,-13.40195 4.61637,-1.51813 11.17625,-1.60821 15.65781,-0.215 15.04474,4.67704 23.00917,20.70184 17.43246,35.07495 -4.8049,12.38391 -18.34269,19.55071 -30.9813,16.40126 z m 20.42437,-17.43489 v -8.4933 h 2.62887 c 1.44589,0 2.62888,-0.13514 2.62888,-0.3003 0,-0.16516 -4.4121,-4.71516 -9.80467,-10.1111 l -9.80467,-9.8108 -9.81081,9.80467 c -5.39594,5.39257 -9.8108,9.94257 -9.8108,10.1111 0,0.16854 1.27399,0.30643 2.8311,0.30643 h 2.8311 v 8.4933 8.4933 h 14.1555 14.1555 z"
     id="path1516" /><path
     style="opacity:1;fill:#1a1a1a;fill-opacity:1;stroke:#4d4d4d;stroke-width:1"
     d="m 709.32587,761.61376 c -14.84534,-2.33618 -27.22151,-12.34303 -32.43644,-26.22673 -7.52289,-20.0282 2.33277,-43.0312 22.02756,-51.41208 6.07171,-2.58375 8.49788,-3.03235 16.23903,-3.00264 6.50926,0.025 7.37011,0.11595 10.71773,1.13248 14.44352,4.38591 24.64194,14.87492 28.58676,29.40132 0.78714,2.89856 0.92468,4.38074 0.9169,9.88116 -0.008,5.44704 -0.15534,7.01511 -0.93296,9.90885 -4.75273,17.68623 -20.04274,29.95104 -38.0751,30.54176 -2.55811,0.0838 -5.72767,-0.0171 -7.04348,-0.22412 z m 12.01917,-11.94961 c 11.93985,-2.6283 21.26602,-13.04595 22.49006,-25.12213 2.18282,-21.53536 -18.13115,-37.7028 -38.52104,-30.65805 -4.17709,1.44319 -6.99053,3.28712 -10.81791,7.09005 -2.821,2.80297 -3.81838,4.14269 -5.32568,7.15366 -2.55937,5.1126 -3.29841,8.68914 -3.02322,14.63061 0.31524,6.80606 2.15585,11.73401 6.30752,16.88741 6.75846,8.38917 18.22621,12.36591 28.89027,10.01845 z"
     id="path1518" /><path
     style="opacity:1;fill:#ff5f55;fill-opacity:0.956863;stroke:#4d4d4d;stroke-width:1"
     d="m 591.47251,714.31134 c -2.59326,-1.58129 -2.41164,1.27628 -2.41164,-37.94303 0,-35.39705 0.002,-35.47278 0.79102,-36.47631 1.14169,-1.45141 2.68891,-2.12685 4.87199,-2.12685 h 1.91275 v 38.63637 38.63636 l -1.98864,-0.002 c -1.28887,-7.5e-4 -2.40626,-0.25607 -3.17548,-0.72512 z"
     id="path1520" /><path
     style="opacity:1;fill:#ff5f55;fill-opacity:0.956863;stroke:#4d4d4d;stroke-width:1"
     d="m 592.87653,312.11027 c -0.50555,-0.0951 -1.32393,-0.43811 -1.8186,-0.76224 -2.07696,-1.36087 -1.99706,0.15175 -1.99706,-37.80487 0,-31.80626 0.058,-35.19116 0.61953,-36.14171 0.93372,-1.58066 2.4287,-2.28781 4.83664,-2.28781 h 2.11959 V 273.75 312.38636 l -1.42045,-0.0516 c -0.78125,-0.0284 -1.83409,-0.1294 -2.33965,-0.22451 z"
     id="path1522" /><path
     style="opacity:1;fill:#000000;fill-opacity:0.956863;stroke:#4d4d4d;stroke-width:1"
     d="M 921.31509,126.45258 C 911.22775,105.90097 899.41123,89.210741 883.15837,72.558198 848.342,36.885643 804.48862,15.547979 753.51164,9.4762173 748.44895,8.8732107 740.43487,8.6841876 712.59008,8.5110262 L 677.96414,8.2956939 V 6.8885761 c 0,-0.9784616 0.48302,-1.8901352 1.58557,-2.9926826 l 1.58556,-1.5855648 h 30.73203 c 16.92783,0 33.54939,0.2176979 37.00428,0.4846569 50.75274,3.9216602 97.06468,24.5817024 133.31418,59.4722764 17.58138,16.922285 31.48259,35.738975 42.78184,57.909488 4.28368,8.40514 4.87972,10.05538 4.25358,11.77682 -0.41652,1.14511 -2.61821,3.7514 -3.13345,3.70927 -0.14438,-0.0118 -2.29207,-4.15642 -4.77264,-9.21026 z"
     id="path1524" /><path
     style="opacity:1;fill:#1a1a1a;fill-opacity:1;stroke:#4d4d4d;stroke-width:1"
     d="m 591.56604,904.17079 c -2.01964,-1.17632 -2.15587,-6.52992 -2.15587,-84.72244 v -83.46676 l 4.9277,-10.18986 4.92769,-10.18984 v -39.48272 -39.48272 l -4.92769,-9.84523 -4.9277,-9.84523 V 475.04429 333.1426 l 4.9277,-10.18986 4.92769,-10.18984 v -39.48272 -39.48272 l -4.93732,-9.86447 -4.93732,-9.86446 0.31761,-73.44555 0.31761,-73.44554 6.5676,-0.375829 c 3.78331,-0.216499 7.3086,0.239148 8.31548,1.074785 1.50292,1.24731 1.74788,59.776984 1.74788,417.620064 v 416.16945 l -2.73795,1.91775 c -3.10138,2.17229 -9.13889,2.45924 -12.35311,0.58713 z"
     id="path1530" /><path
     style="opacity:1;fill:#1a1a1a;fill-opacity:1;stroke:#4d4d4d;stroke-width:1"
     d="M 609.12095,465.08874 V 72.721096 h 4.31173 4.31173 V 465.08874 857.45638 h -4.31173 -4.31173 z"
     id="path1532" /></g></svg>
