<?xml version="1.0" encoding="UTF-8" standalone="no"?>
<svg
   xmlns:dc="http://purl.org/dc/elements/1.1/"
   xmlns:cc="http://creativecommons.org/ns#"
   xmlns:rdf="http://www.w3.org/1999/02/22-rdf-syntax-ns#"
   xmlns:svg="http://www.w3.org/2000/svg"
   xmlns="http://www.w3.org/2000/svg"
   xmlns:sodipodi="http://sodipodi.sourceforge.net/DTD/sodipodi-0.dtd"
   xmlns:inkscape="http://www.inkscape.org/namespaces/inkscape"
   version="1.1"
   id="Layer_1"
   x="0px"
   y="0px"
   viewBox="0 0 1000.8 1000"
   style="enable-background:new 0 0 1000.8 1000;"
   xml:space="preserve"
   sodipodi:docname="JoyConPair.svg"
   inkscape:version="1.0.1 (3bc2e813f5, 2020-09-07)"><metadata
   id="metadata161"><rdf:RDF><cc:Work
       rdf:about=""><dc:format>image/svg+xml</dc:format><dc:type
         rdf:resource="http://purl.org/dc/dcmitype/StillImage" /><dc:title></dc:title></cc:Work></rdf:RDF></metadata><defs
   id="defs159" /><sodipodi:namedview
   pagecolor="#ffffff"
   bordercolor="#666666"
   borderopacity="1"
   objecttolerance="10"
   gridtolerance="10"
   guidetolerance="10"
   inkscape:pageopacity="0"
   inkscape:pageshadow="2"
   inkscape:window-width="1920"
   inkscape:window-height="1003"
   id="namedview157"
   showgrid="false"
   inkscape:zoom="0.70910507"
   inkscape:cx="438.34351"
   inkscape:cy="472.42785"
   inkscape:window-x="1400"
   inkscape:window-y="0"
   inkscape:window-maximized="1"
   inkscape:current-layer="Layer_1" />
<style
   type="text/css"
   id="style2">
	.st0{opacity:0.1;}
	.st1{fill:#02C5E5;}
	.st2{fill:#FF5F55;}
	.st3{fill:#FFFFFF;}
</style>

<g
   class="st0"
   id="g64">
	<path
   class="st2"
   d="M597.9,233.9v79.5h-4.2c-3.3,0-6-2.7-6-6v-67.6c0-3.3,2.7-6,6-6H597.9z"
   id="path36" />
	<path
   class="st2"
   d="M597.9,636.6v79.5h-4.2c-3.3,0-6-2.7-6-6v-67.6c0-3.3,2.7-6,6-6H597.9z"
   id="path38" />
	<path
   class="st2"
   d="M929,134.9l-3.4,3.4C892.4,60.3,815.8,9.6,730.9,9.6h-54.2V7c0-3.3,2.7-6,6-6c0,0,0,0,0,0h51.2   c84.8,0,161.7,49.8,196.4,127.2C931.3,130.5,930.8,133.1,929,134.9z"
   id="path40" />
	<path
   class="st2"
   d="M679.5,94.5V82.8c0-1.6-1.3-3-3-3l0,0h-11.7c-1.6,0-3,1.3-3,3c0,0,0,0,0,0v11.7c0,1.6-1.3,3-3,3l0,0h-11.7   c-1.6,0-3,1.3-3,3c0,0,0,0,0,0v11.7c0,1.6,1.3,3,3,3l0,0h11.7c1.6,0,3,1.3,3,3c0,0,0,0,0,0v11.7c0,1.6,1.3,3,3,3l0,0h11.7   c1.6,0,3-1.3,3-3v0v-11.7c0-1.6,1.3-3,3-3l0,0h11.7c1.6,0,3-1.3,3-3c0,0,0,0,0,0v-11.7c0-1.6-1.3-3-3-3l0,0h-11.7   C680.8,97.5,679.5,96.1,679.5,94.5C679.5,94.5,679.5,94.5,679.5,94.5z"
   id="path42" />
	<circle
   class="st2"
   cx="768.9"
   cy="333.9"
   r="37.5"
   id="circle44" />
	<circle
   class="st2"
   cx="768.9"
   cy="187.1"
   r="37.5"
   id="circle46" />
	<circle
   class="st2"
   cx="842.3"
   cy="260.5"
   r="37.5"
   id="circle48" />
	<circle
   class="st2"
   cx="695.5"
   cy="260.5"
   r="37.5"
   id="circle50" />
	<circle
   class="st2"
   cx="715"
   cy="721.3"
   r="27.9"
   id="circle52" />
	<path
   class="st2"
   d="M765.6,460.3v12.3c0,3-2.2,5.5-5.2,5.9c-25.2,3.7-45,23.5-48.7,48.7c-0.4,2.9-2.9,5.1-5.9,5.2h-12.3   C695.2,493.3,726.5,462,765.6,460.3z"
   id="path54" />
	<path
   class="st2"
   d="M765.6,598.8v12.3c-39.1-1.7-70.3-33-72.1-72h12.3c3,0,5.5,2.2,5.9,5.2c3.7,25.2,23.5,45,48.7,48.7   C763.4,593.3,765.6,595.8,765.6,598.8z"
   id="path56" />
	<path
   class="st2"
   d="M844.3,539c-1.7,39.1-33,70.3-72.1,72v-12.3c0-3,2.2-5.5,5.2-5.9c25.2-3.7,45-23.5,48.7-48.7   c0.4-2.9,2.9-5.1,5.9-5.2L844.3,539z"
   id="path58" />
	<path
   class="st2"
   d="M844.3,532.4H832c-3,0-5.5-2.2-5.9-5.2c-3.7-25.2-23.5-45-48.7-48.7c-2.9-0.4-5.1-2.9-5.2-5.9v-12.3   C811.3,462,842.6,493.3,844.3,532.4z"
   id="path60" />
	<path
   class="st2"
   d="M844.4,535.7c0,1.1,0,2.2-0.1,3.3H832c-3,0-5.5,2.2-5.9,5.2c-3.7,25.2-23.5,45-48.7,48.7   c-2.9,0.4-5.1,2.9-5.2,5.9v12.3c-1.1,0.1-2.2,0.1-3.3,0.1s-2.2,0-3.3-0.1v-12.3c0-3-2.2-5.5-5.2-5.9c-25.2-3.7-45-23.5-48.7-48.7   c-0.4-2.9-2.9-5.1-5.9-5.2h-12.3c-0.1-1.1-0.1-2.2-0.1-3.3s0-2.2,0.1-3.3h12.3c3,0,5.5-2.2,5.9-5.2c3.7-25.2,23.5-45,48.7-48.7   c2.9-0.4,5.1-2.9,5.2-5.9v-12.3c1.1-0.1,2.2-0.1,3.3-0.1s2.2,0,3.3,0.1v12.3c0,3,2.2,5.5,5.2,5.9c25.2,3.7,45,23.5,48.7,48.7   c0.4,2.9,2.9,5.1,5.9,5.2h12.3C844.3,533.5,844.4,534.6,844.4,535.7z"
   id="path62" />
</g>
<path
   class="st3"
   d="M413.1,906.6h-7.9c-3.6,0-6.4-2.9-6.5-6.5V71.2c0-3.6,2.9-6.4,6.5-6.5h7.9c3.6,0,6.4,2.9,6.5,6.5V207  c0,4.9-1.2,9.6-3.4,14l-6.7,13v79.2l6.7,13c2.2,4.3,3.4,9.1,3.4,13.9v269.7c0,4.9-1.2,9.6-3.4,14l-6.7,13V716l6.7,13  c2.2,4.3,3.4,9.1,3.4,13.9v157.2C419.6,903.7,416.7,906.6,413.1,906.6z M405.2,65.7c-3,0-5.5,2.4-5.5,5.5v828.9c0,3,2.4,5.5,5.5,5.5  h7.9c3,0,5.5-2.4,5.5-5.5V742.9c0-4.7-1.1-9.3-3.3-13.5l-6.8-13.1c0-0.1-0.1-0.2-0.1-0.2v-79.5c0-0.1,0-0.2,0.1-0.2l6.8-13.1  c2.2-4.2,3.3-8.8,3.3-13.5V340.1c0-4.7-1.1-9.3-3.3-13.5l-6.8-13.1c0-0.1-0.1-0.2-0.1-0.2v-79.5c0-0.1,0-0.2,0.1-0.2l6.8-13.1  c2.2-4.2,3.3-8.8,3.3-13.5V71.2c0-3-2.4-5.5-5.5-5.5L405.2,65.7z"
   id="path66"
   style="fill:#000000" />
<path
   class="st3"
   d="M399.3,858.9h-11.2c-0.3,0-0.5-0.2-0.5-0.5V72c0-0.3,0.2-0.5,0.5-0.5h11.2c0.3,0,0.5,0.2,0.5,0.5v786.4  C399.8,858.7,399.6,858.9,399.3,858.9z M388.6,857.9h10.2V72.5h-10.2V857.9z"
   id="path68"
   style="fill:#000000" />
<path
   class="st3"
   d="M382.1,1000H275.9C158.9,1000,64,905.2,64,788.1c0,0,0,0,0,0V220.9C64,104.1,159.1,9.1,275.9,9.1h106.2  c3.6,0,6.5,2.9,6.5,6.5v978C388.6,997.1,385.7,1000,382.1,1000z M275.9,10.1C159.6,10.1,65,104.7,65,220.9v567.2  C65,904.4,159.6,999,275.9,999h106.2c3,0,5.5-2.4,5.5-5.5v-978c0-3-2.4-5.5-5.5-5.5H275.9z"
   id="path70"
   style="fill:#000000" />
<path
   class="st3"
   d="M601.6,906.6h-7.9c-3.6,0-6.4-2.9-6.5-6.5V742.9c0-4.9,1.2-9.6,3.4-13.9l6.7-13v-79.2l-6.7-13  c-2.2-4.3-3.4-9.1-3.4-14V340.1c0-4.9,1.2-9.6,3.4-13.9l6.7-13V234l-6.7-13c-2.2-4.3-3.4-9.1-3.4-14V71.2c0-3.6,2.9-6.4,6.5-6.5h7.9  c3.6,0,6.4,2.9,6.5,6.5v828.9C608,903.7,605.1,906.6,601.6,906.6z M593.7,65.7c-3,0-5.5,2.4-5.5,5.5V207c0,4.7,1.1,9.3,3.3,13.5  l6.8,13.1c0,0.1,0.1,0.1,0.1,0.2v79.5c0,0.1,0,0.2-0.1,0.2l-6.8,13.1c-2.2,4.2-3.3,8.8-3.3,13.5v269.7c0,4.7,1.1,9.3,3.3,13.5  l6.8,13.1c0,0.1,0.1,0.1,0.1,0.2v79.5c0,0.1,0,0.2-0.1,0.2l-6.8,13.1c-2.2,4.2-3.3,8.8-3.3,13.5v157.2c0,3,2.4,5.5,5.5,5.5h7.9  c3,0,5.5-2.4,5.5-5.5V71.2c0-3-2.4-5.5-5.5-5.5L593.7,65.7z"
   id="path72"
   style="fill:#000000" />
<path
   class="st3"
   d="M618.8,858.9h-11.3c-0.3,0-0.5-0.2-0.5-0.5c0,0,0,0,0,0V72c0-0.3,0.2-0.5,0.5-0.5h11.3c0.3,0,0.5,0.2,0.5,0.5  v786.4C619.3,858.7,619.1,858.9,618.8,858.9C618.8,858.9,618.8,858.9,618.8,858.9z M608,857.9h10.3V72.5H608V857.9z"
   id="path74"
   style="fill:#000000" />
<path
   class="st3"
   d="M730.9,1000H624.7c-3.6,0-6.5-2.9-6.5-6.5v-978c0-3.6,2.9-6.5,6.5-6.5h106.2c116.8,0,211.9,95.1,211.9,211.9  v567.2C942.8,905.1,848,1000,730.9,1000C730.9,1000,730.9,1000,730.9,1000z M624.7,10.1c-3,0-5.5,2.4-5.5,5.5v978  c0,3,2.4,5.5,5.5,5.5h106.2c116.3,0,210.9-94.6,210.9-210.9V220.9c0-116.3-94.6-210.9-210.9-210.9L624.7,10.1z"
   id="path76"
   style="fill:#000000" />










<path
   class="st1"
   d="M413.1,717.1h-4.2c-0.6,0-1-0.4-1-1c0,0,0,0,0,0v-79.5c0-0.6,0.4-1,1-1c0,0,0,0,0,0h4.2c3.8,0,6.9,3.1,7,7v67.6  C420.1,714,417,717.1,413.1,717.1z M409.9,715.1h3.2c2.7,0,5-2.2,5-5v-67.6c0-2.7-2.2-5-5-5h-3.2V715.1z"
   id="path98"
   style="fill:#000000" />
<path
   class="st1"
   d="M413.1,314.3h-4.2c-0.6,0-1-0.4-1-1v-79.5c0-0.6,0.4-1,1-1h4.2c3.8,0,6.9,3.1,7,7v67.6  C420.1,311.2,417,314.3,413.1,314.3z M409.9,312.3h3.2c2.7,0,5-2.2,5-5v-67.6c0-2.7-2.2-5-5-5h-3.2V312.3z"
   id="path100"
   style="fill:#000000" />













<path
   class="st2"
   d="M597.9,314.3h-4.2c-3.8,0-6.9-3.1-7-7v-67.6c0-3.8,3.1-6.9,7-7h4.2c0.6,0,1,0.4,1,1c0,0,0,0,0,0v79.5  C598.9,313.9,598.4,314.3,597.9,314.3C597.9,314.3,597.9,314.3,597.9,314.3z M593.7,234.8c-2.7,0-5,2.2-5,5v67.6c0,2.7,2.2,5,5,5  h3.2v-77.5H593.7z"
   id="path128"
   style="fill:#000000" />
<path
   class="st2"
   d="M597.9,717.1h-4.2c-3.8,0-6.9-3.1-7-7v-67.6c0-3.8,3.1-6.9,7-7h4.2c0.6,0,1,0.4,1,1c0,0,0,0,0,0v79.5  C598.9,716.6,598.4,717.1,597.9,717.1C597.9,717.1,597.9,717.1,597.9,717.1z M593.7,637.6c-2.7,0-5,2.2-5,5v67.6c0,2.7,2.2,5,5,5  h3.2v-77.5H593.7z"
   id="path130"
   style="fill:#000000" />












<path
   style="fill:#01c6e6;fill-opacity:0.992157;stroke:#4d4d4d;stroke-width:1"
   d="m 257.47599,997.49473 c -26.30234,-2.3493 -49.90186,-9.17738 -75.04426,-21.71262 C 117.17154,943.24531 74.755874,881.82088 66.727355,808.2243 64.943441,791.87136 64.94041,218.41588 66.724145,200.93415 69.379611,174.90893 75.914592,151.99608 87.247373,128.97592 118.63505,65.218492 179.0982,21.796519 249.3051,12.593199 c 18.18131,-2.383363 133.61873,-2.6919419 135.94726,-0.363405 1.12672,1.12671 1.45478,112.251076 1.45478,492.764216 0,484.50248 -0.0325,491.32681 -2.34493,492.5644 -2.80172,1.49943 -109.98822,1.44564 -126.88622,-0.0636 z"
   id="path1144" /><polygon
   class="st1"
   points="225.8,469.9 250,469.9 237.9,448.9 "
   id="polygon80"
   style="fill:#333333;stroke:#4d4d4d;stroke-width:0.927894"
   transform="matrix(1.1037134,0,0,1.0523169,-24.636066,-24.267048)" /><polygon
   class="st1"
   points="237.9,626.9 225.8,605.9 250,605.9 "
   id="polygon82"
   style="fill:#333333;stroke:#4d4d4d;stroke-width:0.957418"
   transform="matrix(1.0574383,0,0,1.0316716,-13.259456,-19.457378)" /><polygon
   class="st1"
   points="148.9,537.9 169.9,550 169.9,525.8 "
   id="polygon84"
   style="fill:#333333;stroke:#4d4d4d;stroke-width:0.931439"
   transform="matrix(1.0443863,0,0,1.1036462,-7.5389156,-55.555947)" /><polygon
   class="st1"
   points="305.9,550 305.9,525.8 326.9,537.9 "
   id="polygon86"
   style="fill:#333333;stroke:#4d4d4d;stroke-width:0.849928"
   transform="matrix(1.2181479,0,0,1.1364095,-67.797686,-73.39984)" /><path
   class="st1"
   d="m 81.300444,139.3 c -0.3,0 -0.5,-0.1 -0.7,-0.3 l -3.4,-3.4 c -2,-2 -2.6,-5.1 -1.5,-7.8 C 110.50044,50.1 187.70044,0.1 272.90044,0 h 51.2 c 3.8,0 6.9,3.1 7,7 v 2.6 c 0,0.6 -0.4,1 -1,1 h -54.2 c -84.5,-0.1 -160.8,50.4 -193.699996,128.1 -0.1,0.3 -0.4,0.5 -0.7,0.6 -0.1,0 -0.2,0 -0.2,0 z M 272.90044,2 c -84.4,0.1 -160.9,49.7 -195.399996,126.7 -0.8,1.9 -0.4,4.1 1.1,5.5 l 2.4,2.4 C 114.60044,58.8 191.30044,8.5 276.00044,8.6 h 53.2 V 7 c 0,-2.7 -2.2,-5 -5,-5 z"
   id="path102"
   style="fill:#000000" /><path
   class="st1"
   d="m 359.60044,116.1 h -46.9 c -2.2,0 -4,-1.8 -4,-4 v -11.7 c 0,-2.2 1.8,-4 4,-4 h 46.9 c 2.2,0 4,1.8 4,4 v 11.7 c 0,2.2 -1.8,4 -4,4 z m -46.9,-17.6 c -1.1,0 -2,0.9 -2,2 v 11.7 c 0,1.1 0.9,2 2,2 h 46.9 c 1.1,0 2,-0.9 2,-2 v -11.7 c 0,-1.1 -0.9,-2 -2,-2 z"
   id="path104"
   style="fill:#000000" /><path
   class="st1"
   d="m 237.90044,502.9 c -21.2,0 -38.5,-17.2 -38.5,-38.5 0,-21.2 17.2,-38.5 38.5,-38.5 21.2,0 38.5,17.2 38.5,38.5 0,21.3 -17.2,38.5 -38.5,38.5 z m 0,-74.9 c -20.1,0 -36.5,16.3 -36.5,36.5 0,20.1 16.3,36.5 36.5,36.5 20.1,0 36.5,-16.3 36.5,-36.5 0,-20.2 -16.3,-36.5 -36.5,-36.5 z"
   id="path106"
   style="fill:#000000" /><path
   class="st1"
   d="m 237.90044,649.8 c -21.2,0 -38.5,-17.2 -38.5,-38.5 0,-21.3 17.2,-38.5 38.5,-38.5 21.2,0 38.5,17.2 38.5,38.5 0,21.3 -17.2,38.5 -38.5,38.5 z m 0,-74.9 c -20.1,0 -36.5,16.3 -36.5,36.5 0,20.2 16.3,36.5 36.5,36.5 20.2,0 36.5,-16.3 36.5,-36.5 0,0 0,0 0,0 0,-20.2 -16.3,-36.5 -36.5,-36.5 z"
   id="path108"
   style="fill:#000000" /><path
   class="st1"
   d="m 311.40044,576.3 c -21.2,0 -38.5,-17.2 -38.5,-38.5 0,-21.2 17.2,-38.5 38.5,-38.5 21.3,0 38.5,17.2 38.5,38.5 v 0 c -0.1,21.3 -17.3,38.5 -38.5,38.5 z m 0,-74.9 c -20.1,0 -36.5,16.3 -36.5,36.5 0,20.2 16.3,36.5 36.5,36.5 20.1,0 36.5,-16.3 36.5,-36.5 0,0 0,0 0,0 -0.1,-20.2 -16.4,-36.5 -36.5,-36.5 z"
   id="path110"
   style="fill:#000000" /><path
   class="st1"
   d="m 164.50044,576.3 c -21.2,0 -38.5,-17.2 -38.5,-38.5 0,-21.2 17.2,-38.5 38.5,-38.5 21.3,0 38.5,17.2 38.5,38.5 v 0 c -0.1,21.3 -17.3,38.5 -38.5,38.5 z m 0,-74.9 c -20.1,0 -36.5,16.3 -36.5,36.5 0,20.1 16.3,36.5 36.5,36.5 20.1,0 36.5,-16.3 36.5,-36.5 0,0 0,0 0,0 -0.1,-20.2 -16.4,-36.5 -36.5,-36.5 z"
   id="path112"
   style="fill:#000000" /><path
   class="st1"
   d="m 314.10044,753.7 h -45 c -5.5,0 -9.9,-4.4 -9.9,-9.9 v -45 c 0,-5.5 4.4,-9.9 9.9,-9.9 h 45 c 5.5,0 9.9,4.4 9.9,9.9 v 45 c 0,5.5 -4.5,9.9 -9.9,9.9 z m -45,-62.8 c -4.4,0 -7.9,3.6 -7.9,7.9 v 45 c 0,4.4 3.6,7.9 7.9,7.9 h 45 c 4.4,0 7.9,-3.6 7.9,-7.9 v -45 c 0,-4.4 -3.6,-7.9 -7.9,-7.9 z"
   id="path114"
   style="fill:#000000" /><path
   class="st1"
   d="m 291.60044,741.7 c -11.3,0 -20.4,-9.2 -20.4,-20.4 0,-11.3 9.2,-20.4 20.4,-20.4 11.3,0 20.4,9.2 20.4,20.4 0,0 0,0 0,0 0,11.3 -9.1,20.4 -20.4,20.4 z m 0,-38.9 c -10.2,0 -18.4,8.3 -18.4,18.4 0,10.1 8.3,18.4 18.4,18.4 10.2,0 18.4,-8.3 18.4,-18.4 0,-10.1 -8.2,-18.3 -18.4,-18.4 z"
   id="path116"
   style="fill:#000000" /><path
   class="st1"
   d="m 174.80044,260.2 h -12.3 c -0.6,0 -1,-0.4 -1,-1 0,0 0,0 0,0 1.7,-39.6 33.4,-71.3 73,-73 0.3,0 0.5,0.1 0.7,0.3 0.2,0.2 0.3,0.4 0.3,0.7 v 12.3 c 0,3.5 -2.6,6.4 -6,6.9 -24.7,3.7 -44.2,23.1 -47.9,47.9 -0.4,3.3 -3.3,5.9 -6.8,5.9 z m -11.2,-2 h 11.2 c 2.5,0 4.6,-1.8 4.9,-4.3 3.9,-25.6 24,-45.7 49.6,-49.6 2.5,-0.3 4.3,-2.4 4.3,-4.9 v -11.2 c -37.4,2.1 -67.9,32.6 -70,70 z"
   id="path118"
   style="fill:#000000" /><path
   class="st1"
   d="m 234.60044,338.9 v 0 c -39.6,-1.7 -71.3,-33.4 -73,-73 0,-0.6 0.4,-1 1,-1 0,0 0,0 0,0 h 12.3 c 3.5,0 6.4,2.6 6.9,6 3.7,24.7 23.1,44.2 47.9,47.9 3.4,0.5 6,3.4 6,6.9 V 338 c -0.1,0.5 -0.6,0.9 -1.1,0.9 z m -71,-72 c 2.2,37.4 32.6,67.8 70,70 v -11.2 c 0,-2.5 -1.8,-4.6 -4.3,-4.9 -25.6,-3.9 -45.7,-24 -49.6,-49.6 -0.3,-2.5 -2.4,-4.3 -4.9,-4.3 z"
   id="path120"
   style="fill:#000000" /><path
   class="st1"
   d="m 241.30044,338.9 c -0.6,0 -1,-0.4 -1,-1 v -12.3 c 0,-3.5 2.6,-6.4 6,-6.9 24.7,-3.7 44.2,-23.1 47.9,-47.9 0.5,-3.4 3.4,-6 6.9,-6 h 12.3 c 0.6,0 1,0.4 1,1 0,0 0,0 0,0 -1.8,39.7 -33.5,71.4 -73.1,73.1 z m 59.7,-72 c -2.5,0 -4.6,1.8 -4.9,4.3 -3.9,25.6 -24,45.7 -49.6,49.6 -2.5,0.3 -4.3,2.4 -4.3,4.9 v 11.2 c 37.4,-2.2 67.8,-32.6 70,-70 z"
   id="path122"
   style="fill:#000000" /><path
   class="st1"
   d="m 313.30044,260.2 h -12.3 c -3.5,0 -6.4,-2.6 -6.9,-6 -3.7,-24.7 -23.1,-44.2 -47.9,-47.9 -3.4,-0.5 -6,-3.4 -6,-6.9 v -12.3 c 0,-0.3 0.1,-0.5 0.3,-0.7 0.2,-0.2 0.5,-0.3 0.7,-0.3 39.6,1.7 71.3,33.4 73,73 0.1,0.6 -0.3,1.1 -0.9,1.1 0,0 0,0 0,0 z m -71,-72 v 11.2 c 0,2.5 1.8,4.6 4.3,4.9 25.6,3.9 45.7,24 49.6,49.6 0.3,2.5 2.4,4.3 4.9,4.3 h 11.2 c -2.2,-37.4 -32.7,-67.9 -70,-70 z"
   id="path124"
   style="fill:#000000" /><path
   class="st1"
   d="m 237.90044,339 c -1.2,0 -2.3,0 -3.4,-0.1 -0.5,0 -0.9,-0.5 -0.9,-1 v -12.3 c 0,-2.5 -1.8,-4.6 -4.3,-4.9 -25.6,-3.9 -45.7,-24 -49.6,-49.6 -0.3,-2.5 -2.4,-4.3 -4.9,-4.3 h -12.3 c -0.5,0 -1,-0.4 -1,-0.9 -0.1,-1.1 -0.1,-2.2 -0.1,-3.4 0,-1.2 0,-2.3 0.1,-3.4 0,-0.5 0.5,-0.9 1,-0.9 h 12.3 c 2.5,0 4.6,-1.8 4.9,-4.3 3.9,-25.6 24,-45.7 49.6,-49.6 2.5,-0.3 4.3,-2.4 4.3,-4.9 v -12.3 c 0,-0.5 0.4,-1 0.9,-1 2.3,-0.1 4.5,-0.1 6.8,0 0.5,0 0.9,0.5 0.9,1 v 12.3 c 0,2.5 1.8,4.6 4.3,4.9 25.6,3.9 45.7,24 49.6,49.6 0.3,2.5 2.4,4.3 4.9,4.3 h 12.3 c 0.5,0 1,0.4 1,0.9 0.1,1.1 0.1,2.2 0.1,3.4 0,1.2 0,2.3 -0.1,3.4 0,0.5 -0.5,0.9 -1,0.9 h -12.3 c -2.5,0 -4.6,1.8 -4.9,4.3 -3.9,25.6 -24,45.7 -49.6,49.6 -2.5,0.3 -4.3,2.4 -4.3,4.9 v 12.3 c 0,0.5 -0.4,1 -0.9,1 -1.1,0.1 -2.2,0.1 -3.4,0.1 z m -2.3,-2 c 1.5,0.1 3.1,0.1 4.7,0 v -11.3 c 0,-3.5 2.6,-6.4 6,-6.9 24.7,-3.7 44.2,-23.1 47.9,-47.9 0.5,-3.4 3.4,-6 6.9,-6 h 11.3 c 0,-0.8 0,-1.5 0,-2.3 0,-0.8 0,-1.6 0,-2.3 h -11.4 c -3.5,0 -6.4,-2.6 -6.9,-6 -3.7,-24.7 -23.1,-44.2 -47.9,-47.9 -3.4,-0.5 -6,-3.4 -6,-6.9 v -11.3 c -1.5,-0.1 -3.1,-0.1 -4.7,0 v 11.3 c 0,3.5 -2.6,6.4 -6,6.9 -24.7,3.7 -44.2,23.1 -47.9,47.9 -0.5,3.4 -3.4,6 -6.9,6 h -11.3 c 0,0.8 0,1.5 0,2.3 0,0.8 0,1.6 0,2.3 h 11.3 c 3.5,0 6.4,2.6 6.9,6 3.7,24.7 23.1,44.2 47.9,47.9 3.4,0.5 6,3.4 6,6.9 z"
   id="path126"
   style="fill:#000000" /><path
   style="fill:#1a1a1a;fill-opacity:1;stroke:#4d4d4d;stroke-width:0.999997"
   d="m 158.02789,574.27925 c -14.73064,-3.25266 -24.85554,-12.70578 -29.04419,-27.11717 -0.98592,-3.39218 -1.21679,-6.26957 -0.93511,-11.65556 0.33774,-6.4583 0.67944,-7.76803 3.52546,-13.51272 11.35216,-22.91431 40.68588,-27.928 58.61532,-10.01846 19.42229,19.40073 11.99924,51.86436 -13.89781,60.78009 -5.19354,1.788 -13.81105,2.50701 -18.26367,1.52382 z m 12.59864,-36.29462 c 0,-7.35074 -0.18108,-13.36496 -0.40241,-13.36496 -0.89601,0 -23.32454,13.1809 -22.99291,13.51259 0.66445,0.66458 22.24473,13.11359 22.82266,13.1657 0.31497,0.0284 0.57266,-5.96261 0.57266,-13.31333 z"
   id="path179" /><path
   style="fill:#1a1a1a;fill-opacity:1;stroke:#4d4d4d;stroke-width:0.999997"
   d="m 232.50517,500.57091 c -6.91699,-0.86484 -15.04235,-4.99807 -20.4853,-10.42051 -14.58513,-14.53016 -14.55979,-36.85709 0.0584,-51.42015 23.0282,-22.94142 62.26853,-6.95317 62.26853,25.37095 0,10.34881 -3.46897,18.75364 -10.723,25.98031 -8.34032,8.30891 -19.22192,11.97685 -31.1186,10.4894 z m 18.58209,-30.69278 c -0.91811,-2.38357 -12.79282,-22.35099 -13.28879,-22.34521 -0.45143,0.005 -5.88471,9.05299 -11.95805,19.91302 l -2.0157,3.60439 h 13.85703 c 12.18288,0 13.80248,-0.14161 13.40551,-1.1722 z"
   id="path181" /><path
   style="fill:#1a1a1a;fill-opacity:1;stroke:#4d4d4d;stroke-width:0.999997"
   d="m 229.21434,646.98161 c -12.9232,-3.46654 -23.15418,-13.73508 -26.52403,-26.62142 -5.92248,-22.64757 11.58541,-45.21876 35.15949,-45.32763 7.44717,-0.0344 11.29183,0.91312 18.09999,4.46071 16.90217,8.80735 23.84898,30.39169 15.40753,47.87245 -7.54225,15.61868 -25.6403,24.04261 -42.14298,19.61589 z M 245.434,616.92014 c 3.65424,-6.30197 6.48622,-11.61534 6.29329,-11.8075 -0.19293,-0.19216 -6.40658,-0.25572 -13.80812,-0.14123 l -13.45735,0.20814 6.66623,11.58776 c 3.66642,6.37327 6.89025,11.59297 7.16405,11.59935 0.27381,0.006 3.48766,-5.14457 7.1419,-11.44652 z"
   id="path185" /><path
   style="fill:#1a1a1a;fill-opacity:1;stroke:#4d4d4d;stroke-width:1"
   d="m 307.85537,574.24407 c -0.34478,-0.0389 -1.62711,-0.27075 -2.84962,-0.51537 -11.23844,-2.24892 -20.9226,-9.70179 -26.17378,-20.1432 -2.82839,-5.62398 -4.20289,-12.18393 -3.75883,-17.93953 1.14218,-14.80435 11.33006,-27.74217 25.61809,-32.53303 8.75405,-2.93529 18.04495,-2.18507 26.72988,2.15843 8.69225,4.34715 15.48783,12.11097 18.64346,21.29973 5.25881,15.31297 -0.71552,32.17026 -14.73029,41.56334 -5.99457,4.01773 -13.35804,6.28235 -20.18834,6.20884 -1.46502,-0.0157 -2.94577,-0.0604 -3.29057,-0.0993 z m -0.66719,-23.08553 c 0.71175,-0.35815 3.02697,-1.62049 5.14496,-2.80516 8.66766,-4.84825 15.63944,-9.1681 16.21592,-10.0477 0.27948,-0.42642 0.28078,-0.49758 0.0166,-0.90068 -0.86957,-1.32678 -21.50733,-13.52937 -22.8817,-13.52937 -0.25925,0 -0.5656,0.11351 -0.68079,0.25225 -0.41371,0.49837 -0.59707,4.78502 -0.59431,13.89388 0.003,9.06159 0.17803,13.03427 0.59744,13.53951 0.32082,0.38645 0.78324,0.3011 2.18189,-0.40273 z"
   id="path187" /><path
   style="fill:#333333;fill-opacity:1;stroke:#4d4d4d;stroke-width:1"
   d="m 287.96017,739.09726 c -1.01606,-0.21912 -2.9756,-0.9477 -4.35453,-1.61905 -2.09414,-1.01956 -2.88115,-1.59464 -4.77748,-3.49097 -1.89792,-1.89791 -2.4703,-2.68159 -3.48941,-4.77748 -2.66648,-5.48389 -2.66607,-10.55714 10e-4,-16.08572 1.0133,-2.10022 1.56326,-2.85257 3.48092,-4.76199 3.62968,-3.61405 7.72755,-5.3398 12.70198,-5.34921 8.35146,-0.0158 15.68299,5.71579 17.81213,13.92506 0.52326,2.01754 0.54009,6.16569 0.0339,8.34799 -1.47072,6.34008 -6.30854,11.44929 -12.69973,13.41212 -2.44922,0.7522 -6.26202,0.92699 -8.70906,0.39925 z"
   id="path189" /><path
   style="fill:#1a1a1a;fill-opacity:1;stroke:#4d4d4d;stroke-width:1"
   d="m 267.23012,751.2862 c -1.59942,-0.43597 -2.94763,-1.29847 -4.05871,-2.59652 -1.81264,-2.11766 -1.73429,-0.87988 -1.73429,-27.39725 0,-26.73402 -0.0972,-25.30688 1.87658,-27.54923 0.58306,-0.66239 1.71204,-1.51487 2.55332,-1.92799 l 1.5081,-0.74058 h 24.1534 24.15339 l 1.77672,0.87468 c 1.25727,0.61895 2.04823,1.23027 2.70544,2.091 1.78729,2.34073 1.72742,1.33094 1.64816,27.80036 -0.0712,23.78487 -0.0733,23.86757 -0.63865,25.09049 -0.72339,1.56486 -2.26169,3.10316 -3.93043,3.93043 l -1.30842,0.64864 -23.75199,0.0516 c -18.21394,0.0396 -24.03192,-0.0247 -24.95262,-0.27565 z m 27.28995,-9.68076 c 10.60326,-1.53286 18.09097,-10.66806 17.50501,-21.35655 -0.18432,-3.36213 -0.66908,-5.27077 -2.04745,-8.06138 -4.59235,-9.29756 -15.46557,-13.67756 -25.3079,-10.19463 -2.76161,0.97725 -4.68871,2.16763 -7.02836,4.34145 -3.05146,2.83517 -5.11688,6.34636 -6.04249,10.27217 -0.50715,2.151 -0.50715,7.22087 0,9.37186 0.92171,3.90925 2.95421,7.3745 6.0133,10.25221 2.20884,2.07787 4.16469,3.31668 6.72144,4.2573 3.40627,1.25315 6.72782,1.61756 10.18645,1.11757 z"
   id="path191" /><path
   style="fill:#1a1a1a;fill-opacity:1;stroke:#4d4d4d;stroke-width:1"
   d="m 235.77295,330.34531 c 0,-6.0203 -0.0462,-6.51813 -0.73076,-7.87124 -1.06164,-2.09851 -2.95253,-3.39477 -5.65313,-3.87537 -15.06064,-2.68022 -27.49575,-10.15006 -36.51861,-21.93692 -4.96934,-6.49162 -8.83069,-15.11098 -10.3887,-23.18981 -0.83474,-4.3284 -1.3998,-5.65891 -2.97647,-7.00848 -1.7724,-1.51711 -3.30405,-1.79252 -9.96885,-1.79252 h -5.86461 v -2.11107 -2.11107 h 6.26944 c 6.12912,0 6.30805,-0.0192 7.9945,-0.85963 2.44443,-1.21811 3.32179,-2.74063 4.22338,-7.32906 4.56927,-23.25403 22.39532,-40.97679 45.63214,-45.36773 4.16129,-0.78634 5.57438,-1.57205 6.90818,-3.84114 0.9048,-1.53927 0.91186,-1.5954 1.02116,-8.12677 l 0.11006,-6.57679 h 2.0822 2.0822 v 6.27497 c 0,6.20191 0.0104,6.29547 0.89315,8.03629 1.32629,2.61551 2.65075,3.37644 7.56606,4.34684 19.37922,3.82593 35.08856,16.98397 42.28514,35.41774 1.04383,2.67375 1.9437,5.93165 3.31831,12.01372 0.58905,2.60627 1.67368,4.16462 3.60307,5.17675 1.1513,0.60396 1.95144,0.68258 7.85861,0.77219 l 6.57679,0.0998 v 2.0925 2.09249 h -6.26944 c -6.12912,0 -6.30805,0.0192 -7.9945,0.85963 -2.20181,1.09721 -3.39863,2.90223 -3.90849,5.89474 -4.06097,23.83452 -22.22419,42.32715 -45.97159,46.8053 -4.2535,0.8021 -5.71797,1.66037 -6.96502,4.08193 -0.79329,1.54043 -0.83455,1.89301 -0.94026,8.03533 l -0.11057,6.42419 h -2.08169 -2.0817 z"
   id="path1082" /><path
   style="fill:#1a1a1a;fill-opacity:1;stroke:#4d4d4d;stroke-width:1"
   d="m 163.78864,257.28223 c 0.0926,-0.49123 0.26012,-1.9162 0.37218,-3.1666 0.34565,-3.85681 1.73866,-10.12043 3.27937,-14.74553 8.02141,-24.0797 28.10082,-42.70464 52.74332,-48.92282 3.12397,-0.78829 7.58171,-1.54879 11.2861,-1.92544 l 2.02988,-0.20639 v 5.8726 c 0,8.54266 -0.3854,9.15422 -6.53853,10.37563 -18.42711,3.65779 -33.66767,15.25204 -41.92018,31.89074 -2.55007,5.14144 -4.14587,10.08856 -5.47376,16.9691 -0.45828,2.3746 -1.81844,3.9985 -3.71595,4.43649 -0.71452,0.16493 -3.75876,0.30335 -6.76499,0.30761 l -5.46587,0.008 z"
   id="path1084" /><path
   style="fill:#1a1a1a;fill-opacity:1;stroke:#4d4d4d;stroke-width:1"
   d="m 229.76452,336.39384 c -26.99792,-3.04756 -50.79328,-21.35759 -60.92173,-46.87799 -2.38214,-6.00221 -4.22117,-13.35788 -4.67827,-18.71196 -0.11259,-1.31887 -0.27512,-2.73804 -0.36117,-3.1537 l -0.15645,-0.75574 6.32279,0.10618 c 5.78597,0.0972 6.39885,0.16304 7.21874,0.77582 1.58067,1.18137 2.03872,2.1715 2.89278,6.25312 1.21968,5.82894 2.45374,9.35857 5.18759,14.8375 2.85902,5.72977 5.67403,9.77885 9.85937,14.18161 8.62003,9.0678 19.6967,15.16512 31.73111,17.46684 3.63419,0.69508 4.63135,1.16546 5.80819,2.73983 0.6132,0.82034 0.6781,1.4276 0.77012,7.20628 0.0943,5.92221 0.0643,6.30785 -0.48717,6.26798 -0.32321,-0.0233 -1.75687,-0.17446 -3.1859,-0.33577 z"
   id="path1086" /><path
   style="fill:#1a1a1a;fill-opacity:1;stroke:#4d4d4d;stroke-width:1"
   d="m 299.6703,257.71116 c -2.39043,-0.853 -2.81858,-1.58503 -3.81252,-6.51855 -3.66786,-18.20579 -15.40436,-33.45997 -31.99138,-41.57986 -4.81668,-2.35792 -8.58209,-3.67044 -13.47836,-4.69819 -4.72195,-0.99115 -6.17077,-1.58672 -7.05619,-2.9006 -0.70499,-1.04613 -0.73853,-1.38133 -0.73853,-7.38107 0,-3.45685 0.11517,-6.28518 0.25593,-6.28518 0.14076,0 1.93111,0.20926 3.97855,0.46502 11.96867,1.4951 22.85594,5.62979 32.79042,12.45291 4.36974,3.00118 7.416,5.6069 11.57682,9.90259 9.30395,9.60553 15.50823,20.66713 18.77966,33.48224 0.93232,3.65217 2.12151,10.886 2.12151,12.90514 0,0.58643 -0.30132,0.619 -5.60245,0.60551 -3.82949,-0.01 -5.98886,-0.15214 -6.82346,-0.44996 z"
   id="path1088" /><path
   style="fill:#1a1a1a;fill-opacity:1;stroke:#4d4d4d;stroke-width:1"
   d="m 242.3249,330.46177 c 0.097,-5.7735 0.163,-6.38655 0.77566,-7.20629 1.18269,-1.58243 2.17182,-2.02925 6.33209,-2.86041 23.48707,-4.69236 41.89612,-23.31363 46.43689,-46.97223 0.66775,-3.47916 1.14738,-4.47847 2.71006,-5.64639 0.81991,-0.6128 1.43277,-0.67865 7.22079,-0.77584 l 6.32483,-0.10621 -0.19591,1.73011 c -1.19107,10.51857 -3.29919,17.9842 -7.45853,26.41337 -11.17834,22.65366 -32.93361,38.14197 -57.96776,41.26919 -2.04744,0.25577 -3.84896,0.46502 -4.00338,0.46502 -0.15442,0 -0.23305,-2.83964 -0.17474,-6.31032 z"
   id="path1090" /><path
   style="fill:#000000;fill-opacity:1;stroke:#4d4d4d;stroke-width:0.999998"
   d="m 311.60253,113.45766 c -0.55307,-0.55307 -0.67321,-1.83753 -0.67321,-7.19731 0,-4.50308 0.15925,-6.68335 0.51409,-7.03819 0.38766,-0.38766 6.43841,-0.5141 24.60307,-0.5141 21.32785,0 24.16614,0.0772 24.76219,0.67322 0.55166,0.55166 0.67322,1.82364 0.67322,7.0445 0,6.09825 -0.0408,6.39986 -0.95215,7.03819 -0.83385,0.58406 -3.89051,0.66691 -24.60307,0.66691 -20.92962,0 -23.72838,-0.0775 -24.32414,-0.67322 z"
   id="path1092" /><path
   style="fill:#000000;fill-opacity:1;stroke:#4d4d4d;stroke-width:0.999998"
   d="m 78.977784,134.18912 c -2.35328,-2.74929 -2.18932,-3.66269 2.26682,-12.62797 C 92.012734,99.89682 104.871,81.96966 121.771,65.058734 153.11752,33.69194 193.3541,12.833792 237.03838,5.305545 252.10894,2.708387 253.57756,2.630423 291.07604,2.43687 l 34.76922,-0.179466 1.35092,1.207149 c 0.9677,0.864713 1.41875,1.712966 1.59003,2.990242 l 0.23911,1.783092 -33.78877,0.194148 c -36.2509,0.208295 -38.76527,0.335101 -53.2555,2.685802 -38.392,6.2282 -72.8916,22.039868 -103.29303,47.340693 -6.79226,5.652686 -19.46547,18.33117 -25.22484,25.23531 -8.3636,10.02603 -16.479016,21.67655 -22.544486,32.36489 -3.07683,5.42188 -9.61802,18.64996 -9.61802,19.45027 0,0.91062 -0.80534,0.45303 -2.32289,-1.31988 z"
   id="path1094" /><path
   style="fill:#1a1a1a;fill-opacity:1;stroke:#4d4d4d;stroke-width:1"
   d="m 398.20583,464.93186 c 0,-216.02489 0.12146,-304.39871 0.26991,-196.38626 0.14845,108.01244 0.14845,284.76008 0,392.77252 -0.14845,108.01245 -0.26991,19.63863 -0.26991,-196.38626 z"
   id="path1150" /><path
   style="fill:#1a1a1a;fill-opacity:1;stroke:#4d4d4d;stroke-width:1"
   d="m 401.44318,902.40274 c -1.48283,-2.11702 -1.64585,-43.40647 -1.64585,-416.85429 0,-373.44781 0.16302,-414.737261 1.64585,-416.854286 1.37591,-1.964385 2.64173,-2.349769 7.718,-2.349769 3.33969,0 6.64309,0.570921 7.34088,1.268713 0.96181,0.961813 1.26871,18.598983 1.26871,72.911362 0,69.01305 -0.0775,71.84973 -2.1109,77.28456 -1.161,3.10304 -3.53984,7.89508 -5.28631,10.64899 l -3.1754,5.00708 v 40.24031 c 0,37.61687 0.12902,40.42327 1.97893,43.04667 1.08842,1.5435 3.34831,5.42309 5.02199,8.6213 l 3.04306,5.81494 0.27946,141.61892 c 0.30957,156.88126 0.80443,145.17745 -6.6628,157.57802 l -3.66064,6.0791 v 40.51406 c 0,26.52506 0.37415,40.74531 1.08359,41.18376 0.59597,0.36833 2.85586,4.08361 5.02199,8.25617 l 3.9384,7.58648 0.28906,83.91411 c 0.21318,61.88506 -0.029,84.29733 -0.9224,85.37384 -0.77641,0.93553 -3.42147,1.45973 -7.36562,1.45973 -5.161,0 -6.41977,-0.37921 -7.8,-2.34977 z"
   id="path1152" /><path
   style="fill:#1a1a1a;fill-opacity:1;stroke:#4d4d4d;stroke-width:1"
   d="M 389.22472,464.93186 V 72.687962 h 4.22905 4.22904 v 392.243898 392.2439 h -4.22904 -4.22905 z"
   id="path1154" /><path
   style="fill:#00c7e7;fill-opacity:0.992157;stroke:#4d4d4d;stroke-width:1"
   d="m 409.89998,273.33293 v -38.63294 h 3.04188 c 1.74435,0 3.58682,0.88543 4.31941,2.07573 1.73761,2.82321 1.73761,70.29119 0,73.11439 -0.73259,1.19032 -2.57506,2.07573 -4.31941,2.07573 h -3.04188 z"
   id="path1156" /><path
   style="fill:#00c7e7;fill-opacity:0.992157;stroke:#4d4d4d;stroke-width:1"
   d="m 409.89998,676.164 v -38.66403 h 3.04381 c 1.74545,0 3.58909,0.88613 4.32215,2.07741 1.7387,2.82547 1.7387,70.34777 0,73.17325 -0.73306,1.19129 -2.5767,2.0774 -4.32215,2.0774 h -3.04381 z"
   id="path1158" /><path
   style="fill:#ff5f55;fill-opacity:0.95686275;stroke:#4d4d4d;stroke-width:1"
   d="m 748.93436,998.67954 c 26.59545,-2.35471 50.45796,-9.1985 75.88056,-21.7626 65.98743,-32.61168 108.87577,-94.17749 116.99375,-167.94346 1.80381,-16.39057 1.80686,-591.16592 0.003,-608.68789 -2.68506,-26.08512 -9.29287,-49.0507 -20.75194,-72.12385 C 889.32253,64.257568 828.18558,20.735655 757.19631,11.511152 738.81239,9.1223039 622.08856,8.8130147 619.73408,11.146911 c -1.13928,1.129303 -1.47099,112.509439 -1.47099,493.898369 0,485.61761 0.0328,492.45765 2.37105,493.69808 2.83295,1.50294 111.21392,1.44894 128.30022,-0.0637 z"
   id="path1240" /><path
   class="st3"
   d="m 715,763.2 c -23.1,0 -41.9,-18.7 -41.9,-41.9 0,-23.2 18.7,-41.9 41.9,-41.9 23.2,0 41.9,18.7 41.9,41.9 v 0 c -0.1,23.1 -18.8,41.8 -41.9,41.9 z m 0,-82.8 c -22.6,0 -40.9,18.3 -40.9,40.9 0,22.6 18.3,40.9 40.9,40.9 22.6,0 40.9,-18.3 40.9,-40.9 v 0 C 755.8,698.7 737.6,680.4 715,680.4 Z"
   id="path78"
   style="fill:#000000" /><path
   class="st2"
   d="m 782.2,203.2 h -5.5 l -7.8,-12.9 -7.8,12.9 h -5.4 l 10.6,-16.3 -9.8,-15.6 h 5.2 l 7.3,12 7.4,-12 h 5 l -9.8,15.4 z"
   id="path88"
   style="fill:#b3b3b3;fill-opacity:1" /><path
   class="st2"
   d="m 709.2,244.5 -11.6,20.6 v 11.4 h -4.4 V 265 l -11.6,-20.5 h 5.3 l 6.4,11.7 2.3,4.7 2.2,-4.3 6.4,-12.1 z"
   id="path90"
   style="fill:#b3b3b3" /><path
   class="st2"
   d="m 855.9,276.5 h -4.7 l -2.2,-7 h -13.3 l -2.3,7 h -4.5 l 10.6,-32 h 6 z m -8.2,-10.9 -5.4,-17.1 -5.4,17.1 z"
   id="path92"
   style="fill:#b3b3b3" /><path
   class="st2"
   d="m 779.4,340.4 c 0,1.4 -0.3,2.8 -0.9,4.1 -0.6,1.2 -1.5,2.2 -2.5,3 -1.2,0.9 -2.6,1.5 -4,1.9 -1.7,0.4 -3.4,0.7 -5.2,0.6 h -8.4 v -32 h 9.2 c 7.1,0 10.7,2.6 10.7,7.8 0,1.6 -0.4,3.1 -1.2,4.5 -1,1.4 -2.4,2.3 -4,2.8 0.9,0.2 1.7,0.4 2.5,0.8 0.8,0.4 1.5,0.9 2,1.5 0.6,0.6 1.1,1.4 1.4,2.2 0.2,0.8 0.4,1.8 0.4,2.8 z m -5.7,-14.1 c 0,-0.6 -0.1,-1.3 -0.3,-1.8 -0.2,-0.6 -0.6,-1.1 -1,-1.5 -0.6,-0.5 -1.3,-0.8 -2,-1 -1,-0.3 -2.1,-0.4 -3.2,-0.4 h -4.5 v 10 h 4.4 c 0.9,0 1.8,-0.1 2.7,-0.3 0.8,-0.2 1.5,-0.5 2.1,-1 0.6,-0.4 1,-1 1.3,-1.7 0.4,-0.7 0.5,-1.5 0.5,-2.3 z m 1.1,14.2 c 0,-0.8 -0.2,-1.5 -0.5,-2.2 -0.4,-0.7 -0.9,-1.2 -1.5,-1.7 -0.7,-0.5 -1.5,-0.8 -2.4,-1 -1,-0.3 -2.1,-0.4 -3.2,-0.4 h -4.5 v 11 h 4.6 c 2.5,0 4.4,-0.5 5.6,-1.4 1.3,-1 2,-2.6 1.9,-4.3 z"
   id="path94"
   style="fill:#b3b3b3" /><path
   class="st2"
   d="M 715,701.3 695.4,721 h 5.6 v 16.8 h 28.2 V 721 h 5.3 z m 5.7,30.5 H 709.6 V 721 h 11.1 z"
   id="path96"
   style="fill:#333333" /><path
   class="st2"
   d="m 925.6,139.3 c -0.1,0 -0.1,0 -0.2,0 -0.3,-0.1 -0.6,-0.3 -0.7,-0.6 C 891.7,61 815.4,10.5 730.9,10.6 h -54.2 c -0.6,0 -1,-0.4 -1,-1 0,0 0,0 0,0 V 7 c 0,-3.8 3.1,-6.9 7,-7 h 51.2 c 85.2,0.1 162.4,50.1 197.3,127.8 1.2,2.6 0.6,5.7 -1.5,7.8 l -3.4,3.4 c -0.2,0.2 -0.5,0.3 -0.7,0.3 z M 677.7,8.6 h 53.2 c 84.7,-0.1 161.3,50.2 195,128 l 2.4,-2.4 v 0 c 1.5,-1.4 1.9,-3.6 1.1,-5.5 C 894.8,51.7 818.3,2.1 733.9,2 h -51.2 c -2.7,0 -5,2.2 -5,5 z"
   id="path132"
   style="fill:#000000" /><path
   class="st2"
   d="m 676.5,133.7 h -11.7 c -2.2,0 -4,-1.8 -4,-4 V 118 c 0,-1.1 -0.9,-2 -2,-2 h -11.7 c -2.2,0 -4,-1.8 -4,-4 v -11.7 c 0,-2.2 1.8,-4 4,-4 h 11.7 c 1.1,0 2,-0.9 2,-2 V 82.8 c 0,-2.2 1.8,-4 4,-4 h 11.7 c 2.2,0 4,1.8 4,4 v 11.7 c 0,1.1 0.9,2 2,2 h 11.7 c 2.2,0 4,1.8 4,4 v 11.7 c 0,2.2 -1.8,4 -4,4 h -11.7 c -1.1,0 -2,0.9 -2,2 v 11.7 c 0,2 -1.8,3.8 -4,3.8 z M 647.2,98.5 c -1.1,0 -2,0.9 -2,2 v 11.7 c 0,1.1 0.9,2 2,2 h 11.7 c 2.2,0 4,1.8 4,4 v 11.7 c 0,1.1 0.9,2 2,2 h 11.7 c 1.1,0 2,-0.9 2,-2 v -11.7 c 0,-2.2 1.8,-4 4,-4 h 11.7 c 1.1,0 2,-0.9 2,-2 v -11.7 c 0,-1.1 -0.9,-2 -2,-2 h -11.7 c -2.2,0 -4,-1.8 -4,-4 V 82.8 c 0,-1.1 -0.9,-2 -2,-2 h -11.7 c -1.1,0 -2,0.9 -2,2 v 11.7 c 0,2.2 -1.8,4 -4,4 z"
   id="path134"
   style="fill:#000000" /><path
   class="st2"
   d="m 768.9,372.4 c -21.2,0 -38.5,-17.2 -38.5,-38.5 0,-21.2 17.2,-38.5 38.5,-38.5 21.2,0 38.5,17.2 38.5,38.5 -0.1,21.3 -17.3,38.5 -38.5,38.5 z m 0,-74.9 c -20.1,0 -36.5,16.3 -36.5,36.5 0,20.1 16.3,36.5 36.5,36.5 20.1,0 36.5,-16.3 36.5,-36.5 -0.1,-20.2 -16.4,-36.5 -36.5,-36.5 z"
   id="path136"
   style="fill:#000000" /><path
   class="st2"
   d="m 768.9,225.5 c -21.2,0 -38.5,-17.2 -38.5,-38.5 0,-21.2 17.2,-38.5 38.5,-38.5 21.2,0 38.5,17.2 38.5,38.5 -0.1,21.3 -17.3,38.5 -38.5,38.5 z m 0,-74.9 c -20.1,0 -36.5,16.3 -36.5,36.5 0,20.1 16.3,36.5 36.5,36.5 20.1,0 36.5,-16.3 36.5,-36.5 -0.1,-20.2 -16.4,-36.5 -36.5,-36.5 z"
   id="path138"
   style="fill:#000000" /><path
   class="st2"
   d="m 842.3,299 c -21.2,0 -38.5,-17.2 -38.5,-38.5 0,-21.2 17.2,-38.5 38.5,-38.5 21.2,0 38.5,17.2 38.5,38.5 0,21.2 -17.2,38.4 -38.5,38.5 z m 0,-75 c -20.1,0 -36.5,16.3 -36.5,36.5 0,20.1 16.3,36.5 36.5,36.5 20.1,0 36.5,-16.3 36.5,-36.5 0,-20.1 -16.3,-36.5 -36.5,-36.5 z"
   id="path140"
   style="fill:#000000" /><path
   class="st2"
   d="m 695.5,299 c -21.2,0 -38.5,-17.2 -38.5,-38.5 0,-21.2 17.2,-38.5 38.5,-38.5 21.2,0 38.5,17.2 38.5,38.5 -0.1,21.2 -17.3,38.4 -38.5,38.5 z m 0,-75 c -20.1,0 -36.5,16.3 -36.5,36.5 0,20.1 16.3,36.5 36.5,36.5 20.1,0 36.5,-16.3 36.5,-36.5 C 731.9,240.4 715.6,224 695.5,224 Z"
   id="path142"
   style="fill:#000000" /><path
   class="st2"
   d="m 715,750.2 c -16,0 -28.9,-13 -28.9,-28.9 0,-15.9 13,-28.9 28.9,-28.9 16,0 28.9,13 28.9,28.9 0,0 0,0 0,0 0,16 -12.9,28.9 -28.9,28.9 z m 0,-55.9 c -14.9,0 -26.9,12.1 -26.9,26.9 0,14.8 12.1,26.9 26.9,26.9 14.9,0 26.9,-12.1 26.9,-26.9 0,-14.8 -12,-26.8 -26.9,-26.9 z"
   id="path144"
   style="fill:#000000" /><path
   class="st2"
   d="m 705.8,533.4 h -12.3 c -0.6,0 -1,-0.4 -1,-1 0,0 0,0 0,0 1.7,-39.6 33.4,-71.3 73,-73 0.3,0 0.5,0.1 0.7,0.3 0.2,0.2 0.3,0.4 0.3,0.7 v 12.3 c 0,3.5 -2.6,6.4 -6,6.9 -24.7,3.7 -44.2,23.1 -47.9,47.9 -0.4,3.3 -3.3,5.9 -6.8,5.9 z m -11.2,-2 h 11.2 c 2.5,0 4.6,-1.8 4.9,-4.3 3.9,-25.6 24,-45.7 49.6,-49.6 2.5,-0.3 4.3,-2.4 4.3,-4.9 v -11.2 c -37.4,2.1 -67.9,32.6 -70,70 z"
   id="path146"
   style="fill:#000000" /><path
   class="st2"
   d="m 765.6,612.1 c 0,0 -0.1,0 0,0 -39.6,-1.7 -71.3,-33.4 -73,-73 0,-0.6 0.4,-1 1,-1 0,0 0,0 0,0 h 12.3 c 3.5,0 6.4,2.6 6.9,6 3.7,24.7 23.1,44.2 47.9,47.9 3.4,0.5 6,3.4 6,6.9 v 12.3 c -0.1,0.4 -0.6,0.9 -1.1,0.9 0,0 0,0 0,0 z m -71,-72.1 c 2.2,37.4 32.6,67.8 70,70 v -11.2 c 0,-2.5 -1.8,-4.6 -4.3,-4.9 -25.6,-3.9 -45.7,-24 -49.6,-49.6 -0.3,-2.5 -2.4,-4.3 -4.9,-4.3 z"
   id="path148"
   style="fill:#000000" /><path
   class="st2"
   d="m 772.2,612.1 c -0.6,0 -1,-0.4 -1,-1 0,0 0,0 0,0 v -12.3 c 0,-3.5 2.6,-6.4 6,-6.9 24.7,-3.7 44.2,-23.1 47.9,-47.9 0.5,-3.4 3.4,-6 6.9,-6 h 12.3 c 0.6,0 1,0.4 1,1 0,0 0,0 0,0 -1.8,39.7 -33.4,71.3 -73.1,73.1 0.1,0 0.1,0 0,0 z M 832,540 c -2.5,0 -4.6,1.8 -4.9,4.3 -3.9,25.6 -24,45.7 -49.6,49.6 -2.5,0.3 -4.3,2.4 -4.3,4.9 V 610 c 37.4,-2.2 67.8,-32.6 70,-70 z"
   id="path150"
   style="fill:#000000" /><path
   class="st2"
   d="M 844.3,533.4 H 832 c -3.5,0 -6.4,-2.6 -6.9,-6 -3.7,-24.7 -23.1,-44.2 -47.9,-47.9 -3.4,-0.5 -6,-3.4 -6,-6.9 v -12.3 c 0,-0.3 0.1,-0.5 0.3,-0.7 0.2,-0.2 0.5,-0.3 0.7,-0.3 39.6,1.7 71.3,33.4 73,73 0.1,0.6 -0.3,1 -0.9,1.1 0,0 0,0 0,0 z m -71.1,-72 v 11.2 c 0,2.5 1.8,4.6 4.3,4.9 25.6,3.9 45.7,24 49.6,49.6 0.3,2.5 2.4,4.3 4.9,4.3 h 11.2 c -2.1,-37.4 -32.6,-67.9 -70,-70 z"
   id="path152"
   style="fill:#000000" /><path
   class="st2"
   d="m 768.9,612.2 c -1.2,0 -2.3,0 -3.4,-0.1 -0.5,0 -0.9,-0.5 -0.9,-1 v -12.3 c 0,-2.5 -1.8,-4.6 -4.3,-4.9 -25.6,-3.9 -45.7,-24 -49.6,-49.6 -0.3,-2.5 -2.4,-4.3 -4.9,-4.3 h -12.3 c -0.5,0 -1,-0.4 -1,-0.9 -0.1,-1.1 -0.1,-2.2 -0.1,-3.4 0,-1.2 0,-2.3 0.1,-3.4 0,-0.5 0.5,-0.9 1,-0.9 h 12.3 c 2.5,0 4.6,-1.8 4.9,-4.3 3.9,-25.6 24,-45.7 49.6,-49.6 2.5,-0.3 4.3,-2.4 4.3,-4.9 v -12.3 c 0,-0.5 0.4,-1 0.9,-1 2.3,-0.1 4.5,-0.1 6.8,0 0.5,0 0.9,0.5 0.9,1 v 12.3 c 0,2.5 1.8,4.6 4.3,4.9 25.6,3.9 45.7,24 49.6,49.6 0.3,2.5 2.4,4.3 4.9,4.3 h 12.3 c 0.5,0 1,0.4 1,0.9 0.1,1.1 0.1,2.2 0.1,3.4 0,1.2 0,2.3 -0.1,3.4 0,0.5 -0.5,0.9 -1,0.9 H 832 c -2.5,0 -4.6,1.8 -4.9,4.3 -3.9,25.6 -24,45.7 -49.6,49.6 -2.5,0.3 -4.3,2.4 -4.3,4.9 v 12.3 c 0,0.5 -0.4,1 -0.9,1 -1.1,0 -2.2,0.1 -3.4,0.1 z m -2.3,-2.1 c 1.5,0.1 3.1,0.1 4.7,0 v -11.3 c 0,-3.5 2.6,-6.4 6,-6.9 24.7,-3.7 44.2,-23.1 47.9,-47.9 0.5,-3.4 3.4,-6 6.9,-6 h 11.3 c 0,-0.8 0,-1.5 0,-2.3 0,-0.8 0,-1.6 0,-2.3 H 832 c -3.5,0 -6.4,-2.6 -6.9,-6 -3.7,-24.7 -23.1,-44.2 -47.9,-47.9 -3.4,-0.5 -6,-3.4 -6,-6.9 v -11.3 c -1.5,-0.1 -3.1,-0.1 -4.7,0 v 11.3 c 0,3.5 -2.6,6.4 -6,6.9 -24.7,3.7 -44.2,23.1 -47.9,47.9 -0.5,3.4 -3.4,6 -6.9,6 h -11.3 c 0,0.8 0,1.5 0,2.3 0,0.8 0,1.6 0,2.3 h 11.3 c 3.5,0 6.4,2.6 6.9,6 3.7,24.7 23.1,44.2 47.9,47.9 3.4,0.5 6,3.4 6,6.9 v 11.3 z"
   id="path154"
   style="fill:#000000" /><path
   style="opacity:1;fill:#1a1a1a;fill-opacity:1;stroke:#4d4d4d;stroke-width:1"
   d="m 686.27756,295.45757 c -6.3268,-1.65761 -11.02024,-4.44224 -16.19729,-9.60987 -7.7249,-7.71084 -11.00252,-16.02709 -10.55426,-26.7792 0.56274,-13.49806 7.94054,-24.90282 19.94518,-30.83167 10.51307,-5.1922 21.47279,-5.27638 31.58153,-0.24258 7.93543,3.95157 13.41304,9.50319 17.2109,17.44344 5.18792,10.84649 4.24806,24.40322 -2.39714,34.5766 -4.99743,7.65076 -13.48676,13.69608 -22.04004,15.69491 -4.81862,1.12607 -12.72306,1.01273 -17.54888,-0.25163 z m 11.6608,-24.5355 v -5.81067 l 5.62044,-9.96942 c 3.09124,-5.48319 5.62044,-10.21511 5.62044,-10.51538 0,-0.30027 -1.15454,-0.54595 -2.56564,-0.54595 h -2.56564 l -4.20029,8.09641 c -2.67942,5.1648 -4.33588,7.8298 -4.57474,7.3601 -0.20594,-0.40496 -2.13104,-4.04835 -4.27799,-8.0964 l -3.90356,-7.36011 h -2.87335 c -1.58035,0 -2.87336,0.12781 -2.87336,0.28402 0,0.1562 2.64964,4.96636 5.88808,10.68923 l 5.88809,10.40522 v 5.63681 5.63682 h 2.40876 2.40876 z"
   id="path1462" /><path
   style="opacity:1;fill:#1a1a1a;fill-opacity:1;stroke:#4d4d4d;stroke-width:1"
   d="m 762.70726,222.86949 c -4.07666,-0.78537 -10.17009,-3.29429 -13.6441,-5.61785 -6.91015,-4.6218 -11.71459,-10.88088 -14.5402,-18.94258 -1.34575,-3.83954 -1.49911,-4.98899 -1.49911,-11.23574 0,-6.24676 0.15336,-7.39621 1.49911,-11.23575 3.87774,-11.0635 11.80142,-19.0577 22.76847,-22.97107 4.25097,-1.51687 5.15889,-1.64602 11.57155,-1.64602 6.41266,0 7.32058,0.12915 11.57155,1.64602 14.51853,5.18065 23.77179,17.63258 24.42528,32.86862 0.45428,10.5913 -2.84072,19.07821 -10.28709,26.49636 -7.55957,7.53093 -14.1652,10.43737 -24.37154,10.72334 -3.38565,0.0949 -6.75791,0.0565 -7.49392,-0.0853 z m 2.38607,-25.68467 c 4.25443,-7.14961 3.37755,-7.25493 8.20926,0.98595 l 3.05431,5.20938 3.12152,0.01 3.12152,0.01 -1.22963,-2.0073 c -0.6763,-1.10401 -3.07664,-4.86619 -5.3341,-8.36039 l -4.10446,-6.35309 4.75516,-7.43514 c 2.61533,-4.08932 4.75516,-7.56602 4.75516,-7.72599 0,-0.15996 -1.24936,-0.21804 -2.77636,-0.12905 l -2.77635,0.16179 -3.10726,5.05393 c -1.70899,2.77966 -3.29562,5.24229 -3.52585,5.47251 -0.23022,0.23022 -1.93136,-2.10426 -3.78031,-5.18775 l -3.36174,-5.60633 h -2.95881 -2.95881 l 1.22685,2.0073 c 0.67476,1.10402 2.8714,4.62127 4.88142,7.81612 l 3.65457,5.80881 -4.85255,7.43415 c -2.66891,4.08878 -4.99211,7.79781 -5.16268,8.24229 -0.25287,0.65897 0.2216,0.80814 2.57051,0.80814 h 2.88063 z"
   id="path1464" /><path
   style="opacity:1;fill:#1a1a1a;fill-opacity:1;stroke:#4d4d4d;stroke-width:1"
   d="m 833.85476,295.72323 c -6.83119,-1.65863 -13.77734,-5.88165 -18.67395,-11.35311 -3.40208,-3.80148 -7.27107,-11.46438 -8.31543,-16.4695 -2.76322,-13.24277 2.63571,-27.85526 13.26894,-35.91309 19.99373,-15.15118 48.09433,-6.6877 56.44101,16.99918 1.86188,5.28381 2.27747,13.55775 0.97503,19.41195 -1.50813,6.77877 -4.55198,12.15816 -9.87968,17.46031 -5.26572,5.24048 -9.89475,7.95133 -16.43315,9.62357 -4.85615,1.24199 -12.80551,1.35206 -17.38277,0.24069 z m 0.90791,-22.33599 1.06927,-3.3455 6.50377,-0.1501 6.50377,-0.1501 0.98735,3.36178 0.98735,3.36179 2.51591,0.16314 c 1.8243,0.1183 2.51592,-0.0335 2.51592,-0.55237 0,-0.39353 -2.29576,-7.75345 -5.10169,-16.35537 l -5.10169,-15.63986 h -3.1506 -3.1506 l -5.20854,15.65695 c -2.86469,8.61132 -5.31927,15.95804 -5.45462,16.32605 -0.17576,0.47789 0.50564,0.6691 2.38452,0.6691 h 2.6306 z"
   id="path1466" /><path
   style="opacity:1;fill:#1a1a1a;fill-opacity:1;stroke:#4d4d4d;stroke-width:1"
   d="m 763.70798,369.86416 c -8.12397,-1.27622 -14.00129,-4.35733 -20.33165,-10.65861 -3.76197,-3.74468 -5.02094,-5.43974 -6.83916,-9.20812 -7.60051,-15.75262 -3.54817,-33.43875 10.18745,-44.46231 6.3567,-5.10159 13.61954,-7.5924 22.13836,-7.5924 29.9337,0 46.67981,33.83863 28.70945,58.01278 -7.44586,10.01634 -21.60997,15.83377 -33.86445,13.90866 z m 11.20335,-21.38348 c 3.07353,-1.75995 4.52918,-4.20847 4.57675,-7.69846 0.0443,-3.24643 -1.27165,-5.85301 -3.49954,-6.93201 l -1.49389,-0.72351 1.60877,-1.54129 c 1.87307,-1.79453 2.80455,-4.70189 2.3305,-7.27407 -0.92747,-5.03237 -3.68485,-6.33408 -13.45172,-6.35026 l -7.09246,-0.0118 v 16.10974 16.10973 l 7.3601,-0.18515 c 6.6513,-0.16732 7.58173,-0.31206 9.66149,-1.50296 z"
   id="path1468" /><path
   style="opacity:1;fill:#1a1a1a;fill-opacity:1;stroke:#4d4d4d;stroke-width:1"
   d="m 762.70726,326.44188 v -4.88945 l 3.72999,0.26688 c 4.16057,0.29769 6.24901,1.33706 6.7575,3.36306 0.94714,3.77369 -1.80659,6.14376 -7.14199,6.14695 l -3.3455,0.002 z"
   id="path1470" /><path
   style="opacity:1;fill:#1a1a1a;fill-opacity:1;stroke:#4d4d4d;stroke-width:0.999998"
   d="m 837.54718,264.82028 c 0,-0.76372 4.25204,-14.10124 4.62716,-14.51418 0.17889,-0.19692 1.32644,2.82483 2.55012,6.715 1.22368,3.89017 2.33144,7.35074 2.46168,7.69016 0.18748,0.48856 -0.7918,0.61711 -4.70107,0.61711 -3.25732,0 -4.93789,-0.17292 -4.93789,-0.50809 z"
   id="path1496" /><path
   style="opacity:1;fill:#1a1a1a;fill-opacity:1;stroke:#4d4d4d;stroke-width:0.999998"
   d="m 763.06218,340.74443 v -5.12084 h 3.61513 c 4.59667,0 6.58099,0.93645 7.49973,3.5393 0.55274,1.56594 0.54465,2.04231 -0.0591,3.47983 -0.97646,2.32493 -3.07062,3.22256 -7.51823,3.22256 h -3.53752 z"
   id="path1498" /><path
   style="opacity:1;fill:#1a1a1a;fill-opacity:1;stroke:#4d4d4d;stroke-width:1"
   d="m 766.92321,602.64753 c -0.29048,-8.92659 -0.85756,-9.59054 -10.1321,-11.86299 -21.45382,-5.25664 -37.29198,-20.85776 -42.70074,-42.06165 -0.55002,-2.15622 -1.00003,-4.47981 -1.00003,-5.16353 0,-0.68371 -1.0064,-2.24952 -2.23643,-3.47956 l -2.23643,-2.23643 h -6.9724 -6.97241 v -1.97332 -1.97332 h 5.94109 c 6.60342,0 9.93688,-1.00153 11.20212,-3.36564 0.44261,-0.82703 1.34271,-3.96544 2.00022,-6.97425 3.49259,-15.98235 14.91214,-30.68661 29.48362,-37.96428 4.71573,-2.35525 11.36654,-4.65443 15.50589,-5.36038 6.61875,-1.12879 8.22218,-3.61509 8.22218,-12.74947 v -5.94109 h 1.97332 1.97332 v 6.89625 c 0,6.61611 0.0735,6.97475 1.80888,8.82901 1.46262,1.5628 3.13096,2.25493 8.7155,3.61572 20.40883,4.97306 36.06052,19.9102 41.49254,39.59826 0.78813,2.85653 1.76467,6.36883 2.17007,7.80511 1.22789,4.35011 3.85392,5.61076 11.68766,5.61076 h 6.48046 v 1.97332 1.97332 h -6.6104 c -6.95598,0 -9.89025,0.84134 -10.81193,3.1001 -0.2638,0.64649 -1.18554,3.97814 -2.0483,7.40367 -5.38972,21.39923 -21.36363,37.35004 -42.22246,42.16138 -9.94989,2.29507 -10.66202,3.14671 -10.66202,12.75068 v 6.28151 h -1.91345 -1.91345 z"
   id="path1500" /><path
   style="opacity:1;fill:#1a1a1a;fill-opacity:1;stroke:#4d4d4d;stroke-width:1"
   d=""
   id="path1502" /><path
   style="opacity:1;fill:#1a1a1a;fill-opacity:1;stroke:#4d4d4d;stroke-width:1"
   d="m 695.45795,526.49678 c 1.75282,-15.26781 9.42349,-30.89435 20.92126,-42.62035 11.95352,-12.1908 27.0212,-19.51188 45.22194,-21.97243 l 2.79554,-0.37793 v 6.18375 c 0,7.93282 -0.51936,8.65269 -7.23551,10.02904 -22.30129,4.57023 -40.70977,22.45408 -45.7072,44.40457 -2.01248,8.8395 -2.35691,9.12221 -11.11415,9.12221 h -5.42936 z"
   id="path1504" /><path
   style="opacity:1;fill:#1a1a1a;fill-opacity:1;stroke:#4d4d4d;stroke-width:1"
   d="M 754.53008,608.24817 C 722.31091,601.3332 698.78801,575.33696 695.1389,542.61223 l -0.23838,-2.13776 h 6.36187 c 5.30645,0 6.54081,0.19773 7.44049,1.19187 0.59325,0.65553 1.8242,4.13099 2.73545,7.72325 5.73315,22.60074 22.81787,39.26947 45.21411,44.1132 6.89875,1.49203 7.74425,2.60069 7.74425,10.15464 v 5.88328 l -2.13776,-0.0463 c -1.17577,-0.0255 -4.65375,-0.58628 -7.72885,-1.24626 z"
   id="path1506" /><path
   style="opacity:1;fill:#1a1a1a;fill-opacity:1;stroke:#4d4d4d;stroke-width:1"
   d="m 773.60552,603.37682 c 0,-7.26315 0.7124,-8.57514 5.06106,-9.32073 4.85038,-0.83162 11.1113,-2.92244 16.31659,-5.44891 15.80304,-7.67023 27.12455,-21.98721 31.55746,-39.907 0.97744,-3.95125 2.07685,-6.90365 2.75558,-7.39995 0.71733,-0.52453 3.39605,-0.82576 7.34299,-0.82576 h 6.21369 l -0.43161,3.7822 c -3.78834,33.19719 -31.7798,61.26383 -64.82878,65.00289 l -3.98698,0.45108 z"
   id="path1508" /><path
   style="opacity:1;fill:#1a1a1a;fill-opacity:1;stroke:#4d4d4d;stroke-width:1"
   d="m 829.28285,529.78565 c -1.17591,-1.07273 -1.92806,-2.90835 -2.7333,-6.67061 -4.37909,-20.45999 -18.95972,-36.61709 -39.28934,-43.53733 -2.43875,-0.83016 -5.8241,-1.71782 -7.52299,-1.97259 -1.88233,-0.28227 -3.68318,-1.05749 -4.6103,-1.9846 -1.37609,-1.3761 -1.5214,-2.11712 -1.5214,-7.7588 v -6.23739 l 2.46665,0.33127 c 18.99503,2.55107 32.67768,9.21103 45.44487,22.12006 10.43139,10.54728 17.44069,23.80984 20.16018,38.14583 0.547,2.88355 0.99455,6.09813 0.99455,7.14349 v 1.90066 h -5.88329 c -5.18197,0 -6.07667,-0.17643 -7.50563,-1.47999 z"
   id="path1510" /><path
   style="opacity:1;fill:#000000;fill-opacity:1;stroke:#4d4d4d;stroke-width:0.999999"
   d="m 663.62068,131.03319 c -0.53326,-0.58925 -0.625,-1.69704 -0.625,-7.54707 v -6.85645 l -1.10115,-1.23333 -1.10115,-1.23332 -7.11278,-0.10646 c -9.08871,-0.13604 -8.43455,0.46843 -8.43455,-7.79389 0,-4.68262 0.12554,-6.289149 0.5353,-6.850301 0.49015,-0.671243 1.10329,-0.741434 7.26979,-0.832236 3.70397,-0.05454 7.12214,-0.18656 7.59593,-0.293374 0.47378,-0.106815 1.19541,-0.741963 1.60361,-1.411441 0.66219,-1.086052 0.74232,-1.921972 0.74358,-7.756551 8.2e-4,-3.782617 0.16622,-6.847257 0.39235,-7.269795 0.3648,-0.681634 0.8563,-0.730476 7.35092,-0.730476 6.49462,0 6.98613,0.04884 7.35092,0.730476 0.22614,0.422538 0.39154,3.487178 0.39236,7.269795 10e-4,5.834579 0.0814,6.670499 0.74358,7.756551 0.4082,0.669478 1.12983,1.304626 1.60361,1.411441 0.47379,0.106814 3.89196,0.238833 7.59593,0.293374 6.1665,0.0908 6.77964,0.160993 7.26979,0.832236 0.40976,0.561152 0.5353,2.167681 0.5353,6.850301 0,8.26232 0.65416,7.65785 -8.43455,7.79389 l -7.11278,0.10646 -1.10115,1.23332 -1.10115,1.23333 v 6.92207 c 0,6.22636 -0.0694,6.98488 -0.69062,7.54707 -0.58568,0.53003 -1.66715,0.62501 -7.11685,0.62501 -5.74601,0 -6.49238,-0.0731 -7.05124,-0.69063 z"
   id="path1512" /><path
   style="opacity:1;fill:#1a1a1a;fill-opacity:1;stroke:#4d4d4d;stroke-width:1"
   d="m 709.89826,726.4428 v -5.25775 h 5.25776 5.25775 v 5.25775 5.25776 h -5.25775 -5.25776 z"
   id="path1514" /><path
   style="opacity:1;fill:#1a1a1a;fill-opacity:1;stroke:#4d4d4d;stroke-width:1"
   d="m 708.88715,747.11324 c -7.7953,-1.94254 -14.19265,-7.02605 -17.61469,-13.99713 -2.11167,-4.3017 -2.80967,-7.2657 -2.80967,-11.93106 0,-4.6603 0.69677,-7.62382 2.80517,-11.93107 2.98868,-6.10556 8.92756,-11.23718 15.51022,-13.40195 4.61637,-1.51813 11.17625,-1.60821 15.65781,-0.215 15.04474,4.67704 23.00917,20.70184 17.43246,35.07495 -4.8049,12.38391 -18.34269,19.55071 -30.9813,16.40126 z m 20.42437,-17.43489 v -8.4933 h 2.62887 c 1.44589,0 2.62888,-0.13514 2.62888,-0.3003 0,-0.16516 -4.4121,-4.71516 -9.80467,-10.1111 l -9.80467,-9.8108 -9.81081,9.80467 c -5.39594,5.39257 -9.8108,9.94257 -9.8108,10.1111 0,0.16854 1.27399,0.30643 2.8311,0.30643 h 2.8311 v 8.4933 8.4933 h 14.1555 14.1555 z"
   id="path1516" /><path
   style="opacity:1;fill:#1a1a1a;fill-opacity:1;stroke:#4d4d4d;stroke-width:1"
   d="m 709.32587,761.61376 c -14.84534,-2.33618 -27.22151,-12.34303 -32.43644,-26.22673 -7.52289,-20.0282 2.33277,-43.0312 22.02756,-51.41208 6.07171,-2.58375 8.49788,-3.03235 16.23903,-3.00264 6.50926,0.025 7.37011,0.11595 10.71773,1.13248 14.44352,4.38591 24.64194,14.87492 28.58676,29.40132 0.78714,2.89856 0.92468,4.38074 0.9169,9.88116 -0.008,5.44704 -0.15534,7.01511 -0.93296,9.90885 -4.75273,17.68623 -20.04274,29.95104 -38.0751,30.54176 -2.55811,0.0838 -5.72767,-0.0171 -7.04348,-0.22412 z m 12.01917,-11.94961 c 11.93985,-2.6283 21.26602,-13.04595 22.49006,-25.12213 2.18282,-21.53536 -18.13115,-37.7028 -38.52104,-30.65805 -4.17709,1.44319 -6.99053,3.28712 -10.81791,7.09005 -2.821,2.80297 -3.81838,4.14269 -5.32568,7.15366 -2.55937,5.1126 -3.29841,8.68914 -3.02322,14.63061 0.31524,6.80606 2.15585,11.73401 6.30752,16.88741 6.75846,8.38917 18.22621,12.36591 28.89027,10.01845 z"
   id="path1518" /><path
   style="opacity:1;fill:#ff5f55;fill-opacity:0.956863;stroke:#4d4d4d;stroke-width:1"
   d="m 591.47251,714.31134 c -2.59326,-1.58129 -2.41164,1.27628 -2.41164,-37.94303 0,-35.39705 0.002,-35.47278 0.79102,-36.47631 1.14169,-1.45141 2.68891,-2.12685 4.87199,-2.12685 h 1.91275 v 38.63637 38.63636 l -1.98864,-0.002 c -1.28887,-7.5e-4 -2.40626,-0.25607 -3.17548,-0.72512 z"
   id="path1520" /><path
   style="opacity:1;fill:#ff5f55;fill-opacity:0.956863;stroke:#4d4d4d;stroke-width:1"
   d="m 592.87653,312.11027 c -0.50555,-0.0951 -1.32393,-0.43811 -1.8186,-0.76224 -2.07696,-1.36087 -1.99706,0.15175 -1.99706,-37.80487 0,-31.80626 0.058,-35.19116 0.61953,-36.14171 0.93372,-1.58066 2.4287,-2.28781 4.83664,-2.28781 h 2.11959 V 273.75 312.38636 l -1.42045,-0.0516 c -0.78125,-0.0284 -1.83409,-0.1294 -2.33965,-0.22451 z"
   id="path1522" /><path
   style="opacity:1;fill:#000000;fill-opacity:0.956863;stroke:#4d4d4d;stroke-width:1"
   d="M 921.31509,126.45258 C 911.22775,105.90097 899.41123,89.210741 883.15837,72.558198 848.342,36.885643 804.48862,15.547979 753.51164,9.4762173 748.44895,8.8732107 740.43487,8.6841876 712.59008,8.5110262 L 677.96414,8.2956939 V 6.8885761 c 0,-0.9784616 0.48302,-1.8901352 1.58557,-2.9926826 l 1.58556,-1.5855648 h 30.73203 c 16.92783,0 33.54939,0.2176979 37.00428,0.4846569 50.75274,3.9216602 97.06468,24.5817024 133.31418,59.4722764 17.58138,16.922285 31.48259,35.738975 42.78184,57.909488 4.28368,8.40514 4.87972,10.05538 4.25358,11.77682 -0.41652,1.14511 -2.61821,3.7514 -3.13345,3.70927 -0.14438,-0.0118 -2.29207,-4.15642 -4.77264,-9.21026 z"
   id="path1524" /><path
   style="opacity:1;fill:#1a1a1a;fill-opacity:1;stroke:#4d4d4d;stroke-width:1"
   d="m 591.56604,904.17079 c -2.01964,-1.17632 -2.15587,-6.52992 -2.15587,-84.72244 v -83.46676 l 4.9277,-10.18986 4.92769,-10.18984 v -39.48272 -39.48272 l -4.92769,-9.84523 -4.9277,-9.84523 V 475.04429 333.1426 l 4.9277,-10.18986 4.92769,-10.18984 v -39.48272 -39.48272 l -4.93732,-9.86447 -4.93732,-9.86446 0.31761,-73.44555 0.31761,-73.44554 6.5676,-0.375829 c 3.78331,-0.216499 7.3086,0.239148 8.31548,1.074785 1.50292,1.24731 1.74788,59.776984 1.74788,417.620064 v 416.16945 l -2.73795,1.91775 c -3.10138,2.17229 -9.13889,2.45924 -12.35311,0.58713 z"
   id="path1530" /><path
   style="opacity:1;fill:#1a1a1a;fill-opacity:1;stroke:#4d4d4d;stroke-width:1"
   d="M 609.12095,465.08874 V 72.721096 h 4.31173 4.31173 V 465.08874 857.45638 h -4.31173 -4.31173 z"
   id="path1532" /></svg>
