<svg xmlns="http://www.w3.org/2000/svg" xmlns:svg="http://www.w3.org/2000/svg" id="Layer_1" width="1000.8" height="1300" x="0" y="0" version="1.1" viewBox="0 0 1000.8 1300" xml:space="preserve"><metadata id="metadata85"/><style id="style2" type="text/css">.st0{opacity:.1}.st2{fill:#fff}</style><style id="style2-6" type="text/css">.st0{opacity:.1}.st2{fill:#ff5f55}.st3{fill:#fff}</style><path style="fill:#ff5f53;fill-opacity:1;stroke-width:.176777" id="path139" d="m 336.48913,612.01334 c -4.48491,-0.96172 -17.26511,-2.20937 -14.21934,-5.20076 l -1.59612,-5.33256 4.69156,-28.97943 c -21.87609,0.35049 0.88574,-29.59975 1.14094,-31.15228 0.67186,-4.0867 0.63712,-6.98639 4.0089,-9.33254 4.31967,-3.0057 6.13876,-6.05239 15.39769,-6.04934 6.18575,0.002 6.23657,4.51842 7.63527,4.8094 2.83752,0.59027 9.26915,0.22171 11.12017,2.22098 1.29357,1.39718 -1.70326,4.54462 -1.05568,6.52843 l 0.45372,1.38995 3.01931,28.03144 c 2.5809,23.96121 -1.28772,28.6331 -1.52389,30.69067 -0.50713,4.41767 -1.36999,7.75168 -2.71808,9.24386 -0.75196,0.83233 -6.13557,2.17746 -7.4235,2.75447 -0.6956,0.31163 -1.65288,2.59566 -4.83555,2.70854 -6.19176,0.21959 -12.78623,-2.05009 -14.09542,-2.33083 z m 7.03011,-22.69305 c 2.05969,-1.10868 2.82647,-2.34895 4.0826,-6.60361 0.94044,-3.18536 1.27937,-3.92467 2.00093,-4.36459 0.80192,-0.48891 1.26549,-0.45046 1.96409,0.16291 0.71152,0.62473 1.00895,1.51574 1.00895,3.02259 0,1.56253 -0.45686,2.45036 -1.57367,3.05821 -0.47337,0.25764 -0.98442,0.46843 -1.13567,0.46843 -0.46699,0 -0.51735,0.31657 -0.38564,2.42443 l 0.12741,2.03924 0.99608,-0.11707 c 1.81227,-0.21299 3.67586,-1.28059 4.58801,-2.62833 0.73213,-1.08177 1.05118,-2.01238 1.28038,-3.73464 0.52157,-3.91942 -0.80021,-7.14962 -3.48153,-8.50821 -0.95096,-0.48184 -1.18331,-0.52396 -2.89025,-0.52396 -1.61522,0 -1.95941,0.0547 -2.65165,0.42127 -2.42724,1.2854 -3.01034,2.27706 -4.76741,8.10775 -0.81484,2.70397 -1.68257,3.5027 -3.32487,3.06047 -0.81096,-0.21836 -1.7952,-1.15122 -2.09882,-1.98922 -0.27463,-0.75801 -0.29371,-2.48144 -0.0369,-3.33844 0.11098,-0.37041 0.44343,-0.96663 0.73878,-1.32494 0.5549,-0.6732 2.03724,-1.48499 2.71713,-1.48802 0.21302,-8.8e-4 0.44057,-0.0879 0.50566,-0.19321 0.0651,-0.10531 0.0206,-1.09911 -0.0989,-2.20844 l -0.21726,-2.01697 -0.73033,0.1088 c -1.04346,0.15545 -2.73301,0.73031 -3.56485,1.21291 -1.00575,0.5835 -2.3307,2.05885 -2.82441,3.14502 -0.60372,1.32822 -0.8601,3.09117 -0.73888,5.08087 0.2291,3.76062 1.69285,6.01606 4.59237,7.07626 0.73645,0.26928 1.31213,0.32792 2.86609,0.29196 1.83004,-0.0424 2.0098,-0.0801 3.05264,-0.64147 z m 12.41532,-19.9635 v -2.27241 l -4.3514,-0.0924 c -4.61309,-0.098 -4.53528,-0.082 -4.77362,-0.9766 -0.38253,-1.43579 0.87656,-2.86072 4.54388,-5.14234 1.30429,-0.81146 2.86862,-1.78392 3.47629,-2.16102 l 1.10485,-0.68564 v -2.47936 c 0,-1.37252 -0.0718,-2.47937 -0.16095,-2.47937 -0.2065,0 -2.12366,1.07629 -5.14235,2.88691 -1.67092,1.00223 -2.71254,1.76796 -3.47394,2.55381 l -1.08745,1.12238 -0.2181,-0.6741 c -0.55224,-1.70685 -1.65782,-3.08363 -3.04416,-3.79088 -0.90425,-0.46132 -2.76434,-0.67068 -4.28507,-0.4823 -2.32805,0.28839 -4.02881,1.54469 -4.62261,3.41459 -0.2868,0.90314 -0.54591,5.91584 -0.57837,11.18885 l -0.0144,2.34229 h 11.3137 11.31371 z"/><g id="g315" transform="translate(0,300.03245)"><g id="g64" class="st0"><path id="path36" d="m 597.9,233.9 v 79.5 h -4.2 c -3.3,0 -6,-2.7 -6,-6 v -67.6 c 0,-3.3 2.7,-6 6,-6 h 4.2 z" class="st2"/><path id="path38" d="m 597.9,636.6 v 79.5 h -4.2 c -3.3,0 -6,-2.7 -6,-6 v -67.6 c 0,-3.3 2.7,-6 6,-6 h 4.2 z" class="st2"/><path id="path40" d="m 929,134.9 -3.4,3.4 C 892.4,60.3 815.8,9.6 730.9,9.6 H 676.7 V 7 c 0,-3.3 2.7,-6 6,-6 0,0 0,0 0,0 h 51.2 c 84.8,0 161.7,49.8 196.4,127.2 1,2.3 0.5,4.9 -1.3,6.7 z" class="st2"/><path id="path42" d="M 679.5,94.5 V 82.8 c 0,-1.6 -1.3,-3 -3,-3 v 0 h -11.7 c -1.6,0 -3,1.3 -3,3 0,0 0,0 0,0 v 11.7 c 0,1.6 -1.3,3 -3,3 v 0 h -11.7 c -1.6,0 -3,1.3 -3,3 0,0 0,0 0,0 v 11.7 c 0,1.6 1.3,3 3,3 v 0 h 11.7 c 1.6,0 3,1.3 3,3 0,0 0,0 0,0 v 11.7 c 0,1.6 1.3,3 3,3 v 0 h 11.7 c 1.6,0 3,-1.3 3,-3 v 0 -11.7 c 0,-1.6 1.3,-3 3,-3 v 0 h 11.7 c 1.6,0 3,-1.3 3,-3 0,0 0,0 0,0 v -11.7 c 0,-1.6 -1.3,-3 -3,-3 v 0 h -11.7 c -1.7,0 -3,-1.4 -3,-3 0,0 0,0 0,0 z" class="st2"/><circle id="circle44" cx="768.9" cy="333.9" r="37.5" class="st2"/><circle id="circle46" cx="768.9" cy="187.1" r="37.5" class="st2"/><circle id="circle48" cx="842.3" cy="260.5" r="37.5" class="st2"/><circle id="circle50" cx="695.5" cy="260.5" r="37.5" class="st2"/><circle id="circle52" cx="715" cy="721.3" r="27.9" class="st2"/><path id="path54" d="m 765.6,460.3 v 12.3 c 0,3 -2.2,5.5 -5.2,5.9 -25.2,3.7 -45,23.5 -48.7,48.7 -0.4,2.9 -2.9,5.1 -5.9,5.2 h -12.3 c 1.7,-39.1 33,-70.4 72.1,-72.1 z" class="st2"/><path id="path56" d="m 765.6,598.8 v 12.3 c -39.1,-1.7 -70.3,-33 -72.1,-72 h 12.3 c 3,0 5.5,2.2 5.9,5.2 3.7,25.2 23.5,45 48.7,48.7 3,0.3 5.2,2.8 5.2,5.8 z" class="st2"/><path id="path58" d="m 844.3,539 c -1.7,39.1 -33,70.3 -72.1,72 v -12.3 c 0,-3 2.2,-5.5 5.2,-5.9 25.2,-3.7 45,-23.5 48.7,-48.7 0.4,-2.9 2.9,-5.1 5.9,-5.2 z" class="st2"/><path id="path60" d="M 844.3,532.4 H 832 c -3,0 -5.5,-2.2 -5.9,-5.2 -3.7,-25.2 -23.5,-45 -48.7,-48.7 -2.9,-0.4 -5.1,-2.9 -5.2,-5.9 v -12.3 c 39.1,1.7 70.4,33 72.1,72.1 z" class="st2"/><path id="path62" d="m 844.4,535.7 c 0,1.1 0,2.2 -0.1,3.3 H 832 c -3,0 -5.5,2.2 -5.9,5.2 -3.7,25.2 -23.5,45 -48.7,48.7 -2.9,0.4 -5.1,2.9 -5.2,5.9 v 12.3 c -1.1,0.1 -2.2,0.1 -3.3,0.1 -1.1,0 -2.2,0 -3.3,-0.1 v -12.3 c 0,-3 -2.2,-5.5 -5.2,-5.9 -25.2,-3.7 -45,-23.5 -48.7,-48.7 -0.4,-2.9 -2.9,-5.1 -5.9,-5.2 h -12.3 c -0.1,-1.1 -0.1,-2.2 -0.1,-3.3 0,-1.1 0,-2.2 0.1,-3.3 h 12.3 c 3,0 5.5,-2.2 5.9,-5.2 3.7,-25.2 23.5,-45 48.7,-48.7 2.9,-0.4 5.1,-2.9 5.2,-5.9 v -12.3 c 1.1,-0.1 2.2,-0.1 3.3,-0.1 1.1,0 2.2,0 3.3,0.1 v 12.3 c 0,3 2.2,5.5 5.2,5.9 25.2,3.7 45,23.5 48.7,48.7 0.4,2.9 2.9,5.1 5.9,5.2 h 12.3 c 0,1.1 0.1,2.2 0.1,3.3 z" class="st2"/></g><path id="path72" d="m 601.6,906.6 h -7.9 c -3.6,0 -6.4,-2.9 -6.5,-6.5 V 742.9 c 0,-4.9 1.2,-9.6 3.4,-13.9 l 6.7,-13 v -79.2 l -6.7,-13 c -2.2,-4.3 -3.4,-9.1 -3.4,-14 V 340.1 c 0,-4.9 1.2,-9.6 3.4,-13.9 l 6.7,-13 V 234 l -6.7,-13 c -2.2,-4.3 -3.4,-9.1 -3.4,-14 V 71.2 c 0,-3.6 2.9,-6.4 6.5,-6.5 h 7.9 c 3.6,0 6.4,2.9 6.5,6.5 1.06259,276.29779 1.22068,552.59764 0,828.9 -0.1,3.6 -3,6.5 -6.5,6.5 z M 593.7,65.7 c -3,0 -5.5,2.4 -5.5,5.5 V 207 c 0,4.7 1.1,9.3 3.3,13.5 l 6.8,13.1 c 0,0.1 0.1,0.1 0.1,0.2 v 79.5 c 0,0.1 0,0.2 -0.1,0.2 l -6.8,13.1 c -2.2,4.2 -3.3,8.8 -3.3,13.5 v 269.7 c 0,4.7 1.1,9.3 3.3,13.5 l 6.8,13.1 c 0,0.1 0.1,0.1 0.1,0.2 v 79.5 c 0,0.1 0,0.2 -0.1,0.2 l -6.8,13.1 c -2.2,4.2 -3.3,8.8 -3.3,13.5 v 157.2 c 0,3 2.4,5.5 5.5,5.5 h 7.9 c 3,0 5.5,-2.4 5.5,-5.5 V 71.2 c 0,-3 -2.4,-5.5 -5.5,-5.5 z" class="st3" style="fill:#000"/><path id="path74" d="m 618.8,858.9 h -11.3 c -0.3,0 -0.5,-0.2 -0.5,-0.5 v 0 l 0.75749,-786.429231 c 2.9e-4,-0.3 0.2,-0.5 0.5,-0.5 h 11.3 C 619.85749,71.470769 619.3,71.7 619.3,72 v 786.4 c 0,0.3 -0.2,0.5 -0.5,0.5 z m -9.93686,-1 H 618.3 l 0.75749,-785.429231 h -10.3 l 1.00926,8.753045 c -0.5826,256.113716 4.51479,511.751226 -1.08804,768.299606 -0.0608,2.78307 0.24763,5.59331 0.18443,8.37658 z" class="st3" style="fill:#000"/><path id="path76" d="m 730.68234,1000.2542 h -106.2 c -3.6,0 -6.5,-2.89995 -6.5,-6.49995 V 15.754249 c 0,-3.6 2.9,-6.5000003 6.5,-6.5000003 h 106.2 c 116.8,0 211.9,95.1000013 211.9,211.9000013 v 567.2 c 0,117 -94.8,211.89995 -211.9,211.89995 0,0 0,0 0,0 z m -106.2,-989.899951 c -3,0 -5.5,2.4 -5.5,5.5 V 993.85425 c 0,3 2.4,5.5 5.5,5.5 h 106.2 c 116.3,0 210.9,-94.6 210.9,-210.9 v -567.3 c 0,-116.3 -94.6,-210.900001 -210.9,-210.900001 z" class="st3" style="fill:#000"/><path id="path128" d="m 597.9,314.3 h -4.2 c -3.8,0 -6.9,-3.1 -7,-7 v -67.6 c 0,-3.8 3.1,-6.9 7,-7 h 4.2 c 0.6,0 1,0.4 1,1 0,0 0,0 0,0 v 79.5 c 0,0.7 -0.5,1.1 -1,1.1 0,0 0,0 0,0 z m -4.2,-79.5 c -2.7,0 -5,2.2 -5,5 v 67.6 c 0,2.7 2.2,5 5,5 h 3.2 v -77.5 h -3.2 z" class="st2" style="fill:#000"/><path id="path130" d="m 597.9,717.1 h -4.2 c -3.8,0 -6.9,-3.1 -7,-7 v -67.6 c 0,-3.8 3.1,-6.9 7,-7 h 4.2 c 0.6,0 1,0.4 1,1 0,0 0,0 0,0 V 716 c 0,0.6 -0.5,1.1 -1,1.1 0,0 0,0 0,0 z m -4.2,-79.5 c -2.7,0 -5,2.2 -5,5 v 67.6 c 0,2.7 2.2,5 5,5 h 3.2 v -77.5 h -3.2 z" class="st2" style="fill:#000"/><path style="fill:#ff5f53;fill-opacity:1;stroke:#000005;stroke-width:1.00051;stroke-opacity:.956863" id="path1240" d="m 748.76734,998.67923 c 26.61833,-2.35509 50.50138,-9.19997 75.94584,-21.76611 5.0911,-2.51431 10.04483,-5.20072 14.85582,-8.05153 19.10445,-11.32055 36.26919,-27.08285 49.59754,-41.73902 25.48932,-28.02866 45.45624,-70.0817 51.37605,-116.52411 0.084,-0.65912 0.3966,-4.2662 0.37335,-6.75389 -0.0641,-6.85752 0.64519,-20.00285 0.80157,-38.33851 0.66141,-77.55489 1.0938,-244.03988 1.06613,-376.43674 -0.0211,-101.20234 -0.3111,-182.48746 -0.97305,-188.91287 -2.68737,-26.08933 -9.30087,-49.05862 -20.7698,-72.13549 C 889.27628,64.106475 828.08674,20.577545 757.0364,11.351548 745.67399,9.8761207 696.33771,9.7004055 660.43479,10.025388 c -7.73693,0.07003 -14.06771,-0.081483 -20.13516,0.05607 -7.4696,0.169301 -12.89971,-0.06855 -16.20341,0.248963 -1.72548,0.165835 -3.02594,0.790181 -3.22758,0.989913 -0.10173,0.100777 -1.42468,1.382777 -1.53437,3.347983 -0.28881,5.173999 -0.25578,17.11445 -0.43762,38.051844 -0.0367,4.233968 -0.0729,8.833333 -0.10824,13.815332 -0.035,4.930626 0.13264,10.123636 0.0992,15.820541 -0.0515,8.771897 0.12426,18.558756 0.0715,29.251086 -0.0484,9.8101 -0.24503,20.49671 0.002,32.01614 0.19247,8.97238 0.20413,18.37601 0.1562,28.43632 -0.072,15.10409 0.59165,31.14878 0.32443,48.96901 -0.22457,14.97582 0.11579,29.98781 -0.0372,46.92447 -0.10009,11.07577 0.0792,22.61567 -0.021,34.60622 -0.0602,7.20067 -0.008,14.53968 -0.0794,22.07309 -0.49593,52.10724 -0.0184,112.20821 -0.0184,180.33298 0,254.31464 -0.31499,376.10005 -0.0496,435.15254 0.0344,7.66703 -0.1971,14.45107 -0.13045,20.14913 0.0257,2.19566 -0.0445,4.29755 -0.0184,6.23195 0.0449,3.31894 -0.0346,6.64265 0.013,9.25764 0.0534,2.93004 -0.065,5.80443 -0.006,7.96224 0.13585,4.98798 0.0957,8.09705 0.27441,10.03685 0.26175,2.84095 1.26489,3.57892 1.56035,3.82606 0.21876,0.18298 1.30179,0.92883 3.07939,1.08771 4.53273,0.40514 14.55751,0.34773 27.08968,0.22654 9.86391,-0.0954 21.28116,-0.23028 32.79643,-0.21023 32.13223,0.0559 65.23405,0.25492 64.87309,-0.006 z"/><path id="path78" d="m 715,763.2 c -23.1,0 -41.9,-18.7 -41.9,-41.9 0,-23.2 18.7,-41.9 41.9,-41.9 23.2,0 41.9,18.7 41.9,41.9 v 0 c -0.1,23.1 -18.8,41.8 -41.9,41.9 z m 0,-82.8 c -22.6,0 -40.9,18.3 -40.9,40.9 0,22.6 18.3,40.9 40.9,40.9 22.6,0 40.9,-18.3 40.9,-40.9 v 0 C 755.8,698.7 737.6,680.4 715,680.4 Z" class="st3" style="fill:#000"/><path id="path88" d="m 782.2,203.2 h -5.5 L 769.05805,192.28414 761.1,203.2 h -5.4 l 10.6,-16.3 -9.8,-15.6 h 5.2 l 7.43748,10.56391 L 776.4,171.3 h 5 l -9.8,15.4 z" class="st2" style="fill:#fff;fill-opacity:1"/><path id="path90" d="m 709.2,244.5 -11.6,20.6 v 11.4 h -4.4 V 265 l -11.6,-20.5 h 5.3 l 6.4,11.7 2.08146,2.98786 L 697.8,256.6 l 6.4,-12.1 z" class="st2" style="fill:#fff"/><path id="path92" d="m 855.9,276.5 h -4.7 l -2.2,-7 -12.36339,0.32833 L 833.4,276.5 h -4.5 L 838.82682,241.29573 845.5,244.5 Z m -8.73488,-11.27058 -4.88343,-14.5941 -4.58555,14.81187 z" class="st2" style="fill:#fff"/><path id="path94" d="m 779.4,340.4 c 0,1.4 -0.3,2.8 -0.9,4.1 -0.6,1.2 -1.5,2.2 -2.5,3 -1.2,0.9 -2.6,1.5 -4,1.9 -1.7,0.4 -3.4,0.7 -5.2,0.6 h -8.4 v -32 h 9.2 c 7.1,0 10.7,2.6 10.7,7.8 0,1.6 -0.4,3.1 -1.2,4.5 -1,1.4 -1.00535,2.3267 -2.60535,2.8267 0.9,0.2 0.30535,0.3733 1.10535,0.7733 0.8,0.4 1.5,0.9 2,1.5 0.6,0.6 1.1,1.4 1.4,2.2 0.2,0.8 0.4,1.8 0.4,2.8 z m -5.7,-14.1 c 0,-0.6 -0.1,-1.3 -0.3,-1.8 -0.2,-0.6 -0.6,-1.1 -1,-1.5 -0.6,-0.5 -1.3,-0.8 -2,-1 -1,-0.3 -2.1,-0.4 -3.2,-0.4 h -4.5 v 10 h 4.4 c 0.9,0 1.8,-0.1 2.7,-0.3 0.8,-0.2 1.5,-0.5 2.1,-1 0.6,-0.4 1,-1 1.3,-1.7 0.4,-0.7 0.5,-1.5 0.5,-2.3 z m 1.1,14.2 c 0,-0.8 -0.2,-1.5 -0.5,-2.2 -0.4,-0.7 -0.9,-1.2 -1.5,-1.7 -0.7,-0.5 -1.5,-0.8 -2.4,-1 -1,-0.3 -2.1,-0.4 -3.2,-0.4 h -4.5 v 11 h 4.6 c 2.5,0 4.4,-0.5 5.6,-1.4 1.3,-1 2,-2.6 1.9,-4.3 z" class="st2" style="fill:#fff"/><path id="path132" d="m 925.6,139.3 c -0.1,0 -0.1,0 -0.2,0 -0.3,-0.1 -0.6,-0.3 -0.7,-0.6 C 891.7,61 815.4,10.5 730.9,10.6 h -54.2 c -0.6,0 -1,-0.4 -1,-1 0,0 0,0 0,0 V 7 c 0,-3.8 3.1,-6.9 7,-7 h 51.2 c 85.2,0.1 162.4,50.1 197.3,127.8 1.2,2.6 0.6,5.7 -1.5,7.8 l -3.4,3.4 c -0.2,0.2 -0.5,0.3 -0.7,0.3 z M 677.7,8.6 h 53.2 c 84.7,-0.1 161.3,50.2 195,128 l 2.4,-2.4 v 0 c 1.5,-1.4 1.9,-3.6 1.1,-5.5 C 894.8,51.7 818.3,2.1 733.9,2 h -51.2 c -2.7,0 -5,2.2 -5,5 z" class="st2" style="fill:#000"/><path id="path134" d="m 676.5,133.7 h -11.7 c -2.2,0 -4,-1.8 -4,-4 V 118 c 0,-1.1 -0.9,-2 -2,-2 h -11.7 c -2.2,0 -4,-1.8 -4,-4 v -11.7 c 0,-2.2 1.8,-4 4,-4 h 11.7 c 1.1,0 2,-0.9 2,-2 V 82.8 c 0,-2.2 1.8,-4 4,-4 h 11.7 c 2.2,0 4,1.8 4,4 v 11.7 c 0,1.1 0.9,2 2,2 h 11.7 c 2.2,0 4,1.8 4,4 v 11.7 c 0,2.2 -1.8,4 -4,4 h -11.7 c -1.1,0 -2,0.9 -2,2 v 11.7 c 0,2 -1.8,3.8 -4,3.8 z M 647.2,98.5 c -1.1,0 -2,0.9 -2,2 v 11.7 c 0,1.1 0.9,2 2,2 h 11.7 c 2.2,0 4,1.8 4,4 v 11.7 c 0,1.1 0.9,2 2,2 h 11.7 c 1.1,0 2,-0.9 2,-2 v -11.7 c 0,-2.2 1.8,-4 4,-4 h 11.7 c 1.1,0 2,-0.9 2,-2 v -11.7 c 0,-1.1 -0.9,-2 -2,-2 h -11.7 c -2.2,0 -4,-1.8 -4,-4 V 82.8 c 0,-1.1 -0.9,-2 -2,-2 h -11.7 c -1.1,0 -2,0.9 -2,2 v 11.7 c 0,2.2 -1.8,4 -4,4 z" class="st2" style="fill:#000"/><path id="path136" d="m 768.9,372.4 c -21.2,0 -38.5,-17.2 -38.5,-38.5 0,-21.2 17.2,-38.5 38.5,-38.5 21.2,0 38.5,17.2 38.5,38.5 -0.1,21.3 -17.3,38.5 -38.5,38.5 z m 0,-74.9 c -20.1,0 -36.5,16.3 -36.5,36.5 0,20.1 16.3,36.5 36.5,36.5 20.1,0 36.5,-16.3 36.5,-36.5 -0.1,-20.2 -16.4,-36.5 -36.5,-36.5 z" class="st2" style="fill:#000"/><path id="path138" d="m 768.9,225.5 c -21.2,0 -38.5,-17.2 -38.5,-38.5 0,-21.2 17.2,-38.5 38.5,-38.5 21.2,0 38.5,17.2 38.5,38.5 -0.1,21.3 -17.3,38.5 -38.5,38.5 z m 0,-74.9 c -20.1,0 -36.5,16.3 -36.5,36.5 0,20.1 16.3,36.5 36.5,36.5 20.1,0 36.5,-16.3 36.5,-36.5 -0.1,-20.2 -16.4,-36.5 -36.5,-36.5 z" class="st2" style="fill:#000"/><path id="path140" d="m 842.3,299 c -21.2,0 -38.5,-17.2 -38.5,-38.5 0,-21.2 17.2,-38.5 38.5,-38.5 21.2,0 38.5,17.2 38.5,38.5 0,21.2 -17.2,38.4 -38.5,38.5 z m 0,-75 c -20.1,0 -36.5,16.3 -36.5,36.5 0,20.1 16.3,36.5 36.5,36.5 20.1,0 36.5,-16.3 36.5,-36.5 0,-20.1 -16.3,-36.5 -36.5,-36.5 z" class="st2" style="fill:#000"/><path id="path142" d="m 695.5,299 c -21.2,0 -38.5,-17.2 -38.5,-38.5 0,-21.2 17.2,-38.5 38.5,-38.5 21.2,0 38.5,17.2 38.5,38.5 -0.1,21.2 -17.3,38.4 -38.5,38.5 z m 0,-75 c -20.1,0 -36.5,16.3 -36.5,36.5 0,20.1 16.20703,36.19743 36.40703,36.19743 C 715.50703,296.69743 732,280.7 732,260.5 731.9,240.4 715.6,224 695.5,224 Z" class="st2" style="fill:#000"/><path id="path144" d="m 715,750.2 c -16,0 -28.9,-13 -28.9,-28.9 0,-15.9 13,-28.9 28.9,-28.9 16,0 28.9,13 28.9,28.9 0,0 0,0 0,0 0,16 -12.9,28.9 -28.9,28.9 z m 0,-55.9 c -14.9,0 -26.9,12.1 -26.9,26.9 0,14.8 12.1,26.9 26.9,26.9 14.9,0 26.9,-12.1 26.9,-26.9 0,-14.8 -12,-26.8 -26.9,-26.9 z" class="st2" style="fill:#000"/><path id="path146" d="m 705.8,533.4 h -12.3 c -0.6,0 -1,-0.4 -1,-1 0,0 0,0 0,0 1.7,-39.6 33.4,-71.3 73,-73 0.3,0 0.5,0.1 0.7,0.3 0.2,0.2 0.3,0.4 0.3,0.7 v 12.3 c 0,3.5 -2.6,6.4 -6,6.9 -24.7,3.7 -44.2,23.1 -47.9,47.9 -0.4,3.3 -3.3,5.9 -6.8,5.9 z m -11.2,-2 h 11.2 c 2.5,0 4.6,-1.8 4.9,-4.3 3.9,-25.6 24,-45.7 49.6,-49.6 2.5,-0.3 4.3,-2.4 4.3,-4.9 v -11.2 c -37.4,2.1 -67.9,32.6 -70,70 z" class="st2" style="fill:#000"/><path id="path148" d="m 765.6,612.1 c 0,0 -0.1,0 0,0 -39.6,-1.7 -71.3,-33.4 -73,-73 0,-0.6 0.4,-1 1,-1 0,0 0,0 0,0 h 12.3 c 3.5,0 6.4,2.6 6.9,6 3.7,24.7 23.1,44.2 47.9,47.9 3.4,0.5 6,3.4 6,6.9 v 12.3 c -0.1,0.4 -0.6,0.9 -1.1,0.9 0,0 0,0 0,0 z m -71,-72.1 c 2.2,37.4 32.6,67.8 70,70 v -11.2 c 0,-2.5 -1.8,-4.6 -4.3,-4.9 -25.6,-3.9 -45.7,-24 -49.6,-49.6 -0.3,-2.5 -2.4,-4.3 -4.9,-4.3 z" class="st2" style="fill:#000"/><path id="path150" d="m 772.2,612.1 c -0.6,0 -1,-0.4 -1,-1 0,0 0,0 0,0 v -12.3 c 0,-3.5 2.6,-6.4 6,-6.9 24.7,-3.7 44.2,-23.1 47.9,-47.9 0.5,-3.4 3.4,-6 6.9,-6 h 12.3 c 0.6,0 1,0.4 1,1 0,0 0,0 0,0 -1.8,39.7 -33.4,71.3 -73.1,73.1 0.1,0 0.1,0 0,0 z M 832,540 c -2.5,0 -4.6,1.8 -4.9,4.3 -3.9,25.6 -24,45.7 -49.6,49.6 -2.5,0.3 -4.3,2.4 -4.3,4.9 V 610 c 37.4,-2.2 67.8,-32.6 70,-70 z" class="st2" style="fill:#000"/><path id="path152" d="M 844.3,533.4 H 832 c -3.5,0 -6.4,-2.6 -6.9,-6 -3.7,-24.7 -23.1,-44.2 -47.9,-47.9 -3.4,-0.5 -6,-3.4 -6,-6.9 v -12.3 c 0,-0.3 0.1,-0.5 0.3,-0.7 0.2,-0.2 0.5,-0.3 0.7,-0.3 39.6,1.7 71.3,33.4 73,73 0.1,0.6 -0.3,1 -0.9,1.1 0,0 0,0 0,0 z m -71.1,-72 v 11.2 c 0,2.5 1.8,4.6 4.3,4.9 25.6,3.9 45.7,24 49.6,49.6 0.3,2.5 2.4,4.3 4.9,4.3 h 11.2 c -2.1,-37.4 -32.6,-67.9 -70,-70 z" class="st2" style="fill:#000"/><path id="path154" d="m 768.9,612.2 c -1.2,0 -2.3,0 -3.4,-0.1 -0.5,0 -0.9,-0.5 -0.9,-1 v -12.3 c 0,-2.5 -1.8,-4.6 -4.3,-4.9 -25.6,-3.9 -45.7,-24 -49.6,-49.6 -0.3,-2.5 -2.4,-4.3 -4.9,-4.3 h -12.3 c -0.5,0 -1,-0.4 -1,-0.9 -0.1,-1.1 -0.1,-2.2 -0.1,-3.4 0,-1.2 0,-2.3 0.1,-3.4 0,-0.5 0.5,-0.9 1,-0.9 h 12.3 c 2.5,0 4.6,-1.8 4.9,-4.3 3.9,-25.6 24,-45.7 49.6,-49.6 2.5,-0.3 4.3,-2.4 4.3,-4.9 v -12.3 c 0,-0.5 0.4,-1 0.9,-1 2.3,-0.1 4.5,-0.1 6.8,0 0.5,0 0.9,0.5 0.9,1 v 12.3 c 0,2.5 1.8,4.6 4.3,4.9 25.6,3.9 45.7,24 49.6,49.6 0.3,2.5 2.4,4.3 4.9,4.3 h 12.3 c 0.5,0 1,0.4 1,0.9 0.1,1.1 0.1,2.2 0.1,3.4 0,1.2 0,2.3 -0.1,3.4 0,0.5 -0.5,0.9 -1,0.9 H 832 c -2.5,0 -4.6,1.8 -4.9,4.3 -3.9,25.6 -24,45.7 -49.6,49.6 -2.5,0.3 -4.3,2.4 -4.3,4.9 v 12.3 c 0,0.5 -0.4,1 -0.9,1 -1.1,0 -2.2,0.1 -3.4,0.1 z m -2.3,-2.1 c 1.5,0.1 3.1,0.1 4.7,0 v -11.3 c 0,-3.5 2.6,-6.4 6,-6.9 24.7,-3.7 44.2,-23.1 47.9,-47.9 0.5,-3.4 3.4,-6 6.9,-6 h 11.3 c 0,-0.8 0,-1.5 0,-2.3 0,-0.8 0,-1.6 0,-2.3 H 832 c -3.5,0 -6.4,-2.6 -6.9,-6 -3.7,-24.7 -23.1,-44.2 -47.9,-47.9 -3.4,-0.5 -6,-3.4 -6,-6.9 v -11.3 c -1.5,-0.1 -3.1,-0.1 -4.7,0 v 11.3 c 0,3.5 -2.6,6.4 -6,6.9 -24.7,3.7 -44.2,23.1 -47.9,47.9 -0.5,3.4 -3.4,6 -6.9,6 h -11.3 c 0,0.8 0,1.5 0,2.3 0,0.8 0,1.6 0,2.3 h 11.3 c 3.5,0 6.4,2.6 6.9,6 3.7,24.7 23.1,44.2 47.9,47.9 3.4,0.5 6,3.4 6,6.9 v 11.3 z" class="st2" style="fill:#000"/><path style="opacity:1;fill:#1a1a1a;fill-opacity:1;stroke:#000;stroke-width:1;stroke-opacity:1" id="path1462" d="m 686.27756,295.45757 c -6.3268,-1.65761 -11.32251,-3.90411 -16.49956,-9.07174 -7.7249,-7.71084 -11.28942,-16.94502 -10.84116,-27.69713 0.56274,-13.49806 8.02922,-25.02897 20.03386,-30.95782 10.51307,-5.1922 22.55435,-5.30046 32.66309,-0.26666 7.93543,3.95157 12.83197,10.03322 16.62983,17.97347 5.18792,10.84649 4.24806,24.40322 -2.39714,34.5766 -4.99743,7.65076 -13.48676,13.69608 -22.04004,15.69491 -4.81862,1.12607 -12.72306,1.01273 -17.54888,-0.25163 z m 11.6608,-24.5355 v -5.81067 l 5.62044,-9.96942 c 3.09124,-5.48319 5.62044,-10.21511 5.62044,-10.51538 0,-0.30027 -1.15454,-0.54595 -2.56564,-0.54595 h -2.56564 l -4.20029,8.09641 c -2.67942,5.1648 -4.33588,7.8298 -4.57474,7.3601 -0.20594,-0.40496 -2.13104,-4.04835 -4.27799,-8.0964 l -3.90356,-7.36011 h -2.87335 c -1.58035,0 -2.87336,0.12781 -2.87336,0.28402 0,0.1562 2.64964,4.96636 5.88808,10.68923 l 5.88809,10.40522 v 5.63681 5.63682 h 2.40876 2.40876 z"/><path style="opacity:1;fill:#1a1a1a;fill-opacity:1;stroke:#000;stroke-width:1;stroke-opacity:1" id="path1464" d="m 762.70726,222.86949 c 0,-0.31779 -3.67998,-0.84661 -5.68279,-1.60232 -2.94688,-1.11193 -5.893,-2.63216 -7.96131,-4.01553 -6.91015,-4.62179 -11.71459,-10.88088 -14.5402,-18.94258 -1.34575,-3.83954 -2.05596,-5.2027 -2.05596,-11.44945 0,-6.24676 0.71021,-7.1825 2.05596,-11.02204 3.87774,-11.0635 11.80142,-19.0577 22.76847,-22.97107 4.25097,-1.51687 5.14759,-2.2896 11.56025,-2.2896 6.41266,0 7.33188,0.77273 11.58285,2.2896 14.51853,5.18065 24.01748,17.63258 24.67097,32.86862 0.45428,10.5913 -2.7416,19.49589 -10.18797,26.91404 -7.55957,7.53093 -14.42052,10.69917 -24.62686,10.98514 -3.38565,0.0949 -6.8474,-0.62298 -7.58341,-0.76478 z m 2.38607,-25.68467 c 4.25443,-7.14961 3.37755,-7.25493 8.20926,0.98595 l 3.05431,5.20938 3.12152,0.01 3.12152,0.01 -1.22963,-2.0073 c -0.6763,-1.10401 -3.07664,-4.86619 -5.3341,-8.36039 l -4.10446,-6.35309 4.75516,-7.43514 c 2.61533,-4.08932 4.75516,-7.56602 4.75516,-7.72599 0,-0.15996 -1.24936,-0.21804 -2.77636,-0.12905 l -2.77635,0.16179 -3.10726,5.05393 c -1.70899,2.77966 -3.29562,5.24229 -3.52585,5.47251 -0.23022,0.23022 -1.93136,-2.10426 -3.78031,-5.18775 l -3.36174,-5.60633 h -2.95881 -2.95881 l 1.22685,2.0073 c 0.67476,1.10402 2.8714,4.62127 4.88142,7.81612 l 3.65457,5.80881 -4.85255,7.43415 c -2.66891,4.08878 -4.99211,7.79781 -5.16268,8.24229 -0.25287,0.65897 0.2216,0.80814 2.57051,0.80814 h 2.88063 z"/><path style="opacity:1;fill:#1a1a1a;fill-opacity:1;stroke:#000;stroke-width:1;stroke-opacity:1" id="path1466" d="m 834.9366,296.44624 c -6.69858,-0.99593 -15.58735,-5.79462 -20.80585,-12.87465 -3.02683,-4.10655 -6.22101,-10.66585 -7.26537,-15.67097 -2.76322,-13.24277 2.63571,-27.85526 13.26894,-35.91309 19.99373,-15.15118 48.09433,-6.6877 56.44101,16.99918 1.86188,5.28381 2.98287,13.31429 1.68043,19.16849 -1.50813,6.77877 -4.86668,12.85647 -10.19438,18.15862 -5.26572,5.24048 -9.89475,7.95133 -16.43315,9.62357 -4.85615,1.24199 -12.03259,1.20154 -16.69163,0.50885 z m -0.17393,-23.059 1.06927,-3.3455 6.50377,-0.1501 6.50377,-0.1501 0.98735,3.36178 0.98735,3.36179 2.51591,0.16314 c 1.8243,0.1183 2.51592,-0.0335 2.51592,-0.55237 0,-0.39353 -2.29576,-7.75345 -5.10169,-16.35537 l -5.10169,-15.63986 h -3.1506 -3.1506 l -5.20854,15.65695 c -2.86469,8.61132 -5.31927,15.95804 -5.45462,16.32605 -0.17576,0.47789 0.50564,0.6691 2.38452,0.6691 h 2.6306 z"/><path style="opacity:1;fill:#1a1a1a;fill-opacity:1;stroke:#000;stroke-width:1;stroke-opacity:1" id="path1468" d="m 763.70798,369.86416 c -8.12397,-1.27623 -14.23623,-3.96267 -20.56659,-10.26395 -3.76197,-3.74468 -5.37393,-6.19207 -7.19215,-9.96045 -7.60051,-15.75262 -2.96024,-33.08108 10.77538,-44.10464 6.3567,-5.10159 13.61954,-7.5924 22.13836,-7.5924 29.9337,0 46.67982,33.83863 28.70945,58.01278 -2.79638,3.76175 -6.27683,7.45135 -10.51135,9.84091 -7.04064,3.97306 -15.70093,5.26986 -23.3531,4.06775 z m 11.20335,-21.38348 c 3.07353,-1.75995 4.52918,-4.20847 4.57675,-7.69846 0.0443,-3.24643 -1.27165,-5.85301 -3.49954,-6.93201 l -1.49389,-0.72351 1.60877,-1.54129 c 1.87307,-1.79453 2.80455,-4.70189 2.3305,-7.27407 -0.92747,-5.03237 -3.68485,-6.33408 -13.45172,-6.35026 l -7.09246,-0.0118 v 16.10974 16.10973 l 7.3601,-0.18515 c 6.6513,-0.16732 7.58173,-0.31206 9.66149,-1.50296 z"/><path style="opacity:1;fill:#1a1a1a;fill-opacity:1;stroke:#000;stroke-width:1;stroke-opacity:1" id="path1470" d="m 762.70726,326.44188 v -4.88945 l 3.72999,0.26688 c 4.16057,0.29769 6.24901,1.33706 6.7575,3.36306 0.94714,3.77369 -1.80659,6.14376 -7.14199,6.14695 l -3.3455,0.002 z"/><path style="opacity:1;fill:#1a1a1a;fill-opacity:1;stroke:#000;stroke-width:.999998;stroke-opacity:1" id="path1496" d="m 837.54718,264.82028 c 0,-0.76372 4.25204,-14.10124 4.62716,-14.51418 0.17889,-0.19692 1.32644,2.82483 2.55012,6.715 1.22368,3.89017 2.33144,7.35074 2.46168,7.69016 0.18748,0.48856 -0.7918,0.61711 -4.70107,0.61711 -3.25732,0 -4.93789,-0.17292 -4.93789,-0.50809 z"/><path style="opacity:1;fill:#1a1a1a;fill-opacity:1;stroke:#000;stroke-width:.999998;stroke-opacity:1" id="path1498" d="m 763.06218,340.74443 v -5.12084 h 3.61513 c 4.59667,0 6.58099,0.93645 7.49973,3.5393 0.55274,1.56594 0.54465,2.04231 -0.0591,3.47983 -0.97646,2.32493 -3.07062,3.22256 -7.51823,3.22256 h -3.53752 z"/><path style="opacity:1;fill:#1a1a1a;fill-opacity:1;stroke:#1a1a1a;stroke-width:1;stroke-opacity:1" id="path1500" d="m 766.92321,602.64753 c -0.29048,-8.92659 -0.82524,-9.72678 -10.1321,-11.86299 -21.0747,-4.8373 -37.20457,-20.14213 -42.61333,-41.34602 -0.55002,-2.15622 -1.08744,-5.19544 -1.08744,-5.87916 0,-0.68371 -1.0064,-2.24952 -2.23643,-3.47956 l -2.34864,-1.94853 -6.86019,-0.2879 h -6.97241 v -1.97332 -1.97332 h 5.94109 c 6.60342,0 9.93688,-1.00153 11.20212,-3.36564 0.44261,-0.82703 1.50127,-3.93512 2.00022,-6.97425 2.67764,-16.30961 14.91214,-30.68661 29.48362,-37.96428 4.71573,-2.35525 11.36654,-4.65443 15.50589,-5.36038 6.61875,-1.12879 8.22218,-3.61509 8.22218,-12.74947 v -5.94109 h 1.97332 1.97332 v 6.89625 c 0,6.61611 0.0735,6.97475 1.80888,8.82901 1.46262,1.5628 3.90685,1.70471 9.49139,3.0655 20.40883,4.97306 35.28463,20.46042 40.71665,40.14848 0.78813,2.85653 1.76467,6.36883 2.17007,7.80511 1.22789,4.35011 3.85392,5.61076 11.68766,5.61076 h 6.48046 v 1.97332 1.97332 h -6.6104 c -6.95598,0 -9.89025,0.84134 -10.81193,3.1001 -0.2638,0.64649 -1.27295,4.60779 -2.13571,8.03332 -5.38972,21.39923 -21.27622,36.72039 -42.13505,41.53173 -9.94989,2.29507 -10.66202,3.14671 -10.66202,12.75068 v 6.28151 h -1.91345 -1.91345 z"/><path style="opacity:1;fill:#1a1a1a;fill-opacity:1;stroke:#4d4d4d;stroke-width:1" id="path1502"/><path style="opacity:1;fill:#1a1a1a;fill-opacity:1;stroke:#4d4d4d;stroke-width:1" id="path1504" d="m 695.45795,526.49678 c 1.75282,-15.26781 8.92367,-31.22618 20.42144,-42.95218 11.95352,-12.1908 27.52102,-19.18005 45.72176,-21.6406 l 2.79554,-0.37793 v 6.18375 c 0,7.93282 -0.12396,8.86863 -6.84011,10.24498 -22.30129,4.57023 -41.81316,22.08888 -46.1026,44.18863 -1.7607,9.07134 -2.35691,9.12221 -11.11415,9.12221 h -5.42936 z"/><path style="opacity:1;fill:#1a1a1a;fill-opacity:1;stroke:#4d4d4d;stroke-width:1" id="path1506" d="M 754.53008,608.24817 C 722.31091,601.3332 698.78801,575.33696 695.1389,542.61223 l -0.23838,-2.13776 h 6.36187 c 6.88754,0 6.85298,0.0191 7.74616,1.01913 1.26613,1.41754 1.51209,3.83358 2.42978,7.89599 4.79388,21.22157 24.19052,39.13835 46.58676,43.98208 6.89875,1.49203 6.3716,2.73181 6.3716,10.28576 v 5.88328 l -2.13776,-0.0463 c -1.17577,-0.0255 -4.65375,-0.58628 -7.72885,-1.24626 z"/><path style="opacity:1;fill:#1a1a1a;fill-opacity:1;stroke:#4d4d4d;stroke-width:1" id="path1508" d="m 773.33996,603.05325 c -0.28949,-7.25738 0.97796,-8.25157 5.32662,-8.99716 4.85038,-0.83162 11.1113,-2.92244 16.31659,-5.44891 15.80304,-7.67023 27.12455,-21.98721 31.55746,-39.907 0.97744,-3.95125 1.56987,-7.24086 2.2486,-7.73716 0.71733,-0.52453 3.90303,-0.48855 7.84997,-0.48855 h 6.21369 l -0.43161,3.7822 c -3.78834,33.19719 -31.7798,61.26383 -64.82878,65.00289 l -3.98698,0.45108 z"/><path style="opacity:1;fill:#1a1a1a;fill-opacity:1;stroke:#4d4d4d;stroke-width:1" id="path1510" d="m 828.66155,529.84176 c -1.17591,-1.07273 -1.30676,-2.96446 -2.112,-6.72672 -4.37909,-20.45999 -18.95972,-36.61709 -39.28934,-43.53733 -2.43875,-0.83016 -5.8241,-1.71782 -7.52299,-1.97259 -1.88233,-0.28227 -3.85602,-0.56229 -4.78314,-1.4894 -1.37609,-1.3761 -1.34856,-2.61232 -1.34856,-8.254 v -6.23739 l 2.46665,0.33127 c 18.99503,2.55107 32.67768,9.21103 45.44487,22.12006 10.43139,10.54728 17.44069,23.80984 20.16018,38.14583 0.547,2.88355 0.99455,6.09813 0.99455,7.14349 v 1.90066 h -5.88329 c -5.18197,0 -6.69797,-0.12032 -8.12693,-1.42388 z"/><path style="opacity:1;fill:#1a1a1a;fill-opacity:1;stroke:#000;stroke-width:.999999;stroke-opacity:1" id="path1512" d="m 663.62068,131.03319 c -0.53326,-0.58925 -0.625,-1.69704 -0.625,-7.54707 v -6.85645 l -1.10115,-1.23333 -1.10115,-1.23332 -7.11278,-0.10646 c -4.06806,-0.0609 -6.47681,0.46167 -7.5734,-0.16401 -1.35335,-0.7722 -0.86115,-3.06574 -0.86115,-7.62988 0,-4.68262 0.12554,-6.289149 0.5353,-6.850301 0.49015,-0.671243 1.10329,-0.741434 7.26979,-0.832236 3.70397,-0.05454 7.12214,-0.18656 7.59593,-0.293374 0.47378,-0.106815 1.19541,-0.741963 1.60361,-1.411441 0.66219,-1.086052 0.74232,-1.921972 0.74358,-7.756551 8.2e-4,-3.782617 0.16622,-6.847257 0.39235,-7.269795 0.3648,-0.681634 0.8563,-0.730476 7.35092,-0.730476 6.49462,0 6.98613,0.04884 7.35092,0.730476 0.22614,0.422538 0.39154,3.487178 0.39236,7.269795 10e-4,5.834579 0.0814,6.670499 0.74358,7.756551 0.4082,0.669478 1.12983,1.304626 1.60361,1.411441 0.47379,0.106814 3.89196,0.238833 7.59593,0.293374 6.1665,0.0908 6.77964,0.160993 7.26979,0.832236 0.40976,0.561152 0.5353,2.167681 0.5353,6.850301 0,4.82187 0.7369,7.18936 -0.88407,7.88102 -1.15658,0.4935 -3.76592,-0.14378 -7.55048,-0.0871 l -7.11278,0.10646 -1.10115,1.23332 -1.10115,1.23333 v 6.92207 c 0,6.22636 -0.0694,6.98488 -0.69062,7.54707 -0.58568,0.53003 -1.66715,0.62501 -7.11685,0.62501 -5.74601,0 -6.49238,-0.0731 -7.05124,-0.69063 z"/><path style="opacity:1;fill:#1a1a1a;fill-opacity:1;stroke:#4d4d4d;stroke-width:1.00067" id="path1514" d="m 709.8986,726.4428 v -5.25741 h 5.30749 5.20734 v 5.25741 5.25742 h -5.20734 -5.30749 z"/><path style="opacity:1;fill:#1a1a1a;fill-opacity:1;stroke:#4d4d4d;stroke-width:1" id="path1518" d="m 709.32587,761.61376 c -14.84534,-2.33618 -27.22151,-12.34303 -32.43644,-26.22673 -7.52289,-20.0282 2.33277,-43.0312 22.02756,-51.41208 6.07171,-2.58375 7.95693,-3.52014 15.69808,-3.49043 6.50926,0.025 7.91106,0.60374 11.25868,1.62027 14.44352,4.38591 24.64194,14.87492 28.58676,29.40132 0.78714,2.89856 1.10607,5.2416 1.09829,10.74202 -0.008,5.44704 -0.33673,6.15425 -1.11435,9.04799 -4.75273,17.68623 -20.04274,29.95104 -38.0751,30.54176 -2.55811,0.0838 -5.72767,-0.0171 -7.04348,-0.22412 z m 12.01917,-11.94961 c 11.93985,-2.6283 21.26602,-13.04595 22.49006,-25.12213 2.18282,-21.53536 -18.13115,-37.7028 -38.52104,-30.65805 -4.17709,1.44319 -6.99053,3.28712 -10.81791,7.09005 -2.821,2.80297 -3.81838,4.14269 -5.32568,7.15366 -2.55937,5.1126 -3.29841,8.68914 -3.02322,14.63061 0.31524,6.80606 2.15585,11.73401 6.30752,16.88741 6.75846,8.38917 18.22621,12.36591 28.89027,10.01845 z"/><path style="opacity:1;fill:#ff5f55;fill-opacity:.956863;stroke:#000;stroke-width:1;stroke-opacity:1" id="path1520" d="m 591.47251,714.31134 c -1.32743,-0.80942 -2.29002,-0.92179 -2.47367,-5.31313 -0.18144,-4.33862 0.062,-13.48601 0.062,-32.6299 0,-32.80523 -0.46981,-35.19682 0.63005,-36.25656 0.0664,-0.064 0.1032,-0.14627 0.16097,-0.21975 1.14169,-1.45141 2.68891,-2.12685 4.87199,-2.12685 h 1.91275 v 38.63637 38.63636 l -1.98864,-0.002 c -1.28887,-7.5e-4 -2.40626,-0.25607 -3.17548,-0.72512 z"/><path style="opacity:1;fill:#ff5f55;fill-opacity:.956863;stroke:#000;stroke-width:1;stroke-opacity:1" id="path1522" d="m 592.87653,312.11027 c -0.50555,-0.0951 -1.32392,-0.43812 -1.8186,-0.76224 -0.77901,-0.51042 -1.53827,-0.76694 -1.82846,-2.70306 -0.48349,-3.2259 -0.1686,-11.38158 -0.1686,-35.10181 0,-19.2629 -0.52222,-28.34633 -0.3807,-32.53262 0.0922,-2.72597 0.77878,-3.23422 1.00023,-3.60909 0.93375,-1.58064 2.4287,-2.28781 4.83664,-2.28781 h 2.11959 V 273.75 312.38636 l -1.42045,-0.0516 c -0.78125,-0.0284 -1.83409,-0.1294 -2.33965,-0.22451 z"/><path style="opacity:1;fill:#000;fill-opacity:.956863;stroke:#4d4d4d;stroke-width:1" id="path1524" d="M 921.31509,126.45258 C 911.22775,105.90097 899.41123,89.210741 883.15837,72.558198 848.342,36.885643 804.48862,15.547979 753.51164,9.4762173 748.44895,8.8732107 740.43487,8.6841876 712.59008,8.5110262 L 677.96414,8.2956939 V 6.8885761 c 0,-0.9784616 0.0131,-2.9650392 1.40163,-3.6743483 l 2.12353,-1.1288295 30.378,0.2249304 c 16.92737,0.1253367 33.54939,0.2176979 37.00428,0.4846569 50.75274,3.9216602 97.06468,24.5817024 133.31418,59.4722764 17.58138,16.922285 31.48259,35.738975 42.78184,57.909488 4.28368,8.40514 4.87972,10.05538 4.25358,11.77682 -0.41652,1.14511 -2.66192,4.17147 -3.17716,4.12934 -0.14438,-0.0118 -2.24836,-4.57649 -4.72893,-9.63033 z"/><path style="opacity:1;fill:#1a1a1a;fill-opacity:1;stroke:#000;stroke-width:1;stroke-opacity:1" id="path1530" d="m 590.08186,903.77298 c -0.55877,-0.54988 -1.70743,-1.18329 -1.55645,-5.03977 0.26239,-6.70193 -0.21555,-27.16243 -0.13871,-79.12435 l 0.29646,-82.56455 2.57494,-6.44666 7.90468,-15.05275 0.10278,-39.42573 L 598.9,636.5 l -7.10988,-13.23431 -2.91024,-7.69331 -0.38184,-7.29025 0.0879,-48.02714 -0.10334,-22.13198 0.0966,-34.13422 0.0553,-10.47634 0.0117,-10.49224 -0.0696,-8.60257 0.0161,-25.57403 -0.005,-19.35155 -0.14968,-27.48393 0.0746,-21.58573 -0.0172,-11.0146 0.10416,-19.60547 -0.0482,-10.22715 0.54617,-5.68471 1.91706,-5.78584 2.96237,-5.52269 5.28838,-9.81904 V 273.28018 L 598.9,233.7 l -5.2812,-9.75149 -2.68351,-5.33049 -1.81693,-5.13665 -0.73664,-7.59716 0.23713,-13.31736 -0.12377,-12.24771 -0.0136,-11.08368 -0.0374,-10.84778 0.0307,-9.87039 0.01,-6.53596 0.018,-2.90392 0.0682,-17.39197 0.0306,-21.51034 -10e-4,-10.808249 -0.0542,-8.443665 0.017,-5.12553 -0.22211,-5.939713 2.2004,-3.055633 L 593.7,65.7 l 3.21783,0.0589 c 1.41548,0.02591 2.72523,0.05679 3.94006,0.2405 0.8633,0.130547 1.83634,0.127121 2.58513,0.398351 0.99296,0.35967 1.67802,1.018584 2.03567,1.315407 0.20827,0.172853 1.21427,1.722556 1.32566,4.747437 0.0757,2.056368 -0.0202,4.681671 -0.01,8.332014 0.0118,4.09125 0.083,9.689119 0.0361,16.361518 -0.0703,10.012523 -0.0176,23.117313 -0.0816,40.379883 -0.0488,13.18104 0.19588,28.6727 0.14409,46.98667 -0.17752,62.76594 -0.24767,157.98682 -0.2362,300.97578 l 0.0334,416.2456 -1.26287,1.82282 c -1.80326,2.60281 -12.60786,2.90243 -15.34573,0.2081 z"/><path style="opacity:1;fill:#1a1a1a;fill-opacity:1;stroke:#000;stroke-width:1;stroke-opacity:1" id="path1532" d="M 609.12095,465.08874 V 72.721096 h 4.31173 4.31173 V 465.08874 857.45638 h -4.31173 -4.31173 z"/><ellipse id="path3879" cx="714.884" cy="721.067" rx="40.267" ry="40.271" style="fill:#999595;fill-opacity:1;stroke:#000;stroke-width:2.39278;stroke-linecap:round;stroke-linejoin:round;stroke-miterlimit:4;stroke-dasharray:none;stroke-opacity:1"/><ellipse style="fill:#3a3d40;fill-opacity:1;stroke:#000;stroke-width:2.72654;stroke-linecap:round;stroke-linejoin:round;stroke-miterlimit:4;stroke-dasharray:none;stroke-opacity:1" id="path3881" cx="714.948" cy="721.389" rx="34.057" ry="34.486"/><path id="path96" d="m 715,694.3 -26.77014,26.41636 h 7.64861 v 22.52766 h 38.51622 v -22.52766 h 7.23886 z m 7.78519,40.89843 h -15.16064 v -14.48207 h 15.16064 z" class="st2" style="fill:#000;stroke-width:1.35332"/></g><ellipse id="ellipse382" cx="344.639" cy="859.606" rx="15.571" ry="14.069" style="fill:#2e2f31;fill-opacity:1;stroke:#000;stroke-width:1;stroke-linecap:round;stroke-linejoin:round;stroke-miterlimit:4;stroke-dasharray:none;stroke-opacity:1"/><path id="path384" d="m 443.0983,809.82781 v 45.80985" style="fill:none;stroke:#000;stroke-width:1px;stroke-linecap:butt;stroke-linejoin:miter;stroke-opacity:1"/><path id="path386" d="m 436.0092,815.74618 v 36.37333" style="fill:none;stroke:#000;stroke-width:1px;stroke-linecap:butt;stroke-linejoin:miter;stroke-opacity:1"/><path id="path388" d="m 355.92023,980.61127 c -0.159,2.38632 -0.9339,4.18348 -2.3494,5.44717 -1.0538,0.94086 -2.4969,1.60298 -4.1869,1.92092 -0.3864,0.0726 -1.0871,0.1771 -1.0975,0.16314 0,-0.005 -0.093,-0.85306 -0.2017,-1.88773 -0.1082,-1.03464 -0.2053,-1.93454 -0.2156,-1.9998 -0.018,-0.10426 -0.01,-0.11846 0.052,-0.11846 0.1214,0 0.6621,-0.12294 1.0604,-0.24083 1.8948,-0.56173 2.9076,-1.69881 3.1357,-3.52037 0.053,-0.4186 0.023,-1.49252 -0.051,-1.88234 -0.1958,-1.02944 -0.6378,-1.79009 -1.336,-2.30018 -0.5453,-0.39839 -0.9906,-0.54269 -1.6797,-0.54425 -0.4911,0 -0.7649,0.0565 -1.0906,0.22816 -0.224,0.11845 -0.5342,0.39899 -0.7138,0.64552 -0.4284,0.5885 -0.6382,1.17335 -1.3991,3.89925 -0.4752,1.70296 -0.7598,2.51481 -1.1909,3.39834 -0.584,1.19653 -1.3563,2.06447 -2.414,2.7127 -0.5828,0.35721 -1.3337,0.64064 -2.0474,0.7727 -0.3392,0.0631 -0.4902,0.0716 -1.1851,0.0709 -0.6888,-7.5e-4 -0.842,-0.01 -1.1342,-0.0703 -1.7103,-0.34894 -3.1451,-1.32436 -3.9859,-2.70946 -0.3778,-0.62245 -0.6928,-1.42824 -0.8702,-2.22642 -0.3894,-1.7521 -0.3112,-4.07304 0.1924,-5.71076 0.2323,-0.7556 0.6307,-1.54303 1.0637,-2.10262 0.2976,-0.38477 1.0376,-1.06011 1.4626,-1.33492 0.6802,-0.43973 1.5737,-0.79266 2.4151,-0.95396 0.4254,-0.0815 0.9688,-0.14541 1.2361,-0.14541 h 0.1571 l 2e-4,0.18183 c 2e-4,0.0998 0.039,0.97141 0.087,1.93652 0.048,0.96511 0.086,1.80485 0.086,1.86617 l 10e-5,0.11137 -0.3029,0.0565 c -0.6791,0.12626 -1.358,0.40173 -1.7702,0.71779 -0.8027,0.61542 -1.1472,1.52476 -1.1467,3.02784 3e-4,0.9899 0.1461,1.66912 0.5004,2.33009 0.4111,0.76692 0.8552,1.07989 1.5814,1.1146 0.5403,0.0263 0.9144,-0.092 1.2917,-0.40687 0.6036,-0.50373 1.0028,-1.42843 1.6845,-3.90103 0.5306,-1.92496 0.7696,-2.6569 1.1769,-3.6043 0.7236,-1.68302 1.723,-2.76077 3.1653,-3.41339 0.8627,-0.39031 1.6574,-0.56193 2.8045,-0.60571 1.3619,-0.0523 2.6128,0.24529 3.8083,0.90462 1.3364,0.73709 2.2925,1.87859 2.8381,3.38818 0.4756,1.31608 0.6841,3.06752 0.5698,4.78495 v 0 z" style="fill:#000;stroke:#000;stroke-width:.0133722;stroke-linecap:round;stroke-linejoin:round;stroke-miterlimit:4;stroke-dasharray:none;stroke-opacity:1"/><path id="path390" d="m 344.68166,571.55323 -11.22758,0.0524 0.0282,-4.64898 c 0.0146,-2.39871 0.018,-4.79751 0.034,-5.29725 0.1201,-2.99844 0.50834,-4.47151 1.80242,-5.57094 1.43938,-1.29933 3.86276,-1.68857 6.05962,-1.28878 1.22398,0.1999 2.1495,0.86284 2.97159,1.66242 0.75529,0.79959 1.34588,1.99896 1.58337,3.29829 0.053,0.29984 0.0886,0.10698 0.12964,0.007 0.026,0 0.17696,-0.007 0.36596,-0.20693 0.79258,-1.09943 1.50437,-1.8495 2.85325,-2.64909 0.78279,-0.49974 1.13628,-0.74914 4.08763,-2.44826 l 2.49546,-1.39927 0.01,2.39875 c 0,1.99896 -2e-4,2.4987 -0.034,2.4987 -0.023,0 -1.34447,0.89954 -2.93445,1.79907 -4.59312,2.79854 -5.0351,3.37378 -5.57969,3.97346 -0.54019,0.69964 -0.66221,0.81512 -0.69151,2.41429 l 0.48716,0.75844 4.08351,0.26903 4.69846,0.0106 -0.0199,2.16917 0.0199,2.25025 -11.13382,-0.0473 z m -1.74891,-9.39408 c -0.041,-0.69963 -0.114,-1.29932 -0.18719,-1.49922 -0.2217,-0.79958 -0.88159,-1.39927 -1.75178,-1.59917 -0.32459,-0.1 -1.14798,-0.1 -1.50817,-0.1 -0.87379,0.1 -1.48218,0.49974 -1.85017,1.19938 -0.3531,0.69964 -0.3777,0.99948 -0.3791,4.69756 l -7e-4,2.4987 h 2.85636 2.85645 v -2.2988 c 0,-1.29933 -0.018,-2.59865 -0.036,-2.8985 z" style="fill:#000;stroke:#000;stroke-width:.0133722;stroke-linecap:round;stroke-linejoin:round;stroke-miterlimit:4;stroke-dasharray:none;stroke-opacity:1"/><path id="path392" d="m 333.0763,580.70071 c 0.2699,-3.09839 1.47058,-5.09735 3.82724,-6.39667 0.94539,-0.49974 2.47236,-0.99948 3.66664,-1.09943 h 0.2144 l 0.021,0.1 c 0.037,0.19989 0.41959,3.89797 0.40439,3.89797 -0.01,0 -0.17189,0.1 -0.36389,0.1 -0.1921,0 -0.53819,0.0999 -0.76929,0.1999 -1.79067,0.49974 -2.78005,1.59916 -3.10355,3.19833 -0.099,0.49974 -0.1074,1.59917 -0.015,2.19886 0.1217,0.69964 0.322,1.19938 0.62179,1.59917 0.41149,0.59969 0.98798,0.99948 1.60627,1.19938 0.3497,0.0999 1.05159,0.19989 1.39958,0.0999 0.68299,-0.19989 1.12958,-0.49974 1.53758,-1.29932 0.28619,-0.49974 0.48609,-1.09943 1.12488,-3.39823 0.58179,-2.09891 0.89518,-2.99845 1.46878,-3.99793 0.54769,-0.99948 1.29527,-1.69911 2.25086,-2.2988 1.01618,-0.59969 2.16996,-0.89953 3.44104,-0.79959 1.09519,0 2.11077,0.29985 3.03455,0.89954 0.67949,0.39979 1.15789,0.79958 1.62308,1.49922 0.94818,1.29932 1.41878,2.99844 1.41828,5.09735 -5e-4,2.39875 -0.5283,4.19782 -1.61348,5.59709 -0.28049,0.29984 -0.87698,0.89953 -1.25648,1.09943 -1.02518,0.69963 -2.17746,1.09942 -3.55564,1.19937 -0.2116,0 -0.38909,0 -0.39449,0 -0.015,0 -0.2131,-4.09787 -0.2004,-4.09787 0.01,0 0.1496,-0.0999 0.31999,-0.0999 0.96079,-0.1999 1.73388,-0.59969 2.16607,-1.09943 0.33459,-0.3998 0.56069,-0.89954 0.68789,-1.49922 0.1015,-0.49974 0.1113,-1.69912 0.018,-2.19886 -0.1453,-0.89953 -0.46589,-1.59917 -0.92189,-1.99896 -0.48339,-0.49974 -1.31478,-0.59969 -1.98367,-0.29985 -0.30419,0.0999 -0.66298,0.3998 -0.87728,0.69964 -0.397,0.59969 -0.77619,1.69912 -1.28808,3.59813 -0.61799,2.19886 -1.08688,3.49818 -1.64607,4.49766 -0.90499,1.59917 -2.40657,2.59865 -4.21394,2.99844 -0.65499,0.1 -1.14148,0.1 -1.88937,0.1 -0.52549,0 -0.75938,0 -1.08948,-0.1 -1.82277,-0.39979 -3.39374,-1.29932 -4.32833,-2.69859 -0.65799,-0.99948 -1.07878,-2.19886 -1.27778,-3.79803 -0.053,-0.39979 -0.097,-2.2988 -0.063,-2.6986 v 0 z" style="fill:#000;stroke:#000;stroke-width:.0135255;stroke-linecap:round;stroke-linejoin:round;stroke-miterlimit:4;stroke-dasharray:none;stroke-opacity:1"/><path id="path394" d="m 344.34473,966.1041 h -11.2417 v -2.07865 -2.07863 h 9.3507 9.3505 v -5.19669 -5.19663 h 1.8911 1.8912 v 7.27527 7.27533 z" style="fill:#000;stroke:#000;stroke-width:.0135255;stroke-linecap:round;stroke-linejoin:round;stroke-miterlimit:4;stroke-dasharray:none;stroke-opacity:1"/><path style="fill:none;stroke:#000;stroke-width:1px;stroke-linecap:butt;stroke-linejoin:miter;stroke-opacity:1" id="path396" d="m 409.8518,320.05567 -2.8025,-2.94026 -2.1084,-1.796 -3.8978,-2.62047 -4.9398,-2.55642 -3.8113,-1.26102 -3.8729,-0.82355 -1.3897,-0.20254 -2.8884,-0.16657 h -57.7923 l -1.5715,0.14912 -1.7697,0.23885 -1.7748,0.23784 -2.7296,0.54225 -2.3129,0.60501 -2.4432,0.75415 -2.944,0.94164 -2.1288,0.90223 -3.8498,1.71494 -2.7574,1.53514 -2.1058,1.19382 -3.235,2.15931 -2.4201,1.63397 -1.436,1.20278 -1.896,1.44906 -3.2118,2.6021 -2.4228,2.54068 -4.259,4.68887 -2.5995,3.24851 -1.6774,2.6235 -1.271,2.18323 -1.9119,3.72736 -0.727,1.6468 -1.1613,2.96158 -0.6623,2.59781 -0.7848,3.27106 -0.3398,2.68009 -0.048,2.38299 v 3.99567 2.84426 875.03454 l 0.1638,2.4919 0.3452,3.3929 1.2989,4.7686 1.2397,3.7743 3.6049,7.2541 2.5738,4.0559 2.4685,3.1987 1.4819,1.9751 2.6694,2.8626 3.0699,3.022 2.1765,1.9253 4.0187,3.1181 4.1145,2.8537 2.3075,1.2731 3.5235,1.8455 3.6903,1.6798 4.1541,1.4538 3.7259,1.1675 3.6825,0.7441 3.285,0.4416 3.0789,0.2674 h 56.728 l 2.2738,-0.2161 3.6621,-0.6453 2.1372,-0.5088 2.6035,-0.8999 3.7077,-1.5118 3.7208,-1.891 3.1188,-1.9598 2.4944,-2.0592 3.0857,-2.8789 3.1141,-3.8291 2.3879,-3.9155 1.3793,-3.2339 1.0698,-2.9013 0.8145,-3.3519 0.4154,-3.6021 0.024,-2.1424 V 343.15522 l -0.2807,-2.93341 -0.6388,-3.84483 -1.3177,-4.25655 -1.5322,-3.68324 -2.5337,-4.45711 -1.9699,-2.57666 z"/><path style="fill:none;stroke:#000;stroke-width:1px;stroke-linecap:butt;stroke-linejoin:miter;stroke-opacity:1" id="path398" d="m 395.3929,1180.0491 v 6.0661 l 0.2504,2.2569 -0.22889,0.3633 0.0188,0.4323 0.0368,0.983 -1.0319,1.3186 -1.91624,1.5403 -1.8286,1.4972 -2.1313,1.0814 -1.9039,0.5267 -1.6018,0.1436 h -79.7814 l -1.9951,-0.4092 -2.2181,-0.8515 -1.5437,-0.8939 -1.324,-1.0482 -0.8339,-0.9964 -0.9297,-1.4644 -0.5711,-1.0947 -0.331,-0.8522 -0.2214,-1.445 v -0.9701 -816.23528 l 0.1524,-0.78853 0.1354,-0.61772 0.2239,-0.77581 0.2629,-0.76027 0.5285,-1.02162 0.7718,-1.1054 0.9507,-1.04883 1.5188,-1.1948 1.1498,-0.70115 1.3513,-0.54994 1.7628,-0.48373 1.567,-0.17203 h 79.0926 l 1.0991,0.0989 1.3891,0.27672 2.2207,0.74493 1.1905,0.67498 1.4954,1.14485 0.8938,0.8516 1.1289,1.64893 0.7411,1.63916 0.386,1.57396 0.05,1.06242 c -0.0804,114.31284 -0.10418,228.63693 -0.0983,342.96694 0.008,155.52282 0.0712,311.05662 0.12178,466.58792 z"/><path style="fill:none;stroke:#000;stroke-width:1px;stroke-linecap:butt;stroke-linejoin:miter;stroke-opacity:1" id="path400" d="m 280.0489,334.04973 -2.8746,2.16498 -1.3945,1.27122 -1.1064,1.18868 -1.3392,1.49729 -1.3821,1.73597 -1.1375,1.54737 -1.1471,1.61493 -1.7633,2.77824 -1.1335,1.98857 -0.9191,1.69028 -1.3324,2.59146 -1.1121,2.32402 -1.5658,3.3824 -0.6357,1.21716 -0.7728,1.8524 -0.7249,1.7502 -0.989,2.11092 -1.0447,2.26153 -0.86,1.70122 -0.7487,1.45807 -0.7784,1.50072 -1.1616,2.03112 -0.6994,1.16648 -1.3216,2.11047 -1.1613,1.58472 -0.9183,1.1248 -1.4672,1.69512 -1.42,1.41779 -1.9934,1.72491 -2.2557,1.72298 -2.1512,1.20455 -1.3718,0.68514 -3.115,1.23076 -4.1538,1.06111 -3.0868,0.4675 -3.2213,0.30214 h -28.4829 l -0.9465,0.0522 -0.9784,0.35707 -1.1635,0.4739 -0.9822,0.69974 -1.0146,1.07545 -0.9282,1.35489 -0.6502,1.7225 -0.1277,1.59156 0.296,1.44131 0.7415,1.59064 1.9905,3.44769 2.4225,4.15209 2.3354,3.53006 1.3741,1.96135 1.2426,1.70362 1.4133,1.82618 1.3411,1.74059 2.1466,2.65906 1.9723,2.30436 1.0859,1.37163 2.4142,2.76344 1.3089,1.52486 3.0336,3.39354 1.5816,1.80314 1.3444,1.31094 2.4631,2.62274 1.0462,1.088 4.8462,5.01965 3.6011,3.76598 1.7432,1.82423 2.1054,2.24013 6.0616,6.47629 2.3937,2.58723 2.014,2.19763 1.6282,1.85126 1.1405,1.25224 1.6465,1.98007 1.726,2.18054 1.5288,1.91466 1.2553,1.47803 1.1294,1.5201 1.6519,2.24592 1.1514,1.59813 1.313,1.80747 1.0891,1.73386 1.8619,2.95681 1.9716,3.31485 1.215,2.46611 1.3695,2.68245 0.9533,2.4215 1.0707,2.90707 0.7627,2.01532 h 0.6246"/><path style="fill:none;stroke:#000;stroke-width:1px;stroke-linecap:butt;stroke-linejoin:miter;stroke-opacity:1" id="path402" d="m 419.6848,525.27774 h 3.3148 l 1.2108,0.19587 1.4197,0.53011 1.5704,0.97007 0.9319,0.98029 0.8244,1.30095 0.4607,1.28829 0.064,0.91052 0.1581,2.35685 0.2578,3.05672 0.2171,3.22797 0.2039,3.98205 0.1256,3.05298 0.1452,4.34265 0.086,5.4517 v 13.88157 l -0.1562,2.15427 -0.069,2.19292 -0.2028,3.00598 -0.2269,2.94631 -0.169,2.82951 -0.3265,4.36272 -0.1216,1.92949 -0.121,1.18236 -0.3083,1.24744 -0.7538,1.13179 -1.0196,0.99385 -1.5458,0.79964 -1.2805,0.22452 h -4.5718 -0.1723 z"/><path style="fill:none;stroke:#000;stroke-width:1px;stroke-linecap:butt;stroke-linejoin:miter;stroke-opacity:1" id="path404" d="m 419.7599,446.71674 h 3.3148 l 1.2108,0.19587 1.4197,0.53011 1.5704,0.97007 0.9319,0.98029 0.8244,1.30095 0.4608,1.28829 0.064,0.91052 0.158,2.35685 0.2578,3.05672 0.2171,3.22797 0.2039,3.98205 0.1256,3.05298 0.1452,4.34265 0.086,5.4517 v 13.88157 l -0.1562,2.15427 -0.07,2.19292 -0.2028,3.00598 -0.2269,2.94631 -0.169,2.82951 -0.3264,4.36272 -0.1217,1.92949 -0.121,1.18236 -0.3083,1.24744 -0.7538,1.13179 -1.0196,0.99385 -1.5458,0.79964 -1.2805,0.22452 h -4.5717 -0.1724 z"/><path style="fill:none;stroke:#000;stroke-width:1px;stroke-linecap:butt;stroke-linejoin:miter;stroke-opacity:1" id="path406" d="m 419.3182,991.21629 0.7067,0.005 1.1504,0.26365 0.9444,0.76195 0.3328,0.70813 v 46.67098 l -0.351,0.8325 -1.1666,0.8966 -0.7662,0.1774 -0.7976,-0.036 z"/><path style="fill:none;stroke:#000;stroke-width:1px;stroke-linecap:butt;stroke-linejoin:miter;stroke-opacity:1" id="path408" d="m 292.23542,321.94382 -2.85482,0.19193 -3.5205,0.79532 -3.2999,0.79136 -3.3568,0.85492 -10.5848,3.04972 -8.2427,2.61122 -6.9829,2.30208 -8.1913,2.71333 -6.855,2.11775 -7.5618,2.21755 -3.0235,0.89028 -3.0148,0.78091 -2.5919,0.65281 -4.3968,1.00847 -3.4498,0.73028 -4.1489,0.73001 -5.6739,0.74708 -2.2602,0.25755 -2.5162,0.19354 -1.5131,0.53719 -1.7144,0.82362 -1.1537,0.80424 -0.8192,0.61627 -1.0935,1.16923 -1.2892,1.65867 -1.0363,2.0311 -0.4006,1.59894 -0.1889,1.03517 v 22.38615 l 0.1909,1.30564 0.4958,1.40886 0.8296,1.64975 0.8332,1.21754 1.2656,1.51781 1.473,1.67519 1.7472,1.806 1.5258,1.66687 1.0269,1.42626 0.5157,0.92256"/><path style="fill:none;stroke:#000;stroke-width:1px;stroke-linecap:butt;stroke-linejoin:miter;stroke-opacity:1" id="path410" d="m 419.5504,789.12692 1.0104,0.39157 1.2284,0.93414 1.2742,1.0266 1.3335,1.34755 1.3498,1.58941 1.4074,1.79596 1.068,1.4886 0.8509,1.19973 0.8928,1.39146 0.9973,1.62576 0.6021,1.24333 0.8025,1.68804 0.9324,1.96316 0.9148,2.22486 0.6262,1.90738 0.5734,2.0049 0.5948,2.79681 0.1489,0.35893 1.1814,-0.13758 0.9744,-0.18453 1.2915,-0.53944 1.0017,-0.68907 1.1544,-0.99535 0.604,-0.85004 0.4934,-1.12029 0.3702,-1.37331 v -45.33419 l 0.2034,-1.17653 0.748,-1.09495 0.8786,-0.84648 1.1084,-0.65922 1.6277,-0.61299 1.9995,-0.31181 2.419,-0.0432 3.3419,0.50976 2.789,1.02605 1.7576,0.92574 1.4806,0.99459 2.1054,1.92583 1.357,1.78977 0.7746,1.80358 0.5382,2.14337 0.1755,1.82459 v 15.36545 l 0.7426,2.32837 0.8151,3.04194 0.6637,2.10231 1.4461,5.39684 0.1081,0.54415 0.3624,1.61807 0.4384,2.00735 0.5281,2.58998 0.5111,2.93668 0.532,3.40847 0.5218,3.68177 0.2738,2.55863 0.1742,1.97306 0.125,1.76412 0.1687,2.52444 0.093,2.5116 0.1008,2.95717 0.032,3.58916 -0.1372,3.61839 -0.1588,3.45509"/><path style="fill:none;stroke:#000;stroke-width:1px;stroke-linecap:butt;stroke-linejoin:miter;stroke-opacity:1" id="path412" d="m 419.5504,878.18361 1.0104,-0.39157 1.2284,-0.93414 1.2742,-1.0266 1.3335,-1.34755 1.3498,-1.58941 1.4074,-1.79596 1.068,-1.4886 0.8509,-1.19973 0.8928,-1.39146 0.9973,-1.62576 0.6021,-1.24333 0.8025,-1.68804 0.9324,-1.96316 0.9148,-2.22486 0.6262,-1.90738 0.5734,-2.0049 0.5948,-2.79681 0.1489,-0.35893 1.1814,0.13758 0.9744,0.18453 1.2915,0.53944 1.0017,0.68907 1.1544,0.99535 0.604,0.85004 0.4934,1.12029 0.3702,1.37331 v 45.33419 l 0.2034,1.17653 0.748,1.09495 0.8786,0.84648 1.1084,0.65922 1.6277,0.61299 1.9995,0.31181 2.419,0.0432 3.3419,-0.50976 2.789,-1.02605 1.7576,-0.92574 1.4806,-0.99459 2.1054,-1.92583 1.357,-1.78977 0.7746,-1.80358 0.5382,-2.14337 0.1755,-1.82459 v -15.36545 l 0.7426,-2.32837 0.8151,-3.04194 0.6637,-2.10231 1.4461,-5.39684 0.1081,-0.54415 0.3624,-1.61807 0.4384,-2.00735 0.5281,-2.58998 0.5111,-2.93668 0.532,-3.40847 0.5218,-3.68177 0.2738,-2.55863 0.1742,-1.97306 0.125,-1.76412 0.1687,-2.52444 0.093,-2.5116 0.1008,-2.95717 0.032,-3.58916 -0.1372,-3.61839 -0.1588,-3.45509"/><path style="fill:none;stroke:#000;stroke-width:1px;stroke-linecap:butt;stroke-linejoin:miter;stroke-opacity:1" id="path414" d="m 345.6694,529.78706 h -6.1466 l -2.0406,0.16173 -1.1253,0.1953 -1.5748,0.44867 -1.3791,0.53886 -1.4965,0.74967 -1.1637,0.77396 -1.2064,0.95657 -1.075,1.06404 -1.1014,1.41493 -0.594,1.14722 -0.5358,1.29229 -0.5077,1.36813 -0.1092,1.5301 -0.019,1.06031 v 58.69762 l 0.1365,1.11638 0.2065,0.99097 0.3274,0.9147 0.2958,0.88818 0.5023,0.98607 0.7034,1.07023 0.7271,0.83072 1.1425,1.22917 0.9548,0.84847 1.1231,0.73807 1.3029,0.76185 1.5781,0.61856 1.753,0.41994 1.6248,0.25206 1.9291,0.0355 12.21761,-0.15231 1.24069,0.009 1.4416,-0.26481 1.209,-0.3538 1.3406,-0.58952 1.2548,-0.64457 0.9072,-0.5388 1.0383,-0.81994 0.7108,-0.73783 0.6713,-0.63536 1.2672,-1.78476 1.0821,-2.39096 0.4226,-1.73078 0.032,-1.77014 v -58.93942 l -0.1414,-0.90899 -0.2101,-0.66149 -0.2984,-1.07142 -0.4418,-1.07685 -0.4733,-1.01774 -0.3698,-0.61491 -0.9962,-1.35072 -0.9572,-1.00027 -0.9422,-0.8506 -0.8825,-0.60388 -1.188,-0.67727 -1.3389,-0.66409 -0.8725,-0.3618 -0.9794,-0.32179 -0.9048,-0.1841 -1.4328,-0.23747 -0.4669,-0.0583 -1.0123,-0.0549 z"/><path style="fill:none;stroke:#000;stroke-width:1px;stroke-linecap:butt;stroke-linejoin:miter;stroke-opacity:1" id="path416" d="m 345.6694,929.08474 h -6.1466 l -2.0406,0.16173 -1.1253,0.1953 -1.5748,0.44867 -1.3791,0.53886 -1.4965,0.74967 -1.1637,0.77396 c -0.40213,0.31886 -0.80427,-0.0101 -1.2064,0.95657 -1.1612,-0.13384 -0.80827,0.40421 -1.2124,0.60632 l -1.03457,1.59803 -0.52343,1.42184 -0.5358,1.29229 -0.5077,1.36813 -0.1092,1.5301 -0.019,1.06031 v 58.69758 l 0.1365,1.1164 0.2065,0.991 0.3274,0.9147 0.2958,0.8882 0.5023,0.986 0.7034,1.0703 0.7271,0.8307 1.1425,1.2292 0.9548,0.8484 1.1231,0.7381 1.3029,0.7618 1.5781,0.6186 0.84467,0.2023 0.90833,0.2176 1.6248,0.2521 1.9291,0.035 h 12.2138 l 1.2445,-0.1435 1.4416,-0.2648 1.209,-0.3538 1.3406,-0.5895 1.2548,-0.6446 0.9072,-0.5388 1.0383,-0.8199 0.7108,-0.7378 0.6713,-0.6354 1.2672,-1.7847 1.0821,-2.391 0.4226,-1.7308 0.032,-1.77012 v -58.93942 l -0.1414,-0.90899 -0.2101,-0.66149 -0.2984,-1.07142 -0.4418,-1.07685 -0.4733,-1.01774 -0.3698,-0.61491 -0.9962,-1.35072 -0.9572,-1.00027 -0.9422,-0.8506 -0.8825,-0.60388 -1.188,-0.67727 -1.3389,-0.66409 -0.8725,-0.3618 -0.9794,-0.32179 -0.9048,-0.1841 -1.4328,-0.23747 -0.4669,-0.0583 -1.0123,-0.0549 z"/><path style="fill:none;stroke:#000;stroke-width:1px;stroke-linecap:butt;stroke-linejoin:miter;stroke-opacity:1" id="path426" d="m 269.3709,404.13671 h -4.9495 l -1.0113,0.19773 -1.022,0.65678 -0.7694,0.84217 -0.623,1.27551 -0.4117,1.3715 -0.6037,2.17152 -0.5303,2.14305 -0.3827,1.9667 -0.3142,1.95063 -0.2528,2.01116 -0.2212,2.18086 -0.1418,2.35493 -0.046,2.05813 0.034,2.89349 0.1866,2.92296 0.2597,3.11808 0.3257,2.74124 0.4726,2.4298 0.3837,2.06422 0.6228,2.42502 0.4876,1.70136 0.5673,1.13322 0.656,0.75539 0.7893,0.54624 0.78,0.31802 0.8271,0.091 h 5.1673 0.2296 v -44.33098 z"/><path style="fill:none;stroke:#000;stroke-width:1px;stroke-linecap:butt;stroke-linejoin:miter;stroke-opacity:1" id="path428" d="m 419.3062,396.58247 h 3.3623 l 0.9525,0.25724 0.8868,0.75004 0.3797,1.09319 v 10.77754 l -0.3997,0.99826 -0.4739,0.71234 -0.6363,0.44149 -0.5074,0.1596 h -3.3662 -0.2116 z"/><path style="fill:none;stroke:#000;stroke-width:1px;stroke-linecap:butt;stroke-linejoin:miter;stroke-opacity:1" id="path430" d="m 368.2112,1052.977 h -46.6816 l 23.3408,36.9165 z"/><path style="fill:none;stroke:#000;stroke-width:1px;stroke-linecap:butt;stroke-linejoin:miter;stroke-opacity:1" id="path432" d="m 368.2112,1097.1347 h -46.6816 l 23.3408,36.9165 z"/><path style="fill:none;stroke:#000;stroke-width:1px;stroke-linecap:butt;stroke-linejoin:miter;stroke-opacity:1" id="path434" d="m 368.2112,1141.3197 h -46.6816 l 23.3408,36.9165 z"/><path style="fill:none;stroke:#000;stroke-width:1px;stroke-linecap:butt;stroke-linejoin:miter;stroke-opacity:1" id="path436" d="m 343.5847,1042.2128 h -27.013 l -1.8698,0.2799 -1.342,0.3586 -1.606,0.6627 -1.1661,0.7504 -1.1412,0.8758 -0.7833,0.8235 -0.7034,0.7948 -0.6319,1.1103 -0.4797,0.9867 -0.3453,1.0256 -0.2487,1.1948 -0.069,0.83 v 125.1345 l 0.052,0.8702 0.1667,1.0482 0.4222,1.1949 0.7328,1.4918 0.8537,1.1485 1.4176,1.3519 1.1779,0.9169 1.5965,0.8574 1.9127,0.6145 1.7443,0.195 h 57.292 l 1.482,-0.1169 1.5379,-0.379 1.0258,-0.4189 1.0471,-0.555 0.7983,-0.4851 1.0868,-0.8153 1.1798,-1.2764 0.6871,-0.9185 0.4367,-0.7747 0.3972,-0.7651 0.3643,-1.035 0.1713,-0.7948 0.086,-1.2186 v -125.1426 l -0.076,-1.0984 -0.204,-0.9502 -0.2266,-0.7979 -0.3429,-0.7631 -0.7969,-1.4695 -0.8643,-1.1417 -1.3636,-1.2219 -1.4025,-0.9472 -0.7682,-0.4017 -1.6691,-0.5921 -1.312,-0.2496 -1.4844,-0.1821 -1.158,0.01 z"/><path style="fill:none;stroke:#000;stroke-width:1px;stroke-linecap:butt;stroke-linejoin:miter;stroke-opacity:1" id="path438" d="m 390.4523,307.66577 v -3.14841 l -0.3715,-1.45506 -0.7559,-1.06735 -1.1876,-0.97885 -1.7025,-0.48365 h -45.228 l -1.5835,0.18859 -1.2132,0.58802 -0.8602,0.6336 -0.6208,0.61481 -0.7767,1.21911 -0.2726,1.3989 v 2.48519 z"/><path style="fill:none;stroke:#000;stroke-width:1px;stroke-linecap:butt;stroke-linejoin:miter;stroke-opacity:1" id="path440" d="m 419.68509,599.75674 h 3.3148 l 1.2108,0.19587 1.41971,0.53011 1.5704,0.97007 0.9319,0.98029 0.8244,1.30095 0.4607,1.28829 0.064,0.91052 0.1581,2.35685 0.2578,3.05672 0.2171,3.22797 0.2039,3.98205 0.1256,3.05298 0.1452,4.34265 0.086,5.4517 v 13.88157 l -0.1562,2.15427 -0.069,2.19292 -0.2028,3.00598 -0.2269,2.94631 -0.169,2.82951 -0.3265,4.36272 -0.1216,1.92949 -0.121,1.18236 -0.3083,1.24744 -0.7538,1.13179 -1.0196,0.99385 -1.5458,0.79964 -1.28051,0.22452 h -4.5718 -0.1723 z"/><path style="font-variation-settings:normal;opacity:1;vector-effect:none;fill:#1a1a1a;fill-opacity:1;stroke:#000;stroke-width:1px;stroke-linecap:butt;stroke-linejoin:miter;stroke-miterlimit:4;stroke-dasharray:none;stroke-dashoffset:0;stroke-opacity:1;stop-color:#000;stop-opacity:1" id="path506" d="m 420.36151,634.93249 v -34.75633 l 2.0263,0.23815 c 2.75467,0.32376 4.80203,1.57598 5.69709,3.48449 1.06072,2.26176 1.52361,9.71023 1.72256,27.71794 0.14637,13.24854 0.0672,17.02245 -0.52828,25.19166 -0.77583,10.64303 -0.85918,10.95183 -3.29112,12.19251 -0.89452,0.45635 -2.06849,0.68792 -3.48749,0.68792 h -2.13906 z"/><path style="font-variation-settings:normal;opacity:1;vector-effect:none;fill:#1a1a1a;fill-opacity:1;stroke:#000;stroke-width:1px;stroke-linecap:butt;stroke-linejoin:miter;stroke-miterlimit:4;stroke-dasharray:none;stroke-dashoffset:0;stroke-opacity:1;stop-color:#000;stop-opacity:1" id="path508" d="m 420.36151,560.56402 v -34.75143 l 1.85933,0.15785 c 2.39951,0.20371 4.31925,1.13642 5.48512,2.66497 0.83656,1.09678 0.97668,1.7388 1.39976,6.41356 0.25858,2.85712 0.56214,12.52586 0.67458,21.48608 0.1781,14.19187 0.11309,17.54027 -0.50447,25.983 l -0.70891,9.69168 -1.16519,1.20216 c -1.30344,1.34481 -2.86398,1.89866 -5.35797,1.90159 l -1.68225,0.002 z"/><path style="font-variation-settings:normal;opacity:1;vector-effect:none;fill:#1a1a1a;fill-opacity:1;stroke:#000;stroke-width:1px;stroke-linecap:butt;stroke-linejoin:miter;stroke-miterlimit:4;stroke-dasharray:none;stroke-dashoffset:0;stroke-opacity:1;stop-color:#000;stop-opacity:1" id="path510" d="m 420.36151,481.93505 v -34.75712 l 1.92371,0.19854 c 2.49155,0.25715 4.263,1.11778 5.41822,2.63234 1.41345,1.85314 1.85463,7.51526 2.10513,27.01756 0.17647,13.73942 0.10561,18.07268 -0.42766,26.14973 -0.46732,7.07821 -0.78975,9.98262 -1.19916,10.80185 -0.79619,1.59315 -3.17954,2.71422 -5.77033,2.71422 h -2.04991 z"/><path style="font-variation-settings:normal;opacity:1;vector-effect:none;fill:#1a1a1a;fill-opacity:1;stroke:#000;stroke-width:1px;stroke-linecap:butt;stroke-linejoin:miter;stroke-miterlimit:4;stroke-dasharray:none;stroke-dashoffset:0;stroke-opacity:1;stop-color:#000;stop-opacity:1" id="path512" d="m 447.5015,906.00098 c -1.8715,-0.70661 -2.9819,-1.7154 -3.3712,-3.06268 -0.2644,-0.9154 -0.3472,-22.05223 -0.2745,-70.13291 l 0.1041,-68.8226 1.2946,-1.18645 c 2.041,-1.87038 4.9744,-2.37787 9.1933,-1.59049 4.2243,0.78838 8.8238,4.07342 10.363,7.40147 0.6902,1.49247 0.7677,2.40752 0.9325,11.01292 l 0.1796,9.38522 1.7041,5.81417 c 7.6872,26.22849 7.7031,50.97284 0.05,77.62707 l -1.8918,6.58875 -0.1107,9.17132 -0.1107,9.17132 -1.0625,1.92041 c -1.2599,2.27718 -3.7071,4.33173 -6.8926,5.78647 -1.902,0.86861 -2.8591,1.06811 -5.6666,1.18115 -2.0013,0.0806 -3.8109,-0.0275 -4.4404,-0.26514 z"/><path style="font-variation-settings:normal;opacity:1;vector-effect:none;fill:#1a1a1a;fill-opacity:1;stroke:#000;stroke-width:1px;stroke-linecap:butt;stroke-linejoin:miter;stroke-miterlimit:4;stroke-dasharray:none;stroke-dashoffset:0;stroke-opacity:1;stop-color:#000;stop-opacity:1" id="path514" d="m 441.6385,852.73071 c -0.5999,-0.72278 -2.3597,-1.63125 -3.6993,-1.9097 l -1.06248,-0.22083 -0.092,-16.88205 -0.092,-16.88205 1.50858,-0.39612 c 0.8297,-0.21787 2.1062,-0.86942 2.8367,-1.4479 l 1.3281,-1.05178 v 19.67251 c 0,10.81988 -0.06,19.67251 -0.1337,19.67251 -0.074,0 -0.3409,-0.24956 -0.594,-0.55459 z"/><path style="font-variation-settings:normal;opacity:1;vector-effect:none;fill:#1a1a1a;fill-opacity:1;stroke:#000;stroke-width:1px;stroke-linecap:butt;stroke-linejoin:miter;stroke-miterlimit:4;stroke-dasharray:none;stroke-dashoffset:0;stroke-opacity:1;stop-color:#000;stop-opacity:1" id="path516" d="m 420.05417,833.61702 v -43.39693 l 0.79594,0.42597 c 0.43776,0.23429 1.60747,1.27059 2.59935,2.30289 4.51391,4.69789 9.10684,12.69355 10.93014,19.02792 l 0.9034,3.1385 v 18.51411 18.51411 l -0.90522,3.13851 c -1.92215,6.6643 -6.56913,14.65718 -11.23693,19.32767 -1.32154,1.3223 -2.55667,2.40418 -2.74474,2.40418 -0.21796,0 -0.34194,-15.73501 -0.34194,-43.39693 z"/><path style="font-variation-settings:normal;opacity:1;vector-effect:none;fill:#ff5f53;fill-opacity:1;stroke:#000;stroke-width:1px;stroke-linecap:butt;stroke-linejoin:miter;stroke-miterlimit:4;stroke-dasharray:none;stroke-dashoffset:0;stroke-opacity:1;stop-color:#000;stop-opacity:1" id="path524" d="m 313.99198,1292.8085 c -0.96622,-0.2545 -2.10487,-0.9559 -3.09247,-1.3094 -1.70548,-0.6104 -3.38805,-1.3678 -5.04339,-2.0839 -13.35521,-5.7781 -24.71137,-15.7518 -30.37881,-29.3689 l -5.07081,-12.1835 0.21567,-447.85593 -1.68502,-452.83955 5.21819,-6.82435 c 6.70736,-8.77188 19.17143,-19.4178 30.32839,-25.75165 12.83574,-7.28691 20.41017,-6.77706 55.40112,-6.27587 29.89918,0.42825 32.28987,-0.2527 38.18687,2.89292 7.63586,4.07316 15.0438,13.06457 18.54681,20.55351 0.66444,1.42047 1.68556,3.4563 2.05056,13.27608 1.04826,28.20251 0.44492,121.62908 -0.18564,457.03992 l -0.066,459.79922 -0.81036,6.3982 -3.45262,8.1963 c -1.76025,4.1787 -8.98897,10.0118 -12.10386,12.1705 -10.15801,7.0395 -14.51748,6.4392 -48.74484,6.3559 -20.03132,-0.049 -28.55486,0.083 -34.44933,-1.0022 -1.84725,-0.34 1.41291,0.4661 -0.16387,0.051 z m 78.87474,-99.2762 3.27873,-3.0802 v -65.5066 l -0.2424,-215.7738 0.25427,-68.97059 0.0331,-61.49435 c 0.11334,-210.56388 -0.50479,-313.30624 -0.8914,-364.08471 -0.35613,-46.77635 -0.40721,-49.50115 -1.95288,-50.80192 l -2.99002,-2.51629 -44.14324,-1.50348 -43.58958,0.51399 -4.70273,2.60905 -3.53443,3.53443 v 412.25021 412.25016 l 2.86193,2.7659 c 2.93271,2.8342 4.77438,2.8884 47.72015,2.8884 43.86243,0 44.67543,-0.052 47.8985,-3.0802 z"/><path style="font-variation-settings:normal;opacity:1;vector-effect:none;fill:#ff5f53;fill-opacity:1;stroke:#000;stroke-width:1px;stroke-linecap:butt;stroke-linejoin:miter;stroke-miterlimit:4;stroke-dasharray:none;stroke-dashoffset:0;stroke-opacity:1;stop-color:#000;stop-opacity:1" id="path526" d="m 264.23721,492.50948 c -4.04844,-8.33293 -16.624,-23.7182 -35.08385,-43.12156 -26.81029,-28.1806 -38.94038,-44.27168 -38.0073,-50.84946 0.2392,-1.68623 1.46532,-4.24344 5.12049,-5.01886 3.19131,-0.67702 8.11058,0.35187 17.45091,-0.0198 23.39935,-0.93118 25.92443,-0.22204 34.18969,-9.37069 2.82569,-3.12771 9.72884,-13.68396 13.55981,-21.88811 2.0257,-4.33811 4.05045,-8.45316 5.51052,-10.90389 0.76226,-1.27947 1.07024,-2.31363 1.47031,-2.76411 0.28284,-0.31849 0.76027,-0.22269 0.8214,-0.25623 1.85097,-1.01578 0.12781,12.83353 -0.1142,27.83216 l 0.24214,24.66349 -0.68216,2.60676 h -3.52801 c -5.21935,0 -7.63511,7.05409 -7.62545,22.26651 0.0108,17.00318 1.77689,22.92697 7.15611,24.00281 l 4.16908,0.83382 v 23.90572 c 0,13.14815 0.49174,29.00863 0.25743,29.00863 -0.23432,0 -3.28323,-7.58512 -4.90692,-10.92716 z"/><path style="font-variation-settings:normal;opacity:1;vector-effect:none;fill:#000;fill-opacity:1;stroke:#000;stroke-width:1px;stroke-linecap:butt;stroke-linejoin:miter;stroke-miterlimit:4;stroke-dasharray:none;stroke-dashoffset:0;stroke-opacity:1;stop-color:#000;stop-opacity:1" id="path528" d="m 295.1401,1185.4149 c -3.06937,-3.2672 5.67849,-7.7931 8.85227,-71.9607 l 3.14349,-63.5553 0.59066,-4.8296 c 0.52648,-4.3049 8.30627,-3.402 38.30164,-3.402 25.86749,0 38.24755,-2.2189 38.03519,0.9698 l 3.45868,11.3714 -2.79167,59.5757 3.06297,66.1632 -6.74309,5.9725 c -2.39371,2.1201 -8.12035,2.5912 -34.16751,2.5912 -30.89856,0 -48.7031,0.3392 -51.74263,-2.8962 z m 60.60873,-26.4444 c 6.3449,-10.045 11.38379,-15.7341 11.38379,-16.2306 0,-0.4966 -8.67254,-0.2057 -22.30766,-0.2057 -13.63512,0 -20.98513,-0.1734 -20.98513,0.1875 0,1.9194 20.33259,34.7155 21.23584,34.1572 0.58838,-0.3636 4.32826,-7.8634 10.67316,-17.9084 z m 1.57196,-45.1746 c 6.02548,-9.6095 10.68997,-15.7918 10.34635,-16.1355 -0.34362,-0.3436 -10.16328,-1.4002 -23.54772,-1.1865 l -22.58982,0.6608 12.33804,18.1627 c 12.12402,17.8476 11.33234,16.5866 12.68919,15.1005 0.93353,-1.0226 4.73849,-6.9926 10.76396,-16.602 z m -4.74836,-38.5533 c 6.72239,-10.6062 12.20345,-20.4597 11.88264,-20.7805 -0.32082,-0.3208 -6.79848,0.016 -20.13412,-0.1191 l -20.97842,-0.2121 10.503,17.5628 c 6.49171,10.8554 11.17262,15.0769 11.09751,17.0875 -0.008,0.2094 0.90699,-2.9325 7.62939,-13.5386 z"/><path style="font-variation-settings:normal;opacity:1;vector-effect:none;fill:#000;fill-opacity:1;stroke:#000;stroke-width:1px;stroke-linecap:butt;stroke-linejoin:miter;stroke-miterlimit:4;stroke-dasharray:none;stroke-dashoffset:0;stroke-opacity:1;stop-color:#000;stop-opacity:1" id="path530" d="m 195.38552,386.2328 c -4.58371,-5.30681 -4.27509,-6.14052 -4.27509,-19.98524 0,-17.24523 1.72279,-19.61607 15.05755,-21.23724 9.67784,-1.17658 22.06465,-2.66101 54.5917,-14.7228 13.93049,-5.16576 29.54685,-8.05337 29.95931,-7.6409 0.41247,0.41246 -7.82477,7.64243 -12.70328,12.40148 -7.11384,6.93963 -10.0361,11.45679 -15.83597,23.5081 -9.7373,20.23271 -12.31671,25.43301 -19.9502,29.92064 -5.8988,3.46784 -9.64568,4.83664 -24.46127,4.50485 l -16.87996,-0.37801 z"/><path style="font-variation-settings:normal;opacity:1;vector-effect:none;fill:#000;fill-opacity:1;stroke:#000;stroke-width:1px;stroke-linecap:butt;stroke-linejoin:miter;stroke-miterlimit:4;stroke-dasharray:none;stroke-dashoffset:0;stroke-opacity:1;stop-color:#000;stop-opacity:1" id="path532" d="m 260.25826,445.73518 c -0.87612,-2.14266 -2.24387,-11.42662 -2.30953,-18.43896 -0.0789,-8.42481 0.5889,-15.94359 2.95394,-19.86196 1.46407,-2.42565 4.20484,-2.8223 5.93526,-3.15555 0.81862,-0.15765 2.20028,-0.94768 2.77122,0.7176 1.00427,2.92917 0.90932,10.69905 0.90932,23.15575 0,20.49599 0.29677,21.57233 -2.45639,21.57233 -1.7985,0 -6.80502,-1.5465 -7.80382,-3.98921 z"/><path style="font-variation-settings:normal;opacity:1;vector-effect:none;fill:#000;fill-opacity:1;stroke:#000;stroke-width:1px;stroke-linecap:butt;stroke-linejoin:miter;stroke-miterlimit:4;stroke-dasharray:none;stroke-dashoffset:0;stroke-opacity:1;stop-color:#000;stop-opacity:1" id="path534" d="m 335.78812,307.06698 c 0,-1.77848 0.75861,-5.19179 4.31531,-6.11265 4.01911,-1.04059 12.44741,0.017 24.70426,0.21676 11.74082,0.19135 18.48536,-0.47698 21.97918,0.38297 2.88441,0.70995 3.12648,3.58747 3.31976,4.59386 0.43963,2.28916 -2.61413,0.94 -26.90979,0.94 -14.47139,0 -27.40872,0.6628 -27.40872,-0.0209 z"/><path style="font-variation-settings:normal;opacity:1;vector-effect:none;fill:#000;fill-opacity:1;stroke:#000;stroke-width:1px;stroke-linecap:butt;stroke-linejoin:miter;stroke-miterlimit:4;stroke-dasharray:none;stroke-dashoffset:0;stroke-opacity:1;stop-color:#000;stop-opacity:1" id="path536" d="m 424.74041,404.13845 c 8.8e-4,-3.58112 0.0807,-4.98041 0.17728,-3.10952 0.0966,1.87089 0.0959,4.8009 -0.002,6.51113 -0.0975,1.71024 -0.17656,0.17952 -0.17569,-3.40161 z"/><path style="font-variation-settings:normal;opacity:1;vector-effect:none;fill:#000;fill-opacity:1;stroke:#000;stroke-width:1px;stroke-linecap:butt;stroke-linejoin:miter;stroke-miterlimit:4;stroke-dasharray:none;stroke-dashoffset:0;stroke-opacity:1;stop-color:#000;stop-opacity:1" id="path538" d="m 420.0381,404.10822 v -6.7918 l 1.87821,0.15545 1.87822,0.15545 0.14568,5.50942 c 0.1916,7.24582 0.0477,7.76327 -2.15865,7.76327 h -1.74346 z"/><path style="font-variation-settings:normal;opacity:1;vector-effect:none;fill:#1a1a1a;fill-opacity:1;stroke:#000;stroke-width:1px;stroke-linecap:butt;stroke-linejoin:miter;stroke-miterlimit:4;stroke-dasharray:none;stroke-dashoffset:0;stroke-opacity:1;stop-color:#000;stop-opacity:1" id="path548" d="m 334.02423,1070.9922 -10.6817,-16.8613 10.97722,-0.1953 c 6.03746,-0.1074 15.72027,-0.1074 21.51734,0 l 10.54013,0.1953 -10.29748,16.2913 c -5.66361,8.9602 -10.53965,16.5478 -10.83564,16.8613 -0.296,0.3136 -5.34494,-7.0175 -11.21987,-16.2913 z"/><path style="font-variation-settings:normal;opacity:1;vector-effect:none;fill:#1a1a1a;fill-opacity:1;stroke:#000;stroke-width:1px;stroke-linecap:butt;stroke-linejoin:miter;stroke-miterlimit:4;stroke-dasharray:none;stroke-dashoffset:0;stroke-opacity:1;stop-color:#000;stop-opacity:1" id="path550" d="m 334.02948,1115.1625 -10.82491,-17.1159 11.04619,-0.1953 c 6.07541,-0.1074 15.82454,-0.1074 21.66473,0 l 10.61853,0.1953 -10.74364,16.9996 c -5.90901,9.3498 -10.78693,17.052 -10.83982,17.1159 -0.0529,0.064 -4.96738,-7.5858 -10.92108,-16.9996 z"/><path style="font-variation-settings:normal;opacity:1;vector-effect:none;fill:#1a1a1a;fill-opacity:1;stroke:#000;stroke-width:1px;stroke-linecap:butt;stroke-linejoin:miter;stroke-miterlimit:4;stroke-dasharray:none;stroke-dashoffset:0;stroke-opacity:1;stop-color:#000;stop-opacity:1" id="path552" d="m 334.13106,1159.4901 -10.61146,-16.8195 10.88868,-0.1953 c 5.98878,-0.1074 15.60026,-0.1074 21.35885,0 l 10.47016,0.1953 -10.39596,16.468 c -5.71779,9.0575 -10.55411,16.6262 -10.74739,16.8195 -0.19329,0.1933 -5.12658,-7.2173 -10.96288,-16.468 z"/><path style="font-variation-settings:normal;opacity:1;vector-effect:none;fill:#1a1a1a;fill-opacity:1;stroke:#000;stroke-width:1px;stroke-linecap:butt;stroke-linejoin:miter;stroke-miterlimit:4;stroke-dasharray:none;stroke-dashoffset:0;stroke-opacity:1;stop-color:#000;stop-opacity:1" id="path572" d="m 420.0231,1016.5918 c 0,-20.55693 0.0782,-24.48013 0.48787,-24.48013 1.26302,0 1.28964,0.54348 1.19693,24.43313 l -0.0911,23.4691 -0.79685,0.529 -0.79686,0.5291 z"/><path style="fill:#ff5f53;fill-opacity:1;stroke:#1a1a1a;stroke-width:.25;stroke-opacity:1" id="path987" d="m 336.33885,1011.7736 c -0.4903,-0.1025 -1.34011,-0.499 -1.86387,-0.5891 -2.10906,-0.3631 -4.24247,-1.0485 -6.03886,-2.8281 -2.21068,-2.1901 -2.45772,-4.2576 -2.92495,-7.2201 -0.0644,-0.4083 -0.33547,-3.32902 -0.7219,-7.96551 -0.47191,-5.66195 -0.26588,-14.13412 -0.22086,-24.07743 l 0.13273,-29.31033 2.1854,-3.07209 c 1.68451,-2.36796 2.85286,-4.8002 5.70807,-6.16483 3.14456,-1.50292 4.3061,-1.05628 13.1741,-0.94462 7.32026,0.0922 8.2212,0.0618 9.5738,0.56462 4.38444,1.62985 7.57683,5.059 8.6811,9.18385 0.22909,0.85573 0.41962,8.86488 0.21397,32.35897 l -0.056,30.50887 -0.83085,2.4841 c -0.94256,2.8179 -3.22521,4.2492 -5.91157,5.5336 -1.13944,0.5447 -2.59573,1.1447 -3.33637,1.2835 -1.10922,0.2079 -5.88727,0.4361 -10.04355,0.3913 -2.3498,-0.025 -3.61164,0.2383 -5.14351,0.029 -0.87269,-0.1194 -0.99665,0.165 -1.3228,0.097 z m 13.30469,-23.7451 c 2.76719,-0.58714 4.69699,-2.04661 5.74377,-4.34391 0.47551,-1.04356 0.57052,-1.68351 0.57531,-3.875 0.009,-4.20728 -1.02802,-6.30701 -3.78078,-7.65381 -2.39779,-1.17313 -5.79519,-0.86226 -7.69553,0.70416 -1.16483,0.96015 -1.85705,2.35288 -3.009,6.05403 -1.00853,3.24035 -1.41582,4.0427 -2.17437,4.28345 -1.5805,0.50163 -2.90029,-1.36574 -2.62256,-3.71068 0.19465,-1.64357 0.66036,-2.28932 2.02759,-2.81147 1.12124,-0.4282 1.13535,-0.44797 1.13263,-1.58714 -0.002,-0.63445 -0.0725,-1.57541 -0.15771,-2.09104 -0.13433,-0.81269 -0.24453,-0.9375 -0.82772,-0.9375 -2.30578,0 -4.85058,1.92056 -5.66126,4.27257 -0.69366,2.01248 -0.63686,5.68454 0.11372,7.35243 1.14973,2.55483 2.92227,3.72494 5.66589,3.74023 1.40395,0.008 2.00379,-0.11802 2.99769,-0.62888 1.9043,-0.97879 2.69476,-2.2324 3.99147,-6.3301 1.20414,-3.80517 1.74731,-4.65625 2.9717,-4.65625 0.97546,0 2.09342,0.64567 2.49633,1.44174 1.35565,2.67848 0.17187,5.70204 -2.55195,6.51812 -0.93521,0.2802 -1.0352,0.38787 -1.03324,1.11268 0.003,0.96835 0.28627,3.42746 0.39535,3.42746 0.0428,0 0.67403,-0.12649 1.40267,-0.28109 z m 5.94981,-29.21891 v -7.5 h -2 -2 v 5.25 5.25 h -9.25 -9.25 v 2.25 2.25 h 11.25 11.25 z"/><path style="font-variation-settings:normal;opacity:1;vector-effect:none;fill:#1a1a1a;fill-opacity:1;stroke:#000;stroke-width:1px;stroke-linecap:butt;stroke-linejoin:miter;stroke-miterlimit:4;stroke-dasharray:none;stroke-dashoffset:0;stroke-opacity:1;stop-color:#000;stop-opacity:1" id="path504" d="m 300.85,1194.9934 c -1.71731,-0.8472 -4.91972,-2.1462 -5.54391,-3.5161 -0.83944,-1.8424 0.86542,-110.6107 0.86542,-412.9166 0,-355.43486 -2.26943,-409.5887 -1.00378,-412.03621 2.62275,-5.07184 6.80299,-6.80795 52.50153,-5.38304 l 40.5665,0.52575 3.70004,2.69699 2.40356,3.70288 v 409.59752 c 0,267.41961 0.6532,377.35501 0.22653,405.85801 -0.0462,3.0834 0.15924,4.3842 0.0303,5.658 -0.0851,0.8402 -0.5067,2.1372 -0.56245,2.2596 -2.45684,5.3924 -4.14164,3.9318 -48.47815,3.9071 -34.72063,-0.019 -42.05298,0.9547 -44.70561,-0.3539 z m 80.27252,-10.4604 c 2.12921,-1.989 3.21222,-4.1353 3.6646,-7.2624 0.35319,-2.4415 0.50577,-32.4911 0.33906,-66.777 l -0.30309,-62.3379 -1.817,-4.7667 -4.72991,-1.7818 -30.78478,-0.3127 c -34.35748,-0.3489 -37.22985,0.016 -40.34521,5.1254 -1.88189,3.0863 -1.95191,5.545 -1.95552,68.6629 l -0.004,65.4619 3.40582,3.4058 3.40582,3.4059 h 33.05076 33.05075 z m -22.91983,-173.0609 c 1.57682,-0.8154 3.84958,-2.6835 5.00011,-4.1461 2.02772,-2.5779 2.08689,-3.5907 2.08689,-36.43981 l -0.69949,-33.99855 -2.38805,-3.40626 c -3.72994,-4.24816 -8.21239,-5.25265 -18.24178,-5.26006 -5.84642,-0.004 -8.30481,0.20024 -11.76537,1.9453 -7.84443,3.95572 -7.97242,4.60298 -7.97242,40.31894 0,34.66614 0.41247,35.72854 7.12185,40.21074 2.99392,2.0001 4.44288,2.362 13.60803,2.362 7.24014,0 11.25811,-0.556 13.25023,-1.5862 z m -5.95573,-138.90396 c 6.10086,-3.11739 8.53502,-6.75988 8.53502,-12.77184 0,-8.4223 -5.95352,-14.17655 -15.26265,-14.7518 -7.02351,-0.43401 -12.57208,2.34255 -15.43573,7.72419 -7.14597,13.42935 8.05461,27.00867 22.16336,19.79945 z m 1.45148,-63.42988 c 1.10087,-1.10086 1.57412,-3.48865 1.57412,-7.94215 0,-8.51585 -1.07862,-9.51627 -10.26023,-9.51627 -9.38389,0 -10.77573,1.20668 -10.77573,9.34222 0,8.48897 1.31434,9.69032 10.60168,9.69032 5.28806,0 7.7177,-0.43166 8.86016,-1.57412 z m 0.37207,-38.69473 c 0.69725,-0.69725 1.20205,-4.03875 1.20205,-7.9569 0,-8.44376 -1.52314,-9.87359 -10.51798,-9.87359 -8.88853,0 -10.51798,1.47199 -10.51798,9.50153 0,8.65087 1.00564,9.53101 10.89005,9.53101 4.68578,0 8.21631,-0.4745 8.94386,-1.20205 z m -0.62982,-39.52257 c 2.44013,-2.20828 2.62327,-13.43508 0.25775,-15.80059 -2.26592,-2.26593 -15.101,-2.20499 -17.62997,0.0837 -2.48085,2.24514 -2.59975,12.86248 -0.17405,15.54285 2.27669,2.51572 14.82125,2.64015 17.54627,0.17404 z m -0.1057,-38.44592 c 1.6168,-0.86529 1.93757,-2.13749 1.93757,-7.6844 0,-9.02878 -1.23743,-10.31119 -9.94949,-10.31119 -9.51513,0 -11.08647,1.3467 -11.08647,9.50153 0,8.51102 1.08671,9.53101 10.15453,9.53101 3.85346,0 7.8782,-0.46663 8.94386,-1.03695 z m 4.89747,-81.8069 c 5.473,-3.60783 6.98335,-3.06909 7.02174,-39.48044 0.0344,-32.65824 -0.45612,-33.68452 -2.485,-36.2638 -1.3225,-1.68128 -2.16617,-2.68325 -3.79664,-3.53269 -2.85079,-1.4852 -6.79655,-1.97333 -14.0201,-1.97333 -9.16515,0 -9.82283,0.81199 -12.81675,2.81203 -6.85365,4.57854 -7.27471,4.72625 -6.9653,40.5757 0.2612,30.26439 -0.11042,32.144 1.7811,34.65729 3.82743,5.08555 5.86745,5.85717 18.30393,5.87882 9.72787,0.0169 10.49635,-1.03831 12.97702,-2.67358 z"/><path style="fill:#333;fill-opacity:1;stroke:#333;stroke-width:.373293;stroke-opacity:1" id="path989" d="m 337.67662,692.88512 c -2.67305,-0.96309 -3.2939,-2.84605 -3.09019,-9.37193 0.17168,-5.49938 0.64108,-6.64523 3.20441,-7.82229 1.52187,-0.69884 2.42425,-0.79766 7.30307,-0.79982 6.75767,-0.003 7.98061,0.38279 9.09592,2.86921 0.61253,1.3655 0.72342,2.47625 0.73034,7.31525 0.007,5.38513 -0.0388,5.75973 -0.82685,6.67489 -0.62002,0.71994 -1.40826,1.06314 -3.06165,1.33297 -3.40014,0.55493 -11.60256,0.43314 -13.35505,-0.19828 z"/><path style="fill:#333;fill-opacity:1;stroke:#333;stroke-width:.370491;stroke-opacity:1" id="path991" d="m 339.04414,731.97109 c -3.60561,-0.93726 -4.48264,-2.73045 -4.45483,-9.10842 0.0218,-5.00727 0.73904,-7.15345 2.73101,-8.17253 1.29271,-0.66135 2.19762,-0.74953 7.69168,-0.74953 8.49855,0 8.96303,0.26628 9.77396,5.60339 0.32491,2.13833 0.32915,3.61396 0.0172,5.9992 -0.53103,4.06091 -1.10757,5.18233 -3.09269,6.01548 -2.09206,0.87802 -9.89752,1.13216 -12.66637,0.41241 z"/><path style="fill:#333;fill-opacity:1;stroke:#333;stroke-width:.365528;stroke-opacity:1" id="path993" d="m 337.75825,770.7391 c -2.54567,-0.94315 -3.11216,-2.48804 -3.09149,-8.43076 0.028,-8.05586 1.30547,-9.15871 10.57454,-9.12914 4.14079,0.0132 5.1614,0.13044 6.36851,0.73158 2.63337,1.31141 2.92902,2.08079 3.06977,7.98827 0.13827,5.8041 -0.24296,8.00904 -1.50624,8.71158 -1.28401,0.71409 -13.55834,0.81639 -15.41509,0.12847 z"/><path style="fill:#333;fill-opacity:1;stroke:#333;stroke-width:.370789;stroke-opacity:1" id="path995" d="m 340.25178,810.31175 c -2.30728,-0.35082 -4.07035,-1.26307 -4.79602,-2.48153 -0.63065,-1.05893 -0.72313,-1.90705 -0.72313,-6.63222 0,-8.75452 0.4422,-9.15459 10.11842,-9.15459 9.55452,0 9.93447,0.34222 9.93447,8.94819 0,8.55026 -0.56098,9.15949 -8.62352,9.3653 -2.64352,0.0675 -5.30312,0.0472 -5.91022,-0.0451 z"/><path id="path4136" d="m 620.05176,101.33936 h -13.19009 l -0.0372,-8.25531 h -14.10678 c -3.694,0 -4.86707,3.29254 -4.86707,8.2606 v 75.70196 c 0,3.53235 3.40852,6.31095 6.44045,6.31095 h 9.52259 c 2.5944,0 2.74434,-2.75044 3.01169,-5.11156 v -5.02502 h 13.00529 z" style="fill:#1a1a1a;fill-opacity:1;stroke:#000;stroke-width:2.30124px;stroke-linecap:butt;stroke-linejoin:miter;stroke-opacity:1"/><path id="path4138" d="M 606.85329,173.06935 V 101.88171" style="fill:#1a1a1a;fill-opacity:1;stroke:#000;stroke-width:2.30124px;stroke-linecap:butt;stroke-linejoin:miter;stroke-opacity:1"/><path style="fill:#000;fill-opacity:1;stroke:#000;stroke-width:2.30124px;stroke-linecap:butt;stroke-linejoin:miter;stroke-opacity:1" id="path4158" d="m 678.37103,56.29539 v 15.94604 h -43.5888 V 56.01064 c 0,-2.09826 1.87258,-3.04523 3.55963,-3.4883 12.17302,-3.19604 25.27663,-3.03408 36.83267,0 1.82189,0.47838 3.1965,1.67683 3.1965,3.77305 z"/><path style="fill:#1a1a1a;fill-opacity:1;stroke:#000;stroke-width:2.15573;stroke-linecap:butt;stroke-linejoin:miter;stroke-miterlimit:4;stroke-dasharray:none;stroke-opacity:1" id="path4146" d="m 720.40437,200.84448 c 1.81167,5.59747 14.31597,16.05818 26.80398,18.49431 0,3.18475 -2.17456,7.59933 -6.67803,7.59933 h -42.94533 c -9.04439,0 -6.76848,25.30224 7.88272,25.30224 h 14.82275 c 30.79579,10.88463 58.29906,11.10676 88.35628,0 h 15.61665 c 13.60575,0 16.40685,-25.0713 7.81066,-25.0713 h -42.12588 c -6.10893,0 -8.96884,-3.67481 -8.61035,-7.40557 10.9644,-3.90513 20.75456,-9.02232 26.28159,-18.53931 v -3.53463 h -87.25178 z"/><path style="fill:#1a1a1a;fill-opacity:1;stroke:#000;stroke-width:1.97231;stroke-linecap:butt;stroke-linejoin:miter;stroke-miterlimit:4;stroke-dasharray:none;stroke-opacity:1" id="path4154" d="m 724.94622,197.61379 c 0,0.29572 0,7.24873 0,7.24873 0,3.02618 -2.56512,4.21618 -5.85626,4.21618 -17.73054,1.12554 -39.27177,1.0596 -57.43145,0 -3.05168,0 -6.04433,-2.08878 -6.01039,-4.32715 v -8.83908 h 69.2981 z"/><path style="fill:none;stroke:#000;stroke-width:2.15573;stroke-linecap:butt;stroke-linejoin:miter;stroke-miterlimit:4;stroke-dasharray:none;stroke-opacity:1" id="path4148" d="m 741.03641,226.83735 h 45.04178"/><path style="fill:#1a1a1a;fill-opacity:1;stroke:#000;stroke-width:2.1477;stroke-linecap:butt;stroke-linejoin:miter;stroke-miterlimit:4;stroke-dasharray:none;stroke-opacity:1" id="path4142" d="m 643.93309,192.24653 v 12.01609 c 0,1.03496 1.44365,2.19259 2.56837,2.19259 h 45.10268 c 1.41577,0 3.13375,-1.20624 3.13375,-2.67504 v -11.62115 z"/><path style="fill:none;stroke:#000;stroke-width:2.15573;stroke-linecap:butt;stroke-linejoin:miter;stroke-miterlimit:4;stroke-dasharray:none;stroke-opacity:1" id="path4150" d="m 746.85546,219.17785 h 35.76351"/><path style="fill:#1a1a1a;fill-opacity:1;stroke:#000;stroke-width:1.96467;stroke-linecap:butt;stroke-linejoin:miter;stroke-miterlimit:4;stroke-dasharray:none;stroke-opacity:1" id="path4144" d="m 870.42561,197.60063 c 0,0.29344 0,7.19268 0,7.19268 0,3.00278 -2.56501,4.18358 -5.85597,4.18358 -17.73073,1.11684 -39.27172,1.05141 -57.43168,0 -3.05166,0 -6.04429,-2.07262 -6.01013,-4.29369 v -8.77073 h 69.29778 z"/><path id="path4160" d="m 797.67583,197.63487 c 0,0.29939 0,7.33855 0,7.33855 0,3.06368 -2.56511,4.26842 -5.85601,4.26842 -17.73077,1.1395 -39.27177,1.07274 -57.4317,0 -3.05168,0 -6.0443,-2.11465 -6.01014,-4.38077 v -8.9486 h 69.29785 z" style="fill:#1a1a1a;fill-opacity:1;stroke:#000;stroke-width:1.9845;stroke-linecap:butt;stroke-linejoin:miter;stroke-miterlimit:4;stroke-dasharray:none;stroke-opacity:1"/><path id="path4140" d="m 907.97933,199.65348 c 8.52966,0 24.99089,-16.61076 24.99089,-25.55625 v -58.65862 c -4.57443,-17.00507 -13.35533,-35.47833 -41.84537,-41.00408 -4.97535,0 -7.55529,-4.59359 -7.55529,-7.40352 -26.96999,-35.0496 -56.25473,-53.08707 -86.3059,-65.49263 h -63.63968 c -27.37307,12.02627 -42.63451,29.98675 -54.6313,49.5466 V 61.9055 c 0,4.46695 -3.77561,9.11203 -8.71777,9.11203 h -52.88777 v 128.70726 z" style="fill:#ff5f53;fill-opacity:1;stroke:#000;stroke-width:2.30124px;stroke-linecap:round;stroke-linejoin:round;stroke-opacity:1"/><path id="path4166" d="M 898.96304,95.57843 H 671.57211 c 0.11854,-46.39485 23.40196,-94.42781 68.1792,-94.42781 l 63.60853,0.74648 c 62.27359,11.13309 75.07205,54.96226 95.6032,93.68133 z" style="fill:#1a1a1a;fill-opacity:1;stroke:#000;stroke-width:2.30124px;stroke-linecap:butt;stroke-linejoin:miter;stroke-opacity:1"/><path id="path4168" d="M 917.62642,126.18349 H 669.66769 v 27.99243 c 0,9.45565 12.31669,23.51364 23.99616,23.51364 h 207.96534 c 12.6963,0 22.09152,-12.0229 22.09152,-21.64746 0,-11.5947 1.02012,-29.85861 -6.09429,-29.85861 z" style="fill:#1a1a1a;fill-opacity:1;stroke:#000;stroke-width:2.30124px;stroke-linecap:butt;stroke-linejoin:miter;stroke-opacity:1"/><path style="fill:#b3b3b3;fill-opacity:1;stroke:#000;stroke-width:.0426219;stroke-linecap:round;stroke-linejoin:round;stroke-miterlimit:4;stroke-dasharray:none;stroke-opacity:1" id="path4232" d="m 754.52313,152.06817 v -10.42123 l 4.83314,5.9e-4 c 2.65811,3.3e-4 5.22066,0.0205 5.69422,0.0424 2.06412,0.0999 3.36854,0.38224 4.26309,0.92274 1.37392,0.83011 2.28986,2.29536 2.52187,4.03406 0.0698,0.53061 0.0278,1.70342 -0.0814,2.19391 -0.3657,1.6476 -1.32187,2.879 -2.82086,3.63292 -0.57443,0.2889 -1.45224,0.5764 -2.13805,0.70022 -0.28454,0.0512 -0.51679,0.1037 -0.51608,0.11614 6.8e-4,0.0137 0.15343,0.11316 0.3387,0.22298 0.59653,0.35375 1.21864,0.8364 1.75031,1.3583 0.86316,0.8471 1.40854,1.61519 3.70213,5.21324 0.77646,1.21827 1.44017,2.25774 1.4746,2.30996 l 0.0626,0.0949 h -2.53768 -2.53792 l -1.69473,-2.47872 c -3.18932,-4.66409 -3.60893,-5.21082 -4.38563,-5.71206 -0.59814,-0.38608 -1.12447,-0.49152 -2.64298,-0.52955 l -1.02243,-0.0258 v 4.37299 4.37295 h -2.13132 -2.13132 v -10.42122 z m 10.52829,-1.70253 c 0.90687,-0.11613 1.36601,-0.31747 1.80747,-0.79267 0.44566,-0.47955 0.62444,-0.99717 0.62444,-1.80829 0,-1.12302 -0.42359,-1.86219 -1.30232,-2.27314 -0.68255,-0.31921 -0.57259,-0.31053 -4.17686,-0.33119 l -3.21837,-0.0182 v 2.66568 2.66571 l 2.87406,-0.0205 c 2.26803,-0.0161 2.98311,-0.0346 3.39158,-0.087 v 0 z"/><path style="fill:#b3b3b3;fill-opacity:1;stroke:#000;stroke-width:.0426219;stroke-linecap:round;stroke-linejoin:round;stroke-miterlimit:4;stroke-dasharray:none;stroke-opacity:1" id="path4234" d="M 763.60822,52.91602 V 42.51329 l 5.50031,0.0182 c 5.86555,0.0182 5.99551,0.0235 7.21251,0.23684 0.72764,0.12779 1.2063,0.27395 1.73262,0.5297 0.56119,0.27264 0.92919,0.53686 1.3444,0.96517 0.6865,0.70821 1.17119,1.61242 1.4232,2.65506 0.10465,0.43649 0.11392,0.54629 0.11623,1.4018 6.9e-4,0.72536 -0.0233,1.00826 -0.0743,1.29452 -0.49307,2.37268 -2.15713,3.86338 -4.92053,4.40866 -0.52052,0.10275 -0.58004,0.12279 -0.5089,0.17313 0.044,0.0312 0.27805,0.18384 0.51935,0.33899 1.26535,0.81414 2.04879,1.63119 3.24347,3.38328 0.43519,0.6382 3.38993,5.24266 3.43201,5.34806 0.0233,0.0423 -0.49075,0.051 -2.51118,0.0421 l -2.53257,-0.0114 -1.89628,-2.76629 c -2.70088,-3.93961 -3.00426,-4.35632 -3.57776,-4.91249 -0.79112,-0.76705 -1.35952,-0.94266 -3.17329,-0.98035 l -1.06565,-0.0228 v 4.3512 4.35117 h -2.13132 -2.13131 v -10.4027 z m 10.29044,-1.66304 c 0.70021,-0.0758 1.02521,-0.15376 1.4046,-0.337 0.60955,-0.2945 1.03662,-0.84304 1.20307,-1.54567 0.0907,-0.37929 0.0884,-1.17286 -0.002,-1.51464 -0.27525,-1.03723 -1.09727,-1.6771 -2.30428,-1.79364 -0.22549,-0.0228 -1.74122,-0.0399 -3.36922,-0.0406 l -2.96011,-0.002 v 2.66306 2.66304 l 2.78783,-0.0228 c 1.66078,-0.0137 2.97079,-0.0419 3.23998,-0.0711 v 0 z"/><path style="fill:#b3b3b3;fill-opacity:1;stroke:#000;stroke-width:.0426219;stroke-linecap:round;stroke-linejoin:round;stroke-miterlimit:4;stroke-dasharray:none;stroke-opacity:1" id="path4236" d="m 743.58665,61.4392 v -1.87954 l 5.57588,-6.74897 c 3.06678,-3.71194 5.57589,-6.75827 5.57589,-6.76966 0,-0.0114 -2.22827,-0.0205 -4.95147,-0.0205 h -4.95146 v -1.75092 -1.75094 h 7.7716 7.77183 v 1.61419 1.61418 l -5.83789,7.04557 -5.83763,7.04554 6.05291,0.0114 6.05316,0.0114 v 1.7297 1.72968 h -8.6113 -8.61152 v -1.87951 z"/><path style="fill:#ff5f53;fill-opacity:1;stroke-width:.176777" id="path141" d="m 337.37689,564.16039 c 0.004,-3.45814 0.214,-4.28994 1.21089,-4.80544 1.18361,-0.61208 3.0461,-0.20122 3.8108,0.84064 0.33284,0.45348 0.37167,0.7949 0.42717,3.75651 l 0.0611,3.25769 h -2.7569 -2.7569 z"/></svg>