<?xml version="1.0" encoding="UTF-8" standalone="no"?>
<svg
   xmlns:dc="http://purl.org/dc/elements/1.1/"
   xmlns:cc="http://creativecommons.org/ns#"
   xmlns:rdf="http://www.w3.org/1999/02/22-rdf-syntax-ns#"
   xmlns:svg="http://www.w3.org/2000/svg"
   xmlns="http://www.w3.org/2000/svg"
   xmlns:sodipodi="http://sodipodi.sourceforge.net/DTD/sodipodi-0.dtd"
   xmlns:inkscape="http://www.inkscape.org/namespaces/inkscape"
   version="1.1"
   id="Layer_1"
   x="0px"
   y="0px"
   viewBox="0 0 1000.8 1000"
   style="enable-background:new 0 0 1000.8 1000;"
   xml:space="preserve"
   sodipodi:docname="JoyConLeft.svg"
   inkscape:version="1.0.1 (3bc2e813f5, 2020-09-07)"><metadata
   id="metadata85"><rdf:RDF><cc:Work
       rdf:about=""><dc:format>image/svg+xml</dc:format><dc:type
         rdf:resource="http://purl.org/dc/dcmitype/StillImage" /><dc:title></dc:title></cc:Work></rdf:RDF></metadata><defs
   id="defs83" /><sodipodi:namedview
   pagecolor="#ffffff"
   bordercolor="#666666"
   borderopacity="1"
   objecttolerance="10"
   gridtolerance="10"
   guidetolerance="10"
   inkscape:pageopacity="0"
   inkscape:pageshadow="2"
   inkscape:window-width="1920"
   inkscape:window-height="1003"
   id="namedview81"
   showgrid="false"
   inkscape:zoom="0.66711859"
   inkscape:cx="290.89733"
   inkscape:cy="479.45052"
   inkscape:window-x="1400"
   inkscape:window-y="0"
   inkscape:window-maximized="1"
   inkscape:current-layer="Layer_1" />
<style
   type="text/css"
   id="style2">
	.st0{opacity:0.1;}
	.st1{fill:#02C5E5;}
	.st2{fill:#FFFFFF;}
</style>























<style
   type="text/css"
   id="style2-6">
	.st0{opacity:0.1;}
	.st1{fill:#02C5E5;}
	.st2{fill:#FF5F55;}
	.st3{fill:#FFFFFF;}
</style><g
   id="g344"><path
     class="st3"
     d="m 413.1,906.6 h -7.9 c -3.6,0 -6.4,-2.9 -6.5,-6.5 V 71.2 c 0,-3.6 2.9,-6.4 6.5,-6.5 h 7.9 c 3.6,0 6.4,2.9 6.5,6.5 V 207 c 0,4.9 -1.2,9.6 -3.4,14 l -6.7,13 v 79.2 l 6.7,13 c 2.2,4.3 3.4,9.1 3.4,13.9 v 269.7 c 0,4.9 -1.2,9.6 -3.4,14 l -6.7,13 V 716 l 6.7,13 c 2.2,4.3 3.4,9.1 3.4,13.9 v 157.2 c 0,3.6 -2.9,6.5 -6.5,6.5 z M 405.2,65.7 c -3,0 -5.5,2.4 -5.5,5.5 v 828.9 c 0,3 2.4,5.5 5.5,5.5 h 7.9 c 3,0 5.5,-2.4 5.5,-5.5 V 742.9 c 0,-4.7 -1.1,-9.3 -3.3,-13.5 l -6.8,-13.1 c 0,-0.1 -0.1,-0.2 -0.1,-0.2 v -79.5 c 0,-0.1 0,-0.2 0.1,-0.2 l 6.8,-13.1 c 2.2,-4.2 3.3,-8.8 3.3,-13.5 V 340.1 c 0,-4.7 -1.1,-9.3 -3.3,-13.5 l -6.8,-13.1 c 0,-0.1 -0.1,-0.2 -0.1,-0.2 v -79.5 c 0,-0.1 0,-0.2 0.1,-0.2 l 6.8,-13.1 c 2.2,-4.2 3.3,-8.8 3.3,-13.5 V 71.2 c 0,-3 -2.4,-5.5 -5.5,-5.5 z"
     id="path66-7"
     style="fill:#000000" /><path
     class="st3"
     d="m 399.3,858.9 h -11.2 c -0.3,0 -0.5,-0.2 -0.5,-0.5 V 72 c 0,-0.3 0.2,-0.5 0.5,-0.5 h 11.2 c 0.3,0 0.5,0.2 0.5,0.5 v 786.4 c 0,0.3 -0.2,0.5 -0.5,0.5 z m -10.7,-1 h 10.2 V 72.5 h -10.2 z"
     id="path68-5"
     style="fill:#000000" /><path
     class="st3"
     d="M 382.1,1000 H 275.9 C 158.9,1000 64,905.2 64,788.1 c 0,0 0,0 0,0 V 220.9 C 64,104.1 159.1,9.1 275.9,9.1 h 106.2 c 3.6,0 6.5,2.9 6.5,6.5 v 978 c 0,3.5 -2.9,6.4 -6.5,6.4 z M 275.9,10.1 C 159.6,10.1 65,104.7 65,220.9 V 788.1 C 65,904.4 159.6,999 275.9,999 h 106.2 c 3,0 5.5,-2.4 5.5,-5.5 v -978 c 0,-3 -2.4,-5.5 -5.5,-5.5 H 275.9 Z"
     id="path70-3"
     style="fill:#000000" /><path
     class="st1"
     d="m 413.1,717.1 h -4.2 c -0.6,0 -1,-0.4 -1,-1 0,0 0,0 0,0 v -79.5 c 0,-0.6 0.4,-1 1,-1 0,0 0,0 0,0 h 4.2 c 3.8,0 6.9,3.1 7,7 v 67.6 c 0,3.8 -3.1,6.9 -7,6.9 z m -3.2,-2 h 3.2 c 2.7,0 5,-2.2 5,-5 v -67.6 c 0,-2.7 -2.2,-5 -5,-5 h -3.2 z"
     id="path98"
     style="fill:#000000" /><path
     class="st1"
     d="m 413.1,314.3 h -4.2 c -0.6,0 -1,-0.4 -1,-1 v -79.5 c 0,-0.6 0.4,-1 1,-1 h 4.2 c 3.8,0 6.9,3.1 7,7 v 67.6 c 0,3.8 -3.1,6.9 -7,6.9 z m -3.2,-2 h 3.2 c 2.7,0 5,-2.2 5,-5 v -67.6 c 0,-2.7 -2.2,-5 -5,-5 h -3.2 z"
     id="path100"
     style="fill:#000000" /><path
     style="fill:#01c6e6;fill-opacity:0.992157;stroke:#4d4d4d;stroke-width:1"
     d="m 257.47599,997.49473 c -26.30234,-2.3493 -49.90186,-9.17738 -75.04426,-21.71262 C 117.17154,943.24531 74.755874,881.82088 66.727355,808.2243 64.943441,791.87136 64.94041,218.41588 66.724145,200.93415 69.379611,174.90893 75.914592,151.99608 87.247373,128.97592 118.63505,65.218492 179.0982,21.796519 249.3051,12.593199 c 18.18131,-2.383363 133.61873,-2.6919419 135.94726,-0.363405 1.12672,1.12671 1.45478,112.251076 1.45478,492.764216 0,484.50248 -0.0325,491.32681 -2.34493,492.5644 -2.80172,1.49943 -109.98822,1.44564 -126.88622,-0.0636 z"
     id="path1144" /><polygon
     class="st1"
     points="237.9,448.9 225.8,469.9 250,469.9 "
     id="polygon80"
     style="fill:#333333;stroke:#4d4d4d;stroke-width:0.927894"
     transform="matrix(1.1037134,0,0,1.0523169,-24.636066,-24.267048)" /><polygon
     class="st1"
     points="250,605.9 237.9,626.9 225.8,605.9 "
     id="polygon82"
     style="fill:#333333;stroke:#4d4d4d;stroke-width:0.957418"
     transform="matrix(1.0574383,0,0,1.0316716,-13.259456,-19.457378)" /><polygon
     class="st1"
     points="169.9,525.8 148.9,537.9 169.9,550 "
     id="polygon84"
     style="fill:#333333;stroke:#4d4d4d;stroke-width:0.931439"
     transform="matrix(1.0443863,0,0,1.1036462,-7.5389156,-55.555947)" /><polygon
     class="st1"
     points="326.9,537.9 305.9,550 305.9,525.8 "
     id="polygon86"
     style="fill:#333333;stroke:#4d4d4d;stroke-width:0.849928"
     transform="matrix(1.2181479,0,0,1.1364095,-67.797686,-73.39984)" /><path
     class="st1"
     d="m 81.300444,139.3 c -0.3,0 -0.5,-0.1 -0.7,-0.3 l -3.4,-3.4 c -2,-2 -2.6,-5.1 -1.5,-7.8 C 110.50044,50.1 187.70044,0.1 272.90044,0 h 51.2 c 3.8,0 6.9,3.1 7,7 v 2.6 c 0,0.6 -0.4,1 -1,1 h -54.2 c -84.5,-0.1 -160.8,50.4 -193.699996,128.1 -0.1,0.3 -0.4,0.5 -0.7,0.6 -0.1,0 -0.2,0 -0.2,0 z M 272.90044,2 c -84.4,0.1 -160.9,49.7 -195.399996,126.7 -0.8,1.9 -0.4,4.1 1.1,5.5 l 2.4,2.4 C 114.60044,58.8 191.30044,8.5 276.00044,8.6 h 53.2 V 7 c 0,-2.7 -2.2,-5 -5,-5 z"
     id="path102"
     style="fill:#000000" /><path
     class="st1"
     d="m 359.60044,116.1 h -46.9 c -2.2,0 -4,-1.8 -4,-4 v -11.7 c 0,-2.2 1.8,-4 4,-4 h 46.9 c 2.2,0 4,1.8 4,4 v 11.7 c 0,2.2 -1.8,4 -4,4 z m -46.9,-17.6 c -1.1,0 -2,0.9 -2,2 v 11.7 c 0,1.1 0.9,2 2,2 h 46.9 c 1.1,0 2,-0.9 2,-2 v -11.7 c 0,-1.1 -0.9,-2 -2,-2 z"
     id="path104"
     style="fill:#000000" /><path
     class="st1"
     d="m 237.90044,502.9 c -21.2,0 -38.5,-17.2 -38.5,-38.5 0,-21.2 17.2,-38.5 38.5,-38.5 21.2,0 38.5,17.2 38.5,38.5 0,21.3 -17.2,38.5 -38.5,38.5 z m 0,-74.9 c -20.1,0 -36.5,16.3 -36.5,36.5 0,20.1 16.3,36.5 36.5,36.5 20.1,0 36.5,-16.3 36.5,-36.5 0,-20.2 -16.3,-36.5 -36.5,-36.5 z"
     id="path106"
     style="fill:#000000" /><path
     class="st1"
     d="m 237.90044,649.8 c -21.2,0 -38.5,-17.2 -38.5,-38.5 0,-21.3 17.2,-38.5 38.5,-38.5 21.2,0 38.5,17.2 38.5,38.5 0,21.3 -17.2,38.5 -38.5,38.5 z m 0,-74.9 c -20.1,0 -36.5,16.3 -36.5,36.5 0,20.2 16.3,36.5 36.5,36.5 20.2,0 36.5,-16.3 36.5,-36.5 0,0 0,0 0,0 0,-20.2 -16.3,-36.5 -36.5,-36.5 z"
     id="path108"
     style="fill:#000000" /><path
     class="st1"
     d="m 311.40044,576.3 c -21.2,0 -38.5,-17.2 -38.5,-38.5 0,-21.2 17.2,-38.5 38.5,-38.5 21.3,0 38.5,17.2 38.5,38.5 v 0 c -0.1,21.3 -17.3,38.5 -38.5,38.5 z m 0,-74.9 c -20.1,0 -36.5,16.3 -36.5,36.5 0,20.2 16.3,36.5 36.5,36.5 20.1,0 36.5,-16.3 36.5,-36.5 0,0 0,0 0,0 -0.1,-20.2 -16.4,-36.5 -36.5,-36.5 z"
     id="path110"
     style="fill:#000000" /><path
     class="st1"
     d="m 164.50044,576.3 c -21.2,0 -38.5,-17.2 -38.5,-38.5 0,-21.2 17.2,-38.5 38.5,-38.5 21.3,0 38.5,17.2 38.5,38.5 v 0 c -0.1,21.3 -17.3,38.5 -38.5,38.5 z m 0,-74.9 c -20.1,0 -36.5,16.3 -36.5,36.5 0,20.1 16.3,36.5 36.5,36.5 20.1,0 36.5,-16.3 36.5,-36.5 0,0 0,0 0,0 -0.1,-20.2 -16.4,-36.5 -36.5,-36.5 z"
     id="path112"
     style="fill:#000000" /><path
     class="st1"
     d="m 314.10044,753.7 h -45 c -5.5,0 -9.9,-4.4 -9.9,-9.9 v -45 c 0,-5.5 4.4,-9.9 9.9,-9.9 h 45 c 5.5,0 9.9,4.4 9.9,9.9 v 45 c 0,5.5 -4.5,9.9 -9.9,9.9 z m -45,-62.8 c -4.4,0 -7.9,3.6 -7.9,7.9 v 45 c 0,4.4 3.6,7.9 7.9,7.9 h 45 c 4.4,0 7.9,-3.6 7.9,-7.9 v -45 c 0,-4.4 -3.6,-7.9 -7.9,-7.9 z"
     id="path114"
     style="fill:#000000" /><path
     class="st1"
     d="m 291.60044,741.7 c -11.3,0 -20.4,-9.2 -20.4,-20.4 0,-11.3 9.2,-20.4 20.4,-20.4 11.3,0 20.4,9.2 20.4,20.4 0,0 0,0 0,0 0,11.3 -9.1,20.4 -20.4,20.4 z m 0,-38.9 c -10.2,0 -18.4,8.3 -18.4,18.4 0,10.1 8.3,18.4 18.4,18.4 10.2,0 18.4,-8.3 18.4,-18.4 0,-10.1 -8.2,-18.3 -18.4,-18.4 z"
     id="path116"
     style="fill:#000000" /><path
     class="st1"
     d="m 174.80044,260.2 h -12.3 c -0.6,0 -1,-0.4 -1,-1 0,0 0,0 0,0 1.7,-39.6 33.4,-71.3 73,-73 0.3,0 0.5,0.1 0.7,0.3 0.2,0.2 0.3,0.4 0.3,0.7 v 12.3 c 0,3.5 -2.6,6.4 -6,6.9 -24.7,3.7 -44.2,23.1 -47.9,47.9 -0.4,3.3 -3.3,5.9 -6.8,5.9 z m -11.2,-2 h 11.2 c 2.5,0 4.6,-1.8 4.9,-4.3 3.9,-25.6 24,-45.7 49.6,-49.6 2.5,-0.3 4.3,-2.4 4.3,-4.9 v -11.2 c -37.4,2.1 -67.9,32.6 -70,70 z"
     id="path118"
     style="fill:#000000" /><path
     class="st1"
     d="m 234.60044,338.9 v 0 c -39.6,-1.7 -71.3,-33.4 -73,-73 0,-0.6 0.4,-1 1,-1 0,0 0,0 0,0 h 12.3 c 3.5,0 6.4,2.6 6.9,6 3.7,24.7 23.1,44.2 47.9,47.9 3.4,0.5 6,3.4 6,6.9 V 338 c -0.1,0.5 -0.6,0.9 -1.1,0.9 z m -71,-72 c 2.2,37.4 32.6,67.8 70,70 v -11.2 c 0,-2.5 -1.8,-4.6 -4.3,-4.9 -25.6,-3.9 -45.7,-24 -49.6,-49.6 -0.3,-2.5 -2.4,-4.3 -4.9,-4.3 z"
     id="path120"
     style="fill:#000000" /><path
     class="st1"
     d="m 241.30044,338.9 c -0.6,0 -1,-0.4 -1,-1 v -12.3 c 0,-3.5 2.6,-6.4 6,-6.9 24.7,-3.7 44.2,-23.1 47.9,-47.9 0.5,-3.4 3.4,-6 6.9,-6 h 12.3 c 0.6,0 1,0.4 1,1 0,0 0,0 0,0 -1.8,39.7 -33.5,71.4 -73.1,73.1 z m 59.7,-72 c -2.5,0 -4.6,1.8 -4.9,4.3 -3.9,25.6 -24,45.7 -49.6,49.6 -2.5,0.3 -4.3,2.4 -4.3,4.9 v 11.2 c 37.4,-2.2 67.8,-32.6 70,-70 z"
     id="path122"
     style="fill:#000000" /><path
     class="st1"
     d="m 313.30044,260.2 h -12.3 c -3.5,0 -6.4,-2.6 -6.9,-6 -3.7,-24.7 -23.1,-44.2 -47.9,-47.9 -3.4,-0.5 -6,-3.4 -6,-6.9 v -12.3 c 0,-0.3 0.1,-0.5 0.3,-0.7 0.2,-0.2 0.5,-0.3 0.7,-0.3 39.6,1.7 71.3,33.4 73,73 0.1,0.6 -0.3,1.1 -0.9,1.1 0,0 0,0 0,0 z m -71,-72 v 11.2 c 0,2.5 1.8,4.6 4.3,4.9 25.6,3.9 45.7,24 49.6,49.6 0.3,2.5 2.4,4.3 4.9,4.3 h 11.2 c -2.2,-37.4 -32.7,-67.9 -70,-70 z"
     id="path124"
     style="fill:#000000" /><path
     class="st1"
     d="m 237.90044,339 c -1.2,0 -2.3,0 -3.4,-0.1 -0.5,0 -0.9,-0.5 -0.9,-1 v -12.3 c 0,-2.5 -1.8,-4.6 -4.3,-4.9 -25.6,-3.9 -45.7,-24 -49.6,-49.6 -0.3,-2.5 -2.4,-4.3 -4.9,-4.3 h -12.3 c -0.5,0 -1,-0.4 -1,-0.9 -0.1,-1.1 -0.1,-2.2 -0.1,-3.4 0,-1.2 0,-2.3 0.1,-3.4 0,-0.5 0.5,-0.9 1,-0.9 h 12.3 c 2.5,0 4.6,-1.8 4.9,-4.3 3.9,-25.6 24,-45.7 49.6,-49.6 2.5,-0.3 4.3,-2.4 4.3,-4.9 v -12.3 c 0,-0.5 0.4,-1 0.9,-1 2.3,-0.1 4.5,-0.1 6.8,0 0.5,0 0.9,0.5 0.9,1 v 12.3 c 0,2.5 1.8,4.6 4.3,4.9 25.6,3.9 45.7,24 49.6,49.6 0.3,2.5 2.4,4.3 4.9,4.3 h 12.3 c 0.5,0 1,0.4 1,0.9 0.1,1.1 0.1,2.2 0.1,3.4 0,1.2 0,2.3 -0.1,3.4 0,0.5 -0.5,0.9 -1,0.9 h -12.3 c -2.5,0 -4.6,1.8 -4.9,4.3 -3.9,25.6 -24,45.7 -49.6,49.6 -2.5,0.3 -4.3,2.4 -4.3,4.9 v 12.3 c 0,0.5 -0.4,1 -0.9,1 -1.1,0.1 -2.2,0.1 -3.4,0.1 z m -2.3,-2 c 1.5,0.1 3.1,0.1 4.7,0 v -11.3 c 0,-3.5 2.6,-6.4 6,-6.9 24.7,-3.7 44.2,-23.1 47.9,-47.9 0.5,-3.4 3.4,-6 6.9,-6 h 11.3 c 0,-0.8 0,-1.5 0,-2.3 0,-0.8 0,-1.6 0,-2.3 h -11.4 c -3.5,0 -6.4,-2.6 -6.9,-6 -3.7,-24.7 -23.1,-44.2 -47.9,-47.9 -3.4,-0.5 -6,-3.4 -6,-6.9 v -11.3 c -1.5,-0.1 -3.1,-0.1 -4.7,0 v 11.3 c 0,3.5 -2.6,6.4 -6,6.9 -24.7,3.7 -44.2,23.1 -47.9,47.9 -0.5,3.4 -3.4,6 -6.9,6 h -11.3 c 0,0.8 0,1.5 0,2.3 0,0.8 0,1.6 0,2.3 h 11.3 c 3.5,0 6.4,2.6 6.9,6 3.7,24.7 23.1,44.2 47.9,47.9 3.4,0.5 6,3.4 6,6.9 z"
     id="path126"
     style="fill:#000000" /><path
     style="fill:#1a1a1a;fill-opacity:1;stroke:#4d4d4d;stroke-width:0.999997"
     d="m 158.02789,574.27925 c -14.73064,-3.25266 -24.85554,-12.70578 -29.04419,-27.11717 -0.98592,-3.39218 -1.21679,-6.26957 -0.93511,-11.65556 0.33774,-6.4583 0.67944,-7.76803 3.52546,-13.51272 11.35216,-22.91431 40.68588,-27.928 58.61532,-10.01846 19.42229,19.40073 11.99924,51.86436 -13.89781,60.78009 -5.19354,1.788 -13.81105,2.50701 -18.26367,1.52382 z m 12.59864,-36.29462 c 0,-7.35074 -0.18108,-13.36496 -0.40241,-13.36496 -0.89601,0 -23.32454,13.1809 -22.99291,13.51259 0.66445,0.66458 22.24473,13.11359 22.82266,13.1657 0.31497,0.0284 0.57266,-5.96261 0.57266,-13.31333 z"
     id="path179" /><path
     style="fill:#1a1a1a;fill-opacity:1;stroke:#4d4d4d;stroke-width:0.999997"
     d="m 232.50517,500.57091 c -6.91699,-0.86484 -15.04235,-4.99807 -20.4853,-10.42051 -14.58513,-14.53016 -14.55979,-36.85709 0.0584,-51.42015 23.0282,-22.94142 62.26853,-6.95317 62.26853,25.37095 0,10.34881 -3.46897,18.75364 -10.723,25.98031 -8.34032,8.30891 -19.22192,11.97685 -31.1186,10.4894 z m 18.58209,-30.69278 c -0.91811,-2.38357 -12.79282,-22.35099 -13.28879,-22.34521 -0.45143,0.005 -5.88471,9.05299 -11.95805,19.91302 l -2.0157,3.60439 h 13.85703 c 12.18288,0 13.80248,-0.14161 13.40551,-1.1722 z"
     id="path181" /><path
     style="fill:#1a1a1a;fill-opacity:1;stroke:#4d4d4d;stroke-width:0.999997"
     d="m 229.21434,646.98161 c -12.9232,-3.46654 -23.15418,-13.73508 -26.52403,-26.62142 -5.92248,-22.64757 11.58541,-45.21876 35.15949,-45.32763 7.44717,-0.0344 11.29183,0.91312 18.09999,4.46071 16.90217,8.80735 23.84898,30.39169 15.40753,47.87245 -7.54225,15.61868 -25.6403,24.04261 -42.14298,19.61589 z M 245.434,616.92014 c 3.65424,-6.30197 6.48622,-11.61534 6.29329,-11.8075 -0.19293,-0.19216 -6.40658,-0.25572 -13.80812,-0.14123 l -13.45735,0.20814 6.66623,11.58776 c 3.66642,6.37327 6.89025,11.59297 7.16405,11.59935 0.27381,0.006 3.48766,-5.14457 7.1419,-11.44652 z"
     id="path185" /><path
     style="fill:#1a1a1a;fill-opacity:1;stroke:#4d4d4d;stroke-width:1"
     d="m 307.85537,574.24407 c -0.34478,-0.0389 -1.62711,-0.27075 -2.84962,-0.51537 -11.23844,-2.24892 -20.9226,-9.70179 -26.17378,-20.1432 -2.82839,-5.62398 -4.20289,-12.18393 -3.75883,-17.93953 1.14218,-14.80435 11.33006,-27.74217 25.61809,-32.53303 8.75405,-2.93529 18.04495,-2.18507 26.72988,2.15843 8.69225,4.34715 15.48783,12.11097 18.64346,21.29973 5.25881,15.31297 -0.71552,32.17026 -14.73029,41.56334 -5.99457,4.01773 -13.35804,6.28235 -20.18834,6.20884 -1.46502,-0.0157 -2.94577,-0.0604 -3.29057,-0.0993 z m -0.66719,-23.08553 c 0.71175,-0.35815 3.02697,-1.62049 5.14496,-2.80516 8.66766,-4.84825 15.63944,-9.1681 16.21592,-10.0477 0.27948,-0.42642 0.28078,-0.49758 0.0166,-0.90068 -0.86957,-1.32678 -21.50733,-13.52937 -22.8817,-13.52937 -0.25925,0 -0.5656,0.11351 -0.68079,0.25225 -0.41371,0.49837 -0.59707,4.78502 -0.59431,13.89388 0.003,9.06159 0.17803,13.03427 0.59744,13.53951 0.32082,0.38645 0.78324,0.3011 2.18189,-0.40273 z"
     id="path187" /><path
     style="fill:#333333;fill-opacity:1;stroke:#4d4d4d;stroke-width:1"
     d="m 287.96017,739.09726 c -1.01606,-0.21912 -2.9756,-0.9477 -4.35453,-1.61905 -2.09414,-1.01956 -2.88115,-1.59464 -4.77748,-3.49097 -1.89792,-1.89791 -2.4703,-2.68159 -3.48941,-4.77748 -2.66648,-5.48389 -2.66607,-10.55714 10e-4,-16.08572 1.0133,-2.10022 1.56326,-2.85257 3.48092,-4.76199 3.62968,-3.61405 7.72755,-5.3398 12.70198,-5.34921 8.35146,-0.0158 15.68299,5.71579 17.81213,13.92506 0.52326,2.01754 0.54009,6.16569 0.0339,8.34799 -1.47072,6.34008 -6.30854,11.44929 -12.69973,13.41212 -2.44922,0.7522 -6.26202,0.92699 -8.70906,0.39925 z"
     id="path189" /><path
     style="fill:#1a1a1a;fill-opacity:1;stroke:#4d4d4d;stroke-width:1"
     d="m 267.23012,751.2862 c -1.59942,-0.43597 -2.94763,-1.29847 -4.05871,-2.59652 -1.81264,-2.11766 -1.73429,-0.87988 -1.73429,-27.39725 0,-26.73402 -0.0972,-25.30688 1.87658,-27.54923 0.58306,-0.66239 1.71204,-1.51487 2.55332,-1.92799 l 1.5081,-0.74058 h 24.1534 24.15339 l 1.77672,0.87468 c 1.25727,0.61895 2.04823,1.23027 2.70544,2.091 1.78729,2.34073 1.72742,1.33094 1.64816,27.80036 -0.0712,23.78487 -0.0733,23.86757 -0.63865,25.09049 -0.72339,1.56486 -2.26169,3.10316 -3.93043,3.93043 l -1.30842,0.64864 -23.75199,0.0516 c -18.21394,0.0396 -24.03192,-0.0247 -24.95262,-0.27565 z m 27.28995,-9.68076 c 10.60326,-1.53286 18.09097,-10.66806 17.50501,-21.35655 -0.18432,-3.36213 -0.66908,-5.27077 -2.04745,-8.06138 -4.59235,-9.29756 -15.46557,-13.67756 -25.3079,-10.19463 -2.76161,0.97725 -4.68871,2.16763 -7.02836,4.34145 -3.05146,2.83517 -5.11688,6.34636 -6.04249,10.27217 -0.50715,2.151 -0.50715,7.22087 0,9.37186 0.92171,3.90925 2.95421,7.3745 6.0133,10.25221 2.20884,2.07787 4.16469,3.31668 6.72144,4.2573 3.40627,1.25315 6.72782,1.61756 10.18645,1.11757 z"
     id="path191" /><path
     style="fill:#1a1a1a;fill-opacity:1;stroke:#4d4d4d;stroke-width:1"
     d="m 235.77295,330.34531 c 0,-6.0203 -0.0462,-6.51813 -0.73076,-7.87124 -1.06164,-2.09851 -2.95253,-3.39477 -5.65313,-3.87537 -15.06064,-2.68022 -27.49575,-10.15006 -36.51861,-21.93692 -4.96934,-6.49162 -8.83069,-15.11098 -10.3887,-23.18981 -0.83474,-4.3284 -1.3998,-5.65891 -2.97647,-7.00848 -1.7724,-1.51711 -3.30405,-1.79252 -9.96885,-1.79252 h -5.86461 v -2.11107 -2.11107 h 6.26944 c 6.12912,0 6.30805,-0.0192 7.9945,-0.85963 2.44443,-1.21811 3.32179,-2.74063 4.22338,-7.32906 4.56927,-23.25403 22.39532,-40.97679 45.63214,-45.36773 4.16129,-0.78634 5.57438,-1.57205 6.90818,-3.84114 0.9048,-1.53927 0.91186,-1.5954 1.02116,-8.12677 l 0.11006,-6.57679 h 2.0822 2.0822 v 6.27497 c 0,6.20191 0.0104,6.29547 0.89315,8.03629 1.32629,2.61551 2.65075,3.37644 7.56606,4.34684 19.37922,3.82593 35.08856,16.98397 42.28514,35.41774 1.04383,2.67375 1.9437,5.93165 3.31831,12.01372 0.58905,2.60627 1.67368,4.16462 3.60307,5.17675 1.1513,0.60396 1.95144,0.68258 7.85861,0.77219 l 6.57679,0.0998 v 2.0925 2.09249 h -6.26944 c -6.12912,0 -6.30805,0.0192 -7.9945,0.85963 -2.20181,1.09721 -3.39863,2.90223 -3.90849,5.89474 -4.06097,23.83452 -22.22419,42.32715 -45.97159,46.8053 -4.2535,0.8021 -5.71797,1.66037 -6.96502,4.08193 -0.79329,1.54043 -0.83455,1.89301 -0.94026,8.03533 l -0.11057,6.42419 h -2.08169 -2.0817 z"
     id="path1082" /><path
     style="fill:#1a1a1a;fill-opacity:1;stroke:#4d4d4d;stroke-width:1"
     d="m 163.78864,257.28223 c 0.0926,-0.49123 0.26012,-1.9162 0.37218,-3.1666 0.34565,-3.85681 1.73866,-10.12043 3.27937,-14.74553 8.02141,-24.0797 28.10082,-42.70464 52.74332,-48.92282 3.12397,-0.78829 7.58171,-1.54879 11.2861,-1.92544 l 2.02988,-0.20639 v 5.8726 c 0,8.54266 -0.3854,9.15422 -6.53853,10.37563 -18.42711,3.65779 -33.66767,15.25204 -41.92018,31.89074 -2.55007,5.14144 -4.14587,10.08856 -5.47376,16.9691 -0.45828,2.3746 -1.81844,3.9985 -3.71595,4.43649 -0.71452,0.16493 -3.75876,0.30335 -6.76499,0.30761 l -5.46587,0.008 z"
     id="path1084" /><path
     style="fill:#1a1a1a;fill-opacity:1;stroke:#4d4d4d;stroke-width:1"
     d="m 229.76452,336.39384 c -26.99792,-3.04756 -50.79328,-21.35759 -60.92173,-46.87799 -2.38214,-6.00221 -4.22117,-13.35788 -4.67827,-18.71196 -0.11259,-1.31887 -0.27512,-2.73804 -0.36117,-3.1537 l -0.15645,-0.75574 6.32279,0.10618 c 5.78597,0.0972 6.39885,0.16304 7.21874,0.77582 1.58067,1.18137 2.03872,2.1715 2.89278,6.25312 1.21968,5.82894 2.45374,9.35857 5.18759,14.8375 2.85902,5.72977 5.67403,9.77885 9.85937,14.18161 8.62003,9.0678 19.6967,15.16512 31.73111,17.46684 3.63419,0.69508 4.63135,1.16546 5.80819,2.73983 0.6132,0.82034 0.6781,1.4276 0.77012,7.20628 0.0943,5.92221 0.0643,6.30785 -0.48717,6.26798 -0.32321,-0.0233 -1.75687,-0.17446 -3.1859,-0.33577 z"
     id="path1086" /><path
     style="fill:#1a1a1a;fill-opacity:1;stroke:#4d4d4d;stroke-width:1"
     d="m 299.6703,257.71116 c -2.39043,-0.853 -2.81858,-1.58503 -3.81252,-6.51855 -3.66786,-18.20579 -15.40436,-33.45997 -31.99138,-41.57986 -4.81668,-2.35792 -8.58209,-3.67044 -13.47836,-4.69819 -4.72195,-0.99115 -6.17077,-1.58672 -7.05619,-2.9006 -0.70499,-1.04613 -0.73853,-1.38133 -0.73853,-7.38107 0,-3.45685 0.11517,-6.28518 0.25593,-6.28518 0.14076,0 1.93111,0.20926 3.97855,0.46502 11.96867,1.4951 22.85594,5.62979 32.79042,12.45291 4.36974,3.00118 7.416,5.6069 11.57682,9.90259 9.30395,9.60553 15.50823,20.66713 18.77966,33.48224 0.93232,3.65217 2.12151,10.886 2.12151,12.90514 0,0.58643 -0.30132,0.619 -5.60245,0.60551 -3.82949,-0.01 -5.98886,-0.15214 -6.82346,-0.44996 z"
     id="path1088" /><path
     style="fill:#1a1a1a;fill-opacity:1;stroke:#4d4d4d;stroke-width:1"
     d="m 242.3249,330.46177 c 0.097,-5.7735 0.163,-6.38655 0.77566,-7.20629 1.18269,-1.58243 2.17182,-2.02925 6.33209,-2.86041 23.48707,-4.69236 41.89612,-23.31363 46.43689,-46.97223 0.66775,-3.47916 1.14738,-4.47847 2.71006,-5.64639 0.81991,-0.6128 1.43277,-0.67865 7.22079,-0.77584 l 6.32483,-0.10621 -0.19591,1.73011 c -1.19107,10.51857 -3.29919,17.9842 -7.45853,26.41337 -11.17834,22.65366 -32.93361,38.14197 -57.96776,41.26919 -2.04744,0.25577 -3.84896,0.46502 -4.00338,0.46502 -0.15442,0 -0.23305,-2.83964 -0.17474,-6.31032 z"
     id="path1090" /><path
     style="fill:#000000;fill-opacity:1;stroke:#4d4d4d;stroke-width:0.999998"
     d="m 311.60253,113.45766 c -0.55307,-0.55307 -0.67321,-1.83753 -0.67321,-7.19731 0,-4.50308 0.15925,-6.68335 0.51409,-7.03819 0.38766,-0.38766 6.43841,-0.5141 24.60307,-0.5141 21.32785,0 24.16614,0.0772 24.76219,0.67322 0.55166,0.55166 0.67322,1.82364 0.67322,7.0445 0,6.09825 -0.0408,6.39986 -0.95215,7.03819 -0.83385,0.58406 -3.89051,0.66691 -24.60307,0.66691 -20.92962,0 -23.72838,-0.0775 -24.32414,-0.67322 z"
     id="path1092" /><path
     style="fill:#000000;fill-opacity:1;stroke:#4d4d4d;stroke-width:0.999998"
     d="m 78.977784,134.18912 c -2.35328,-2.74929 -2.18932,-3.66269 2.26682,-12.62797 C 92.012734,99.89682 104.871,81.96966 121.771,65.058734 153.11752,33.69194 193.3541,12.833792 237.03838,5.305545 252.10894,2.708387 253.57756,2.630423 291.07604,2.43687 l 34.76922,-0.179466 1.35092,1.207149 c 0.9677,0.864713 1.41875,1.712966 1.59003,2.990242 l 0.23911,1.783092 -33.78877,0.194148 c -36.2509,0.208295 -38.76527,0.335101 -53.2555,2.685802 -38.392,6.2282 -72.8916,22.039868 -103.29303,47.340693 -6.79226,5.652686 -19.46547,18.33117 -25.22484,25.23531 -8.3636,10.02603 -16.479016,21.67655 -22.544486,32.36489 -3.07683,5.42188 -9.61802,18.64996 -9.61802,19.45027 0,0.91062 -0.80534,0.45303 -2.32289,-1.31988 z"
     id="path1094" /><path
     style="fill:#1a1a1a;fill-opacity:1;stroke:#4d4d4d;stroke-width:1"
     d="m 398.20583,464.93186 c 0,-216.02489 0.12146,-304.39871 0.26991,-196.38626 0.14845,108.01244 0.14845,284.76008 0,392.77252 -0.14845,108.01245 -0.26991,19.63863 -0.26991,-196.38626 z"
     id="path1150" /><path
     style="fill:#1a1a1a;fill-opacity:1;stroke:#4d4d4d;stroke-width:1"
     d="m 401.44318,902.40274 c -1.48283,-2.11702 -1.64585,-43.40647 -1.64585,-416.85429 0,-373.44781 0.16302,-414.737261 1.64585,-416.854286 1.37591,-1.964385 2.64173,-2.349769 7.718,-2.349769 3.33969,0 6.64309,0.570921 7.34088,1.268713 0.96181,0.961813 1.26871,18.598983 1.26871,72.911362 0,69.01305 -0.0775,71.84973 -2.1109,77.28456 -1.161,3.10304 -3.53984,7.89508 -5.28631,10.64899 l -3.1754,5.00708 v 40.24031 c 0,37.61687 0.12902,40.42327 1.97893,43.04667 1.08842,1.5435 3.34831,5.42309 5.02199,8.6213 l 3.04306,5.81494 0.27946,141.61892 c 0.30957,156.88126 0.80443,145.17745 -6.6628,157.57802 l -3.66064,6.0791 v 40.51406 c 0,26.52506 0.37415,40.74531 1.08359,41.18376 0.59597,0.36833 2.85586,4.08361 5.02199,8.25617 l 3.9384,7.58648 0.28906,83.91411 c 0.21318,61.88506 -0.029,84.29733 -0.9224,85.37384 -0.77641,0.93553 -3.42147,1.45973 -7.36562,1.45973 -5.161,0 -6.41977,-0.37921 -7.8,-2.34977 z"
     id="path1152" /><path
     style="fill:#1a1a1a;fill-opacity:1;stroke:#4d4d4d;stroke-width:1"
     d="M 389.22472,464.93186 V 72.687962 h 4.22905 4.22904 v 392.243898 392.2439 h -4.22904 -4.22905 z"
     id="path1154" /><path
     style="fill:#00c7e7;fill-opacity:0.992157;stroke:#4d4d4d;stroke-width:1"
     d="m 409.89998,273.33293 v -38.63294 h 3.04188 c 1.74435,0 3.58682,0.88543 4.31941,2.07573 1.73761,2.82321 1.73761,70.29119 0,73.11439 -0.73259,1.19032 -2.57506,2.07573 -4.31941,2.07573 h -3.04188 z"
     id="path1156" /><path
     style="fill:#00c7e7;fill-opacity:0.992157;stroke:#4d4d4d;stroke-width:1"
     d="m 409.89998,676.164 v -38.66403 h 3.04381 c 1.74545,0 3.58909,0.88613 4.32215,2.07741 1.7387,2.82547 1.7387,70.34777 0,73.17325 -0.73306,1.19129 -2.5767,2.0774 -4.32215,2.0774 h -3.04381 z"
     id="path1158" /><path
     style="opacity:1;fill:#1a1a1a;fill-opacity:1;stroke:#4d4d4d;stroke-width:1"
     d=""
     id="path1502" /></g></svg>
